<svg width="198" height="242" viewBox="0 0 198 242" fill="none" xmlns="http://www.w3.org/2000/svg">
<g clip-path="url(#clip0_359_18370)">
<rect width="197.74" height="242" fill="white"/>
<path opacity="0.1" d="M197.741 0H0.000976562V242H197.741V0Z" fill="#87C04B"/>
<path opacity="0.25" d="M7.16548 0H0.000976562V242H7.16548V0Z" fill="#87C04B"/>
<path opacity="0.25" d="M19.0776 0H11.9131V242H19.0776V0Z" fill="#87C04B"/>
<path opacity="0.25" d="M30.9873 0H23.8228V242H30.9873V0Z" fill="#87C04B"/>
<path opacity="0.25" d="M42.8984 0H35.7339V242H42.8984V0Z" fill="#87C04B"/>
<path opacity="0.25" d="M54.8095 0H47.645V242H54.8095V0Z" fill="#87C04B"/>
<path opacity="0.25" d="M66.7211 0H59.5566V242H66.7211V0Z" fill="#87C04B"/>
<path opacity="0.25" d="M78.6323 0H71.4678V242H78.6323V0Z" fill="#87C04B"/>
<path opacity="0.25" d="M90.5439 0H83.3794V242H90.5439V0Z" fill="#87C04B"/>
<path opacity="0.25" d="M102.453 0H95.2886V242H102.453V0Z" fill="#87C04B"/>
<path opacity="0.25" d="M114.367 0H107.202V242H114.367V0Z" fill="#87C04B"/>
<path opacity="0.25" d="M126.276 0H119.111V242H126.276V0Z" fill="#87C04B"/>
<path opacity="0.25" d="M138.187 0H131.022V242H138.187V0Z" fill="#87C04B"/>
<path opacity="0.25" d="M150.099 0H142.934V242H150.099V0Z" fill="#87C04B"/>
<path opacity="0.25" d="M162.01 0H154.845V242H162.01V0Z" fill="#87C04B"/>
<path opacity="0.25" d="M173.919 0H166.754V242H173.919V0Z" fill="#87C04B"/>
<path opacity="0.25" d="M185.831 0H178.666V242H185.831V0Z" fill="#87C04B"/>
<path opacity="0.25" d="M197.742 0H190.577V242H197.742V0Z" fill="#87C04B"/>
<path opacity="0.25" d="M197.742 6.69433V0L0.00177002 0V6.69433L197.742 6.69433Z" fill="#87C04B"/>
<path opacity="0.25" d="M197.742 17.8906V11.1963L0.00177002 11.1963V17.8906L197.742 17.8906Z" fill="#87C04B"/>
<path opacity="0.25" d="M197.742 29.0903V22.396L0.00177002 22.396V29.0903L197.742 29.0903Z" fill="#87C04B"/>
<path opacity="0.25" d="M197.742 40.2866V33.5923L0.00177002 33.5923V40.2866L197.742 40.2866Z" fill="#87C04B"/>
<path opacity="0.25" d="M197.742 51.4858V44.7915L0.00177002 44.7915V51.4858L197.742 51.4858Z" fill="#87C04B"/>
<path opacity="0.25" d="M197.742 62.6821V55.9878L0.00177002 55.9878V62.6821L197.742 62.6821Z" fill="#87C04B"/>
<path opacity="0.25" d="M197.742 73.8818V67.1875L0.00177002 67.1875V73.8818L197.742 73.8818Z" fill="#87C04B"/>
<path opacity="0.25" d="M197.742 85.0781V78.3838L0.00177002 78.3838V85.0781L197.742 85.0781Z" fill="#87C04B"/>
<path opacity="0.25" d="M197.742 96.2773V89.583L0.00177002 89.583V96.2773L197.742 96.2773Z" fill="#87C04B"/>
<path opacity="0.25" d="M197.742 107.474V100.78L0.00177002 100.78V107.474L197.742 107.474Z" fill="#87C04B"/>
<path opacity="0.25" d="M197.742 118.674V111.979L0.00177002 111.979V118.674L197.742 118.674Z" fill="#87C04B"/>
<path opacity="0.25" d="M197.742 129.87V123.175L0.00177002 123.175V129.87H197.742Z" fill="#87C04B"/>
<path opacity="0.25" d="M197.742 141.066V134.372H0.00177002V141.066H197.742Z" fill="#87C04B"/>
<path opacity="0.25" d="M197.742 152.266V145.571H0.00177002V152.266H197.742Z" fill="#87C04B"/>
<path opacity="0.25" d="M197.742 163.462V156.768H0.00177002V163.462H197.742Z" fill="#87C04B"/>
<path opacity="0.25" d="M197.742 174.661V167.967H0.00177002V174.661H197.742Z" fill="#87C04B"/>
<path opacity="0.25" d="M197.742 185.858V179.164H0.00177002V185.858H197.742Z" fill="#87C04B"/>
<path opacity="0.25" d="M197.742 197.057V190.363H0.00177002V197.057H197.742Z" fill="#87C04B"/>
<path opacity="0.25" d="M197.742 208.253V201.559H0.00177002V208.253H197.742Z" fill="#87C04B"/>
<path opacity="0.25" d="M197.742 219.453V212.759H0.00177002V219.453H197.742Z" fill="#87C04B"/>
<path opacity="0.25" d="M197.742 230.649V223.955H0.00177002V230.649H197.742Z" fill="#87C04B"/>
<path opacity="0.25" d="M197.742 241.996V235.151H0.00177002V241.996H197.742Z" fill="#87C04B"/>
<rect x="19.2739" y="17.8467" width="159.192" height="207.021" rx="7.13864" fill="white"/>
<path d="M41.257 35.824H37.9565V43.9545H36.749V35.824H33.437V34.743H41.257V35.824ZM43.7028 37.2155C45.6463 37.2155 47.0608 38.6875 47.0608 40.6655C47.0608 42.6435 45.6463 44.1155 43.7028 44.1155C41.7478 44.1155 40.3333 42.6435 40.3333 40.6655C40.3333 38.6875 41.7478 37.2155 43.7028 37.2155ZM43.7028 38.262C42.3918 38.262 41.4948 39.297 41.4948 40.6655C41.4948 42.034 42.3918 43.069 43.7028 43.069C45.0023 43.069 45.8993 42.034 45.8993 40.6655C45.8993 39.297 45.0023 38.262 43.7028 38.262ZM49.0103 44.104C48.5503 44.104 48.1938 43.7475 48.1938 43.2875C48.1938 42.8275 48.5503 42.471 49.0103 42.471C49.4703 42.471 49.8153 42.8275 49.8153 43.2875C49.8153 43.7475 49.4703 44.104 49.0103 44.104ZM64.3756 38.354V39.4465H62.9956V44.196H61.8571V34.375H62.9956V38.354H64.3756ZM55.7276 42.5515H58.4646C59.3961 42.5515 60.4081 42.379 61.0061 42.103V43.138C60.4081 43.437 59.3846 43.6095 58.4416 43.6095H54.5661V34.674H55.7276V42.5515ZM65.7661 38.1815V35.962H73.0571V35.295H65.7661V34.49H74.1611V36.721H66.8701V37.3765H74.2991V38.1815H65.7661ZM65.0531 39.7225V38.8945H74.8626V39.7225H65.0531ZM65.7316 44.081V41.873H73.0801V41.2405H65.7086V40.4355H74.1841V42.632H66.8356V43.276H74.3566V44.081H65.7316ZM84.5823 42.655H88.9178V43.7245H79.1083V42.655H83.4208V40.2975H79.7523V34.7315H88.2623V40.2975H84.5823V42.655ZM80.8908 35.801V39.2395H87.1238V35.801H80.8908ZM90.7108 41.0105V37.3535H98.0938V35.755H90.7108V34.7315H99.2208V38.354H91.8378V39.987H99.3703V41.0105H90.7108ZM90.0553 43.7245V42.678H99.8648V43.7245H90.0553ZM101.704 38.1815V34.375H102.854V37.1695H110.202V38.1815H101.704ZM101.002 40.2745V39.2625H110.812V40.2745H101.002ZM101.681 44.081V41.1485H102.842V43.069H110.306V44.081H101.681ZM123.165 34.375H124.303V44.196H123.165V38.9405H119.531V37.8595H123.165V34.375ZM116.736 42.5515H119.335C120.267 42.5515 121.279 42.379 121.877 42.0915V43.138C121.279 43.437 120.255 43.6095 119.312 43.6095H115.575V34.674H116.736V42.5515ZM134.365 34.375H135.446V44.196H134.365V34.375ZM131.996 38.469V34.4325H133.065V44.0235H131.996V39.55H130.696C130.627 42.4595 129.845 43.736 128.419 43.736C126.936 43.736 126.131 42.3445 126.131 39.1705C126.131 35.9965 126.936 34.605 128.419 34.605C129.788 34.605 130.57 35.7895 130.685 38.469H131.996ZM128.419 42.701C129.236 42.701 129.615 41.5855 129.615 39.1705C129.615 36.7555 129.236 35.64 128.419 35.64C127.603 35.64 127.212 36.7555 127.212 39.1705C127.212 41.5855 127.603 42.701 128.419 42.701ZM145.3 34.375H146.393V44.196H145.3V34.375ZM142.851 38.331V34.4325H143.932V44.0235H142.851V39.412H141.091C140.597 42.011 139.113 43.5635 137.17 43.5865V42.517C138.998 42.4595 140.171 40.47 140.171 37.434V35.7665H137.17V34.7315H141.275V37.3765C141.275 37.71 141.264 38.0205 141.241 38.331H142.851ZM41.7515 63.689V60.7335H40.3025V59.7675H41.7515V58.606H40.3025V57.64H41.7515V56.375H42.8785V63.689H41.7515ZM40.2565 61.826C39.6355 62.0445 38.5085 62.194 37.0825 62.194H33.7015V61.228H34.8515V57.5825H33.736V56.6165H39.992V57.5825H38.8535V61.159C39.4285 61.09 39.9 60.998 40.2565 60.8715V61.826ZM35.944 57.5825V61.228H37.163C37.37 61.228 37.5655 61.228 37.761 61.2165V57.5825H35.944ZM35.668 65.046H43.1085V66.0695H34.518V63.0795H35.668V65.046ZM52.6065 56.375H53.745V66.196H52.6065V56.375ZM48.777 57.778C48.7655 58.9165 48.6505 59.963 48.4665 60.883L51.675 64.8505L50.778 65.529L48.133 62.1595C47.4545 64.218 46.2815 65.437 44.798 65.6095V64.4825C46.546 64.1605 47.581 61.4235 47.627 57.778H45.028V56.7315H51.2955V57.778H48.777ZM56.2395 60.1815V57.962H63.5305V57.295H56.2395V56.49H64.6345V58.721H57.3435V59.3765H64.7725V60.1815H56.2395ZM55.5265 61.7225V60.8945H65.336V61.7225H55.5265ZM56.205 66.081V63.873H63.5535V63.2405H56.182V62.4355H64.6575V64.632H57.309V65.276H64.83V66.081H56.205ZM77.9537 56.375H79.0232V66.196H77.9537V56.375ZM75.5387 58.836V56.4325H76.6082V66.0235H75.5387V62.9875H73.2157C72.5142 64.632 71.2952 65.575 69.8002 65.5865V64.517C71.6287 64.4595 72.7557 62.47 72.7557 59.434V57.7665H69.8002V56.7315H73.8597V58.836H75.5387ZM73.5607 61.9295H75.5387V59.894H73.8482C73.8137 60.63 73.7217 61.32 73.5607 61.9295ZM88.5557 66.196V56.375H89.6942V66.196H88.5557ZM80.9887 65.5865V64.5055C83.6682 64.494 85.2782 62.4125 85.2782 59.1235V57.778H80.9887V56.7315H86.4397V59.1005C86.4397 63.0335 84.3467 65.5865 80.9887 65.5865ZM96.9382 64.678H101.285V65.7245H91.4757V64.678H95.7767V62.8265H92.1312V59.2845H99.5142V57.7435H92.1312V56.7315H100.641V60.262H93.2697V61.8145H100.791V62.8265H96.9382V64.678ZM113.489 63.528V57.7895H106.129V56.72H114.685V63.528H113.489ZM105.531 65.7245V64.655H115.34V65.7245H105.531ZM126.747 58.2495H125.367V59.388H126.747V60.354H125.367V61.711H124.229V56.375H125.367V57.2835H126.747V58.2495ZM123.516 60.6875C122.918 60.952 121.745 61.1245 120.353 61.1245H116.823V56.559H117.973V60.1355H120.422C121.756 60.1355 122.883 59.9745 123.516 59.6985V60.6875ZM121.308 62.01C123.665 62.01 125.517 62.5965 125.517 64.103C125.517 65.6095 123.665 66.196 121.308 66.196C118.962 66.196 117.099 65.6095 117.099 64.103C117.099 62.5965 118.962 62.01 121.308 62.01ZM121.308 65.2415C122.987 65.2415 124.298 64.885 124.298 64.103C124.298 63.321 122.987 62.953 121.308 62.953C119.64 62.953 118.318 63.321 118.318 64.103C118.318 64.885 119.64 65.2415 121.308 65.2415ZM138.641 56.375H139.779V66.196H138.641V60.9405H135.007V59.8595H138.641V56.375ZM132.212 64.5515H134.811C135.743 64.5515 136.755 64.379 137.353 64.0915V65.138C136.755 65.437 135.731 65.6095 134.788 65.6095H131.051V56.674H132.212V64.5515ZM149.841 56.375H150.922V66.196H149.841V56.375ZM147.472 60.469V56.4325H148.541V66.0235H147.472V61.55H146.172C146.103 64.4595 145.321 65.736 143.895 65.736C142.412 65.736 141.607 64.3445 141.607 61.1705C141.607 57.9965 142.412 56.605 143.895 56.605C145.264 56.605 146.046 57.7895 146.161 60.469H147.472ZM143.895 64.701C144.712 64.701 145.091 63.5855 145.091 61.1705C145.091 58.7555 144.712 57.64 143.895 57.64C143.079 57.64 142.688 58.7555 142.688 61.1705C142.688 63.5855 143.079 64.701 143.895 64.701ZM160.776 56.375H161.869V66.196H160.776V56.375ZM158.327 60.331V56.4325H159.408V66.0235H158.327V61.412H156.567C156.073 64.011 154.589 65.5635 152.646 65.5865V64.517C154.474 64.4595 155.647 62.47 155.647 59.434V57.7665H152.646V56.7315H156.751V59.3765C156.751 59.71 156.74 60.0205 156.717 60.331H158.327ZM42.522 81.1345H43.902V82.181H42.522V84.182H41.3835V79.375H42.522V81.1345ZM39.716 79.6165V83.8255H33.9775V79.6165H39.716ZM38.589 82.8825V80.5595H35.1045V82.8825H38.589ZM35.4495 87.3215V88.1725H42.7635V89.0695H34.3225V86.4705H41.395V85.6195H34.2995V84.7225H42.522V87.3215H35.4495ZM49.4785 82.917C47.1095 82.917 45.166 82.434 45.166 81.123C45.166 79.8235 47.1095 79.3405 49.4785 79.3405C51.8475 79.3405 53.791 79.8235 53.791 81.123C53.791 82.434 51.8475 82.917 49.4785 82.917ZM49.4785 82.043C51.192 82.043 52.618 81.7785 52.618 81.123C52.618 80.479 51.192 80.203 49.4785 80.203C47.765 80.203 46.339 80.479 46.339 81.123C46.339 81.7785 47.765 82.043 49.4785 82.043ZM44.5795 84.412V83.5265H54.389V84.412H44.5795ZM45.258 89.081V86.735H52.595V86.045H45.235V85.194H53.7105V87.54H46.3735V88.23H53.883V89.081H45.258ZM64.1087 82.296C63.2577 83.5035 61.3947 84.0325 58.9452 84.0325V83.078C61.7052 83.0665 63.4647 82.388 63.4647 80.801V80.571H58.9452V79.6165H64.6032V80.617C64.6032 80.847 64.5802 81.077 64.5342 81.284H66.7422V79.375H67.8807V84.182H66.7422V82.296H64.1087ZM60.6472 88.1725H68.1222V89.0695H59.5202V86.4705H66.7537V85.6195H59.4972V84.7225H67.8807V87.3215H60.6472V88.1725ZM77.5512 86.206V80.7895H70.1797V79.72H78.7357V86.206H77.5512ZM74.4117 87.655H79.3912V88.7245H69.5817V87.655H73.2387V83.2735H74.4117V87.655ZM92.8023 79.375V84.5845H91.6638V79.375H92.8023ZM87.1213 82.3535C86.3853 83.4345 85.2238 84.1705 83.7863 84.366V83.331C85.6493 82.9975 86.8108 81.4105 86.8223 79.467L87.9608 79.536C87.9608 80.2375 87.8343 80.893 87.5813 81.491L90.6978 83.4115L90.1113 84.251L87.1213 82.3535ZM91.1693 88.161H93.0093V89.104H84.3268V88.161H86.1668V86.0795H84.4418V85.148H92.8943V86.0795H91.1693V88.161ZM87.3053 86.0795V88.161H90.0308V86.0795H87.3053ZM100.713 82.4915C100.495 83.7335 99.3793 84.573 97.7118 84.573C95.8488 84.573 94.6873 83.515 94.6873 82.0315C94.6873 80.548 95.8488 79.49 97.7118 79.49C99.3103 79.49 100.403 80.272 100.679 81.4335H102.691V79.375H103.83V84.8375H102.691V82.4915H100.713ZM95.8143 82.0315C95.8143 83.009 96.5848 83.6185 97.7118 83.6185C98.8388 83.6185 99.6093 83.009 99.6093 82.0315C99.6093 81.054 98.8388 80.4445 97.7118 80.4445C96.5848 80.4445 95.8143 81.054 95.8143 82.0315ZM104.646 88.3105L103.991 89.1385L102.059 87.563C101.449 88.46 100.564 89.012 99.5978 89.0695L97.8958 87.586C97.2863 88.46 96.4008 89.0005 95.4463 89.0695V88.0345C96.5273 87.931 97.5048 86.689 97.6198 85.1365L98.7123 85.2975C98.6663 85.815 98.5398 86.2865 98.3673 86.7235L99.9198 87.977C100.84 87.6895 101.633 86.528 101.737 85.1365L102.841 85.2975C102.795 85.8035 102.68 86.2635 102.507 86.689L104.646 88.3105ZM113.638 79.375H114.777V89.196H113.638V84.5155H111.752C111.66 87.3905 110.476 88.736 108.831 88.736C107.106 88.736 105.899 87.287 105.899 84.1705C105.899 81.054 107.106 79.605 108.831 79.605C110.407 79.605 111.557 80.824 111.729 83.446H113.638V79.375ZM108.831 87.6895C109.843 87.6895 110.614 86.666 110.614 84.1705C110.614 81.6865 109.843 80.6515 108.831 80.6515C107.808 80.6515 107.037 81.6865 107.037 84.1705C107.037 86.666 107.808 87.6895 108.831 87.6895ZM117.329 89.104C116.869 89.104 116.512 88.7475 116.512 88.2875C116.512 87.8275 116.869 87.471 117.329 87.471C117.789 87.471 118.134 87.8275 118.134 88.2875C118.134 88.7475 117.789 89.104 117.329 89.104ZM130.785 79.375H131.866V89.196H130.785V79.375ZM128.416 82.986V79.4325H129.486V89.0235H128.416V84.044H125.829V82.986H128.416ZM123.839 87.5975H125.219C126.059 87.5975 126.91 87.4595 127.508 87.218V88.2185C126.921 88.483 125.978 88.6095 125.093 88.6095H122.724V79.7085H123.839V87.5975ZM143.641 83.354V84.4465H142.261V89.196H141.123V79.375H142.261V83.354H143.641ZM133.728 80.778V79.7315H139.076V82.1005C139.076 86.0105 137.063 88.5865 133.728 88.5865V87.5055C136.396 87.494 137.914 85.4125 137.914 82.1235V80.778H133.728ZM155.454 79.375H156.592V89.196H155.454V79.375ZM151.624 80.778C151.613 81.9165 151.498 82.963 151.314 83.883L154.522 87.8505L153.625 88.529L150.98 85.1595C150.302 87.218 149.129 88.437 147.645 88.6095V87.4825C149.393 87.1605 150.428 84.4235 150.474 80.778H147.875V79.7315H154.143V80.778H151.624ZM41.5675 104.79V102.456H34.288V101.49H42.7175V104.79H41.5675ZM33.6325 106.331V105.377H43.442V106.331H33.6325ZM34.311 111.081V107.332H42.752V111.081H34.311ZM35.4495 110.15H41.625V108.263H35.4495V110.15ZM55.7952 106.642V103.675H54.4382V102.663H55.7952V101.375H56.9337V106.642H55.7952ZM53.8287 101.57V104.71H48.3547V101.57H53.8287ZM52.7362 103.859V102.421H49.4472V103.859H52.7362ZM49.7347 110.23H57.1752V111.07H48.6077V108.723H55.8182V108.022H48.5847V107.182H50.4362V106.331H47.6877V105.457H51.7472C53.0927 105.457 54.2887 105.342 54.9672 105.066V105.94C54.3462 106.216 53.1157 106.331 51.7127 106.331H51.5632V107.182H56.9337V109.528H49.7347V110.23ZM65.7218 101.352V102.927H68.3323V103.939H61.9613V102.927H64.5603V101.352H65.7218ZM72.0123 105.354V106.446H70.6323V111.196H69.4938V101.375H70.6323V105.354H72.0123ZM65.1468 104.721C66.7453 104.721 67.8723 105.917 67.8723 107.723C67.8723 109.528 66.7453 110.725 65.1468 110.725C63.5483 110.725 62.4098 109.528 62.4098 107.723C62.4098 105.917 63.5483 104.721 65.1468 104.721ZM65.1468 109.735C66.0553 109.735 66.7683 108.976 66.7683 107.723C66.7683 106.469 66.0553 105.71 65.1468 105.71C64.2268 105.71 63.5138 106.469 63.5138 107.723C63.5138 108.976 64.2268 109.735 65.1468 109.735ZM80.6593 108.206V102.789H73.2878V101.72H81.8438V108.206H80.6593ZM77.5198 109.655H82.4993V110.725H72.6898V109.655H76.3468V105.273H77.5198V109.655ZM95.9105 101.375V106.837H94.772V101.375H95.9105ZM93.0355 104.031C93.0355 105.549 91.8395 106.584 89.965 106.584C88.079 106.584 86.883 105.549 86.883 104.031C86.883 102.525 88.079 101.478 89.965 101.478C91.8395 101.478 93.0355 102.525 93.0355 104.031ZM88.0215 104.031C88.0215 105.043 88.815 105.641 89.965 105.641C91.1035 105.641 91.897 105.043 91.897 104.031C91.897 103.019 91.1035 102.421 89.965 102.421C88.815 102.421 88.0215 103.019 88.0215 104.031ZM96.704 110.311L96.0255 111.116L94.1395 109.54C93.5415 110.449 92.656 111.012 91.69 111.07L90.0225 109.597C89.413 110.46 88.539 111.001 87.596 111.07V110.035C88.677 109.931 89.6315 108.654 89.758 107.136L90.862 107.286C90.8045 107.815 90.678 108.298 90.494 108.735L92.0005 109.977C92.9205 109.689 93.691 108.516 93.7945 107.136L94.8985 107.297C94.8525 107.792 94.749 108.24 94.588 108.666L96.704 110.311ZM102.591 104.917C100.222 104.917 98.2785 104.434 98.2785 103.123C98.2785 101.823 100.222 101.34 102.591 101.34C104.96 101.34 106.903 101.823 106.903 103.123C106.903 104.434 104.96 104.917 102.591 104.917ZM102.591 104.043C104.304 104.043 105.73 103.778 105.73 103.123C105.73 102.479 104.304 102.203 102.591 102.203C100.877 102.203 99.4515 102.479 99.4515 103.123C99.4515 103.778 100.877 104.043 102.591 104.043ZM97.692 106.412V105.526H107.501V106.412H97.692ZM98.3705 111.081V108.735H105.707V108.045H98.3475V107.194H106.823V109.54H99.486V110.23H106.995V111.081H98.3705ZM116.666 101.375H117.805V111.196H116.666V101.375ZM112.837 102.778C112.825 103.916 112.71 104.963 112.526 105.883L115.735 109.85L114.838 110.529L112.193 107.159C111.514 109.218 110.341 110.437 108.858 110.61V109.482C110.606 109.16 111.641 106.423 111.687 102.778H109.088V101.731H115.355V102.778H112.837ZM121.104 109.517L120.529 112.116H119.586L119.954 109.517H121.104ZM133.472 101.375H134.61V111.196H133.472V106.515H131.586C131.494 109.39 130.309 110.736 128.665 110.736C126.94 110.736 125.732 109.287 125.732 106.17C125.732 103.054 126.94 101.605 128.665 101.605C130.24 101.605 131.39 102.824 131.563 105.446H133.472V101.375ZM128.665 109.689C129.677 109.689 130.447 108.666 130.447 106.17C130.447 103.686 129.677 102.651 128.665 102.651C127.641 102.651 126.871 103.686 126.871 106.17C126.871 108.666 127.641 109.689 128.665 109.689ZM142.602 103.79H144.488V101.375H145.615V108.7H144.488V104.779H142.602V103.79ZM139.589 107.045C139.14 107.194 138.473 107.263 137.887 107.263H136.599V101.616H139.543V102.571H137.714V106.308H138.174C138.646 106.308 139.209 106.251 139.589 106.124V107.045ZM143.269 106.987C142.786 107.194 142.142 107.263 141.452 107.263H140.014V101.616H143.016V102.571H141.13V106.308H141.682C142.245 106.308 142.809 106.239 143.269 106.044V106.987ZM138.358 110.058H145.822V111.07H137.197V108.091H138.358V110.058ZM154.345 101.352V102.927H156.956V103.939H150.585V102.927H153.184V101.352H154.345ZM160.636 105.354V106.446H159.256V111.196H158.117V101.375H159.256V105.354H160.636ZM153.77 104.721C155.369 104.721 156.496 105.917 156.496 107.723C156.496 109.528 155.369 110.725 153.77 110.725C152.172 110.725 151.033 109.528 151.033 107.723C151.033 105.917 152.172 104.721 153.77 104.721ZM153.77 109.735C154.679 109.735 155.392 108.976 155.392 107.723C155.392 106.469 154.679 105.71 153.77 105.71C152.85 105.71 152.137 106.469 152.137 107.723C152.137 108.976 152.85 109.735 153.77 109.735ZM42.913 128.929V129.929H34.3225V126.813H41.6365V125.663H34.3225V124.662H42.7635V127.779H35.4495V128.929H42.913ZM43.442 131.091V132.126H39.118V134.426H37.945V132.126H33.6325V131.091H43.442ZM45.2925 128.181V125.962H52.5835V125.295H45.2925V124.49H53.6875V126.721H46.3965V127.376H53.8255V128.181H45.2925ZM44.5795 129.722V128.894H54.389V129.722H44.5795ZM45.258 134.081V131.873H52.6065V131.24H45.235V130.435H53.7105V132.632H46.362V133.276H53.883V134.081H45.258ZM64.1087 132.655H68.4442V133.725H58.6347V132.655H62.9472V130.447H59.2787V124.662H60.4057V126.422H66.6617V124.662H67.7887V130.447H64.1087V132.655ZM60.4057 127.445V129.423H66.6617V127.445H60.4057ZM77.9422 124.375H79.0232V134.196H77.9422V129.4H76.3437V134.024H75.2627V124.432H76.3437V128.331H77.9422V124.375ZM70.9962 132.597H72.2612C73.1007 132.597 73.9517 132.448 74.5497 132.218V133.23C73.9632 133.483 73.0202 133.61 72.1347 133.61H69.8807V124.708H70.9962V132.597ZM88.4982 131.206V125.789H81.1267V124.72H89.6827V131.206H88.4982ZM85.3587 132.655H90.3382V133.725H80.5287V132.655H84.1857V128.273H85.3587V132.655ZM103.749 124.375V129.837H102.611V124.375H103.749ZM100.874 127.031C100.874 128.549 99.6783 129.584 97.8038 129.584C95.9178 129.584 94.7218 128.549 94.7218 127.031C94.7218 125.525 95.9178 124.478 97.8038 124.478C99.6783 124.478 100.874 125.525 100.874 127.031ZM95.8603 127.031C95.8603 128.043 96.6538 128.641 97.8038 128.641C98.9423 128.641 99.7358 128.043 99.7358 127.031C99.7358 126.019 98.9423 125.421 97.8038 125.421C96.6538 125.421 95.8603 126.019 95.8603 127.031ZM104.543 133.311L103.864 134.116L101.978 132.54C101.38 133.449 100.495 134.012 99.5288 134.07L97.8613 132.597C97.2518 133.46 96.3778 134.001 95.4348 134.07V133.035C96.5158 132.931 97.4703 131.654 97.5968 130.136L98.7008 130.286C98.6433 130.815 98.5168 131.298 98.3328 131.735L99.8393 132.977C100.759 132.689 101.53 131.516 101.633 130.136L102.737 130.297C102.691 130.792 102.588 131.24 102.427 131.666L104.543 133.311ZM110.43 127.917C108.061 127.917 106.117 127.434 106.117 126.123C106.117 124.823 108.061 124.34 110.43 124.34C112.799 124.34 114.742 124.823 114.742 126.123C114.742 127.434 112.799 127.917 110.43 127.917ZM110.43 127.043C112.143 127.043 113.569 126.778 113.569 126.123C113.569 125.479 112.143 125.203 110.43 125.203C108.716 125.203 107.29 125.479 107.29 126.123C107.29 126.778 108.716 127.043 110.43 127.043ZM105.531 129.412V128.526H115.34V129.412H105.531ZM106.209 134.081V131.735H113.546V131.045H106.186V130.194H114.662V132.54H107.325V133.23H114.834V134.081H106.209ZM124.505 124.375H125.643V134.196H124.505V124.375ZM120.675 125.778C120.664 126.916 120.549 127.963 120.365 128.883L123.573 132.85L122.676 133.529L120.031 130.159C119.353 132.218 118.18 133.437 116.696 133.61V132.482C118.444 132.16 119.479 129.423 119.525 125.778H116.926V124.731H123.194V125.778H120.675ZM138.48 127.664V125.456H131.166V124.49H139.63V127.664H138.48ZM140.343 129.113H136.007V130.389C138.089 130.47 139.745 131.033 139.745 132.287C139.745 133.667 137.778 134.208 135.432 134.208C133.086 134.208 131.12 133.667 131.12 132.287C131.12 130.987 132.776 130.47 134.857 130.389V129.113H130.533V128.158H140.343V129.113ZM138.549 132.287C138.549 131.597 137.019 131.286 135.432 131.286C133.845 131.286 132.316 131.562 132.316 132.287C132.316 132.988 133.845 133.299 135.432 133.299C137.019 133.299 138.549 132.988 138.549 132.287ZM149.415 127.79V125.456H142.136V124.49H150.565V127.79H149.415ZM141.48 129.331V128.377H151.29V129.331H141.48ZM142.159 134.081V130.332H150.6V134.081H142.159ZM143.297 133.15H149.473V131.263H143.297V133.15ZM155.394 124.352V125.904H157.453V126.928H152.209V125.904H154.267V124.352H155.394ZM160.811 124.375H161.869V134.196H160.811V129.4H159.235V134.024H158.177V124.432H159.235V128.331H160.811V124.375ZM154.877 127.698C156.199 127.698 157.165 128.756 157.165 130.711C157.165 132.666 156.199 133.725 154.877 133.725C153.566 133.725 152.6 132.666 152.6 130.711C152.6 128.756 153.566 127.698 154.877 127.698ZM154.877 132.724C155.59 132.724 156.119 131.999 156.119 130.711C156.119 129.423 155.59 128.699 154.877 128.699C154.175 128.699 153.658 129.423 153.658 130.711C153.658 131.999 154.175 132.724 154.877 132.724ZM41.6595 146.375H42.798V156.196H41.6595V146.375ZM37.83 147.778C37.8185 148.916 37.7035 149.963 37.5195 150.883L40.728 154.85L39.831 155.529L37.186 152.159C36.5075 154.218 35.3345 155.437 33.851 155.61V154.482C35.599 154.16 36.634 151.423 36.68 147.778H34.081V146.731H40.3485V147.778H37.83ZM52.687 146.375H53.8255V156.196H52.687V151.435H49.053V150.365H52.687V146.375ZM46.2585 154.574H48.8575C49.789 154.574 50.801 154.39 51.399 154.114V155.15C50.801 155.437 49.743 155.61 48.8 155.61H45.097V146.731H50.801V147.766H46.2585V154.574ZM65.796 150.354V151.446H64.416V156.196H63.2775V146.375H64.416V150.354H65.796ZM57.1135 154.563H59.885C60.8165 154.563 61.8285 154.39 62.4265 154.103V155.138C61.8285 155.437 60.805 155.61 59.862 155.61H55.9865V150.572H60.276V147.778H55.9635V146.731H61.4145V151.619H57.1135V154.563ZM74.443 153.206V147.789H67.0715V146.72H75.6275V153.206H74.443ZM71.3035 154.655H76.283V155.725H66.4735V154.655H70.1305V150.273H71.3035V154.655ZM78.2715 156.104C77.8115 156.104 77.455 155.748 77.455 155.288C77.455 154.827 77.8115 154.471 78.2715 154.471C78.7315 154.471 79.0765 154.827 79.0765 155.288C79.0765 155.748 78.7315 156.104 78.2715 156.104ZM91.3943 156.196V146.375H92.5443V156.196H91.3943ZM86.7598 155.736C85.0118 155.736 83.7813 154.287 83.7813 151.17C83.7813 148.054 85.0118 146.605 86.7598 146.605C88.4963 146.605 89.7268 148.054 89.7268 151.17C89.7268 154.287 88.4963 155.736 86.7598 155.736ZM86.7598 154.689C87.7833 154.689 88.5883 153.666 88.5883 151.17C88.5883 148.686 87.7833 147.651 86.7598 147.651C85.7133 147.651 84.9198 148.686 84.9198 151.17C84.9198 153.666 85.7133 154.689 86.7598 154.689ZM105.541 153.689V150.733H104.092V149.767H105.541V148.606H104.092V147.64H105.541V146.375H106.668V153.689H105.541ZM104.046 151.826C103.425 152.045 102.298 152.194 100.872 152.194H97.4915V151.228H98.6415V147.582H97.526V146.616H103.782V147.582H102.643V151.159C103.218 151.09 103.69 150.998 104.046 150.871V151.826ZM99.734 147.582V151.228H100.953C101.16 151.228 101.355 151.228 101.551 151.216V147.582H99.734ZM99.458 155.046H106.898V156.07H98.308V153.079H99.458V155.046ZM116.396 146.375H117.535V156.196H116.396V146.375ZM112.567 147.778C112.555 148.916 112.44 149.963 112.256 150.883L115.465 154.85L114.568 155.529L111.923 152.159C111.244 154.218 110.071 155.437 108.588 155.61V154.482C110.336 154.16 111.371 151.423 111.417 147.778H108.818V146.731H115.085V147.778H112.567ZM129.586 150.354V151.446H128.206V156.196H127.067V146.375H128.206V150.354H129.586ZM119.673 147.778V146.731H125.02V149.1C125.02 153.01 123.008 155.587 119.673 155.587V154.505C122.341 154.494 123.859 152.412 123.859 149.123V147.778H119.673ZM141.732 146.375H142.813V156.196H141.732V146.375ZM139.363 149.986V146.432H140.433V156.024H139.363V151.044H136.776V149.986H139.363ZM134.786 154.597H136.166C137.006 154.597 137.857 154.459 138.455 154.218V155.219C137.868 155.483 136.925 155.61 136.04 155.61H133.671V146.708H134.786V154.597ZM155.454 151.182V146.375H156.592V151.182H155.454ZM150.658 151.055C148.841 151.055 147.611 150.101 147.611 148.767C147.611 147.433 148.841 146.478 150.658 146.478C152.475 146.478 153.694 147.433 153.694 148.767C153.694 150.101 152.475 151.055 150.658 151.055ZM150.658 150.135C151.785 150.135 152.567 149.595 152.567 148.767C152.567 147.939 151.785 147.398 150.658 147.398C149.531 147.398 148.738 147.939 148.738 148.767C148.738 149.595 149.531 150.135 150.658 150.135ZM148.393 156.07V153.47H155.465V152.619H148.37V151.722H156.592V154.321H149.52V155.173H156.834V156.07H148.393ZM42.522 171.249H43.902V172.33H42.522V174.803H41.3835V169.375H42.522V171.249ZM36.979 172.457C36.266 173.607 35.116 174.412 33.6555 174.607V173.572C35.5185 173.239 36.611 171.537 36.634 169.467L37.7725 169.536C37.7725 170.26 37.646 170.939 37.416 171.56L40.4635 173.538L39.877 174.377L36.979 172.457ZM38.4625 175.125C40.82 175.125 42.6715 175.688 42.6715 177.16C42.6715 178.633 40.82 179.196 38.4625 179.196C36.1165 179.196 34.2535 178.633 34.2535 177.16C34.2535 175.688 36.1165 175.125 38.4625 175.125ZM38.4625 178.253C40.1415 178.253 41.4525 177.919 41.4525 177.16C41.4525 176.413 40.1415 176.068 38.4625 176.068C36.795 176.068 35.4725 176.413 35.4725 177.16C35.4725 177.919 36.795 178.253 38.4625 178.253ZM52.4947 171.433C51.4137 172.595 49.7002 173.308 48.0442 173.342V172.353C49.9417 172.296 52.0577 171.077 52.4372 169.145L53.5757 169.329C53.4837 169.8 53.3112 170.249 53.0812 170.651L57.1982 172.514L56.7727 173.388L52.4947 171.433ZM53.1502 174.274H57.4972V175.217H47.6877V174.274H52.0232V172.779H53.1502V174.274ZM48.2857 177.126V176.183H56.8072V179.208H55.6572V177.126H48.2857ZM66.9952 169.375H68.0762V179.196H66.9952V169.375ZM64.6262 173.469V169.432H65.6957V179.024H64.6262V174.55H63.3267C63.2577 177.459 62.4757 178.736 61.0497 178.736C59.5662 178.736 58.7612 177.344 58.7612 174.17C58.7612 170.996 59.5662 169.605 61.0497 169.605C62.4182 169.605 63.2002 170.789 63.3152 173.469H64.6262ZM61.0497 177.701C61.8662 177.701 62.2457 176.585 62.2457 174.17C62.2457 171.755 61.8662 170.64 61.0497 170.64C60.2332 170.64 59.8422 171.755 59.8422 174.17C59.8422 176.585 60.2332 177.701 61.0497 177.701ZM82.9593 171.249V172.33H81.5793V174.711H80.4408V169.375H81.5793V171.249H82.9593ZM76.0938 172.606C75.4268 173.653 74.2768 174.354 72.8278 174.492V173.469C74.4378 173.25 75.4498 172.146 75.5993 170.605H72.9543V169.628H79.2218V170.605H76.7378C76.7148 170.985 76.6458 171.353 76.5308 171.698L79.5438 173.549L78.9803 174.4L76.0938 172.606ZM73.3683 179.07V175.251H81.5793V179.07H73.3683ZM74.5068 176.217V178.115H80.4408V176.217H74.5068ZM92.5838 171.709H93.9063V172.802H92.5838V176.666H91.4683V169.375H92.5838V171.709ZM86.6958 170.996C86.6958 173.216 85.4653 174.826 83.7748 174.918V173.917C84.8098 173.825 85.5918 172.744 85.5918 171.203V170.582H83.7748V169.616H86.6958V170.996ZM90.1688 171.031C90.1688 173.538 88.7198 175.067 86.9603 175.136V174.147C88.0183 174.067 89.0648 173.009 89.0648 171.249V170.582H87.1558V169.616H90.1688V171.031ZM85.4768 175.941V178.035H92.8253V179.07H84.3153V175.941H85.4768ZM102.611 179.196V169.375H103.761V179.196H102.611ZM97.9763 178.736C96.2283 178.736 94.9978 177.287 94.9978 174.17C94.9978 171.054 96.2283 169.605 97.9763 169.605C99.7128 169.605 100.943 171.054 100.943 174.17C100.943 177.287 99.7128 178.736 97.9763 178.736ZM97.9763 177.689C98.9998 177.689 99.8048 176.666 99.8048 174.17C99.8048 171.686 98.9998 170.651 97.9763 170.651C96.9298 170.651 96.1363 171.686 96.1363 174.17C96.1363 176.666 96.9298 177.689 97.9763 177.689ZM115.8 173.354V174.446H114.42V179.196H113.282V169.375H114.42V173.354H115.8ZM107.118 177.563H109.889C110.821 177.563 111.833 177.39 112.431 177.103V178.138C111.833 178.437 110.809 178.61 109.866 178.61H105.991V173.572H110.28V170.778H105.968V169.731H111.419V174.619H107.118V177.563ZM121.952 177.666H126.287V178.725H116.478V177.666H120.79V175.286H117.122V169.731H125.643V170.789H118.283V174.228H125.758V175.286H121.952V177.666ZM140.803 173.354V174.446H139.492V179.196H138.376V169.375H139.492V173.354H140.803ZM131.994 177.574H132.465C132.902 177.574 133.477 177.517 133.868 177.356V178.368C133.408 178.529 132.707 178.61 132.132 178.61H130.878V169.731H133.822V170.766H131.994V177.574ZM135.409 177.574H135.938C136.479 177.574 137.088 177.482 137.548 177.252V178.288C137.054 178.506 136.398 178.61 135.72 178.61H134.294V169.731H137.295V170.766H135.409V177.574ZM146.034 172.238V173.17H142.101V169.49H146.057V170.421H143.228V172.238H146.034ZM150.703 172.238V173.17H146.621V169.49H150.588V170.421H147.748V172.238H150.703ZM141.48 174.159H151.29V175.102H141.48V174.159ZM147.219 175.884C147.138 176.229 147.012 176.551 146.851 176.838L150.968 178.207L150.6 179.185L146.23 177.609C145.195 178.587 143.55 179.07 141.963 179.07V178.069C143.861 178.069 145.735 177.218 146.08 175.7L147.219 175.884ZM159.063 170.306V171.238H152.393V170.306H155.153V169.202H156.303V170.306H159.063ZM161.317 172.066H162.697V173.158H161.317V176.735H160.178V169.375H161.317V172.066ZM155.728 175.815C154.095 175.815 152.818 175.09 152.818 173.802C152.818 172.514 154.095 171.79 155.728 171.79C157.361 171.79 158.626 172.514 158.626 173.802C158.626 175.09 157.361 175.815 155.728 175.815ZM155.728 172.664C154.624 172.664 153.922 173.147 153.922 173.802C153.922 174.469 154.624 174.941 155.728 174.941C156.832 174.941 157.533 174.469 157.533 173.802C157.533 173.147 156.832 172.664 155.728 172.664ZM154.256 176.378V178.058H161.581V179.07H153.106V176.378H154.256ZM38.428 193.479C37.347 194.71 35.645 195.48 33.989 195.515V194.514C35.8865 194.445 38.0025 193.088 38.382 191.145L39.5205 191.329C39.4285 191.812 39.256 192.272 39.003 192.697L43.1775 194.71L42.729 195.572L38.428 193.479ZM33.644 196.389H43.4535V197.355H39.1065V199.068H37.9565V197.355H33.644V196.389ZM35.4725 198.286V200.104H42.936V201.081H34.311V198.286H35.4725ZM53.469 193.709H54.849V194.802H53.469V198.666H52.3305V191.375H53.469V193.709ZM50.4905 192.95C50.4905 195.745 48.202 197.125 44.8325 197.125V196.101C47.581 196.09 49.3405 195.043 49.3405 193.088V192.617H44.8325V191.616H50.4905V192.95ZM46.408 197.976V200.035H53.7335V201.07H45.258V197.976H46.408ZM63.5535 201.196V191.375H64.7035V201.196H63.5535ZM58.919 200.736C57.171 200.736 55.9405 199.287 55.9405 196.17C55.9405 193.054 57.171 191.605 58.919 191.605C60.6555 191.605 61.886 193.054 61.886 196.17C61.886 199.287 60.6555 200.736 58.919 200.736ZM58.919 199.689C59.9425 199.689 60.7475 198.666 60.7475 196.17C60.7475 193.686 59.9425 192.651 58.919 192.651C57.8725 192.651 57.079 193.686 57.079 196.17C57.079 198.666 57.8725 199.689 58.919 199.689ZM77.6317 191.375H78.7702V201.196H77.6317V191.375ZM73.5262 199.54H73.5952C74.9177 199.54 76.1137 199.425 76.8152 199.126V200.196C76.1137 200.483 74.9522 200.61 73.6067 200.61H69.5817V199.54H72.3877V197.033H70.1567V191.754H75.8607V192.801H71.2837V195.986H75.9757V197.033H73.5262V199.54ZM88.6362 191.375H89.7747V201.196H88.6362V196.515H86.7502C86.6582 199.39 85.4737 200.736 83.8292 200.736C82.1042 200.736 80.8967 199.287 80.8967 196.17C80.8967 193.054 82.1042 191.605 83.8292 191.605C85.4047 191.605 86.5547 192.824 86.7272 195.446H88.6362V191.375ZM83.8292 199.689C84.8412 199.689 85.6117 198.666 85.6117 196.17C85.6117 193.686 84.8412 192.651 83.8292 192.651C82.8057 192.651 82.0352 193.686 82.0352 196.17C82.0352 198.666 82.8057 199.689 83.8292 199.689ZM99.5832 197.516V193.548H98.0192V192.571H99.5832V191.375H100.722V197.516H99.5832ZM97.6282 195.285L94.6382 194.089C93.9942 194.721 93.0397 195.181 91.7977 195.296V194.388C93.2812 194.193 94.1092 193.364 94.3737 192.49H91.9127V191.593H97.7432V192.49H95.5352C95.4777 192.789 95.3627 193.077 95.2132 193.364L97.9847 194.434L97.6282 195.285ZM101.504 200.276L100.917 201.104L98.9162 199.735C98.2952 200.506 97.3867 201.012 96.4092 201.07L94.6497 199.781C94.0172 200.518 93.1202 201.012 92.1657 201.07V200.058C93.1777 199.988 94.1322 199.126 94.3622 197.999H93.9827V196.86H91.4757V195.963H95.5352C96.8807 195.963 98.0767 195.871 98.7552 195.572V196.469C98.1342 196.745 96.9037 196.86 95.5007 196.86H95.0982V197.792L95.4892 197.838C95.4432 198.24 95.3282 198.62 95.1672 198.976L96.6967 200.023C97.6627 199.804 98.5137 198.861 98.6287 197.7L99.6982 197.849C99.6522 198.229 99.5602 198.585 99.4107 198.93L101.504 200.276ZM107.322 197.815C104.642 197.815 102.906 196.584 102.906 194.698C102.906 192.812 104.642 191.582 107.322 191.582C110.001 191.582 111.738 192.812 111.738 194.698C111.738 196.584 110.001 197.815 107.322 197.815ZM107.322 196.78C109.254 196.78 110.542 195.94 110.542 194.698C110.542 193.456 109.254 192.617 107.322 192.617C105.39 192.617 104.102 193.456 104.102 194.698C104.102 195.94 105.39 196.78 107.322 196.78ZM102.423 200.725V199.655H112.232V200.725H102.423ZM121.489 198.677V195.871H119.879V194.859H121.489V193.479H119.879V192.467H121.489V191.375H122.616V198.677H121.489ZM119.304 191.616V196.929H113.784V191.616H119.304ZM118.177 195.94V192.605H114.899V195.94H118.177ZM115.417 200.046H122.823V201.07H114.255V197.884H115.417V200.046ZM136.556 194.779L132.117 193.583C131.105 194.307 129.483 194.698 127.931 194.733V193.847C129.564 193.801 131.427 193.307 131.875 192.364H128.092V191.49H136.556V192.364H133.048C132.991 192.548 132.91 192.72 132.807 192.881L136.832 193.928L136.556 194.779ZM132.887 195.411H137.234V196.285H127.425V195.411H131.76V194.468H132.887V195.411ZM132.899 196.676V197.297H136.705V198.16H127.931V197.297H131.749V196.676H132.899ZM132.312 198.631C134.969 198.631 136.257 199.057 136.257 199.942C136.257 200.828 134.969 201.254 132.312 201.254C129.667 201.254 128.379 200.828 128.379 199.942C128.379 199.057 129.667 198.631 132.312 198.631ZM132.312 200.449C134.06 200.449 135.107 200.276 135.107 199.942C135.107 199.609 134.06 199.436 132.312 199.436C130.576 199.436 129.529 199.609 129.529 199.942C129.529 200.276 130.576 200.449 132.312 200.449ZM147.813 191.375V197.01H146.721V191.375H147.813ZM142.604 194.491C142.063 196.021 140.499 196.803 138.59 196.814V195.825C140.442 195.814 141.718 194.928 141.718 193.238V192.582H138.59V191.616H142.822V193.192C142.822 193.272 142.822 193.353 142.811 193.433H144.294V191.432H145.375V196.906H144.294V194.491H142.604ZM148.503 200.288L147.848 201.127L145.893 199.609C145.249 200.483 144.306 201.001 143.305 201.07L141.58 199.666C140.936 200.495 140.005 201.001 139.027 201.07V200.035C140.131 199.931 141.224 198.804 141.362 197.274L142.454 197.435C142.397 197.953 142.27 198.413 142.086 198.838L143.604 199.977C144.593 199.724 145.479 198.666 145.605 197.274L146.709 197.435C146.652 197.918 146.537 198.367 146.376 198.758L148.503 200.288ZM159.588 195.354V196.446H158.208V201.196H157.07V191.375H158.208V195.354H159.588ZM150.94 199.574H153.677C154.609 199.574 155.621 199.39 156.219 199.103V200.138C155.621 200.437 154.563 200.61 153.62 200.61H149.779V191.731H155.448V192.766H150.94V199.574ZM161.117 201.104C160.657 201.104 160.3 200.748 160.3 200.288C160.3 199.827 160.657 199.471 161.117 199.471C161.577 199.471 161.922 199.827 161.922 200.288C161.922 200.748 161.577 201.104 161.117 201.104Z" fill="black"/>
</g>
<defs>
<clipPath id="clip0_359_18370">
<rect width="197.74" height="242" fill="white"/>
</clipPath>
</defs>
</svg>
