<svg width="198" height="242" viewBox="0 0 198 242" fill="none" xmlns="http://www.w3.org/2000/svg">
<g clip-path="url(#clip0_359_18268)">
<rect width="197.74" height="242" fill="white"/>
<path opacity="0.1" d="M197.741 0H0.000976562V242H197.741V0Z" fill="#87C04B"/>
<path opacity="0.25" d="M7.16548 0H0.000976562V242H7.16548V0Z" fill="#87C04B"/>
<path opacity="0.25" d="M19.0776 0H11.9131V242H19.0776V0Z" fill="#87C04B"/>
<path opacity="0.25" d="M30.9873 0H23.8228V242H30.9873V0Z" fill="#87C04B"/>
<path opacity="0.25" d="M42.8984 0H35.7339V242H42.8984V0Z" fill="#87C04B"/>
<path opacity="0.25" d="M54.8095 0H47.645V242H54.8095V0Z" fill="#87C04B"/>
<path opacity="0.25" d="M66.7211 0H59.5566V242H66.7211V0Z" fill="#87C04B"/>
<path opacity="0.25" d="M78.6323 0H71.4678V242H78.6323V0Z" fill="#87C04B"/>
<path opacity="0.25" d="M90.5439 0H83.3794V242H90.5439V0Z" fill="#87C04B"/>
<path opacity="0.25" d="M102.453 0H95.2886V242H102.453V0Z" fill="#87C04B"/>
<path opacity="0.25" d="M114.367 0H107.202V242H114.367V0Z" fill="#87C04B"/>
<path opacity="0.25" d="M126.276 0H119.111V242H126.276V0Z" fill="#87C04B"/>
<path opacity="0.25" d="M138.187 0H131.022V242H138.187V0Z" fill="#87C04B"/>
<path opacity="0.25" d="M150.099 0H142.934V242H150.099V0Z" fill="#87C04B"/>
<path opacity="0.25" d="M162.01 0H154.845V242H162.01V0Z" fill="#87C04B"/>
<path opacity="0.25" d="M173.919 0H166.754V242H173.919V0Z" fill="#87C04B"/>
<path opacity="0.25" d="M185.831 0H178.666V242H185.831V0Z" fill="#87C04B"/>
<path opacity="0.25" d="M197.742 0H190.577V242H197.742V0Z" fill="#87C04B"/>
<path opacity="0.25" d="M197.742 6.69433V0L0.00177002 0V6.69433L197.742 6.69433Z" fill="#87C04B"/>
<path opacity="0.25" d="M197.742 17.8906V11.1963L0.00177002 11.1963V17.8906L197.742 17.8906Z" fill="#87C04B"/>
<path opacity="0.25" d="M197.742 29.0903V22.396L0.00177002 22.396V29.0903L197.742 29.0903Z" fill="#87C04B"/>
<path opacity="0.25" d="M197.742 40.2866V33.5923L0.00177002 33.5923V40.2866L197.742 40.2866Z" fill="#87C04B"/>
<path opacity="0.25" d="M197.742 51.4858V44.7915L0.00177002 44.7915V51.4858L197.742 51.4858Z" fill="#87C04B"/>
<path opacity="0.25" d="M197.742 62.6821V55.9878L0.00177002 55.9878V62.6821L197.742 62.6821Z" fill="#87C04B"/>
<path opacity="0.25" d="M197.742 73.8818V67.1875L0.00177002 67.1875V73.8818L197.742 73.8818Z" fill="#87C04B"/>
<path opacity="0.25" d="M197.742 85.0781V78.3838L0.00177002 78.3838V85.0781L197.742 85.0781Z" fill="#87C04B"/>
<path opacity="0.25" d="M197.742 96.2773V89.583L0.00177002 89.583V96.2773L197.742 96.2773Z" fill="#87C04B"/>
<path opacity="0.25" d="M197.742 107.474V100.78L0.00177002 100.78V107.474L197.742 107.474Z" fill="#87C04B"/>
<path opacity="0.25" d="M197.742 118.674V111.979L0.00177002 111.979V118.674L197.742 118.674Z" fill="#87C04B"/>
<path opacity="0.25" d="M197.742 129.87V123.175L0.00177002 123.175V129.87H197.742Z" fill="#87C04B"/>
<path opacity="0.25" d="M197.742 141.066V134.372H0.00177002V141.066H197.742Z" fill="#87C04B"/>
<path opacity="0.25" d="M197.742 152.266V145.571H0.00177002V152.266H197.742Z" fill="#87C04B"/>
<path opacity="0.25" d="M197.742 163.462V156.768H0.00177002V163.462H197.742Z" fill="#87C04B"/>
<path opacity="0.25" d="M197.742 174.661V167.967H0.00177002V174.661H197.742Z" fill="#87C04B"/>
<path opacity="0.25" d="M197.742 185.858V179.164H0.00177002V185.858H197.742Z" fill="#87C04B"/>
<path opacity="0.25" d="M197.742 197.057V190.363H0.00177002V197.057H197.742Z" fill="#87C04B"/>
<path opacity="0.25" d="M197.742 208.253V201.559H0.00177002V208.253H197.742Z" fill="#87C04B"/>
<path opacity="0.25" d="M197.742 219.453V212.759H0.00177002V219.453H197.742Z" fill="#87C04B"/>
<path opacity="0.25" d="M197.742 230.649V223.955H0.00177002V230.649H197.742Z" fill="#87C04B"/>
<path opacity="0.25" d="M197.742 241.996V235.151H0.00177002V241.996H197.742Z" fill="#87C04B"/>
<rect x="19.2739" y="17.8467" width="159.192" height="207.021" rx="7.13864" fill="white"/>
<path d="M33.4724 36.4503V35.5138H39.8619V36.4503H37.2017V44H36.1409V36.4503H33.4724ZM42.6962 44.1326C40.9642 44.1326 39.7957 42.8232 39.7957 40.8508C39.7957 38.8619 40.9642 37.5525 42.6962 37.5525C44.4283 37.5525 45.5885 38.8619 45.5885 40.8508C45.5885 42.8232 44.4283 44.1326 42.6962 44.1326ZM40.8067 40.8508C40.8067 42.1188 41.4034 43.2376 42.6962 43.2376C43.9808 43.2376 44.5774 42.1188 44.5774 40.8508C44.5774 39.5829 43.9808 38.4475 42.6962 38.4475C41.4034 38.4475 40.8067 39.5829 40.8067 40.8508ZM47.5036 44.0663C47.0892 44.0663 46.7412 43.7265 46.7495 43.3122C46.7412 42.8978 47.0892 42.558 47.5036 42.558C47.918 42.558 48.2578 42.8978 48.2578 43.3122C48.2578 43.7265 47.918 44.0663 47.5036 44.0663ZM61.9624 38.6961V39.4669H60.2718V44.9448H59.3519V34.5359H60.2718V38.6961H61.9624ZM52.6392 42.3011V35.5635H53.5508V41.5304C55.0757 41.5262 56.6337 41.4061 58.3492 41.0497L58.4652 41.837C56.6668 42.1934 55.0508 42.3011 53.4679 42.3011H52.6392ZM71.9815 39.3757V40.0967H62.4428V39.3757H71.9815ZM63.5947 41.6215V40.9337H70.7881V43.1464H64.5312V44.1409H71.1279V44.8122H63.6113V42.5083H69.8765V41.6215H63.5947ZM63.6527 35.5138V34.8508H70.755V37.0055H64.5975V37.9171H70.9373V38.5884H63.6859V36.3757H69.8351V35.5138H63.6527ZM85.1409 42.8398V43.6105H75.6022V42.8398H79.8867V40.2956H76.7293V35.4061H83.9558V40.2956H80.7983V42.8398H85.1409ZM77.6243 39.558H83.0607V36.1519H77.6243V39.558ZM95.392 42.8646V43.6354H85.8533V42.8646H95.392ZM87.0218 36.0939V35.3315H94.1903V38.4807H87.9583V40.1878H94.4306V40.9337H87.0466V37.7265H93.2787V36.0939H87.0218ZM104.524 37.6934V38.4392H97.3972V34.9171H98.3088V37.6934H104.524ZM96.0878 40.6022V39.8564H105.626V40.6022H96.0878ZM97.3309 44.6961V41.663H98.2425V43.9337H104.591V44.6961H97.3309ZM117.891 34.5359V44.9696H116.971V38.7376H113.722V37.9751H116.971V34.5359H117.891ZM109.819 42.442V35.7044H110.747V41.663C112.338 41.6506 113.755 41.5635 115.322 41.2486L115.438 42.011C113.772 42.3508 112.305 42.442 110.623 42.442H109.819ZM128.424 34.5359V44.953H127.537V34.5359H128.424ZM119.631 39.0276C119.631 36.8149 120.509 35.4144 121.86 35.4144C123.128 35.4144 123.986 36.6326 124.102 38.5967H125.449V34.7597H126.335V44.4227H125.449V39.3591H124.106C124.015 41.3895 123.149 42.6575 121.86 42.6492C120.509 42.6575 119.631 41.2486 119.631 39.0276ZM120.493 39.0276C120.484 40.7182 121.023 41.7873 121.86 41.779C122.714 41.7873 123.252 40.7182 123.252 39.0276C123.252 37.337 122.714 36.2762 121.86 36.2762C121.023 36.2762 120.484 37.337 120.493 39.0276ZM138.667 34.5359V44.953H137.788V34.5359H138.667ZM129.758 42.0359C132.02 40.6934 133.155 38.8122 133.329 36.6326H130.205V35.8619H134.249C134.245 36.8895 134.084 37.884 133.727 38.8122H135.6V34.8177H136.479V44.4227H135.6V39.558H133.387C132.758 40.768 131.751 41.8412 130.296 42.6989L129.758 42.0359ZM42.058 56.5359V64.2928H41.1381V61.268H39.3481V60.4889H41.1381V59.2873H39.3481V58.5249H41.1381V56.5359H42.058ZM33.4475 61.9227C33.8619 61.9227 34.3135 61.9185 34.7901 61.9102V58.1354H33.7376V57.3812H39.2652V58.1354H38.2044V61.7901C38.6892 61.7569 39.1616 61.7155 39.6133 61.6657L39.6547 62.3536C37.6326 62.6685 35.2541 62.7017 33.5635 62.7099L33.4475 61.9227ZM35.3453 66.721V63.6464H36.2735V65.9586H42.3398V66.721H35.3453ZM35.6851 61.8936C36.2196 61.8854 36.7707 61.8646 37.3177 61.8398V58.1354H35.6851V61.8936ZM47.403 59.7348C47.403 61.5 48.6876 63.2983 50.2207 63.9613L49.7069 64.6906C48.4887 64.1354 47.4403 62.9378 46.9514 61.5C46.4624 63.0249 45.4099 64.3508 44.2207 64.9475L43.6737 64.2182C45.1655 63.5055 46.4666 61.5331 46.4749 59.7348V58.3757H44.0135V57.605H49.8809V58.3757H47.403V59.7348ZM51.3395 66.953V56.5359H52.2594V66.953H51.3395ZM63.4469 61.3757V62.0967H53.9083V61.3757H63.4469ZM55.0602 63.6215V62.9337H62.2536V65.1464H55.9967V66.1409H62.5933V66.8122H55.0768V64.5083H61.342V63.6215H55.0602ZM55.1182 57.5138V56.8508H62.2204V59.0055H56.063V59.9171H62.4027V60.5884H55.1514V58.3757H61.3005V57.5138H55.1182ZM75.9848 56.5359V66.953H75.1063V56.5359H75.9848ZM67.0594 64.0359C69.3218 62.6934 70.4572 60.8122 70.6395 58.6326H67.5235V57.8619H71.5511C71.5511 58.3964 71.5055 58.9227 71.4102 59.4365H72.9931V56.8177H73.8798V66.4227H72.9931V62.8094H71.0621V62.047H72.9931V60.1989H71.232C70.7223 61.9641 69.5828 63.5221 67.6146 64.6989L67.0594 64.0359ZM85.9292 56.5359V66.953H85.0094V56.5359H85.9292ZM77.4513 64.2431C80.269 62.9088 81.7069 60.9033 81.9099 58.4171H77.932V57.6713H82.8464C82.8381 60.663 81.4458 63.3149 77.9486 64.9972L77.4513 64.2431ZM97.1085 64.8812V65.6602H87.5698V64.8812H91.8544V62.9171H88.7632V59.7017H94.9953V58.0691H88.7383V57.3066H95.9069V60.4558H89.6748V62.1547H96.1472V62.9171H92.766V64.8812H97.1085ZM108.925 57.6464V58.6906C108.925 60 108.925 61.4834 108.536 63.7459L107.599 63.6547C108.022 61.5249 108.022 59.9669 108.022 58.6906V58.4088H101.749V57.6464H108.925ZM100.713 65.4199V64.6492H110.21V65.4199H100.713ZM120.66 58.1188V58.8895H119.11V60.3315H120.66V61.1105H119.11V62.7431H118.19V56.5359H119.11V58.1188H120.66ZM111.469 61.7983V57.174H112.397V61.0193C113.881 61.0152 115.41 60.9033 117.096 60.5635L117.212 61.3177C115.439 61.674 113.864 61.7983 112.298 61.7983H111.469ZM112.306 64.9061C112.306 63.6547 113.657 62.8674 115.762 62.8757C117.859 62.8674 119.201 63.6547 119.201 64.9061C119.201 66.174 117.859 66.9365 115.762 66.9448C113.657 66.9365 112.306 66.174 112.306 64.9061ZM113.21 64.9061C113.201 65.6934 114.204 66.1906 115.762 66.1989C117.295 66.1906 118.306 65.6934 118.306 64.9061C118.306 64.1105 117.295 63.6298 115.762 63.6298C114.204 63.6298 113.201 64.1105 113.21 64.9061ZM132.75 56.5359V66.9696H131.83V60.7376H128.582V59.9751H131.83V56.5359H132.75ZM124.678 64.442V57.7044H125.607V63.663C127.198 63.6506 128.615 63.5635 130.181 63.2486L130.297 64.011C128.631 64.3508 127.165 64.442 125.482 64.442H124.678ZM143.283 56.5359V66.953H142.396V56.5359H143.283ZM134.49 61.0276C134.49 58.8149 135.369 57.4144 136.72 57.4144C137.987 57.4144 138.845 58.6326 138.961 60.5967H140.308V56.7597H141.195V66.4227H140.308V61.3591H138.965C138.874 63.3895 138.008 64.6575 136.72 64.6492C135.369 64.6575 134.49 63.2486 134.49 61.0276ZM135.352 61.0276C135.344 62.7182 135.883 63.7873 136.72 63.779C137.573 63.7873 138.112 62.7182 138.112 61.0276C138.112 59.337 137.573 58.2762 136.72 58.2762C135.883 58.2762 135.344 59.337 135.352 61.0276ZM153.526 56.5359V66.953H152.647V56.5359H153.526ZM144.617 64.0359C146.879 62.6934 148.015 60.8122 148.189 58.6326H145.065V57.8619H149.109C149.105 58.8895 148.943 59.884 148.587 60.8122H150.46V56.8177H151.338V66.4227H150.46V61.558H148.247C147.617 62.768 146.61 63.8412 145.156 64.6989L144.617 64.0359ZM41.5691 79.5359V81.7983H43.1354V82.5691H41.5691V84.8398H40.6492V79.5359H41.5691ZM33.8702 84.2928V80.1326H38.6851V84.2928H33.8702ZM34.7652 83.5552H37.7901V80.8785H34.7652V83.5552ZM34.9227 86.0746V85.337H41.5691V87.8729H35.8508V89.0663H41.9503V89.8122H34.9475V87.1768H40.6575V86.0746H34.9227ZM48.4141 79.7182C50.7345 79.7182 52.0936 80.3564 52.0936 81.5166C52.0936 82.6934 50.7345 83.3315 48.4141 83.3398C46.0936 83.3315 44.7262 82.6934 44.7262 81.5166C44.7262 80.3564 46.0936 79.7182 48.4141 79.7182ZM43.6737 84.7901V84.0442H53.171V84.7901H43.6737ZM44.8257 86.3978V85.6934H51.9445V88.0221H45.7539V89.1077H52.2594V89.837H44.8505V87.3425H51.0411V86.3978H44.8257ZM45.6876 81.5166C45.6793 82.2376 46.6903 82.6354 48.4141 82.6354C50.1461 82.6354 51.1572 82.2376 51.1572 81.5166C51.1572 80.8287 50.1461 80.4144 48.4141 80.4144C46.6903 80.4144 45.6793 80.8287 45.6876 81.5166ZM65.4519 79.5359V84.8812H64.532V82.8094H62.2199V82.0552H64.532V79.5359H65.4519ZM56.9823 84.3508C59.4726 83.7459 60.9685 82.4862 61.155 80.8122H57.521V80.0497H62.137C62.137 82.6354 60.3055 84.3508 57.3055 85.105L56.9823 84.3508ZM58.6978 86.0829V85.337H65.4519V87.8729H59.6342V89.0994H65.8083V89.8536H58.7226V87.1685H64.532V86.0829H58.6978ZM75.4212 80.5884V81.6243C75.413 82.9088 75.413 84.3343 75.0317 86.4309L74.1036 86.3232C74.4931 84.3343 74.4931 82.8757 74.5014 81.6243V81.3508H68.0787V80.5884H75.4212ZM67.0677 88.4779V87.7072H70.7886V83.9862H71.7002V87.7072H76.5649V88.4779H67.0677ZM88.8127 79.5442V85.3287H87.8928V79.5442H88.8127ZM80.285 84.384C81.8513 83.837 82.9618 82.4613 82.9618 80.9448V79.9254H83.8983V80.9448C83.89 82.395 85.0171 83.6878 86.5668 84.1934L86.111 84.9227C84.8845 84.5041 83.9107 83.634 83.4384 82.511C82.9743 83.7127 81.9964 84.6657 80.7491 85.1133L80.285 84.384ZM81.7768 89.8122V89.058H83.3348V86.7044H81.8762V85.9503H88.879V86.7044H87.437V89.058H88.9867V89.8122H81.7768ZM84.2464 89.058H86.5254V86.7044H84.2464V89.058ZM94.05 86.5138C94.0417 87.4503 94.5389 88.4323 95.5334 89.0041C96.532 88.3785 97.0417 87.3218 97.05 86.5138V85.884H97.945V86.5138C97.945 87.5912 98.724 88.6768 100.083 89.1243L99.6024 89.8204C98.5665 89.4434 97.8414 88.7141 97.485 87.8356C97.1577 88.6851 96.5237 89.489 95.55 89.9033C94.5513 89.518 93.9049 88.7514 93.59 87.8729C93.2171 88.7099 92.5002 89.4392 91.5058 89.8204L91.05 89.1243C92.3676 88.6519 93.1549 87.5249 93.1632 86.5138V85.884H94.05V86.5138ZM90.6356 82.5691C90.6356 81.1354 91.771 80.1243 93.329 80.1326C94.7005 80.1243 95.7737 80.9448 95.9768 82.1547H98.177V79.5359H99.0969V85.4862H98.177V82.9171H95.9892C95.811 84.1644 94.7254 85.0055 93.329 85.0055C91.771 85.0055 90.6356 84.0028 90.6356 82.5691ZM91.5223 82.5691C91.514 83.5304 92.2848 84.2348 93.329 84.2431C94.3566 84.2348 95.1273 83.5304 95.1273 82.5691C95.1273 81.5994 94.3566 80.9033 93.329 80.9116C92.2848 80.9033 91.514 81.5994 91.5223 82.5691ZM103.514 80.3398C104.931 80.3481 105.954 81.5663 106.099 83.5138H108.436V79.5359H109.348V89.9696H108.436V84.2762H106.108C106.008 86.3191 104.968 87.5994 103.514 87.5994C101.972 87.5994 100.895 86.1906 100.903 83.9696C100.895 81.7569 101.972 80.3481 103.514 80.3398ZM101.782 83.9696C101.782 85.6685 102.486 86.779 103.514 86.779C104.533 86.779 105.246 85.6685 105.246 83.9696C105.246 82.279 104.533 81.1685 103.514 81.1602C102.486 81.1685 101.782 82.279 101.782 83.9696ZM112.066 89.0663C111.652 89.0663 111.304 88.7265 111.312 88.3122C111.304 87.8978 111.652 87.558 112.066 87.558C112.48 87.558 112.82 87.8978 112.82 88.3122C112.82 88.7265 112.48 89.0663 112.066 89.0663ZM118.204 80.663V86.5055C119.327 86.4972 120.396 86.4268 121.644 86.1657L121.776 86.9613C120.384 87.2514 119.215 87.3094 117.947 87.3094H117.284V80.663H118.204ZM120.202 83.8039V83.0414H122.58V79.7928H123.458V89.4227H122.58V83.8039H120.202ZM124.809 89.953V79.5359H125.688V89.953H124.809ZM135.085 79.5359V83.7707H136.776V84.5497H135.085V89.9448H134.165V79.5359H135.085ZM127.088 87.2431C129.781 85.9047 131.248 83.8992 131.455 81.4254H127.577V80.6547H132.392C132.384 83.605 131 86.2901 127.602 87.9641L127.088 87.2431ZM143.894 82.7348C143.894 84.5 145.178 86.2983 146.711 86.9613L146.198 87.6906C144.979 87.1354 143.931 85.9378 143.442 84.5C142.953 86.0249 141.901 87.3508 140.711 87.9475L140.165 87.2182C141.656 86.5055 142.957 84.5331 142.966 82.7348V81.3757H140.504V80.605H146.372V81.3757H143.894V82.7348ZM147.83 89.953V79.5359H148.75V89.953H147.83ZM158.703 80.0912V80.8619C158.703 81.674 158.703 82.6271 158.421 83.9282H159.954V84.6906H150.416V83.9282H157.497C157.791 82.6188 157.791 81.6782 157.791 80.8619V80.8536H151.626V80.0912H158.703ZM151.592 89.8122V86.1243H158.744V89.8122H151.592ZM152.496 89.058H157.833V86.8536H152.496V89.058ZM42.0083 101.544V107.685H41.0801V107.097H38.9751V106.475H41.0801V101.544H42.0083ZM33.3812 105.472C35.4033 105.481 37.9807 105.456 40.2348 105.207L40.2928 105.812C39.2735 105.953 38.2127 106.04 37.1768 106.094V107.693H36.2735V106.127C35.2873 106.16 34.3425 106.164 33.4972 106.16L33.3812 105.472ZM34.3757 104.644V101.859H39.2486V104.644H34.3757ZM34.9807 108.721V108.058H42.0083V110.221H35.9254V111.149H42.3564V111.837H35.0221V109.591H41.0967V108.721H34.9807ZM35.2956 103.972H38.3453V102.53H35.2956V103.972ZM54.629 101.536V105.829H56.3693V106.599H54.629V111.953H53.7174V101.536H54.629ZM46.5075 103.972V103.21H49.1842V101.66H50.1041V103.21H52.7063V103.972H46.5075ZM47.1041 107.229C47.0959 105.82 48.1732 104.834 49.6566 104.834C51.1318 104.834 52.2008 105.82 52.2091 107.229C52.2008 108.638 51.1318 109.616 49.6566 109.616C48.1732 109.616 47.0959 108.638 47.1041 107.229ZM47.9826 107.229C47.9743 108.174 48.687 108.845 49.6566 108.837C50.618 108.845 51.3224 108.174 51.3307 107.229C51.3224 106.285 50.618 105.605 49.6566 105.605C48.687 105.605 47.9743 106.285 47.9826 107.229ZM65.1701 102.588V103.624C65.1619 104.909 65.1619 106.334 64.7806 108.431L63.8525 108.323C64.242 106.334 64.242 104.876 64.2503 103.624V103.351H57.8276V102.588H65.1701ZM56.8166 110.478V109.707H60.5376V105.986H61.4492V109.707H66.3138V110.478H56.8166ZM73.4815 108.522C73.4815 109.446 73.9829 110.428 74.969 110.992C75.9635 110.378 76.4898 109.33 76.4898 108.522V107.95H77.3931V108.522C77.3848 109.599 78.1721 110.669 79.5146 111.124L79.0505 111.804C78.0105 111.439 77.2812 110.71 76.9207 109.836C76.5975 110.685 75.9635 111.485 74.998 111.895C73.9829 111.506 73.3406 110.743 73.0298 109.869C72.6527 110.71 71.9359 111.431 70.9373 111.804L70.4732 111.124C71.7909 110.635 72.5864 109.525 72.5947 108.522V107.95H73.4815V108.522ZM70.1997 104.586C70.1997 103.135 71.3516 102.149 72.9345 102.149C74.5174 102.149 75.661 103.135 75.661 104.586C75.661 106.019 74.5174 107.006 72.9345 107.006C71.3516 107.006 70.1997 106.019 70.1997 104.586ZM71.103 104.586C71.0947 105.555 71.8654 106.235 72.9345 106.243C73.9953 106.235 74.766 105.555 74.766 104.586C74.766 103.616 73.9953 102.928 72.9345 102.936C71.8654 102.928 71.0947 103.616 71.103 104.586ZM77.6417 107.494V101.544H78.5616V107.494H77.6417ZM84.9508 101.718C87.2712 101.718 88.6304 102.356 88.6304 103.517C88.6304 104.693 87.2712 105.331 84.9508 105.34C82.6304 105.331 81.2629 104.693 81.2629 103.517C81.2629 102.356 82.6304 101.718 84.9508 101.718ZM80.2105 106.79V106.044H89.7077V106.79H80.2105ZM81.3624 108.398V107.693H88.4812V110.022H82.2906V111.108H88.7961V111.837H81.3873V109.343H87.5779V108.398H81.3624ZM82.2243 103.517C82.216 104.238 83.227 104.635 84.9508 104.635C86.6828 104.635 87.6939 104.238 87.6939 103.517C87.6939 102.829 86.6828 102.414 84.9508 102.414C83.227 102.414 82.216 102.829 82.2243 103.517ZM94.1908 104.735C94.1908 106.5 95.4754 108.298 97.0085 108.961L96.4947 109.691C95.2765 109.135 94.2281 107.938 93.7392 106.5C93.2502 108.025 92.1977 109.351 91.0085 109.948L90.4616 109.218C91.9533 108.506 93.2544 106.533 93.2627 104.735V103.376H90.8013V102.605H96.6687V103.376H94.1908V104.735ZM98.1273 111.953V101.536H99.0472V111.953H98.1273ZM102.42 110.204L101.517 113.395H100.646L101.293 110.204H102.42ZM109.368 102.34C110.785 102.348 111.808 103.566 111.953 105.514H114.29V101.536H115.202V111.97H114.29V106.276H111.961C111.862 108.319 110.822 109.599 109.368 109.599C107.826 109.599 106.749 108.191 106.757 105.97C106.749 103.757 107.826 102.348 109.368 102.34ZM107.635 105.97C107.635 107.669 108.34 108.779 109.368 108.779C110.387 108.779 111.1 107.669 111.1 105.97C111.1 104.279 110.387 103.169 109.368 103.16C108.34 103.169 107.635 104.279 107.635 105.97ZM125.826 110.959V111.721H118.574V108.489H119.494V110.959H125.826ZM117.108 107.428V102.398H119.751V103.16H118.011V106.678C118.545 106.662 119.175 106.608 119.867 106.45L119.958 107.213C118.989 107.428 118.218 107.428 117.555 107.428H117.108ZM120.323 107.428V102.398H123.224V103.16H121.243V106.682C122.134 106.67 122.826 106.62 123.621 106.434L123.721 107.196C122.751 107.403 121.98 107.428 120.845 107.428H120.323ZM122.718 105.174V104.412H124.649V101.544H125.552V109.119H124.649V105.174H122.718ZM138.024 101.536V105.829H139.764V106.599H138.024V111.953H137.112V101.536H138.024ZM129.902 103.972V103.21H132.579V101.66H133.499V103.21H136.101V103.972H129.902ZM130.499 107.229C130.491 105.82 131.568 104.834 133.051 104.834C134.527 104.834 135.596 105.82 135.604 107.229C135.596 108.638 134.527 109.616 133.051 109.616C131.568 109.616 130.491 108.638 130.499 107.229ZM131.377 107.229C131.369 108.174 132.082 108.845 133.051 108.837C134.013 108.845 134.717 108.174 134.726 107.229C134.717 106.285 134.013 105.605 133.051 105.605C132.082 105.605 131.369 106.285 131.377 107.229ZM148.582 101.959V104.66H142.3V106.011H148.805V106.773H141.372V103.939H147.645V102.704H141.347V101.959H148.582ZM140.195 108.613V107.867H149.734V108.613H145.408V111.97H144.488V108.613H140.195ZM159.985 106.376V107.097H150.446V106.376H159.985ZM151.598 108.622V107.934H158.791V110.146H152.534V111.141H159.131V111.812H151.614V109.508H157.88V108.622H151.598ZM151.656 102.514V101.851H158.758V104.006H152.601V104.917H158.94V105.588H151.689V103.376H157.838V102.514H151.656ZM42.9613 132.848V133.619H33.4227V132.848H37.7072V130.602H34.5497V125.273H35.4696V127.155H40.8812V125.273H41.7928V130.602H38.6188V132.848H42.9613ZM35.4696 129.848H40.8812V127.909H35.4696V129.848ZM52.566 124.536V134.953H51.671V129.558H50.1627V134.406H49.2925V124.768H50.1627V128.779H51.671V124.536H52.566ZM44.1958 132.251V125.804H45.1157V131.431C46.1434 131.427 47.258 131.352 48.5301 131.099L48.6378 131.912C47.1876 132.177 45.9942 132.251 44.8505 132.251H44.1958ZM62.2784 125.588V126.624C62.2701 127.909 62.2701 129.334 61.8889 131.431L60.9608 131.323C61.3503 129.334 61.3503 127.876 61.3585 126.624V126.351H54.9359V125.588H62.2784ZM53.9248 133.478V132.707H57.6458V128.986H58.5574V132.707H63.4221V133.478H53.9248ZM70.5898 131.522C70.5898 132.446 71.0911 133.428 72.0773 133.992C73.0718 133.378 73.598 132.33 73.598 131.522V130.95H74.5014V131.522C74.4931 132.599 75.2804 133.669 76.6229 134.124L76.1588 134.804C75.1188 134.439 74.3895 133.71 74.029 132.836C73.7058 133.685 73.0718 134.485 72.1063 134.895C71.0911 134.506 70.4489 133.743 70.1381 132.869C69.761 133.71 69.0442 134.431 68.0456 134.804L67.5815 134.124C68.8991 133.635 69.6947 132.525 69.703 131.522V130.95H70.5898V131.522ZM67.308 127.586C67.308 126.135 68.4599 125.149 70.0428 125.149C71.6257 125.149 72.7693 126.135 72.7693 127.586C72.7693 129.019 71.6257 130.006 70.0428 130.006C68.4599 130.006 67.308 129.019 67.308 127.586ZM68.2113 127.586C68.203 128.555 68.9737 129.235 70.0428 129.243C71.1036 129.235 71.8743 128.555 71.8743 127.586C71.8743 126.616 71.1036 125.928 70.0428 125.936C68.9737 125.928 68.203 126.616 68.2113 127.586ZM74.75 130.494V124.544H75.6699V130.494H74.75ZM82.0591 124.718C84.3795 124.718 85.7386 125.356 85.7386 126.517C85.7386 127.693 84.3795 128.331 82.0591 128.34C79.7386 128.331 78.3712 127.693 78.3712 126.517C78.3712 125.356 79.7386 124.718 82.0591 124.718ZM77.3187 129.79V129.044H86.816V129.79H77.3187ZM78.4707 131.398V130.693H85.5895V133.022H79.3989V134.108H85.9044V134.837H78.4955V132.343H84.6862V131.398H78.4707ZM79.3326 126.517C79.3243 127.238 80.3353 127.635 82.0591 127.635C83.7911 127.635 84.8022 127.238 84.8022 126.517C84.8022 125.829 83.7911 125.414 82.0591 125.414C80.3353 125.414 79.3243 125.829 79.3326 126.517ZM91.2991 127.735C91.2991 129.5 92.5837 131.298 94.1168 131.961L93.603 132.691C92.3848 132.135 91.3364 130.938 90.8475 129.5C90.3585 131.025 89.306 132.351 88.1168 132.948L87.5698 132.218C89.0616 131.506 90.3627 129.533 90.3709 127.735V126.376H87.9096V125.605H93.777V126.376H91.2991V127.735ZM95.2356 134.953V124.536H96.1555V134.953H95.2356ZM109 124.992V125.729C109 126.512 109 127.47 108.731 128.713H110.251V129.467H105.909V131.099C107.898 131.191 109.083 131.87 109.091 133.006C109.083 134.24 107.715 134.928 105.453 134.928C103.174 134.928 101.807 134.24 101.807 133.006C101.807 131.87 102.992 131.191 104.997 131.099V129.467H100.713V128.713H107.811C108.088 127.445 108.088 126.533 108.088 125.738H101.923V124.992H109ZM102.735 133.006C102.726 133.751 103.754 134.182 105.453 134.182C107.127 134.182 108.155 133.751 108.163 133.006C108.155 132.268 107.127 131.845 105.453 131.837C103.754 131.845 102.726 132.268 102.735 133.006ZM119.251 125.091V125.862C119.251 126.674 119.251 127.627 118.969 128.928H120.502V129.691H110.964V128.928H118.045C118.339 127.619 118.339 126.678 118.339 125.862V125.854H112.174V125.091H119.251ZM112.141 134.812V131.124H119.292V134.812H112.141ZM113.044 134.058H118.381V131.854H113.044V134.058ZM126.419 126.334V127.088H121.19V126.334H123.353V124.851H124.273V126.334H126.419ZM121.571 130.155C121.563 128.771 122.508 127.793 123.809 127.793C125.118 127.793 126.055 128.771 126.063 130.155C126.055 131.555 125.118 132.541 123.809 132.541C122.508 132.541 121.563 131.555 121.571 130.155ZM122.383 130.155C122.383 131.083 122.98 131.746 123.809 131.738C124.637 131.746 125.242 131.083 125.242 130.155C125.242 129.243 124.637 128.572 123.809 128.564C122.98 128.572 122.383 129.243 122.383 130.155ZM126.958 134.439V124.785H127.828V128.928H129.212V124.536H130.091V134.953H129.212V129.691H127.828V134.439H126.958ZM135.195 127.735C135.195 129.5 136.48 131.298 138.013 131.961L137.499 132.691C136.281 132.135 135.233 130.938 134.744 129.5C134.255 131.025 133.202 132.351 132.013 132.948L131.466 132.218C132.958 131.506 134.259 129.533 134.267 127.735V126.376H131.806V125.605H137.673V126.376H135.195V127.735ZM139.132 134.953V124.536H140.052V134.953H139.132ZM147.021 125.53V126.301H143.167V131.613C145.044 131.609 146.283 131.551 147.734 131.273L147.841 132.036C146.308 132.326 145.04 132.392 143.043 132.392H142.239V125.53H147.021ZM146.399 129.094V128.323H149.441V124.536H150.361V134.97H149.441V129.094H146.399ZM160.032 124.536V128.68H161.772V129.459H160.032V134.97H159.12V124.536H160.032ZM152.374 126.268V125.506H157.115V129.235H153.311V131.671C155.246 131.671 156.597 131.601 158.184 131.307L158.275 132.069C156.634 132.367 155.242 132.442 153.228 132.45H152.399V128.472H156.195V126.268H152.374ZM41.7762 147.588V148.624C41.768 149.909 41.768 151.334 41.3867 153.431L40.4586 153.323C40.8481 151.334 40.8481 149.876 40.8564 148.624V148.351H34.4337V147.588H41.7762ZM33.4227 155.478V154.707H37.1436V150.986H38.0552V154.707H42.9199V155.478H33.4227ZM44.776 156.066C44.3616 156.066 44.0135 155.727 44.0218 155.312C44.0135 154.898 44.3616 154.558 44.776 154.558C45.1903 154.558 45.5301 154.898 45.5301 155.312C45.5301 155.727 45.1903 156.066 44.776 156.066ZM58.0663 146.536V156.97H57.1464V146.536H58.0663ZM49.8701 150.97C49.8701 148.757 50.9723 147.348 52.5303 147.34C54.0718 147.348 55.1906 148.757 55.1906 150.97C55.1906 153.191 54.0718 154.599 52.5303 154.599C50.9723 154.599 49.8701 153.191 49.8701 150.97ZM50.7569 150.97C50.7569 152.669 51.4861 153.779 52.5303 153.779C53.5745 153.779 54.2955 152.669 54.2955 150.97C54.2955 149.279 53.5745 148.169 52.5303 148.16C51.4861 148.169 50.7569 149.279 50.7569 150.97ZM71.2588 146.536V154.293H70.3389V151.268H68.5488V150.489H70.3389V149.287H68.5488V148.525H70.3389V146.536H71.2588ZM62.6483 151.923C63.0627 151.923 63.5143 151.919 63.9908 151.91V148.135H62.9383V147.381H68.466V148.135H67.4052V151.79C67.89 151.757 68.3624 151.715 68.814 151.666L68.8555 152.354C66.8334 152.669 64.4549 152.702 62.7643 152.71L62.6483 151.923ZM64.5461 156.721V153.646H65.4743V155.959H71.5406V156.721H64.5461ZM64.8859 151.894C65.4204 151.885 65.9715 151.865 66.5185 151.84V148.135H64.8859V151.894ZM76.6038 149.735C76.6038 151.5 77.8883 153.298 79.4215 153.961L78.9077 154.691C77.6894 154.135 76.6411 152.938 76.1522 151.5C75.6632 153.025 74.6107 154.351 73.4215 154.948L72.8745 154.218C74.3662 153.506 75.6673 151.533 75.6756 149.735V148.376H73.2143V147.605H79.0817V148.376H76.6038V149.735ZM80.5403 156.953V146.536H81.4602V156.953H80.5403ZM91.1892 146.536V150.771H92.8798V151.55H91.1892V156.945H90.2693V146.536H91.1892ZM83.1919 154.243C85.8853 152.905 87.3521 150.899 87.5593 148.425H83.6809V147.655H88.4958C88.4875 150.605 87.1035 153.29 83.7057 154.964L83.1919 154.243ZM97.7021 147.663V153.506C98.8251 153.497 99.8941 153.427 101.141 153.166L101.274 153.961C99.8817 154.251 98.7132 154.309 97.4452 154.309H96.7822V147.663H97.7021ZM99.6994 150.804V150.041H102.078V146.793H102.956V156.423H102.078V150.804H99.6994ZM104.307 156.953V146.536H105.186V156.953H104.307ZM112.362 146.917C113.92 146.925 115.055 147.87 115.063 149.229C115.055 150.588 113.92 151.525 112.362 151.525C110.787 151.525 109.652 150.588 109.652 149.229C109.652 147.87 110.787 146.925 112.362 146.917ZM110.555 149.229C110.547 150.141 111.317 150.771 112.362 150.771C113.397 150.771 114.168 150.141 114.168 149.229C114.168 148.326 113.397 147.688 112.362 147.696C111.317 147.688 110.547 148.326 110.555 149.229ZM111.234 153.133V152.387H118.013V154.898H112.163V156.066H118.386V156.812H111.268V154.202H117.102V153.133H111.234ZM117.094 151.881V146.536H118.013V151.881H117.094ZM123.143 148.218C123.143 149.635 124.22 150.936 125.729 151.45L125.231 152.18C124.079 151.757 123.168 150.895 122.716 149.809C122.269 151.04 121.336 152.001 120.118 152.47L119.621 151.732C121.187 151.152 122.231 149.76 122.24 148.152V147.075H123.143V148.218ZM121.013 155.03C121.013 153.837 122.323 153.141 124.469 153.141C126.607 153.141 127.9 153.837 127.9 155.03C127.9 156.24 126.607 156.928 124.469 156.928C122.323 156.928 121.013 156.24 121.013 155.03ZM121.933 155.03C121.925 155.768 122.894 156.191 124.469 156.199C126.044 156.191 127.005 155.768 127.005 155.03C127.005 154.318 126.044 153.878 124.469 153.878C122.894 153.878 121.925 154.318 121.933 155.03ZM126.889 152.876V146.536H127.809V149.254H129.375V150.025H127.809V152.876H126.889ZM142.327 151.773V152.536H132.805V151.773H137.098V150.166H138.001V151.773H142.327ZM133.377 149.983C135.217 149.735 137.081 148.575 137.081 147.182V146.693H138.01V147.182C138.01 148.575 139.882 149.735 141.722 149.983L141.349 150.721C139.771 150.452 138.204 149.615 137.55 148.417C136.895 149.623 135.324 150.448 133.725 150.721L133.377 149.983ZM133.858 154.293V153.555H141.126V156.953H140.197V154.293H133.858ZM151.982 146.536V156.953H151.095V146.536H151.982ZM143.189 151.028C143.189 148.815 144.067 147.414 145.418 147.414C146.686 147.414 147.544 148.633 147.66 150.597H149.007V146.76H149.893V156.423H149.007V151.359H147.664C147.573 153.39 146.707 154.657 145.418 154.649C144.067 154.657 143.189 153.249 143.189 151.028ZM144.051 151.028C144.042 152.718 144.581 153.787 145.418 153.779C146.272 153.787 146.81 152.718 146.81 151.028C146.81 149.337 146.272 148.276 145.418 148.276C144.581 148.276 144.042 149.337 144.051 151.028ZM36.9448 171.417C36.9365 172.801 37.9641 174.044 39.5138 174.558L39.0497 175.296C37.8605 174.885 36.9489 174.04 36.4972 172.979C36.0456 174.16 35.0884 175.093 33.8536 175.544L33.3729 174.798C34.9475 174.26 36.0166 172.925 36.0249 171.425V171.019H33.6547V170.265H39.2735V171.019H36.9448V171.417ZM34.989 179.812V176.149H41.5691V179.812H34.989ZM35.8923 179.058H40.6575V176.887H35.8923V179.058ZM40.6492 175.677V169.536H41.5691V172.138H43.1354V172.909H41.5691V175.677H40.6492ZM46.7815 170.423C46.7732 172.528 46.1102 174.218 44.3367 175.586L43.7152 174.989C45.1199 173.965 45.7663 172.789 45.8947 171.193H44.0052V170.423H46.7815ZM45.2483 179.721V176.547H46.1599V178.959H52.2345V179.721H45.2483ZM46.6655 175.486C48.1323 174.309 48.7207 172.888 48.8367 171.193H47.1876V170.423H49.7235C49.7152 172.586 49.1682 174.517 47.2953 176.066L46.6655 175.486ZM50.9003 177.169V169.528H51.8202V172.843H53.3865V173.63H51.8202V177.169H50.9003ZM62.5105 169.536V179.97H61.5906V169.536H62.5105ZM54.3143 173.97C54.3143 171.757 55.4166 170.348 56.9746 170.34C58.516 170.348 59.6348 171.757 59.6348 173.97C59.6348 176.191 58.516 177.599 56.9746 177.599C55.4166 177.599 54.3143 176.191 54.3143 173.97ZM55.2011 173.97C55.2011 175.669 55.9304 176.779 56.9746 176.779C58.0188 176.779 58.7398 175.669 58.7398 173.97C58.7398 172.279 58.0188 171.169 56.9746 171.16C55.9304 171.169 55.2011 172.279 55.2011 173.97ZM72.2395 169.536V173.68H73.9798V174.459H72.2395V179.97H71.3279V169.536H72.2395ZM64.582 171.268V170.506H69.3223V174.235H65.5185V176.671C67.4536 176.671 68.8044 176.601 70.3914 176.307L70.4826 177.069C68.8417 177.367 67.4494 177.442 65.4356 177.45H64.6069V173.472H68.4025V171.268H64.582ZM82.8386 174.417V175.163H79.6232V177.865H83.9657V178.635H74.427V177.865H78.7116V175.163H75.6453V170.381H82.7392V171.135H76.5651V174.417H82.8386ZM95.8074 169.519V173.63H97.3323V174.417H95.8074V179.953H94.8875V169.519H95.8074ZM87.8848 177.218V170.63H90.5367V171.392H88.8046V176.439C89.3226 176.427 89.9483 176.373 90.6444 176.224L90.7356 176.994C89.7494 177.202 88.9621 177.218 88.3406 177.218H87.8848ZM91.1334 177.218V170.63H93.9096V171.392H92.045V176.443C92.8613 176.435 93.516 176.385 94.2494 176.199L94.3406 176.97C93.429 177.193 92.6914 177.218 91.6306 177.218H91.1334ZM107.318 174.541V175.304H97.8209V174.541H107.318ZM98.5668 179.174C100.456 178.909 102.105 177.873 102.105 176.472V176.133H103.042V176.472C103.042 177.873 104.691 178.909 106.589 179.174L106.233 179.903C104.65 179.642 103.199 178.896 102.578 177.753C101.952 178.896 100.506 179.642 98.9231 179.903L98.5668 179.174ZM98.716 173.572V170.05H102.28V170.796H99.6441V172.826C100.543 172.814 101.434 172.747 102.429 172.519L102.528 173.282C101.351 173.539 100.357 173.572 99.3044 173.572H98.716ZM102.876 173.572V170.05H106.398V170.796H103.796V172.826H106.489V173.572H102.876ZM116.218 169.544V172.975H117.785V173.754H116.218V177.351H115.299V169.544H116.218ZM108.097 171.575V170.82H110.749V169.544H111.66V170.82H114.304V171.575H108.097ZM108.694 174.094C108.685 172.909 109.696 172.146 111.205 172.146C112.688 172.146 113.699 172.909 113.707 174.094C113.699 175.262 112.688 176.017 111.205 176.017C109.696 176.017 108.685 175.262 108.694 174.094ZM109.572 174.094C109.564 174.823 110.218 175.296 111.205 175.287C112.174 175.296 112.829 174.823 112.837 174.094C112.829 173.348 112.174 172.867 111.205 172.867C110.218 172.867 109.564 173.348 109.572 174.094ZM109.696 179.721V176.721H110.608V178.959H116.699V179.721H109.696ZM126.436 170.323C126.436 171.691 128.334 172.934 130.14 173.207L129.776 173.936C128.193 173.667 126.626 172.785 125.972 171.57C125.317 172.809 123.742 173.68 122.151 173.953L121.787 173.224C123.61 172.942 125.491 171.732 125.491 170.323V169.801H126.436V170.323ZM121.198 175.602V174.84H130.737V175.602H126.494V177.732H125.582V175.602H121.198ZM122.425 179.721V176.713H123.345V178.959H129.676V179.721H122.425ZM139.612 169.536V172.702H141.179V173.481H139.612V177.16H138.684V169.536H139.612ZM131.483 175.213C133.981 174.434 135.601 172.954 135.796 171.11H131.913V170.34H136.795C136.795 173.025 134.88 175.014 131.88 175.95L131.483 175.213ZM133.082 179.721V176.381H134.002V178.959H140.085V179.721H133.082ZM150.303 169.536V179.97H149.383V169.536H150.303ZM142.107 173.97C142.107 171.757 143.209 170.348 144.767 170.34C146.308 170.348 147.427 171.757 147.427 173.97C147.427 176.191 146.308 177.599 144.767 177.599C143.209 177.599 142.107 176.191 142.107 173.97ZM142.993 173.97C142.993 175.669 143.723 176.779 144.767 176.779C145.811 176.779 146.532 175.669 146.532 173.97C146.532 172.279 145.811 171.169 144.767 171.16C143.723 171.169 142.993 172.279 142.993 173.97ZM39.6298 196.036V196.798H37.3508V198.845C38.3702 198.8 39.3936 198.733 40.3591 198.622L40.4337 199.309C38.1215 199.649 35.6022 199.691 33.605 199.691L33.4807 198.912C34.3881 198.912 35.395 198.903 36.4309 198.874V196.798H34.2762V192.53H39.5884V193.276H35.1796V196.036H39.6298ZM41.047 201.97V191.536H41.9669V201.97H41.047ZM46.4749 192.34C47.892 192.348 48.9155 193.566 49.0605 195.514H51.3975V191.536H52.3091V201.97H51.3975V196.276H49.0688C48.9693 198.319 47.9293 199.599 46.4749 199.599C44.9334 199.599 43.8561 198.191 43.8644 195.97C43.8561 193.757 44.9334 192.348 46.4749 192.34ZM44.7428 195.97C44.7428 197.669 45.4472 198.779 46.4749 198.779C47.4942 198.779 48.2069 197.669 48.2069 195.97C48.2069 194.279 47.4942 193.169 46.4749 193.16C45.4472 193.169 44.7428 194.279 44.7428 195.97ZM57.7784 192.804C57.7784 193.583 58.8889 194.246 60.3724 194.428L60.0491 195.116C58.8102 194.921 57.8116 194.424 57.3433 193.724C56.8958 194.507 55.8806 195.079 54.5878 195.315L54.2563 194.627C55.7646 194.387 56.8503 193.649 56.8503 192.804H54.5795V192.075H60.0823V192.804H57.7784ZM53.8668 195.812C55.8392 195.82 58.4166 195.812 60.621 195.539L60.679 196.193C59.7052 196.338 58.6817 196.425 57.679 196.479V198.116H56.7757V196.517C55.777 196.55 54.824 196.558 53.9829 196.558L53.8668 195.812ZM54.4221 201.124C55.7398 200.718 56.5519 199.707 56.5602 198.704V198.514H57.4304V198.704C57.4304 199.558 57.94 200.511 58.9345 201.033C59.9248 200.494 60.4387 199.541 60.4469 198.704V198.514H61.342V198.704C61.3337 199.732 62.1293 200.727 63.4718 201.124L63.0326 201.82C61.9842 201.481 61.2467 200.801 60.8862 199.964C60.5671 200.793 59.929 201.539 58.9387 201.903C57.9483 201.539 57.3102 200.809 56.9953 199.985C56.6224 200.809 55.8848 201.485 54.8696 201.82L54.4221 201.124ZM59.4525 197.644V196.989H61.5989V191.536H62.5188V198.215H61.5989V197.644H59.4525ZM68.9163 192.207C71.0958 192.215 72.7284 193.351 72.7284 195.075C72.7284 196.807 71.0958 197.942 68.9163 197.934C66.745 197.942 65.1124 196.807 65.1124 195.075C65.1124 193.351 66.745 192.215 68.9163 192.207ZM64.1759 200.561V199.79H73.7146V200.561H64.1759ZM65.9908 195.075C65.9826 196.334 67.2422 197.18 68.9163 197.18C70.5903 197.18 71.8417 196.334 71.8417 195.075C71.8417 193.823 70.5903 192.953 68.9163 192.961C67.2422 192.953 65.9826 193.823 65.9908 195.075ZM79.6977 192.448V193.376H82.1425V191.544H83.0624V199.144H82.1425V196.367H79.6977V197.304H74.916V192.448H79.6977ZM75.8276 196.566H78.7944V193.202H75.8276V196.566ZM76.3248 201.721V198.464H77.253V200.959H83.3027V201.721H76.3248ZM79.6977 195.605H82.1425V194.146H79.6977V195.605ZM92.766 194.635V195.87H97.0919V196.624H87.5533V195.87H91.8627V194.635H92.766ZM88.0754 194.577C89.8696 194.432 91.614 193.657 91.7176 192.588H88.44V191.859H96.2135V192.588H92.9193C93.0146 193.657 94.7466 194.432 96.5616 194.577L96.2549 195.273C94.5146 195.104 92.882 194.428 92.3226 193.33C91.7632 194.428 90.1223 195.104 88.382 195.273L88.0754 194.577ZM88.4566 198.738V198.017H91.8627V197.03H92.7743V198.017H96.1886V198.738H88.4566ZM89.1693 200.627C89.1693 199.724 90.2881 199.26 92.3102 199.251C94.324 199.26 95.4676 199.724 95.4676 200.627C95.4676 201.539 94.324 202.011 92.3102 202.011C90.2881 202.011 89.1693 201.539 89.1693 200.627ZM90.1057 200.627C90.0975 201.108 90.9096 201.373 92.3102 201.365C93.7273 201.373 94.5229 201.108 94.5312 200.627C94.5229 200.146 93.7273 199.906 92.3102 199.898C90.9096 199.906 90.0975 200.146 90.1057 200.627ZM102.437 192.307C102.437 193.106 102.288 193.844 102.002 194.511H103.697V191.768H104.575V197.403H103.697V195.265H101.596C100.92 196.309 99.843 197.151 98.401 197.768L97.9287 197.08C100.063 196.21 101.297 194.83 101.492 193.069H98.3679V192.307H102.437ZM98.4425 201.232C99.7519 200.76 100.572 199.624 100.572 198.622V197.917H101.451V198.622C101.442 199.558 101.94 200.532 102.926 201.099C103.925 200.474 104.434 199.413 104.442 198.622V197.917H105.338V198.622C105.329 199.699 106.125 200.793 107.459 201.232L107.003 201.92C105.963 201.547 105.234 200.814 104.873 199.931C104.554 200.78 103.925 201.588 102.951 202.003C101.936 201.605 101.302 200.834 100.995 199.952C100.622 200.801 99.901 201.539 98.9066 201.92L98.4425 201.232ZM105.793 197.569V191.544H106.663V197.569H105.793ZM116.136 191.536V195.655H117.876V196.425H116.136V201.97H115.216V191.536H116.136ZM108.528 199.359V192.555H113.392V193.309H109.448V198.58C111.333 198.576 112.667 198.501 114.213 198.215L114.329 199.011C112.696 199.301 111.329 199.359 109.348 199.359H108.528ZM119.425 201.066C119.011 201.066 118.663 200.727 118.671 200.312C118.663 199.898 119.011 199.558 119.425 199.558C119.84 199.558 120.179 199.898 120.179 200.312C120.179 200.727 119.84 201.066 119.425 201.066Z" fill="black"/>
</g>
<defs>
<clipPath id="clip0_359_18268">
<rect width="197.74" height="242" fill="white"/>
</clipPath>
</defs>
</svg>
