<svg width="198" height="242" viewBox="0 0 198 242" fill="none" xmlns="http://www.w3.org/2000/svg">
<rect x="0.535398" y="0.535398" width="196.545" height="240.929" fill="#F9FAFC" stroke="#E9E9E9" stroke-width="1.0708"/>
<path d="M20.4724 23.4415V22.505H26.8619V23.4415H24.2017V30.9912H23.1409V23.4415H20.4724ZM29.6962 31.1238C27.9642 31.1238 26.7957 29.8144 26.7957 27.842C26.7957 25.8531 27.9642 24.5437 29.6962 24.5437C31.4283 24.5437 32.5885 25.8531 32.5885 27.842C32.5885 29.8144 31.4283 31.1238 29.6962 31.1238ZM27.8067 27.842C27.8067 29.11 28.4034 30.2288 29.6962 30.2288C30.9808 30.2288 31.5774 29.11 31.5774 27.842C31.5774 26.5741 30.9808 25.4387 29.6962 25.4387C28.4034 25.4387 27.8067 26.5741 27.8067 27.842ZM34.5036 31.0575C34.0892 31.0575 33.7412 30.7177 33.7495 30.3034C33.7412 29.889 34.0892 29.5492 34.5036 29.5492C34.918 29.5492 35.2578 29.889 35.2578 30.3034C35.2578 30.7177 34.918 31.0575 34.5036 31.0575ZM48.9624 25.6873V26.4581H47.2718V31.936H46.3519V21.5271H47.2718V25.6873H48.9624ZM39.6392 29.2923V22.5547H40.5508V28.5216C42.0757 28.5175 43.6337 28.3973 45.3492 28.0409L45.4652 28.8282C43.6668 29.1846 42.0508 29.2923 40.4679 29.2923H39.6392ZM58.9815 26.3669V27.0879H49.4428V26.3669H58.9815ZM50.5947 28.6128V27.9249H57.7881V30.1376H51.5312V31.1321H58.1279V31.8034H50.6113V29.4995H56.8765V28.6128H50.5947ZM50.6527 22.505V21.842H57.755V23.9967H51.5975V24.9083H57.9373V25.5796H50.6859V23.3669H56.8351V22.505H50.6527ZM72.1409 29.831V30.6017H62.6022V29.831H66.8867V27.2868H63.7293V22.3973H70.9558V27.2868H67.7983V29.831H72.1409ZM64.6243 26.5492H70.0607V23.1431H64.6243V26.5492ZM82.392 29.8559V30.6266H72.8533V29.8559H82.392ZM74.0218 23.0851V22.3227H81.1903V25.4719H74.9583V27.1791H81.4306V27.9249H74.0466V24.7177H80.2787V23.0851H74.0218ZM91.5243 24.6846V25.4304H84.3972V21.9083H85.3088V24.6846H91.5243ZM83.0878 27.5934V26.8476H92.6265V27.5934H83.0878ZM84.3309 31.6873V28.6542H85.2425V30.9249H91.5906V31.6873H84.3309ZM104.891 21.5271V31.9608H103.971V25.7288H100.722V24.9663H103.971V21.5271H104.891ZM96.819 29.4332V22.6956H97.7472V28.6542C99.3383 28.6418 100.755 28.5547 102.322 28.2398L102.438 29.0023C100.772 29.342 99.3052 29.4332 97.6229 29.4332H96.819ZM115.424 21.5271V31.9442H114.537V21.5271H115.424ZM106.631 26.0188C106.631 23.8061 107.509 22.4056 108.86 22.4056C110.128 22.4056 110.986 23.6238 111.102 25.5879H112.449V21.7509H113.335V31.4139H112.449V26.3503H111.106C111.015 28.3807 110.149 29.6487 108.86 29.6404C107.509 29.6487 106.631 28.2398 106.631 26.0188ZM107.493 26.0188C107.484 27.7094 108.023 28.7785 108.86 28.7702C109.714 28.7785 110.252 27.7094 110.252 26.0188C110.252 24.3282 109.714 23.2675 108.86 23.2675C108.023 23.2675 107.484 24.3282 107.493 26.0188ZM125.667 21.5271V31.9442H124.788V21.5271H125.667ZM116.758 29.0271C119.02 27.6846 120.155 25.8034 120.329 23.6238H117.205V22.8531H121.249C121.245 23.8807 121.084 24.8752 120.727 25.8034H122.6V21.8089H123.479V31.4139H122.6V26.5492H120.387C119.758 27.7592 118.751 28.8324 117.296 29.6901L116.758 29.0271ZM29.058 43.5271V51.284H28.1381V48.2592H26.3481V47.4802H28.1381V46.2785H26.3481V45.5161H28.1381V43.5271H29.058ZM20.4475 48.9139C20.8619 48.9139 21.3135 48.9097 21.7901 48.9014V45.1266H20.7376V44.3724H26.2652V45.1266H25.2044V48.7813C25.6892 48.7481 26.1616 48.7067 26.6133 48.657L26.6547 49.3448C24.6326 49.6597 22.2541 49.6929 20.5635 49.7012L20.4475 48.9139ZM22.3453 53.7122V50.6376H23.2735V52.9498H29.3398V53.7122H22.3453ZM22.6851 48.8849C23.2196 48.8766 23.7707 48.8559 24.3177 48.831V45.1266H22.6851V48.8849ZM34.403 46.726C34.403 48.4912 35.6876 50.2896 37.2207 50.9525L36.7069 51.6818C35.4887 51.1266 34.4403 49.9291 33.9514 48.4912C33.4624 50.0161 32.4099 51.342 31.2207 51.9387L30.6737 51.2094C32.1655 50.4967 33.4666 48.5244 33.4749 46.726V45.3669H31.0135V44.5962H36.8809V45.3669H34.403V46.726ZM38.3395 53.9442V43.5271H39.2594V53.9442H38.3395ZM50.4469 48.3669V49.0879H40.9083V48.3669H50.4469ZM42.0602 50.6128V49.9249H49.2536V52.1376H42.9967V53.1321H49.5933V53.8034H42.0768V51.4995H48.342V50.6128H42.0602ZM42.1182 44.505V43.842H49.2204V45.9967H43.063V46.9083H49.4027V47.5796H42.1514V45.3669H48.3005V44.505H42.1182ZM62.9848 43.5271V53.9442H62.1063V43.5271H62.9848ZM54.0594 51.0271C56.3218 49.6846 57.4572 47.8034 57.6395 45.6238H54.5235V44.8531H58.5511C58.5511 45.3876 58.5055 45.9139 58.4102 46.4277H59.9931V43.8089H60.8798V53.4139H59.9931V49.8006H58.0621V49.0382H59.9931V47.1901H58.232C57.7223 48.9553 56.5828 50.5133 54.6146 51.6901L54.0594 51.0271ZM72.9292 43.5271V53.9442H72.0094V43.5271H72.9292ZM64.4513 51.2343C67.269 49.9001 68.7069 47.8945 68.9099 45.4083H64.932V44.6625H69.8464C69.8381 47.6542 68.4458 50.3061 64.9486 51.9884L64.4513 51.2343ZM84.1085 51.8724V52.6514H74.5698V51.8724H78.8544V49.9083H75.7632V46.6929H81.9953V45.0603H75.7383V44.2978H82.9069V47.447H76.6748V49.1459H83.1472V49.9083H79.766V51.8724H84.1085ZM95.9254 44.6376V45.6818C95.9254 46.9912 95.9254 48.4746 95.5359 50.7371L94.5994 50.6459C95.022 48.5161 95.022 46.9581 95.022 45.6818V45.4001H88.7486V44.6376H95.9254ZM87.7127 52.4111V51.6404H97.2099V52.4111H87.7127ZM107.66 45.11V45.8807H106.11V47.3227H107.66V48.1017H106.11V49.7343H105.19V43.5271H106.11V45.11H107.66ZM98.4693 48.7896V44.1652H99.3974V48.0105C100.881 48.0064 102.41 47.8945 104.096 47.5547L104.212 48.3089C102.439 48.6652 100.864 48.7896 99.298 48.7896H98.4693ZM99.3063 51.8973C99.3063 50.6459 100.657 49.8586 102.762 49.8669C104.859 49.8586 106.201 50.6459 106.201 51.8973C106.201 53.1652 104.859 53.9277 102.762 53.936C100.657 53.9277 99.3063 53.1652 99.3063 51.8973ZM100.21 51.8973C100.201 52.6846 101.204 53.1818 102.762 53.1901C104.295 53.1818 105.306 52.6846 105.306 51.8973C105.306 51.1017 104.295 50.621 102.762 50.621C101.204 50.621 100.201 51.1017 100.21 51.8973ZM119.75 43.5271V53.9608H118.83V47.7288H115.582V46.9663H118.83V43.5271H119.75ZM111.678 51.4332V44.6956H112.607V50.6542C114.198 50.6418 115.615 50.5547 117.181 50.2398L117.297 51.0023C115.631 51.342 114.165 51.4332 112.482 51.4332H111.678ZM130.283 43.5271V53.9442H129.396V43.5271H130.283ZM121.49 48.0188C121.49 45.8061 122.369 44.4056 123.72 44.4056C124.987 44.4056 125.845 45.6238 125.961 47.5879H127.308V43.7509H128.195V53.4139H127.308V48.3503H125.965C125.874 50.3807 125.008 51.6487 123.72 51.6404C122.369 51.6487 121.49 50.2398 121.49 48.0188ZM122.352 48.0188C122.344 49.7094 122.883 50.7785 123.72 50.7702C124.573 50.7785 125.112 49.7094 125.112 48.0188C125.112 46.3282 124.573 45.2675 123.72 45.2675C122.883 45.2675 122.344 46.3282 122.352 48.0188ZM140.526 43.5271V53.9442H139.647V43.5271H140.526ZM131.617 51.0271C133.879 49.6846 135.015 47.8034 135.189 45.6238H132.065V44.8531H136.109C136.105 45.8807 135.943 46.8752 135.587 47.8034H137.46V43.8089H138.338V53.4139H137.46V48.5492H135.247C134.617 49.7592 133.61 50.8324 132.156 51.6901L131.617 51.0271ZM152.898 43.5271V45.7896H154.464V46.5603H152.898V48.831H151.978V43.5271H152.898ZM145.199 48.284V44.1238H150.014V48.284H145.199ZM146.094 47.5465H149.119V44.8697H146.094V47.5465ZM146.252 50.0658V49.3282H152.898V51.8641H147.18V53.0575H153.279V53.8034H146.276V51.168H151.986V50.0658H146.252ZM159.743 43.7094C162.063 43.7094 163.423 44.3476 163.423 45.5078C163.423 46.6846 162.063 47.3227 159.743 47.331C157.423 47.3227 156.055 46.6846 156.055 45.5078C156.055 44.3476 157.423 43.7094 159.743 43.7094ZM155.003 48.7813V48.0354H164.5V48.7813H155.003ZM156.155 50.389V49.6846H163.273V52.0133H157.083V53.0989H163.588V53.8282H156.179V51.3338H162.37V50.389H156.155ZM157.016 45.5078C157.008 46.2288 158.019 46.6266 159.743 46.6266C161.475 46.6266 162.486 46.2288 162.486 45.5078C162.486 44.8199 161.475 44.4056 159.743 44.4056C158.019 44.4056 157.008 44.8199 157.016 45.5078ZM176.781 43.5271V48.8724H175.861V46.8006H173.549V46.0465H175.861V43.5271H176.781ZM168.311 48.342C170.802 47.7371 172.297 46.4774 172.484 44.8034H168.85V44.0409H173.466C173.466 46.6266 171.634 48.342 168.634 49.0962L168.311 48.342ZM170.027 50.0741V49.3282H176.781V51.8641H170.963V53.0907H177.137V53.8448H170.052V51.1597H175.861V50.0741H170.027ZM28.7762 67.5796V68.6155C28.768 69.9001 28.768 71.3255 28.3867 73.4222L27.4586 73.3144C27.8481 71.3255 27.8481 69.8669 27.8564 68.6155V68.342H21.4337V67.5796H28.7762ZM20.4227 75.4691V74.6984H24.1436V70.9774H25.0552V74.6984H29.9199V75.4691H20.4227ZM42.1677 66.5354V72.3199H41.2478V66.5354H42.1677ZM33.6401 71.3752C35.2063 70.8282 36.3168 69.4525 36.3168 67.936V66.9166H37.2533V67.936C37.245 69.3862 38.3721 70.6791 39.9218 71.1846L39.466 71.9139C38.2395 71.4954 37.2657 70.6252 36.7934 69.5023C36.3293 70.7039 35.3514 71.657 34.1041 72.1045L33.6401 71.3752ZM35.1318 76.8034V76.0492H36.6898V73.6956H35.2312V72.9415H42.234V73.6956H40.792V76.0492H42.3417V76.8034H35.1318ZM37.6014 76.0492H39.8804V73.6956H37.6014V76.0492ZM47.405 73.505C47.3967 74.4415 47.8939 75.4235 48.8884 75.9954C49.887 75.3697 50.3967 74.313 50.405 73.505V72.8752H51.3V73.505C51.3 74.5824 52.079 75.668 53.4381 76.1155L52.9574 76.8117C51.9215 76.4346 51.1964 75.7053 50.84 74.8268C50.5127 75.6763 49.8787 76.4802 48.905 76.8945C47.9063 76.5092 47.2599 75.7426 46.945 74.8641C46.5721 75.7012 45.8552 76.4304 44.8608 76.8117L44.405 76.1155C45.7226 75.6431 46.5099 74.5161 46.5182 73.505V72.8752H47.405V73.505ZM43.9906 69.5603C43.9906 68.1266 45.1259 67.1155 46.684 67.1238C48.0555 67.1155 49.1287 67.936 49.3318 69.1459H51.532V66.5271H52.4519V72.4774H51.532V69.9083H49.3442C49.166 71.1556 48.0804 71.9967 46.684 71.9967C45.1259 71.9967 43.9906 70.994 43.9906 69.5603ZM44.8773 69.5603C44.869 70.5216 45.6398 71.226 46.684 71.2343C47.7116 71.226 48.4823 70.5216 48.4823 69.5603C48.4823 68.5907 47.7116 67.8945 46.684 67.9028C45.6398 67.8945 44.869 68.5907 44.8773 69.5603ZM56.8688 67.331C58.2859 67.3393 59.3094 68.5575 59.4544 70.505H61.7914V66.5271H62.703V76.9608H61.7914V71.2675H59.4627C59.3632 73.3103 58.3232 74.5907 56.8688 74.5907C55.3273 74.5907 54.25 73.1818 54.2583 70.9608C54.25 68.7481 55.3273 67.3393 56.8688 67.331ZM55.1367 70.9608C55.1367 72.6597 55.8411 73.7702 56.8688 73.7702C57.8881 73.7702 58.6008 72.6597 58.6008 70.9608C58.6008 69.2702 57.8881 68.1597 56.8688 68.1514C55.8411 68.1597 55.1367 69.2702 55.1367 70.9608ZM65.421 76.0575C65.0066 76.0575 64.6585 75.7177 64.6668 75.3034C64.6585 74.889 65.0066 74.5492 65.421 74.5492C65.8353 74.5492 66.1751 74.889 66.1751 75.3034C66.1751 75.7177 65.8353 76.0575 65.421 76.0575ZM71.5593 67.6542V73.4967C72.6823 73.4884 73.7513 73.418 74.9985 73.157L75.1311 73.9525C73.7389 74.2426 72.5704 74.3006 71.3024 74.3006H70.6394V67.6542H71.5593ZM73.5566 70.7951V70.0326H75.935V66.784H76.8135V76.4139H75.935V70.7951H73.5566ZM78.1643 76.9442V66.5271H79.0427V76.9442H78.1643ZM88.4403 66.5271V70.7619H90.1309V71.5409H88.4403V76.936H87.5204V66.5271H88.4403ZM80.443 74.2343C83.1364 72.8959 84.6032 70.8904 84.8104 68.4166H80.932V67.6459H85.7469C85.7386 70.5962 84.3546 73.2813 80.9568 74.9553L80.443 74.2343ZM97.2488 69.726C97.2488 71.4912 98.5333 73.2896 100.066 73.9525L99.5527 74.6818C98.3344 74.1266 97.2861 72.9291 96.7972 71.4912C96.3082 73.0161 95.2557 74.342 94.0665 74.9387L93.5195 74.2094C95.0112 73.4967 96.3123 71.5244 96.3206 69.726V68.3669H93.8593V67.5962H99.7267V68.3669H97.2488V69.726ZM101.185 76.9442V66.5271H102.105V76.9442H101.185ZM112.058 67.0824V67.8531C112.058 68.6652 112.058 69.6183 111.776 70.9194H113.309V71.6818H103.771V70.9194H110.852C111.146 69.61 111.146 68.6694 111.146 67.8531V67.8448H104.981V67.0824H112.058ZM104.947 76.8034V73.1155H112.099V76.8034H104.947ZM105.851 76.0492H111.188V73.8448H105.851V76.0492ZM125.499 66.5354V72.6763H124.571V72.0879H122.466V71.4663H124.571V66.5354H125.499ZM116.872 70.4636C118.894 70.4719 121.471 70.447 123.726 70.1984L123.784 70.8034C122.764 70.9442 121.703 71.0313 120.668 71.0851V72.6846H119.764V71.1183C118.778 71.1514 117.833 71.1556 116.988 71.1514L116.872 70.4636ZM117.866 69.6349V66.8503H122.739V69.6349H117.866ZM118.471 73.7122V73.0492H125.499V75.2122H119.416V76.1404H125.847V76.8282H118.513V74.5824H124.587V73.7122H118.471ZM118.786 68.9636H121.836V67.5216H118.786V68.9636ZM138.12 66.5271V70.8199H139.86V71.5907H138.12V76.9442H137.208V66.5271H138.12ZM129.998 68.9636V68.2012H132.675V66.6514H133.595V68.2012H136.197V68.9636H129.998ZM130.595 72.2205C130.587 70.8117 131.664 69.8255 133.147 69.8255C134.623 69.8255 135.692 70.8117 135.7 72.2205C135.692 73.6293 134.623 74.6072 133.147 74.6072C131.664 74.6072 130.587 73.6293 130.595 72.2205ZM131.473 72.2205C131.465 73.1652 132.178 73.8365 133.147 73.8282C134.109 73.8365 134.813 73.1652 134.821 72.2205C134.813 71.2757 134.109 70.5962 133.147 70.5962C132.178 70.5962 131.465 71.2757 131.473 72.2205ZM148.661 67.5796V68.6155C148.653 69.9001 148.653 71.3255 148.271 73.4222L147.343 73.3144C147.733 71.3255 147.733 69.8669 147.741 68.6155V68.342H141.318V67.5796H148.661ZM140.307 75.4691V74.6984H144.028V70.9774H144.94V74.6984H149.805V75.4691H140.307ZM156.972 73.5133C156.972 74.4373 157.474 75.4194 158.46 75.9829C159.454 75.3697 159.981 74.3213 159.981 73.5133V72.9415H160.884V73.5133C160.876 74.5907 161.663 75.6597 163.005 76.1155L162.541 76.7951C161.501 76.4304 160.772 75.7012 160.411 74.8268C160.088 75.6763 159.454 76.476 158.489 76.8862C157.474 76.4967 156.831 75.7343 156.521 74.86C156.144 75.7012 155.427 76.4222 154.428 76.7951L153.964 76.1155C155.282 75.6266 156.077 74.5161 156.086 73.5133V72.9415H156.972V73.5133ZM153.69 69.5768C153.69 68.1266 154.842 67.1404 156.425 67.1404C158.008 67.1404 159.152 68.1266 159.152 69.5768C159.152 71.0105 158.008 71.9967 156.425 71.9967C154.842 71.9967 153.69 71.0105 153.69 69.5768ZM154.594 69.5768C154.586 70.5465 155.356 71.226 156.425 71.2343C157.486 71.226 158.257 70.5465 158.257 69.5768C158.257 68.6072 157.486 67.9194 156.425 67.9277C155.356 67.9194 154.586 68.6072 154.594 69.5768ZM161.132 72.4857V66.5354H162.052V72.4857H161.132ZM168.442 66.7094C170.762 66.7094 172.121 67.3476 172.121 68.5078C172.121 69.6846 170.762 70.3227 168.442 70.331C166.121 70.3227 164.754 69.6846 164.754 68.5078C164.754 67.3476 166.121 66.7094 168.442 66.7094ZM163.701 71.7813V71.0354H173.198V71.7813H163.701ZM164.853 73.389V72.6846H171.972V75.0133H165.781V76.0989H172.287V76.8282H164.878V74.3338H171.069V73.389H164.853ZM165.715 68.5078C165.707 69.2288 166.718 69.6266 168.442 69.6266C170.174 69.6266 171.185 69.2288 171.185 68.5078C171.185 67.8199 170.174 67.4056 168.442 67.4056C166.718 67.4056 165.707 67.8199 165.715 68.5078ZM24.1519 91.726C24.1519 93.4912 25.4365 95.2896 26.9696 95.9525L26.4558 96.6818C25.2376 96.1266 24.1892 94.9291 23.7003 93.4912C23.2113 95.0161 22.1588 96.342 20.9696 96.9387L20.4227 96.2094C21.9144 95.4967 23.2155 93.5244 23.2238 91.726V90.3669H20.7624V89.5962H26.6298V90.3669H24.1519V91.726ZM28.0884 98.9442V88.5271H29.0083V98.9442H28.0884ZM32.3809 97.1956L31.4776 100.386H30.6074L31.2539 97.1956H32.3809ZM39.3286 89.331C40.7457 89.3393 41.7692 90.5575 41.9142 92.505H44.2513V88.5271H45.1629V98.9608H44.2513V93.2675H41.9225C41.8231 95.3103 40.783 96.5907 39.3286 96.5907C37.7872 96.5907 36.7098 95.1818 36.7181 92.9608C36.7098 90.7481 37.7872 89.3393 39.3286 89.331ZM37.5966 92.9608C37.5966 94.6597 38.301 95.7702 39.3286 95.7702C40.3479 95.7702 41.0606 94.6597 41.0606 92.9608C41.0606 91.2702 40.3479 90.1597 39.3286 90.1514C38.301 90.1597 37.5966 91.2702 37.5966 92.9608ZM55.7869 97.9498V98.7122H48.5355V95.4802H49.4554V97.9498H55.7869ZM47.0686 94.4194V89.389H49.7123V90.1514H47.972V93.6694C48.5065 93.6528 49.1363 93.5989 49.8283 93.4415L49.9195 94.2039C48.9499 94.4194 48.1791 94.4194 47.5162 94.4194H47.0686ZM50.2841 94.4194V89.389H53.1847V90.1514H51.204V93.6735C52.0949 93.6611 52.7869 93.6114 53.5825 93.4249L53.6819 94.1873C52.7123 94.3945 51.9416 94.4194 50.8062 94.4194H50.2841ZM52.6791 92.1652V91.4028H54.6101V88.5354H55.5134V96.11H54.6101V92.1652H52.6791ZM67.9849 88.5271V92.8199H69.7253V93.5907H67.9849V98.9442H67.0733V88.5271H67.9849ZM59.8634 90.9636V90.2012H62.5402V88.6514H63.4601V90.2012H66.0623V90.9636H59.8634ZM60.4601 94.2205C60.4518 92.8117 61.5291 91.8255 63.0126 91.8255C64.4877 91.8255 65.5568 92.8117 65.565 94.2205C65.5568 95.6293 64.4877 96.6072 63.0126 96.6072C61.5291 96.6072 60.4518 95.6293 60.4601 94.2205ZM61.3385 94.2205C61.3302 95.1652 62.0429 95.8365 63.0126 95.8282C63.9739 95.8365 64.6783 95.1652 64.6866 94.2205C64.6783 93.2757 63.9739 92.5962 63.0126 92.5962C62.0429 92.5962 61.3302 93.2757 61.3385 94.2205ZM78.5427 88.9498V91.6514H72.2609V93.0023H78.7664V93.7647H71.3327V90.9304H77.6062V89.6956H71.3079V88.9498H78.5427ZM70.1559 95.6045V94.8586H79.6946V95.6045H75.3686V98.9608H74.4487V95.6045H70.1559ZM89.9457 93.3669V94.0879H80.407V93.3669H89.9457ZM81.5589 95.6128V94.9249H88.7523V97.1376H82.4954V98.1321H89.0921V98.8034H81.5755V96.4995H87.8407V95.6128H81.5589ZM81.617 89.505V88.842H88.7192V90.9967H82.5617V91.9083H88.9015V92.5796H81.6501V90.3669H87.7993V89.505H81.617ZM103.105 96.8393V97.61H93.5664V96.8393H97.8509V94.5934H94.6935V89.2647H95.6134V91.1459H101.025V89.2647H101.937V94.5934H98.7625V96.8393H103.105ZM95.6134 93.8393H101.025V91.9001H95.6134V93.8393ZM112.71 88.5271V98.9442H111.815V93.5492H110.306V98.3973H109.436V88.7592H110.306V92.7702H111.815V88.5271H112.71ZM104.34 96.2426V89.7951H105.259V95.4222C106.287 95.418 107.402 95.3434 108.674 95.0907L108.782 95.9028C107.331 96.168 106.138 96.2426 104.994 96.2426H104.34ZM122.422 89.5796V90.6155C122.414 91.9001 122.414 93.3255 122.033 95.4222L121.104 95.3144C121.494 93.3255 121.494 91.8669 121.502 90.6155V90.342H115.08V89.5796H122.422ZM114.069 97.4691V96.6984H117.79V92.9774H118.701V96.6984H123.566V97.4691H114.069ZM130.734 95.5133C130.734 96.4373 131.235 97.4194 132.221 97.9829C133.216 97.3697 133.742 96.3213 133.742 95.5133V94.9415H134.645V95.5133C134.637 96.5907 135.424 97.6597 136.767 98.1155L136.303 98.7951C135.263 98.4304 134.533 97.7012 134.173 96.8268C133.85 97.6763 133.216 98.476 132.25 98.8862C131.235 98.4967 130.593 97.7343 130.282 96.86C129.905 97.7012 129.188 98.4222 128.189 98.7951L127.725 98.1155C129.043 97.6266 129.838 96.5161 129.847 95.5133V94.9415H130.734V95.5133ZM127.452 91.5768C127.452 90.1266 128.604 89.1404 130.187 89.1404C131.769 89.1404 132.913 90.1266 132.913 91.5768C132.913 93.0105 131.769 93.9967 130.187 93.9967C128.604 93.9967 127.452 93.0105 127.452 91.5768ZM128.355 91.5768C128.347 92.5465 129.117 93.226 130.187 93.2343C131.247 93.226 132.018 92.5465 132.018 91.5768C132.018 90.6072 131.247 89.9194 130.187 89.9277C129.117 89.9194 128.347 90.6072 128.355 91.5768ZM134.894 94.4857V88.5354H135.814V94.4857H134.894ZM142.203 88.7094C144.523 88.7094 145.882 89.3476 145.882 90.5078C145.882 91.6846 144.523 92.3227 142.203 92.331C139.882 92.3227 138.515 91.6846 138.515 90.5078C138.515 89.3476 139.882 88.7094 142.203 88.7094ZM137.462 93.7813V93.0354H146.96V93.7813H137.462ZM138.614 95.389V94.6846H145.733V97.0133H139.543V98.0989H146.048V98.8282H138.639V96.3338H144.83V95.389H138.614ZM139.476 90.5078C139.468 91.2288 140.479 91.6266 142.203 91.6266C143.935 91.6266 144.946 91.2288 144.946 90.5078C144.946 89.8199 143.935 89.4056 142.203 89.4056C140.479 89.4056 139.468 89.8199 139.476 90.5078ZM151.443 91.726C151.443 93.4912 152.727 95.2896 154.261 95.9525L153.747 96.6818C152.529 96.1266 151.48 94.9291 150.991 93.4912C150.502 95.0161 149.45 96.342 148.261 96.9387L147.714 96.2094C149.205 95.4967 150.506 93.5244 150.515 91.726V90.3669H148.053V89.5962H153.921V90.3669H151.443V91.726ZM155.379 98.9442V88.5271H156.299V98.9442H155.379ZM169.144 88.9829V89.7205C169.144 90.5036 169.144 91.4608 168.874 92.7039H170.395V93.4581H166.053V95.0907C168.041 95.1818 169.227 95.8614 169.235 96.9967C169.227 98.2315 167.859 98.9194 165.597 98.9194C163.318 98.9194 161.95 98.2315 161.95 96.9967C161.95 95.8614 163.135 95.1818 165.141 95.0907V93.4581H160.856V92.7039H167.954C168.232 91.436 168.232 90.5244 168.232 89.7288H162.066V88.9829H169.144ZM162.878 96.9967C162.87 97.7426 163.898 98.1735 165.597 98.1735C167.271 98.1735 168.298 97.7426 168.307 96.9967C168.298 96.2592 167.271 95.8365 165.597 95.8282C163.898 95.8365 162.87 96.2592 162.878 96.9967ZM28.7099 112.082V112.853C28.7099 113.665 28.7099 114.618 28.4282 115.919H29.9613V116.682H20.4227V115.919H27.5041C27.7983 114.61 27.7983 113.669 27.7983 112.853V112.845H21.6326V112.082H28.7099ZM21.5994 121.803V118.116H28.7514V121.803H21.5994ZM22.5028 121.049H27.8398V118.845H22.5028V121.049ZM35.8782 113.325V114.08H30.6489V113.325H32.8119V111.842H33.7318V113.325H35.8782ZM31.0301 117.146C31.0218 115.762 31.9666 114.784 33.2677 114.784C34.5771 114.784 35.5135 115.762 35.5218 117.146C35.5135 118.546 34.5771 119.533 33.2677 119.533C31.9666 119.533 31.0218 118.546 31.0301 117.146ZM31.8423 117.146C31.8423 118.074 32.4389 118.737 33.2677 118.729C34.0964 118.737 34.7014 118.074 34.7014 117.146C34.7014 116.234 34.0964 115.563 33.2677 115.555C32.4389 115.563 31.8423 116.234 31.8423 117.146ZM36.4168 121.43V111.776H37.287V115.919H38.671V111.527H39.5494V121.944H38.671V116.682H37.287V121.43H36.4168ZM44.6541 114.726C44.6541 116.491 45.9387 118.29 47.4718 118.953L46.958 119.682C45.7398 119.127 44.6914 117.929 44.2025 116.491C43.7135 118.016 42.661 119.342 41.4718 119.939L40.9248 119.209C42.4166 118.497 43.7177 116.524 43.7259 114.726V113.367H41.2646V112.596H47.132V113.367H44.6541V114.726ZM48.5906 121.944V111.527H49.5105V121.944H48.5906ZM56.4798 112.522V113.292H52.6262V118.604C54.5033 118.6 55.7422 118.542 57.1925 118.265L57.3002 119.027C55.7671 119.317 54.4991 119.383 52.5019 119.383H51.698V112.522H56.4798ZM55.8583 116.085V115.314H58.8997V111.527H59.8196V121.961H58.8997V116.085H55.8583ZM69.4906 111.527V115.671H71.2309V116.45H69.4906V121.961H68.579V111.527H69.4906ZM61.8331 113.259V112.497H66.5734V116.226H62.7696V118.662C64.7047 118.662 66.0555 118.592 67.6425 118.298L67.7337 119.06C66.0928 119.359 64.7005 119.433 62.6867 119.441H61.858V115.464H65.6535V113.259H61.8331ZM80.0317 112.58V113.616C80.0234 114.9 80.0234 116.325 79.6422 118.422L78.714 118.314C79.1035 116.325 79.1035 114.867 79.1118 113.616V113.342H72.6892V112.58H80.0317ZM71.6781 120.469V119.698H75.3991V115.977H76.3107V119.698H81.1754V120.469H71.6781ZM83.0314 121.058C82.6171 121.058 82.269 120.718 82.2773 120.303C82.269 119.889 82.6171 119.549 83.0314 119.549C83.4458 119.549 83.7856 119.889 83.7856 120.303C83.7856 120.718 83.4458 121.058 83.0314 121.058ZM96.3217 111.527V121.961H95.4018V111.527H96.3217ZM88.1256 115.961C88.1256 113.748 89.2278 112.339 90.7858 112.331C92.3273 112.339 93.446 113.748 93.446 115.961C93.446 118.182 92.3273 119.591 90.7858 119.591C89.2278 119.591 88.1256 118.182 88.1256 115.961ZM89.0123 115.961C89.0123 117.66 89.7416 118.77 90.7858 118.77C91.83 118.77 92.551 117.66 92.551 115.961C92.551 114.27 91.83 113.16 90.7858 113.151C89.7416 113.16 89.0123 114.27 89.0123 115.961ZM109.514 111.527V119.284H108.594V116.259H106.804V115.48H108.594V114.279H106.804V113.516H108.594V111.527H109.514ZM100.904 116.914C101.318 116.914 101.77 116.91 102.246 116.901V113.127H101.194V112.372H106.721V113.127H105.661V116.781C106.145 116.748 106.618 116.707 107.07 116.657L107.111 117.345C105.089 117.66 102.71 117.693 101.02 117.701L100.904 116.914ZM102.802 121.712V118.638H103.73V120.95H109.796V121.712H102.802ZM103.141 116.885C103.676 116.877 104.227 116.856 104.774 116.831V113.127H103.141V116.885ZM114.859 114.726C114.859 116.491 116.144 118.29 117.677 118.953L117.163 119.682C115.945 119.127 114.897 117.929 114.408 116.491C113.919 118.016 112.866 119.342 111.677 119.939L111.13 119.209C112.622 118.497 113.923 116.524 113.931 114.726V113.367H111.47V112.596H117.337V113.367H114.859V114.726ZM118.796 121.944V111.527H119.716V121.944H118.796ZM129.445 111.527V115.762H131.135V116.541H129.445V121.936H128.525V111.527H129.445ZM121.447 119.234C124.141 117.896 125.608 115.89 125.815 113.417H121.936V112.646H126.751C126.743 115.596 125.359 118.281 121.961 119.955L121.447 119.234ZM135.958 112.654V118.497C137.081 118.488 138.15 118.418 139.397 118.157L139.529 118.953C138.137 119.243 136.969 119.301 135.701 119.301H135.038V112.654H135.958ZM137.955 115.795V115.033H140.333V111.784H141.212V121.414H140.333V115.795H137.955ZM142.563 121.944V111.527H143.441V121.944H142.563ZM150.617 111.908C152.175 111.917 153.31 112.861 153.319 114.22C153.31 115.58 152.175 116.516 150.617 116.516C149.042 116.516 147.907 115.58 147.907 114.22C147.907 112.861 149.042 111.917 150.617 111.908ZM148.81 114.22C148.802 115.132 149.573 115.762 150.617 115.762C151.653 115.762 152.424 115.132 152.424 114.22C152.424 113.317 151.653 112.679 150.617 112.687C149.573 112.679 148.802 113.317 148.81 114.22ZM149.49 118.124V117.378H156.269V119.889H150.418V121.058H156.642V121.803H149.523V119.193H155.357V118.124H149.49ZM155.349 116.872V111.527H156.269V116.872H155.349ZM161.398 113.209C161.398 114.627 162.476 115.928 163.984 116.441L163.487 117.171C162.335 116.748 161.423 115.886 160.972 114.801C160.524 116.031 159.592 116.993 158.374 117.461L157.876 116.723C159.443 116.143 160.487 114.751 160.495 113.143V112.066H161.398V113.209ZM159.269 120.022C159.269 118.828 160.578 118.132 162.724 118.132C164.863 118.132 166.155 118.828 166.155 120.022C166.155 121.232 164.863 121.919 162.724 121.919C160.578 121.919 159.269 121.232 159.269 120.022ZM160.189 120.022C160.18 120.759 161.15 121.182 162.724 121.19C164.299 121.182 165.26 120.759 165.26 120.022C165.26 119.309 164.299 118.87 162.724 118.87C161.15 118.87 160.18 119.309 160.189 120.022ZM165.144 117.867V111.527H166.064V114.245H167.631V115.016H166.064V117.867H165.144ZM29.9448 138.765V139.527H20.4227V138.765H24.7155V137.157H25.6188V138.765H29.9448ZM20.9945 136.975C22.8343 136.726 24.6989 135.566 24.6989 134.174V133.685H25.6271V134.174C25.6271 135.566 27.5 136.726 29.3398 136.975L28.9669 137.712C27.3881 137.443 25.8218 136.606 25.1671 135.408C24.5124 136.614 22.942 137.439 21.3425 137.712L20.9945 136.975ZM21.4751 141.284V140.546H28.7431V143.944H27.8149V141.284H21.4751ZM39.5992 133.527V143.944H38.7124V133.527H39.5992ZM30.8063 138.019C30.8063 135.806 31.6848 134.406 33.0356 134.406C34.3036 134.406 35.1613 135.624 35.2773 137.588H36.624V133.751H37.5108V143.414H36.624V138.35H35.2815C35.1903 140.381 34.3243 141.649 33.0356 141.64C31.6848 141.649 30.8063 140.24 30.8063 138.019ZM31.6682 138.019C31.6599 139.709 32.1986 140.779 33.0356 140.77C33.8892 140.779 34.4279 139.709 34.4279 138.019C34.4279 136.328 33.8892 135.267 33.0356 135.267C32.1986 135.267 31.6599 136.328 31.6682 138.019ZM47.3387 135.408C47.3304 136.792 48.358 138.035 49.9077 138.549L49.4436 139.287C48.2544 138.877 47.3428 138.031 46.8911 136.97C46.4395 138.151 45.4823 139.084 44.2475 139.535L43.7668 138.79C45.3414 138.251 46.4105 136.917 46.4188 135.417V135.011H44.0486V134.256H49.6674V135.011H47.3387V135.408ZM45.3829 143.803V140.14H51.963V143.803H45.3829ZM46.2862 143.049H51.0514V140.878H46.2862V143.049ZM51.0431 139.668V133.527H51.963V136.129H53.5293V136.9H51.963V139.668H51.0431ZM57.1754 134.414C57.1671 136.519 56.5041 138.209 54.7306 139.577L54.1091 138.98C55.5138 137.957 56.1602 136.78 56.2886 135.185H54.3991V134.414H57.1754ZM55.6422 143.712V140.538H56.5538V142.95H62.6284V143.712H55.6422ZM57.0594 139.477C58.5262 138.301 59.1146 136.879 59.2306 135.185H57.5815V134.414H60.1174C60.1091 136.577 59.5621 138.508 57.6892 140.058L57.0594 139.477ZM61.2942 141.16V133.519H62.2141V136.834H63.7804V137.621H62.2141V141.16H61.2942ZM72.9044 133.527V143.961H71.9845V133.527H72.9044ZM64.7083 137.961C64.7083 135.748 65.8105 134.339 67.3685 134.331C68.9099 134.339 70.0287 135.748 70.0287 137.961C70.0287 140.182 68.9099 141.591 67.3685 141.591C65.8105 141.591 64.7083 140.182 64.7083 137.961ZM65.595 137.961C65.595 139.66 66.3243 140.77 67.3685 140.77C68.4127 140.77 69.1337 139.66 69.1337 137.961C69.1337 136.27 68.4127 135.16 67.3685 135.151C66.3243 135.16 65.595 136.27 65.595 137.961ZM82.6334 133.527V137.671H84.3737V138.45H82.6334V143.961H81.7218V133.527H82.6334ZM74.9759 135.259V134.497H79.7162V138.226H75.9124V140.662C77.8475 140.662 79.1983 140.592 80.7853 140.298L80.8765 141.06C79.2356 141.359 77.8433 141.433 75.8295 141.441H75.0008V137.464H78.7964V135.259H74.9759ZM93.2325 138.408V139.154H90.0171V141.856H94.3596V142.627H84.8209V141.856H89.1055V139.154H86.0392V134.372H93.1331V135.127H86.9591V138.408H93.2325ZM106.201 133.511V137.621H107.726V138.408H106.201V143.944H105.281V133.511H106.201ZM98.2787 141.209V134.621H100.931V135.383H99.1986V140.43C99.7165 140.418 100.342 140.364 101.038 140.215L101.129 140.986C100.143 141.193 99.356 141.209 98.7345 141.209H98.2787ZM101.527 141.209V134.621H104.304V135.383H102.439V140.435C103.255 140.426 103.91 140.377 104.643 140.19L104.734 140.961C103.823 141.185 103.085 141.209 102.025 141.209H101.527ZM117.712 138.533V139.295H108.215V138.533H117.712ZM108.961 143.165C110.85 142.9 112.499 141.864 112.499 140.464V140.124H113.436V140.464C113.436 141.864 115.085 142.9 116.983 143.165L116.626 143.895C115.044 143.633 113.593 142.888 112.972 141.744C112.346 142.888 110.9 143.633 109.317 143.895L108.961 143.165ZM109.11 137.563V134.041H112.673V134.787H110.038V136.817C110.937 136.805 111.828 136.738 112.823 136.511L112.922 137.273C111.745 137.53 110.751 137.563 109.698 137.563H109.11ZM113.27 137.563V134.041H116.792V134.787H114.19V136.817H116.883V137.563H113.27ZM126.612 133.535V136.966H128.179V137.745H126.612V141.342H125.692V133.535H126.612ZM118.491 135.566V134.812H121.143V133.535H122.054V134.812H124.698V135.566H118.491ZM119.087 138.085C119.079 136.9 120.09 136.138 121.599 136.138C123.082 136.138 124.093 136.9 124.101 138.085C124.093 139.254 123.082 140.008 121.599 140.008C120.09 140.008 119.079 139.254 119.087 138.085ZM119.966 138.085C119.958 138.814 120.612 139.287 121.599 139.279C122.568 139.287 123.223 138.814 123.231 138.085C123.223 137.339 122.568 136.859 121.599 136.859C120.612 136.859 119.958 137.339 119.966 138.085ZM120.09 143.712V140.712H121.002V142.95H127.093V143.712H120.09ZM136.83 134.314C136.83 135.682 138.728 136.925 140.534 137.198L140.17 137.928C138.587 137.658 137.02 136.776 136.366 135.562C135.711 136.801 134.136 137.671 132.545 137.944L132.181 137.215C134.004 136.933 135.885 135.723 135.885 134.314V133.792H136.83V134.314ZM131.592 139.593V138.831H141.131V139.593H136.888V141.723H135.976V139.593H131.592ZM132.819 143.712V140.704H133.739V142.95H140.07V143.712H132.819ZM150.006 133.527V136.693H151.573V137.472H150.006V141.151H149.078V133.527H150.006ZM141.876 139.204C144.375 138.425 145.995 136.946 146.19 135.102H142.307V134.331H147.189C147.189 137.016 145.274 139.005 142.274 139.941L141.876 139.204ZM143.476 143.712V140.372H144.396V142.95H150.479V143.712H143.476ZM160.697 133.527V143.961H159.777V133.527H160.697ZM152.5 137.961C152.5 135.748 153.603 134.339 155.161 134.331C156.702 134.339 157.821 135.748 157.821 137.961C157.821 140.182 156.702 141.591 155.161 141.591C153.603 141.591 152.5 140.182 152.5 137.961ZM153.387 137.961C153.387 139.66 154.116 140.77 155.161 140.77C156.205 140.77 156.926 139.66 156.926 137.961C156.926 136.27 156.205 135.16 155.161 135.151C154.116 135.16 153.387 136.27 153.387 137.961ZM171.461 138.027V138.79H169.182V140.837C170.201 140.791 171.225 140.725 172.19 140.613L172.265 141.301C169.953 141.64 167.433 141.682 165.436 141.682L165.312 140.903C166.219 140.903 167.226 140.895 168.262 140.866V138.79H166.107V134.522H171.419V135.267H167.011V138.027H171.461ZM172.878 143.961V133.527H173.798V143.961H172.878ZM23.2238 157.331C24.6409 157.339 25.6644 158.558 25.8094 160.505H28.1464V156.527H29.058V166.961H28.1464V161.267H25.8177C25.7182 163.31 24.6782 164.591 23.2238 164.591C21.6823 164.591 20.605 163.182 20.6133 160.961C20.605 158.748 21.6823 157.339 23.2238 157.331ZM21.4917 160.961C21.4917 162.66 22.1961 163.77 23.2238 163.77C24.2431 163.77 24.9558 162.66 24.9558 160.961C24.9558 159.27 24.2431 158.16 23.2238 158.151C22.1961 158.16 21.4917 159.27 21.4917 160.961ZM34.5273 157.795C34.5273 158.574 35.6378 159.237 37.1213 159.419L36.7981 160.107C35.5591 159.912 34.5605 159.415 34.0923 158.715C33.6447 159.498 32.6295 160.07 31.3367 160.306L31.0052 159.618C32.5135 159.378 33.5992 158.64 33.5992 157.795H31.3284V157.066H36.8312V157.795H34.5273ZM30.6157 160.803C32.5881 160.812 35.1655 160.803 37.3699 160.53L37.4279 161.185C36.4541 161.33 35.4307 161.417 34.4279 161.47V163.107H33.5246V161.508C32.526 161.541 31.5729 161.549 30.7318 161.549L30.6157 160.803ZM31.171 166.116C32.4887 165.709 33.3008 164.698 33.3091 163.696V163.505H34.1793V163.696C34.1793 164.549 34.6889 165.502 35.6834 166.024C36.6737 165.486 37.1876 164.533 37.1958 163.696V163.505H38.0909V163.696C38.0826 164.723 38.8782 165.718 40.2207 166.116L39.7815 166.812C38.7331 166.472 37.9956 165.792 37.6351 164.955C37.316 165.784 36.6779 166.53 35.6876 166.895C34.6972 166.53 34.0591 165.801 33.7442 164.976C33.3713 165.801 32.6337 166.476 31.6185 166.812L31.171 166.116ZM36.2014 162.635V161.98H38.3478V156.527H39.2677V163.207H38.3478V162.635H36.2014ZM45.6652 157.198C47.8447 157.207 49.4773 158.342 49.4773 160.066C49.4773 161.798 47.8447 162.933 45.6652 162.925C43.4939 162.933 41.8613 161.798 41.8613 160.066C41.8613 158.342 43.4939 157.207 45.6652 157.198ZM40.9248 165.552V164.781H50.4635V165.552H40.9248ZM42.7398 160.066C42.7315 161.325 43.9911 162.171 45.6652 162.171C47.3392 162.171 48.5906 161.325 48.5906 160.066C48.5906 158.814 47.3392 157.944 45.6652 157.953C43.9911 157.944 42.7315 158.814 42.7398 160.066ZM56.4467 157.439V158.367H58.8914V156.535H59.8113V164.135H58.8914V161.359H56.4467V162.295H51.6649V157.439H56.4467ZM52.5765 161.558H55.5433V158.193H52.5765V161.558ZM53.0737 166.712V163.455H54.0019V165.95H60.0516V166.712H53.0737ZM56.4467 160.596H58.8914V159.138H56.4467V160.596ZM69.5149 159.627V160.861H73.8408V161.616H64.3022V160.861H68.6116V159.627H69.5149ZM64.8243 159.569C66.6185 159.424 68.3629 158.649 68.4665 157.58H65.1889V156.85H72.9624V157.58H69.6682C69.7635 158.649 71.4955 159.424 73.3105 159.569L73.0038 160.265C71.2635 160.095 69.6309 159.419 69.0715 158.321C68.5121 159.419 66.8712 160.095 65.1309 160.265L64.8243 159.569ZM65.2055 163.729V163.008H68.6116V162.022H69.5232V163.008H72.9375V163.729H65.2055ZM65.9182 165.618C65.9182 164.715 67.037 164.251 69.0591 164.243C71.0729 164.251 72.2165 164.715 72.2165 165.618C72.2165 166.53 71.0729 167.002 69.0591 167.002C67.037 167.002 65.9182 166.53 65.9182 165.618ZM66.8547 165.618C66.8464 166.099 67.6585 166.364 69.0591 166.356C70.4762 166.364 71.2718 166.099 71.2801 165.618C71.2718 165.138 70.4762 164.897 69.0591 164.889C67.6585 164.897 66.8464 165.138 66.8547 165.618ZM79.1859 157.298C79.1859 158.098 79.0367 158.835 78.7508 159.502H80.4455V156.759H81.324V162.395H80.4455V160.256H78.3447C77.6693 161.301 76.5919 162.142 75.1499 162.759L74.6776 162.071C76.8116 161.201 78.0464 159.821 78.2411 158.06H75.1168V157.298H79.1859ZM75.1914 166.223C76.5008 165.751 77.3212 164.616 77.3212 163.613V162.908H78.1997V163.613C78.1914 164.549 78.6886 165.523 79.6748 166.091C80.6734 165.465 81.1831 164.404 81.1914 163.613V162.908H82.0864V163.613C82.0781 164.69 82.8737 165.784 84.208 166.223L83.7522 166.911C82.7121 166.538 81.9828 165.805 81.6223 164.922C81.3033 165.772 80.6734 166.58 79.6997 166.994C78.6845 166.596 78.0505 165.825 77.7439 164.943C77.3709 165.792 76.6499 166.53 75.6555 166.911L75.1914 166.223ZM82.5422 162.56V156.535H83.4124V162.56H82.5422ZM92.8845 156.527V160.646H94.6248V161.417H92.8845V166.961H91.9646V156.527H92.8845ZM85.2767 164.35V157.546H90.1414V158.301H86.1966V163.571C88.082 163.567 89.4162 163.493 90.9618 163.207L91.0778 164.002C89.4452 164.292 88.0778 164.35 86.0972 164.35H85.2767ZM96.1742 166.058C95.7599 166.058 95.4118 165.718 95.4201 165.303C95.4118 164.889 95.7599 164.549 96.1742 164.549C96.5886 164.549 96.9284 164.889 96.9284 165.303C96.9284 165.718 96.5886 166.058 96.1742 166.058ZM102.313 157.654V163.497C103.436 163.488 104.505 163.418 105.752 163.157L105.884 163.953C104.492 164.243 103.324 164.301 102.056 164.301H101.393V157.654H102.313ZM104.31 160.795V160.033H106.688V156.784H107.567V166.414H106.688V160.795H104.31ZM108.918 166.944V156.527H109.796V166.944H108.918ZM119.194 156.527V160.762H120.884V161.541H119.194V166.936H118.274V156.527H119.194ZM111.196 164.234C113.89 162.896 115.357 160.89 115.564 158.417H111.685V157.646H116.5C116.492 160.596 115.108 163.281 111.71 164.955L111.196 164.234ZM132.858 156.527V166.961H131.939V156.527H132.858ZM124.662 160.961C124.662 158.748 125.765 157.339 127.323 157.331C128.864 157.339 129.983 158.748 129.983 160.961C129.983 163.182 128.864 164.591 127.323 164.591C125.765 164.591 124.662 163.182 124.662 160.961ZM125.549 160.961C125.549 162.66 126.278 163.77 127.323 163.77C128.367 163.77 129.088 162.66 129.088 160.961C129.088 159.27 128.367 158.16 127.323 158.151C126.278 158.16 125.549 159.27 125.549 160.961ZM145.703 156.983V157.646C145.703 158.346 145.703 159.249 145.467 160.422H146.954V161.168H137.416V160.422H144.543C144.783 159.266 144.791 158.412 144.791 157.729H138.626V156.983H145.703ZM138.551 162.958V162.212H145.736V164.839H139.487V166.074H146.001V166.82H138.568V164.118H144.824V162.958H138.551ZM152.407 156.709C154.727 156.709 156.087 157.348 156.087 158.508C156.087 159.685 154.727 160.323 152.407 160.331C150.087 160.323 148.719 159.685 148.719 158.508C148.719 157.348 150.087 156.709 152.407 156.709ZM147.667 161.781V161.035H157.164V161.781H147.667ZM148.819 163.389V162.685H155.937V165.013H149.747V166.099H156.252V166.828H148.844V164.334H155.034V163.389H148.819ZM149.681 158.508C149.672 159.229 150.683 159.627 152.407 159.627C154.139 159.627 155.15 159.229 155.15 158.508C155.15 157.82 154.139 157.406 152.407 157.406C150.683 157.406 149.672 157.82 149.681 158.508ZM169.395 156.527V162.071H168.492V156.527H169.395ZM161.05 159.337C161.05 157.961 162.185 156.999 163.76 157.008C165.318 156.999 166.453 157.961 166.461 159.337C166.453 160.712 165.318 161.674 163.76 161.674C162.185 161.674 161.05 160.712 161.05 159.337ZM161.953 159.337C161.945 160.256 162.716 160.919 163.76 160.919C164.796 160.919 165.566 160.256 165.566 159.337C165.566 158.425 164.796 157.77 163.76 157.779C162.716 157.77 161.945 158.425 161.953 159.337ZM162.135 163.24V162.519H165.591V164.922H163.039V166.091C164.385 166.087 165.247 166.053 166.312 165.859L166.412 166.563C165.227 166.787 164.307 166.803 162.774 166.803H162.144V164.251H164.696V163.24H162.135ZM166.055 163.281V162.519H169.395V166.861H168.5V163.281H166.055ZM25.163 178.709C27.4834 178.709 28.8425 179.348 28.8425 180.508C28.8425 181.685 27.4834 182.323 25.163 182.331C22.8425 182.323 21.4751 181.685 21.4751 180.508C21.4751 179.348 22.8425 178.709 25.163 178.709ZM20.4227 183.781V183.035H29.9199V183.781H20.4227ZM21.5746 185.389V184.685H28.6934V187.013H22.5028V188.099H29.0083V188.828H21.5994V186.334H27.7901V185.389H21.5746ZM22.4365 180.508C22.4282 181.229 23.4392 181.627 25.163 181.627C26.895 181.627 27.9061 181.229 27.9061 180.508C27.9061 179.82 26.895 179.406 25.163 179.406C23.4392 179.406 22.4282 179.82 22.4365 180.508ZM40.4688 178.759V182.787H41.7284V178.527H42.6069V188.944H41.7284V183.549H40.4688V188.422H39.6069V178.759H40.4688ZM33.8804 186.226V179.845H36.1428V180.607H34.734V185.439C35.1276 185.422 35.6414 185.377 36.2091 185.232L36.292 186.019C35.4135 186.218 34.734 186.226 34.2947 186.226H33.8804ZM36.5986 186.226V179.845H38.9108V180.607H37.4356V185.443C37.9246 185.43 38.5005 185.385 39.1262 185.198L39.2174 185.986C38.3472 186.218 37.6262 186.226 37.0213 186.226H36.5986ZM46.9906 179.928C46.9906 180.574 47.5707 181.511 48.561 182.004C49.5431 181.527 50.1149 180.62 50.1149 179.928V179.671H48.7641V178.908H52.684V179.671H51.0348V179.928C51.0348 180.756 51.7392 181.693 52.9989 182.082L52.5679 182.754C51.5652 182.43 50.8898 181.772 50.5583 181.017C50.2351 181.776 49.5679 182.497 48.5569 182.837C47.5376 182.48 46.8663 181.73 46.5389 180.972C46.2033 181.709 45.5279 182.41 44.5293 182.754L44.1232 182.082C45.358 181.66 46.079 180.649 46.079 179.928V179.671H44.4215V178.908H48.3497V179.671H46.9906V179.928ZM43.8166 184.279V183.516H53.3387V184.279H43.8166ZM44.9768 188.803V185.339H52.1453V188.803H44.9768ZM45.8884 188.049H51.2503V186.077H45.8884V188.049ZM55.7748 187.196L54.8715 190.386H54.0014L54.6478 187.196H55.7748ZM69.6755 182.687V183.458H67.9849V188.936H67.065V178.527H67.9849V182.687H69.6755ZM60.3523 186.292V179.555H61.2639V185.522C62.7888 185.517 64.3468 185.397 66.0623 185.041L66.1783 185.828C64.38 186.185 62.7639 186.292 61.1811 186.292H60.3523ZM79.0979 178.527V188.944H78.2112V178.527H79.0979ZM70.3051 183.019C70.3051 180.806 71.1835 179.406 72.5344 179.406C73.8023 179.406 74.6601 180.624 74.7761 182.588H76.1228V178.751H77.0095V188.414H76.1228V183.35H74.7802C74.6891 185.381 73.823 186.649 72.5344 186.64C71.1835 186.649 70.3051 185.24 70.3051 183.019ZM71.167 183.019C71.1587 184.709 71.6974 185.779 72.5344 185.77C73.388 185.779 73.9266 184.709 73.9266 183.019C73.9266 181.328 73.388 180.267 72.5344 180.267C71.6974 180.267 71.1587 181.328 71.167 183.019ZM92.2159 178.527V188.944H91.3374V183.475H89.8125V188.397H88.959V178.759H89.8125V182.712H91.3374V178.527H92.2159ZM83.6965 186.367V179.803H87.5998V180.558H84.6164V185.58C86.0543 185.575 87.0446 185.517 88.1965 185.281L88.2794 186.052C87.028 186.317 85.9672 186.359 84.3678 186.367H83.6965ZM98.7708 180.325V181.08H93.5415V180.325H95.7045V178.842H96.6244V180.325H98.7708ZM93.9228 184.146C93.9145 182.762 94.8592 181.784 96.1603 181.784C97.4697 181.784 98.4062 182.762 98.4145 184.146C98.4062 185.546 97.4697 186.533 96.1603 186.533C94.8592 186.533 93.9145 185.546 93.9228 184.146ZM94.7349 184.146C94.7349 185.074 95.3316 185.737 96.1603 185.729C96.9891 185.737 97.594 185.074 97.594 184.146C97.594 183.234 96.9891 182.563 96.1603 182.555C95.3316 182.563 94.7349 183.234 94.7349 184.146ZM99.3095 188.43V178.776H100.18V182.919H101.564V178.527H102.442V188.944H101.564V183.682H100.18V188.43H99.3095ZM110.206 179.712C110.198 181.121 111.267 182.339 112.792 182.82L112.303 183.533C111.135 183.135 110.227 182.331 109.776 181.283C109.328 182.488 108.367 183.404 107.115 183.856L106.651 183.118C108.226 182.58 109.295 181.279 109.303 179.712V178.883H110.206V179.712ZM108.209 185.182V184.444H114.856V186.922H109.137V188.074H115.237V188.828H108.234V186.226H113.944V185.182H108.209ZM113.936 183.972V178.527H114.856V180.806H116.422V181.577H114.856V183.972H113.936ZM119.422 180.64C119.413 181.366 119.621 182.555 120.404 183.35C121.17 182.584 121.369 181.428 121.377 180.64V180.077H120.623V179.314H123.54V180.077H122.256V180.64C122.248 181.651 122.737 183.011 123.938 183.632L123.433 184.295C122.612 183.86 122.103 183.098 121.829 182.273C121.609 183.106 121.183 183.918 120.391 184.395C119.608 183.91 119.181 183.089 118.962 182.269C118.684 183.089 118.179 183.856 117.366 184.295L116.861 183.632C118.046 182.986 118.551 181.618 118.551 180.64V180.077H117.226V179.314H120.176V180.077H119.422V180.64ZM118.303 186.019V185.265H125.314V188.944H124.402V186.019H118.303ZM124.402 184.801V178.527H125.314V181.254H126.656V182.041H125.314V184.801H124.402ZM138.39 178.983V179.72C138.39 180.504 138.39 181.461 138.121 182.704H139.642V183.458H135.299V185.091C137.288 185.182 138.473 185.861 138.482 186.997C138.473 188.232 137.106 188.919 134.843 188.919C132.564 188.919 131.197 188.232 131.197 186.997C131.197 185.861 132.382 185.182 134.388 185.091V183.458H130.103V182.704H137.201C137.479 181.436 137.479 180.524 137.479 179.729H131.313V178.983H138.39ZM132.125 186.997C132.117 187.743 133.145 188.174 134.843 188.174C136.517 188.174 137.545 187.743 137.553 186.997C137.545 186.259 136.517 185.837 134.843 185.828C133.145 185.837 132.117 186.259 132.125 186.997ZM148.642 179.082V179.853C148.642 180.665 148.642 181.618 148.36 182.919H149.893V183.682H140.354V182.919H147.436C147.73 181.61 147.73 180.669 147.73 179.853V179.845H141.564V179.082H148.642ZM141.531 188.803V185.116H148.683V188.803H141.531ZM142.434 188.049H147.771V185.845H142.434V188.049ZM155.81 180.325V181.08H150.58V180.325H152.743V178.842H153.663V180.325H155.81ZM150.962 184.146C150.953 182.762 151.898 181.784 153.199 181.784C154.509 181.784 155.445 182.762 155.453 184.146C155.445 185.546 154.509 186.533 153.199 186.533C151.898 186.533 150.953 185.546 150.962 184.146ZM151.774 184.146C151.774 185.074 152.371 185.737 153.199 185.729C154.028 185.737 154.633 185.074 154.633 184.146C154.633 183.234 154.028 182.563 153.199 182.555C152.371 182.563 151.774 183.234 151.774 184.146ZM156.348 188.43V178.776H157.219V182.919H158.603V178.527H159.481V188.944H158.603V183.682H157.219V188.43H156.348ZM169.492 178.527V184.627H168.572V182.969H166.616V182.215H168.572V181.27H166.616V180.499H168.572V178.527H169.492ZM160.906 183.914C162.481 183.367 163.558 182.049 163.566 180.549V179.994H161.213V179.232H166.798V179.994H164.495V180.533C164.486 181.908 165.522 183.168 167.047 183.69L166.566 184.411C165.394 183.993 164.486 183.147 164.039 182.078C163.595 183.267 162.638 184.191 161.395 184.643L160.906 183.914ZM161.445 188.116C162.762 187.643 163.55 186.516 163.558 185.505V184.95H164.445V185.505C164.437 186.441 164.934 187.424 165.928 187.995C166.927 187.37 167.437 186.313 167.445 185.505V184.95H168.34V185.505C168.34 186.582 169.119 187.668 170.478 188.116L169.997 188.812C168.961 188.435 168.236 187.705 167.88 186.827C167.553 187.676 166.919 188.48 165.945 188.895C164.946 188.509 164.3 187.743 163.985 186.864C163.612 187.701 162.895 188.43 161.901 188.812L161.445 188.116ZM25.163 202.198C27.3425 202.207 28.9751 203.342 28.9751 205.066C28.9751 206.798 27.3425 207.933 25.163 207.925C22.9917 207.933 21.3591 206.798 21.3591 205.066C21.3591 203.342 22.9917 202.207 25.163 202.198ZM20.4227 210.552V209.781H29.9613V210.552H20.4227ZM22.2376 205.066C22.2293 206.325 23.489 207.171 25.163 207.171C26.837 207.171 28.0884 206.325 28.0884 205.066C28.0884 203.814 26.837 202.944 25.163 202.953C23.489 202.944 22.2293 203.814 22.2376 205.066ZM35.9445 202.439V203.367H38.3892V201.535H39.3091V209.135H38.3892V206.359H35.9445V207.295H31.1627V202.439H35.9445ZM32.0743 206.558H35.0411V203.193H32.0743V206.558ZM32.5715 211.712V208.455H33.4997V210.95H39.5494V211.712H32.5715ZM35.9445 205.596H38.3892V204.138H35.9445V205.596ZM49.0127 204.627V205.861H53.3387V206.616H43.8V205.861H48.1094V204.627H49.0127ZM44.3221 204.569C46.1163 204.424 47.8608 203.649 47.9643 202.58H44.6867V201.85H52.4602V202.58H49.166C49.2613 203.649 50.9934 204.424 52.8083 204.569L52.5016 205.265C50.7613 205.095 49.1287 204.419 48.5693 203.321C48.0099 204.419 46.369 205.095 44.6287 205.265L44.3221 204.569ZM44.7033 208.729V208.008H48.1094V207.022H49.021V208.008H52.4353V208.729H44.7033ZM45.416 210.618C45.416 209.715 46.5348 209.251 48.5569 209.243C50.5707 209.251 51.7143 209.715 51.7143 210.618C51.7143 211.53 50.5707 212.002 48.5569 212.002C46.5348 212.002 45.416 211.53 45.416 210.618ZM46.3525 210.618C46.3442 211.099 47.1563 211.364 48.5569 211.356C49.974 211.364 50.7696 211.099 50.7779 210.618C50.7696 210.138 49.974 209.897 48.5569 209.889C47.1563 209.897 46.3442 210.138 46.3525 210.618ZM58.6837 202.298C58.6837 203.098 58.5345 203.835 58.2486 204.502H59.9433V201.759H60.8218V207.395H59.9433V205.256H57.8425C57.1671 206.301 56.0898 207.142 54.6478 207.759L54.1754 207.071C56.3094 206.201 57.5442 204.821 57.7389 203.06H54.6146V202.298H58.6837ZM54.6892 211.223C55.9986 210.751 56.819 209.616 56.819 208.613V207.908H57.6975V208.613C57.6892 209.549 58.1864 210.523 59.1726 211.091C60.1712 210.465 60.6809 209.404 60.6892 208.613V207.908H61.5842V208.613C61.5759 209.69 62.3715 210.784 63.7058 211.223L63.25 211.911C62.2099 211.538 61.4806 210.805 61.1201 209.922C60.8011 210.772 60.1712 211.58 59.1975 211.994C58.1823 211.596 57.5483 210.825 57.2417 209.943C56.8688 210.792 56.1478 211.53 55.1533 211.911L54.6892 211.223ZM62.04 207.56V201.535H62.9102V207.56H62.04ZM67.1199 202.331C68.537 202.339 69.5605 203.558 69.7055 205.505H72.0425V201.527H72.9541V211.961H72.0425V206.267H69.7138C69.6143 208.31 68.5743 209.591 67.1199 209.591C65.5784 209.591 64.5011 208.182 64.5094 205.961C64.5011 203.748 65.5784 202.339 67.1199 202.331ZM65.3878 205.961C65.3878 207.66 66.0922 208.77 67.1199 208.77C68.1392 208.77 68.8519 207.66 68.8519 205.961C68.8519 204.27 68.1392 203.16 67.1199 203.151C66.0922 203.16 65.3878 204.27 65.3878 205.961ZM75.672 211.058C75.2577 211.058 74.9096 210.718 74.9179 210.303C74.9096 209.889 75.2577 209.549 75.672 209.549C76.0864 209.549 76.4262 209.889 76.4262 210.303C76.4262 210.718 76.0864 211.058 75.672 211.058Z" fill="black"/>
<path d="M14 36H183" stroke="#E9E9E9" stroke-width="0.713864"/>
<path d="M14 58H183" stroke="#E9E9E9" stroke-width="0.713864"/>
<path d="M14 81H183" stroke="#E9E9E9" stroke-width="0.713864"/>
<path d="M14 104H183" stroke="#E9E9E9" stroke-width="0.713864"/>
<path d="M14 127H183" stroke="#E9E9E9" stroke-width="0.713864"/>
<path d="M14 149H183" stroke="#E9E9E9" stroke-width="0.713864"/>
<path d="M14 172H183" stroke="#E9E9E9" stroke-width="0.713864"/>
<path d="M14 195H183" stroke="#E9E9E9" stroke-width="0.713864"/>
<path d="M14 218H183" stroke="#E9E9E9" stroke-width="0.713864"/>
</svg>
