<svg width="198" height="242" viewBox="0 0 198 242" fill="none" xmlns="http://www.w3.org/2000/svg">
<rect x="0.535398" y="0.535398" width="196.545" height="240.929" fill="#F9FAFC" stroke="#E9E9E9" stroke-width="1.0708"/>
<path d="M28.257 22.824H24.9565V30.9545H23.749V22.824H20.437V21.743H28.257V22.824ZM30.7028 24.2155C32.6463 24.2155 34.0608 25.6875 34.0608 27.6655C34.0608 29.6435 32.6463 31.1155 30.7028 31.1155C28.7478 31.1155 27.3333 29.6435 27.3333 27.6655C27.3333 25.6875 28.7478 24.2155 30.7028 24.2155ZM30.7028 25.262C29.3918 25.262 28.4948 26.297 28.4948 27.6655C28.4948 29.034 29.3918 30.069 30.7028 30.069C32.0023 30.069 32.8993 29.034 32.8993 27.6655C32.8993 26.297 32.0023 25.262 30.7028 25.262ZM36.0103 31.104C35.5503 31.104 35.1938 30.7475 35.1938 30.2875C35.1938 29.8275 35.5503 29.471 36.0103 29.471C36.4703 29.471 36.8153 29.8275 36.8153 30.2875C36.8153 30.7475 36.4703 31.104 36.0103 31.104ZM51.3756 25.354V26.4465H49.9956V31.196H48.8571V21.375H49.9956V25.354H51.3756ZM42.7276 29.5515H45.4646C46.3961 29.5515 47.4081 29.379 48.0061 29.103V30.138C47.4081 30.437 46.3846 30.6095 45.4416 30.6095H41.5661V21.674H42.7276V29.5515ZM52.7661 25.1815V22.962H60.0571V22.295H52.7661V21.49H61.1611V23.721H53.8701V24.3765H61.2991V25.1815H52.7661ZM52.0531 26.7225V25.8945H61.8626V26.7225H52.0531ZM52.7316 31.081V28.873H60.0801V28.2405H52.7086V27.4355H61.1841V29.632H53.8356V30.276H61.3566V31.081H52.7316ZM71.5823 29.655H75.9178V30.7245H66.1083V29.655H70.4208V27.2975H66.7523V21.7315H75.2623V27.2975H71.5823V29.655ZM67.8908 22.801V26.2395H74.1238V22.801H67.8908ZM77.7108 28.0105V24.3535H85.0938V22.755H77.7108V21.7315H86.2208V25.354H78.8378V26.987H86.3703V28.0105H77.7108ZM77.0553 30.7245V29.678H86.8648V30.7245H77.0553ZM88.7038 25.1815V21.375H89.8538V24.1695H97.2023V25.1815H88.7038ZM88.0023 27.2745V26.2625H97.8118V27.2745H88.0023ZM88.6808 31.081V28.1485H89.8423V30.069H97.3058V31.081H88.6808ZM110.165 21.375H111.303V31.196H110.165V25.9405H106.531V24.8595H110.165V21.375ZM103.736 29.5515H106.335C107.267 29.5515 108.279 29.379 108.877 29.0915V30.138C108.279 30.437 107.255 30.6095 106.312 30.6095H102.575V21.674H103.736V29.5515ZM121.365 21.375H122.446V31.196H121.365V21.375ZM118.996 25.469V21.4325H120.065V31.0235H118.996V26.55H117.696C117.627 29.4595 116.845 30.736 115.419 30.736C113.936 30.736 113.131 29.3445 113.131 26.1705C113.131 22.9965 113.936 21.605 115.419 21.605C116.788 21.605 117.57 22.7895 117.685 25.469H118.996ZM115.419 29.701C116.236 29.701 116.615 28.5855 116.615 26.1705C116.615 23.7555 116.236 22.64 115.419 22.64C114.603 22.64 114.212 23.7555 114.212 26.1705C114.212 28.5855 114.603 29.701 115.419 29.701ZM132.3 21.375H133.393V31.196H132.3V21.375ZM129.851 25.331V21.4325H130.932V31.0235H129.851V26.412H128.091C127.597 29.011 126.113 30.5635 124.17 30.5865V29.517C125.998 29.4595 127.171 27.47 127.171 24.434V22.7665H124.17V21.7315H128.275V24.3765C128.275 24.71 128.264 25.0205 128.241 25.331H129.851ZM28.7515 50.689V47.7335H27.3025V46.7675H28.7515V45.606H27.3025V44.64H28.7515V43.375H29.8785V50.689H28.7515ZM27.2565 48.826C26.6355 49.0445 25.5085 49.194 24.0825 49.194H20.7015V48.228H21.8515V44.5825H20.736V43.6165H26.992V44.5825H25.8535V48.159C26.4285 48.09 26.9 47.998 27.2565 47.8715V48.826ZM22.944 44.5825V48.228H24.163C24.37 48.228 24.5655 48.228 24.761 48.2165V44.5825H22.944ZM22.668 52.046H30.1085V53.0695H21.518V50.0795H22.668V52.046ZM39.6065 43.375H40.745V53.196H39.6065V43.375ZM35.777 44.778C35.7655 45.9165 35.6505 46.963 35.4665 47.883L38.675 51.8505L37.778 52.529L35.133 49.1595C34.4545 51.218 33.2815 52.437 31.798 52.6095V51.4825C33.546 51.1605 34.581 48.4235 34.627 44.778H32.028V43.7315H38.2955V44.778H35.777ZM43.2395 47.1815V44.962H50.5305V44.295H43.2395V43.49H51.6345V45.721H44.3435V46.3765H51.7725V47.1815H43.2395ZM42.5265 48.7225V47.8945H52.336V48.7225H42.5265ZM43.205 53.081V50.873H50.5535V50.2405H43.182V49.4355H51.6575V51.632H44.309V52.276H51.83V53.081H43.205ZM64.9537 43.375H66.0232V53.196H64.9537V43.375ZM62.5387 45.836V43.4325H63.6082V53.0235H62.5387V49.9875H60.2157C59.5142 51.632 58.2952 52.575 56.8002 52.5865V51.517C58.6287 51.4595 59.7557 49.47 59.7557 46.434V44.7665H56.8002V43.7315H60.8597V45.836H62.5387ZM60.5607 48.9295H62.5387V46.894H60.8482C60.8137 47.63 60.7217 48.32 60.5607 48.9295ZM75.5557 53.196V43.375H76.6942V53.196H75.5557ZM67.9887 52.5865V51.5055C70.6682 51.494 72.2782 49.4125 72.2782 46.1235V44.778H67.9887V43.7315H73.4397V46.1005C73.4397 50.0335 71.3467 52.5865 67.9887 52.5865ZM83.9382 51.678H88.2852V52.7245H78.4757V51.678H82.7767V49.8265H79.1312V46.2845H86.5142V44.7435H79.1312V43.7315H87.6412V47.262H80.2697V48.8145H87.7907V49.8265H83.9382V51.678ZM100.489 50.528V44.7895H93.1289V43.72H101.685V50.528H100.489ZM92.5309 52.7245V51.655H102.34V52.7245H92.5309ZM113.747 45.2495H112.367V46.388H113.747V47.354H112.367V48.711H111.229V43.375H112.367V44.2835H113.747V45.2495ZM110.516 47.6875C109.918 47.952 108.745 48.1245 107.353 48.1245H103.823V43.559H104.973V47.1355H107.422C108.756 47.1355 109.883 46.9745 110.516 46.6985V47.6875ZM108.308 49.01C110.665 49.01 112.517 49.5965 112.517 51.103C112.517 52.6095 110.665 53.196 108.308 53.196C105.962 53.196 104.099 52.6095 104.099 51.103C104.099 49.5965 105.962 49.01 108.308 49.01ZM108.308 52.2415C109.987 52.2415 111.298 51.885 111.298 51.103C111.298 50.321 109.987 49.953 108.308 49.953C106.64 49.953 105.318 50.321 105.318 51.103C105.318 51.885 106.64 52.2415 108.308 52.2415ZM125.641 43.375H126.779V53.196H125.641V47.9405H122.007V46.8595H125.641V43.375ZM119.212 51.5515H121.811C122.743 51.5515 123.755 51.379 124.353 51.0915V52.138C123.755 52.437 122.731 52.6095 121.788 52.6095H118.051V43.674H119.212V51.5515ZM136.841 43.375H137.922V53.196H136.841V43.375ZM134.472 47.469V43.4325H135.541V53.0235H134.472V48.55H133.172C133.103 51.4595 132.321 52.736 130.895 52.736C129.412 52.736 128.607 51.3445 128.607 48.1705C128.607 44.9965 129.412 43.605 130.895 43.605C132.264 43.605 133.046 44.7895 133.161 47.469H134.472ZM130.895 51.701C131.712 51.701 132.091 50.5855 132.091 48.1705C132.091 45.7555 131.712 44.64 130.895 44.64C130.079 44.64 129.688 45.7555 129.688 48.1705C129.688 50.5855 130.079 51.701 130.895 51.701ZM147.776 43.375H148.869V53.196H147.776V43.375ZM145.327 47.331V43.4325H146.408V53.0235H145.327V48.412H143.567C143.073 51.011 141.589 52.5635 139.646 52.5865V51.517C141.474 51.4595 142.647 49.47 142.647 46.434V44.7665H139.646V43.7315H143.751V46.3765C143.751 46.71 143.74 47.0205 143.717 47.331H145.327ZM162.372 45.1345H163.752V46.181H162.372V48.182H161.233V43.375H162.372V45.1345ZM159.566 43.6165V47.8255H153.827V43.6165H159.566ZM158.439 46.8825V44.5595H154.954V46.8825H158.439ZM155.299 51.3215V52.1725H162.613V53.0695H154.172V50.4705H161.245V49.6195H154.149V48.7225H162.372V51.3215H155.299ZM169.328 46.917C166.959 46.917 165.016 46.434 165.016 45.123C165.016 43.8235 166.959 43.3405 169.328 43.3405C171.697 43.3405 173.641 43.8235 173.641 45.123C173.641 46.434 171.697 46.917 169.328 46.917ZM169.328 46.043C171.042 46.043 172.468 45.7785 172.468 45.123C172.468 44.479 171.042 44.203 169.328 44.203C167.615 44.203 166.189 44.479 166.189 45.123C166.189 45.7785 167.615 46.043 169.328 46.043ZM164.429 48.412V47.5265H174.239V48.412H164.429ZM165.108 53.081V50.735H172.445V50.045H165.085V49.194H173.56V51.54H166.223V52.23H173.733V53.081H165.108ZM26.1065 69.296C25.2555 70.5035 23.3925 71.0325 20.943 71.0325V70.078C23.703 70.0665 25.4625 69.388 25.4625 67.801V67.571H20.943V66.6165H26.601V67.617C26.601 67.847 26.578 68.077 26.532 68.284H28.74V66.375H29.8785V71.182H28.74V69.296H26.1065ZM22.645 75.1725H30.12V76.0695H21.518V73.4705H28.7515V72.6195H21.495V71.7225H29.8785V74.3215H22.645V75.1725ZM39.549 73.206V67.7895H32.1775V66.72H40.7335V73.206H39.549ZM36.4095 74.655H41.389V75.7245H31.5795V74.655H35.2365V70.2735H36.4095V74.655ZM54.8002 66.375V71.5845H53.6617V66.375H54.8002ZM49.1192 69.3535C48.3832 70.4345 47.2217 71.1705 45.7842 71.366V70.331C47.6472 69.9975 48.8087 68.4105 48.8202 66.467L49.9587 66.536C49.9587 67.2375 49.8322 67.893 49.5792 68.491L52.6957 70.4115L52.1092 71.251L49.1192 69.3535ZM53.1672 75.161H55.0072V76.104H46.3247V75.161H48.1647V73.0795H46.4397V72.148H54.8922V73.0795H53.1672V75.161ZM49.3032 73.0795V75.161H52.0287V73.0795H49.3032ZM62.7112 69.4915C62.4927 70.7335 61.3772 71.573 59.7097 71.573C57.8467 71.573 56.6852 70.515 56.6852 69.0315C56.6852 67.548 57.8467 66.49 59.7097 66.49C61.3082 66.49 62.4007 67.272 62.6767 68.4335H64.6892V66.375H65.8277V71.8375H64.6892V69.4915H62.7112ZM57.8122 69.0315C57.8122 70.009 58.5827 70.6185 59.7097 70.6185C60.8367 70.6185 61.6072 70.009 61.6072 69.0315C61.6072 68.054 60.8367 67.4445 59.7097 67.4445C58.5827 67.4445 57.8122 68.054 57.8122 69.0315ZM66.6442 75.3105L65.9887 76.1385L64.0567 74.563C63.4472 75.46 62.5617 76.012 61.5957 76.0695L59.8937 74.586C59.2842 75.46 58.3987 76.0005 57.4442 76.0695V75.0345C58.5252 74.931 59.5027 73.689 59.6177 72.1365L60.7102 72.2975C60.6642 72.815 60.5377 73.2865 60.3652 73.7235L61.9177 74.977C62.8377 74.6895 63.6312 73.528 63.7347 72.1365L64.8387 72.2975C64.7927 72.8035 64.6777 73.2635 64.5052 73.689L66.6442 75.3105ZM75.6362 66.375H76.7747V76.196H75.6362V71.5155H73.7502C73.6582 74.3905 72.4737 75.736 70.8292 75.736C69.1042 75.736 67.8967 74.287 67.8967 71.1705C67.8967 68.054 69.1042 66.605 70.8292 66.605C72.4047 66.605 73.5547 67.824 73.7272 70.446H75.6362V66.375ZM70.8292 74.6895C71.8412 74.6895 72.6117 73.666 72.6117 71.1705C72.6117 68.6865 71.8412 67.6515 70.8292 67.6515C69.8057 67.6515 69.0352 68.6865 69.0352 71.1705C69.0352 73.666 69.8057 74.6895 70.8292 74.6895ZM79.3267 76.104C78.8667 76.104 78.5102 75.7475 78.5102 75.2875C78.5102 74.8275 78.8667 74.471 79.3267 74.471C79.7867 74.471 80.1317 74.8275 80.1317 75.2875C80.1317 75.7475 79.7867 76.104 79.3267 76.104ZM92.783 66.375H93.864V76.196H92.783V66.375ZM90.414 69.986V66.4325H91.4835V76.0235H90.414V71.044H87.8265V69.986H90.414ZM85.837 74.5975H87.217C88.0565 74.5975 88.9075 74.4595 89.5055 74.218V75.2185C88.919 75.483 87.976 75.6095 87.0905 75.6095H84.7215V66.7085H85.837V74.5975ZM105.639 70.354V71.4465H104.259V76.196H103.12V66.375H104.259V70.354H105.639ZM95.726 67.778V66.7315H101.073V69.1005C101.073 73.0105 99.061 75.5865 95.726 75.5865V74.5055C98.394 74.494 99.912 72.4125 99.912 69.1235V67.778H95.726ZM117.452 66.375H118.59V76.196H117.452V66.375ZM113.622 67.778C113.611 68.9165 113.496 69.963 113.312 70.883L116.52 74.8505L115.623 75.529L112.978 72.1595C112.3 74.218 111.127 75.437 109.643 75.6095V74.4825C111.391 74.1605 112.426 71.4235 112.472 67.778H109.873V66.7315H116.141V67.778H113.622ZM128.307 69.7905V67.456H121.027V66.49H129.457V69.7905H128.307ZM120.372 71.3315V70.377H130.181V71.3315H120.372ZM121.05 76.081V72.332H129.491V76.081H121.05ZM122.189 75.1495H128.364V73.2635H122.189V75.1495ZM142.534 71.642V68.675H141.177V67.663H142.534V66.375H143.673V71.642H142.534ZM140.568 66.5705V69.71H135.094V66.5705H140.568ZM139.475 68.859V67.4215H136.186V68.859H139.475ZM136.474 75.23H143.914V76.0695H135.347V73.7235H142.557V73.022H135.324V72.1825H137.175V71.3315H134.427V70.4575H138.486C139.832 70.4575 141.028 70.3425 141.706 70.0665V70.9405C141.085 71.2165 139.855 71.3315 138.452 71.3315H138.302V72.1825H143.673V74.5285H136.474V75.23ZM152.461 66.352V67.9275H155.071V68.9395H148.7V67.9275H151.299V66.352H152.461ZM158.751 70.354V71.4465H157.371V76.196H156.233V66.375H157.371V70.354H158.751ZM151.886 69.7215C153.484 69.7215 154.611 70.9175 154.611 72.723C154.611 74.5285 153.484 75.7245 151.886 75.7245C150.287 75.7245 149.149 74.5285 149.149 72.723C149.149 70.9175 150.287 69.7215 151.886 69.7215ZM151.886 74.7355C152.794 74.7355 153.507 73.9765 153.507 72.723C153.507 71.4695 152.794 70.7105 151.886 70.7105C150.966 70.7105 150.253 71.4695 150.253 72.723C150.253 73.9765 150.966 74.7355 151.886 74.7355ZM167.398 73.206V67.7895H160.027V66.72H168.583V73.206H167.398ZM164.259 74.655H169.238V75.7245H159.429V74.655H163.086V70.2735H164.259V74.655ZM29.798 88.375V93.8375H28.6595V88.375H29.798ZM26.923 91.0315C26.923 92.5495 25.727 93.5845 23.8525 93.5845C21.9665 93.5845 20.7705 92.5495 20.7705 91.0315C20.7705 89.525 21.9665 88.4785 23.8525 88.4785C25.727 88.4785 26.923 89.525 26.923 91.0315ZM21.909 91.0315C21.909 92.0435 22.7025 92.6415 23.8525 92.6415C24.991 92.6415 25.7845 92.0435 25.7845 91.0315C25.7845 90.0195 24.991 89.4215 23.8525 89.4215C22.7025 89.4215 21.909 90.0195 21.909 91.0315ZM30.5915 97.3105L29.913 98.1155L28.027 96.54C27.429 97.4485 26.5435 98.012 25.5775 98.0695L23.91 96.5975C23.3005 97.46 22.4265 98.0005 21.4835 98.0695V97.0345C22.5645 96.931 23.519 95.6545 23.6455 94.1365L24.7495 94.286C24.692 94.815 24.5655 95.298 24.3815 95.735L25.888 96.977C26.808 96.6895 27.5785 95.5165 27.682 94.1365L28.786 94.2975C28.74 94.792 28.6365 95.2405 28.4755 95.666L30.5915 97.3105ZM36.4785 91.917C34.1095 91.917 32.166 91.434 32.166 90.123C32.166 88.8235 34.1095 88.3405 36.4785 88.3405C38.8475 88.3405 40.791 88.8235 40.791 90.123C40.791 91.434 38.8475 91.917 36.4785 91.917ZM36.4785 91.043C38.192 91.043 39.618 90.7785 39.618 90.123C39.618 89.479 38.192 89.203 36.4785 89.203C34.765 89.203 33.339 89.479 33.339 90.123C33.339 90.7785 34.765 91.043 36.4785 91.043ZM31.5795 93.412V92.5265H41.389V93.412H31.5795ZM32.258 98.081V95.735H39.595V95.045H32.235V94.194H40.7105V96.54H33.3735V97.23H40.883V98.081H32.258ZM50.5535 88.375H51.692V98.196H50.5535V88.375ZM46.724 89.778C46.7125 90.9165 46.5975 91.963 46.4135 92.883L49.622 96.8505L48.725 97.529L46.08 94.1595C45.4015 96.218 44.2285 97.437 42.745 97.6095V96.4825C44.493 96.1605 45.528 93.4235 45.574 89.778H42.975V88.7315H49.2425V89.778H46.724ZM54.9915 96.517L54.4165 99.116H53.4735L53.8415 96.517H54.9915ZM67.3593 88.375H68.4978V98.196H67.3593V93.5155H65.4733C65.3813 96.3905 64.1968 97.736 62.5523 97.736C60.8273 97.736 59.6198 96.287 59.6198 93.1705C59.6198 90.054 60.8273 88.605 62.5523 88.605C64.1278 88.605 65.2778 89.824 65.4503 92.446H67.3593V88.375ZM62.5523 96.6895C63.5643 96.6895 64.3348 95.666 64.3348 93.1705C64.3348 90.6865 63.5643 89.6515 62.5523 89.6515C61.5288 89.6515 60.7583 90.6865 60.7583 93.1705C60.7583 95.666 61.5288 96.6895 62.5523 96.6895ZM76.4893 90.79H78.3753V88.375H79.5023V95.7005H78.3753V91.779H76.4893V90.79ZM73.4763 94.0445C73.0278 94.194 72.3608 94.263 71.7743 94.263H70.4863V88.6165H73.4303V89.571H71.6018V93.3085H72.0618C72.5333 93.3085 73.0968 93.251 73.4763 93.1245V94.0445ZM77.1563 93.987C76.6733 94.194 76.0293 94.263 75.3393 94.263H73.9018V88.6165H76.9033V89.571H75.0173V93.3085H75.5693C76.1328 93.3085 76.6963 93.2395 77.1563 93.044V93.987ZM72.2458 97.0575H79.7093V98.0695H71.0843V95.091H72.2458V97.0575ZM88.233 88.352V89.9275H90.8435V90.9395H84.4725V89.9275H87.0715V88.352H88.233ZM94.5235 92.354V93.4465H93.1435V98.196H92.005V88.375H93.1435V92.354H94.5235ZM87.658 91.7215C89.2565 91.7215 90.3835 92.9175 90.3835 94.723C90.3835 96.5285 89.2565 97.7245 87.658 97.7245C86.0595 97.7245 84.921 96.5285 84.921 94.723C84.921 92.9175 86.0595 91.7215 87.658 91.7215ZM87.658 96.7355C88.5665 96.7355 89.2795 95.9765 89.2795 94.723C89.2795 93.4695 88.5665 92.7105 87.658 92.7105C86.738 92.7105 86.025 93.4695 86.025 94.723C86.025 95.9765 86.738 96.7355 87.658 96.7355ZM104.482 92.929V93.9295H95.891V90.813H103.205V89.663H95.891V88.6625H104.332V91.779H97.018V92.929H104.482ZM105.011 95.091V96.126H100.687V98.426H99.5135V96.126H95.201V95.091H105.011ZM106.861 92.1815V89.962H114.152V89.295H106.861V88.49H115.256V90.721H107.965V91.3765H115.394V92.1815H106.861ZM106.148 93.7225V92.8945H115.958V93.7225H106.148ZM106.827 98.081V95.873H114.175V95.2405H106.804V94.4355H115.279V96.632H107.931V97.276H115.452V98.081H106.827ZM125.677 96.655H130.013V97.7245H120.203V96.655H124.516V94.447H120.847V88.6625H121.974V90.422H128.23V88.6625H129.357V94.447H125.677V96.655ZM121.974 91.4455V93.4235H128.23V91.4455H121.974ZM139.511 88.375H140.592V98.196H139.511V93.4005H137.912V98.0235H136.831V88.4325H137.912V92.331H139.511V88.375ZM132.565 96.5975H133.83C134.669 96.5975 135.52 96.448 136.118 96.218V97.23C135.532 97.483 134.589 97.6095 133.703 97.6095H131.449V88.7085H132.565V96.5975ZM150.067 95.206V89.7895H142.695V88.72H151.251V95.206H150.067ZM146.927 96.655H151.907V97.7245H142.097V96.655H145.754V92.2735H146.927V96.655ZM165.318 88.375V93.8375H164.179V88.375H165.318ZM162.443 91.0315C162.443 92.5495 161.247 93.5845 159.372 93.5845C157.486 93.5845 156.29 92.5495 156.29 91.0315C156.29 89.525 157.486 88.4785 159.372 88.4785C161.247 88.4785 162.443 89.525 162.443 91.0315ZM157.429 91.0315C157.429 92.0435 158.222 92.6415 159.372 92.6415C160.511 92.6415 161.304 92.0435 161.304 91.0315C161.304 90.0195 160.511 89.4215 159.372 89.4215C158.222 89.4215 157.429 90.0195 157.429 91.0315ZM166.111 97.3105L165.433 98.1155L163.547 96.54C162.949 97.4485 162.063 98.012 161.097 98.0695L159.43 96.5975C158.82 97.46 157.946 98.0005 157.003 98.0695V97.0345C158.084 96.931 159.039 95.6545 159.165 94.1365L160.269 94.286C160.212 94.815 160.085 95.298 159.901 95.735L161.408 96.977C162.328 96.6895 163.098 95.5165 163.202 94.1365L164.306 94.2975C164.26 94.792 164.156 95.2405 163.995 95.666L166.111 97.3105ZM171.998 91.917C169.629 91.917 167.686 91.434 167.686 90.123C167.686 88.8235 169.629 88.3405 171.998 88.3405C174.367 88.3405 176.311 88.8235 176.311 90.123C176.311 91.434 174.367 91.917 171.998 91.917ZM171.998 91.043C173.712 91.043 175.138 90.7785 175.138 90.123C175.138 89.479 173.712 89.203 171.998 89.203C170.285 89.203 168.859 89.479 168.859 90.123C168.859 90.7785 170.285 91.043 171.998 91.043ZM167.099 93.412V92.5265H176.909V93.412H167.099ZM167.778 98.081V95.735H175.115V95.045H167.755V94.194H176.23V96.54H168.893V97.23H176.403V98.081H167.778ZM28.6595 111.375H29.798V121.196H28.6595V111.375ZM24.83 112.778C24.8185 113.916 24.7035 114.963 24.5195 115.883L27.728 119.85L26.831 120.529L24.186 117.159C23.5075 119.218 22.3345 120.437 20.851 120.61V119.482C22.599 119.16 23.634 116.423 23.68 112.778H21.081V111.731H27.3485V112.778H24.83ZM42.6342 114.664V112.456H35.3202V111.49H43.7842V114.664H42.6342ZM44.4972 116.113H40.1617V117.389C42.2432 117.47 43.8992 118.033 43.8992 119.287C43.8992 120.667 41.9327 121.208 39.5867 121.208C37.2407 121.208 35.2742 120.667 35.2742 119.287C35.2742 117.987 36.9302 117.47 39.0117 117.389V116.113H34.6877V115.158H44.4972V116.113ZM42.7032 119.287C42.7032 118.597 41.1737 118.286 39.5867 118.286C37.9997 118.286 36.4702 118.562 36.4702 119.287C36.4702 119.988 37.9997 120.299 39.5867 120.299C41.1737 120.299 42.7032 119.988 42.7032 119.287ZM53.5697 114.79V112.456H46.2902V111.49H54.7197V114.79H53.5697ZM45.6347 116.331V115.377H55.4442V116.331H45.6347ZM46.3132 121.081V117.332H54.7542V121.081H46.3132ZM47.4517 120.15H53.6272V118.263H47.4517V120.15ZM59.5487 111.352V112.904H61.6072V113.928H56.3632V112.904H58.4217V111.352H59.5487ZM64.9652 111.375H66.0232V121.196H64.9652V116.4H63.3897V121.024H62.3317V111.432H63.3897V115.331H64.9652V111.375ZM59.0312 114.698C60.3537 114.698 61.3197 115.756 61.3197 117.711C61.3197 119.666 60.3537 120.725 59.0312 120.725C57.7202 120.725 56.7542 119.666 56.7542 117.711C56.7542 115.756 57.7202 114.698 59.0312 114.698ZM59.0312 119.724C59.7442 119.724 60.2732 118.999 60.2732 117.711C60.2732 116.423 59.7442 115.699 59.0312 115.699C58.3297 115.699 57.8122 116.423 57.8122 117.711C57.8122 118.999 58.3297 119.724 59.0312 119.724ZM75.5557 111.375H76.6942V121.196H75.5557V111.375ZM71.7262 112.778C71.7147 113.916 71.5997 114.963 71.4157 115.883L74.6242 119.85L73.7272 120.529L71.0822 117.159C70.4037 119.218 69.2307 120.437 67.7472 120.61V119.482C69.4952 119.16 70.5302 116.423 70.5762 112.778H67.9772V111.731H74.2447V112.778H71.7262ZM86.5832 111.375H87.7217V121.196H86.5832V116.435H82.9492V115.365H86.5832V111.375ZM80.1547 119.574H82.7537C83.6852 119.574 84.6972 119.39 85.2952 119.114V120.15C84.6972 120.437 83.6392 120.61 82.6962 120.61H78.9932V111.731H84.6972V112.766H80.1547V119.574ZM99.6922 115.354V116.446H98.3122V121.196H97.1737V111.375H98.3122V115.354H99.6922ZM91.0097 119.563H93.7812C94.7127 119.563 95.7247 119.39 96.3227 119.103V120.138C95.7247 120.437 94.7012 120.61 93.7582 120.61H89.8827V115.572H94.1722V112.778H89.8597V111.731H95.3107V116.619H91.0097V119.563ZM108.339 118.206V112.789H100.968V111.72H109.524V118.206H108.339ZM105.2 119.655H110.179V120.725H100.37V119.655H104.027V115.273H105.2V119.655ZM112.168 121.104C111.708 121.104 111.351 120.748 111.351 120.288C111.351 119.827 111.708 119.471 112.168 119.471C112.628 119.471 112.973 119.827 112.973 120.288C112.973 120.748 112.628 121.104 112.168 121.104ZM125.29 121.196V111.375H126.44V121.196H125.29ZM120.656 120.736C118.908 120.736 117.677 119.287 117.677 116.17C117.677 113.054 118.908 111.605 120.656 111.605C122.392 111.605 123.623 113.054 123.623 116.17C123.623 119.287 122.392 120.736 120.656 120.736ZM120.656 119.689C121.679 119.689 122.484 118.666 122.484 116.17C122.484 113.686 121.679 112.651 120.656 112.651C119.609 112.651 118.816 113.686 118.816 116.17C118.816 118.666 119.609 119.689 120.656 119.689ZM139.438 118.689V115.733H137.989V114.767H139.438V113.606H137.989V112.64H139.438V111.375H140.565V118.689H139.438ZM137.943 116.826C137.322 117.045 136.195 117.194 134.769 117.194H131.388V116.228H132.538V112.582H131.422V111.616H137.678V112.582H136.54V116.159C137.115 116.09 137.586 115.998 137.943 115.871V116.826ZM133.63 112.582V116.228H134.849C135.056 116.228 135.252 116.228 135.447 116.216V112.582H133.63ZM133.354 120.046H140.795V121.07H132.204V118.079H133.354V120.046ZM150.293 111.375H151.431V121.196H150.293V111.375ZM146.463 112.778C146.452 113.916 146.337 114.963 146.153 115.883L149.361 119.85L148.464 120.529L145.819 117.159C145.141 119.218 143.968 120.437 142.484 120.61V119.482C144.232 119.16 145.267 116.423 145.313 112.778H142.714V111.731H148.982V112.778H146.463ZM163.482 115.354V116.446H162.102V121.196H160.964V111.375H162.102V115.354H163.482ZM153.569 112.778V111.731H158.917V114.1C158.917 118.01 156.904 120.587 153.569 120.587V119.505C156.237 119.494 157.755 117.412 157.755 114.123V112.778H153.569ZM175.628 111.375H176.709V121.196H175.628V111.375ZM173.259 114.986V111.432H174.329V121.024H173.259V116.044H170.672V114.986H173.259ZM168.682 119.597H170.062C170.902 119.597 171.753 119.459 172.351 119.218V120.219C171.764 120.483 170.821 120.61 169.936 120.61H167.567V111.708H168.682V119.597ZM28.6595 138.182V133.375H29.798V138.182H28.6595ZM23.864 138.055C22.047 138.055 20.8165 137.101 20.8165 135.767C20.8165 134.433 22.047 133.478 23.864 133.478C25.681 133.478 26.9 134.433 26.9 135.767C26.9 137.101 25.681 138.055 23.864 138.055ZM23.864 137.135C24.991 137.135 25.773 136.595 25.773 135.767C25.773 134.939 24.991 134.398 23.864 134.398C22.737 134.398 21.9435 134.939 21.9435 135.767C21.9435 136.595 22.737 137.135 23.864 137.135ZM21.5985 143.07V140.47H28.671V139.619H21.5755V138.722H29.798V141.321H22.7255V142.173H30.0395V143.07H21.5985ZM40.469 135.249H41.849V136.33H40.469V138.803H39.3305V133.375H40.469V135.249ZM34.926 136.457C34.213 137.607 33.063 138.412 31.6025 138.607V137.572C33.4655 137.239 34.558 135.537 34.581 133.467L35.7195 133.536C35.7195 134.26 35.593 134.939 35.363 135.56L38.4105 137.538L37.824 138.377L34.926 136.457ZM36.4095 139.125C38.767 139.125 40.6185 139.688 40.6185 141.16C40.6185 142.633 38.767 143.196 36.4095 143.196C34.0635 143.196 32.2005 142.633 32.2005 141.16C32.2005 139.688 34.0635 139.125 36.4095 139.125ZM36.4095 142.253C38.0885 142.253 39.3995 141.919 39.3995 141.16C39.3995 140.413 38.0885 140.068 36.4095 140.068C34.742 140.068 33.4195 140.413 33.4195 141.16C33.4195 141.919 34.742 142.253 36.4095 142.253ZM50.4417 135.433C49.3607 136.595 47.6472 137.308 45.9912 137.342V136.353C47.8887 136.296 50.0047 135.077 50.3842 133.145L51.5227 133.329C51.4307 133.8 51.2582 134.249 51.0282 134.651L55.1452 136.514L54.7197 137.388L50.4417 135.433ZM51.0972 138.274H55.4442V139.217H45.6347V138.274H49.9702V136.779H51.0972V138.274ZM46.2327 141.126V140.183H54.7542V143.208H53.6042V141.126H46.2327ZM64.9422 133.375H66.0232V143.196H64.9422V133.375ZM62.5732 137.469V133.432H63.6427V143.024H62.5732V138.55H61.2737C61.2047 141.459 60.4227 142.736 58.9967 142.736C57.5132 142.736 56.7082 141.344 56.7082 138.17C56.7082 134.996 57.5132 133.605 58.9967 133.605C60.3652 133.605 61.1472 134.789 61.2622 137.469H62.5732ZM58.9967 141.701C59.8132 141.701 60.1927 140.585 60.1927 138.17C60.1927 135.755 59.8132 134.64 58.9967 134.64C58.1802 134.64 57.7892 135.755 57.7892 138.17C57.7892 140.585 58.1802 141.701 58.9967 141.701ZM80.9063 135.249V136.33H79.5263V138.711H78.3878V133.375H79.5263V135.249H80.9063ZM74.0408 136.606C73.3738 137.653 72.2238 138.354 70.7748 138.492V137.469C72.3848 137.25 73.3968 136.146 73.5463 134.605H70.9013V133.628H77.1688V134.605H74.6848C74.6618 134.985 74.5928 135.353 74.4778 135.698L77.4908 137.549L76.9273 138.4L74.0408 136.606ZM71.3153 143.07V139.251H79.5263V143.07H71.3153ZM72.4538 140.217V142.115H78.3878V140.217H72.4538ZM90.5308 135.709H91.8533V136.802H90.5308V140.666H89.4153V133.375H90.5308V135.709ZM84.6428 134.996C84.6428 137.216 83.4123 138.826 81.7218 138.918V137.917C82.7568 137.825 83.5388 136.744 83.5388 135.203V134.582H81.7218V133.616H84.6428V134.996ZM88.1158 135.031C88.1158 137.538 86.6668 139.067 84.9073 139.136V138.147C85.9653 138.067 87.0118 137.009 87.0118 135.249V134.582H85.1028V133.616H88.1158V135.031ZM83.4238 139.941V142.035H90.7723V143.07H82.2623V139.941H83.4238ZM100.558 143.196V133.375H101.708V143.196H100.558ZM95.9234 142.736C94.1754 142.736 92.9449 141.287 92.9449 138.17C92.9449 135.054 94.1754 133.605 95.9234 133.605C97.6599 133.605 98.8904 135.054 98.8904 138.17C98.8904 141.287 97.6599 142.736 95.9234 142.736ZM95.9234 141.689C96.9469 141.689 97.7519 140.666 97.7519 138.17C97.7519 135.686 96.9469 134.651 95.9234 134.651C94.8769 134.651 94.0834 135.686 94.0834 138.17C94.0834 140.666 94.8769 141.689 95.9234 141.689ZM113.747 137.354V138.446H112.367V143.196H111.229V133.375H112.367V137.354H113.747ZM105.065 141.563H107.836C108.768 141.563 109.78 141.39 110.378 141.103V142.138C109.78 142.437 108.756 142.61 107.813 142.61H103.938V137.572H108.227V134.778H103.915V133.731H109.366V138.619H105.065V141.563ZM119.899 141.666H124.234V142.725H114.425V141.666H118.737V139.286H115.069V133.731H123.59V134.789H116.23V138.228H123.705V139.286H119.899V141.666ZM138.75 137.354V138.446H137.439V143.196H136.323V133.375H137.439V137.354H138.75ZM129.941 141.574H130.412C130.849 141.574 131.424 141.517 131.815 141.356V142.368C131.355 142.529 130.654 142.61 130.079 142.61H128.825V133.731H131.769V134.766H129.941V141.574ZM133.356 141.574H133.885C134.426 141.574 135.035 141.482 135.495 141.252V142.288C135.001 142.506 134.345 142.61 133.667 142.61H132.241V133.731H135.242V134.766H133.356V141.574ZM143.981 136.238V137.17H140.048V133.49H144.004V134.421H141.175V136.238H143.981ZM148.65 136.238V137.17H144.568V133.49H148.535V134.421H145.695V136.238H148.65ZM139.427 138.159H149.237V139.102H139.427V138.159ZM145.166 139.884C145.085 140.229 144.959 140.551 144.798 140.838L148.915 142.207L148.547 143.185L144.177 141.609C143.142 142.587 141.497 143.07 139.91 143.07V142.069C141.808 142.069 143.682 141.218 144.027 139.7L145.166 139.884ZM157.01 134.306V135.238H150.34V134.306H153.1V133.202H154.25V134.306H157.01ZM159.264 136.066H160.644V137.158H159.264V140.735H158.125V133.375H159.264V136.066ZM153.675 139.815C152.042 139.815 150.765 139.09 150.765 137.802C150.765 136.514 152.042 135.79 153.675 135.79C155.308 135.79 156.573 136.514 156.573 137.802C156.573 139.09 155.308 139.815 153.675 139.815ZM153.675 136.664C152.571 136.664 151.869 137.147 151.869 137.802C151.869 138.469 152.571 138.941 153.675 138.941C154.779 138.941 155.48 138.469 155.48 137.802C155.48 137.147 154.779 136.664 153.675 136.664ZM152.203 140.378V142.058H159.528V143.07H151.053V140.378H152.203ZM169.225 135.479C168.144 136.71 166.442 137.48 164.786 137.515V136.514C166.683 136.445 168.799 135.088 169.179 133.145L170.317 133.329C170.225 133.812 170.053 134.272 169.8 134.697L173.974 136.71L173.526 137.572L169.225 135.479ZM164.441 138.389H174.25V139.355H169.903V141.068H168.753V139.355H164.441V138.389ZM166.269 140.286V142.104H173.733V143.081H165.108V140.286H166.269ZM29.522 158.709H30.902V159.802H29.522V163.666H28.3835V156.375H29.522V158.709ZM26.5435 157.95C26.5435 160.745 24.255 162.125 20.8855 162.125V161.101C23.634 161.09 25.3935 160.043 25.3935 158.088V157.617H20.8855V156.616H26.5435V157.95ZM22.461 162.976V165.035H29.7865V166.07H21.311V162.976H22.461ZM39.6065 166.196V156.375H40.7565V166.196H39.6065ZM34.972 165.736C33.224 165.736 31.9935 164.287 31.9935 161.17C31.9935 158.054 33.224 156.605 34.972 156.605C36.7085 156.605 37.939 158.054 37.939 161.17C37.939 164.287 36.7085 165.736 34.972 165.736ZM34.972 164.689C35.9955 164.689 36.8005 163.666 36.8005 161.17C36.8005 158.686 35.9955 157.651 34.972 157.651C33.9255 157.651 33.132 158.686 33.132 161.17C33.132 163.666 33.9255 164.689 34.972 164.689ZM53.6847 156.375H54.8232V166.196H53.6847V156.375ZM49.5792 164.54H49.6482C50.9707 164.54 52.1667 164.425 52.8682 164.126V165.196C52.1667 165.483 51.0052 165.61 49.6597 165.61H45.6347V164.54H48.4407V162.033H46.2097V156.754H51.9137V157.801H47.3367V160.986H52.0287V162.033H49.5792V164.54ZM64.6892 156.375H65.8277V166.196H64.6892V161.515H62.8032C62.7112 164.39 61.5267 165.736 59.8822 165.736C58.1572 165.736 56.9497 164.287 56.9497 161.17C56.9497 158.054 58.1572 156.605 59.8822 156.605C61.4577 156.605 62.6077 157.824 62.7802 160.446H64.6892V156.375ZM59.8822 164.689C60.8942 164.689 61.6647 163.666 61.6647 161.17C61.6647 158.686 60.8942 157.651 59.8822 157.651C58.8587 157.651 58.0882 158.686 58.0882 161.17C58.0882 163.666 58.8587 164.689 59.8822 164.689ZM75.6362 162.516V158.548H74.0722V157.571H75.6362V156.375H76.7747V162.516H75.6362ZM73.6812 160.285L70.6912 159.089C70.0472 159.721 69.0927 160.181 67.8507 160.296V159.388C69.3342 159.193 70.1622 158.364 70.4267 157.49H67.9657V156.593H73.7962V157.49H71.5882C71.5307 157.789 71.4157 158.077 71.2662 158.364L74.0377 159.434L73.6812 160.285ZM77.5567 165.276L76.9702 166.104L74.9692 164.735C74.3482 165.506 73.4397 166.012 72.4622 166.07L70.7027 164.781C70.0702 165.518 69.1732 166.012 68.2187 166.07V165.058C69.2307 164.988 70.1852 164.126 70.4152 162.999H70.0357V161.86H67.5287V160.963H71.5882C72.9337 160.963 74.1297 160.871 74.8082 160.572V161.469C74.1872 161.745 72.9567 161.86 71.5537 161.86H71.1512V162.792L71.5422 162.838C71.4962 163.24 71.3812 163.62 71.2202 163.976L72.7497 165.023C73.7157 164.804 74.5667 163.861 74.6817 162.7L75.7512 162.849C75.7052 163.229 75.6132 163.585 75.4637 163.93L77.5567 165.276ZM83.3747 162.815C80.6952 162.815 78.9587 161.584 78.9587 159.698C78.9587 157.812 80.6952 156.582 83.3747 156.582C86.0542 156.582 87.7907 157.812 87.7907 159.698C87.7907 161.584 86.0542 162.815 83.3747 162.815ZM83.3747 161.78C85.3067 161.78 86.5947 160.94 86.5947 159.698C86.5947 158.456 85.3067 157.617 83.3747 157.617C81.4427 157.617 80.1547 158.456 80.1547 159.698C80.1547 160.94 81.4427 161.78 83.3747 161.78ZM78.4757 165.725V164.655H88.2852V165.725H78.4757ZM97.5417 163.677V160.871H95.9317V159.859H97.5417V158.479H95.9317V157.467H97.5417V156.375H98.6687V163.677H97.5417ZM95.3567 156.616V161.929H89.8367V156.616H95.3567ZM94.2297 160.94V157.605H90.9522V160.94H94.2297ZM91.4697 165.046H98.8757V166.07H90.3082V162.884H91.4697V165.046ZM112.609 159.779L108.17 158.583C107.158 159.307 105.536 159.698 103.984 159.733V158.847C105.617 158.801 107.48 158.307 107.928 157.364H104.145V156.49H112.609V157.364H109.101C109.044 157.548 108.963 157.72 108.86 157.881L112.885 158.928L112.609 159.779ZM108.94 160.411H113.287V161.285H103.478V160.411H107.813V159.468H108.94V160.411ZM108.952 161.676V162.297H112.758V163.16H103.984V162.297H107.802V161.676H108.952ZM108.365 163.631C111.022 163.631 112.31 164.057 112.31 164.942C112.31 165.828 111.022 166.254 108.365 166.254C105.72 166.254 104.432 165.828 104.432 164.942C104.432 164.057 105.72 163.631 108.365 163.631ZM108.365 165.449C110.113 165.449 111.16 165.276 111.16 164.942C111.16 164.609 110.113 164.436 108.365 164.436C106.629 164.436 105.582 164.609 105.582 164.942C105.582 165.276 106.629 165.449 108.365 165.449ZM123.866 156.375V162.01H122.774V156.375H123.866ZM118.657 159.491C118.116 161.021 116.552 161.803 114.643 161.814V160.825C116.495 160.814 117.771 159.928 117.771 158.238V157.582H114.643V156.616H118.875V158.192C118.875 158.272 118.875 158.353 118.864 158.433H120.347V156.432H121.428V161.906H120.347V159.491H118.657ZM124.556 165.288L123.901 166.127L121.946 164.609C121.302 165.483 120.359 166.001 119.358 166.07L117.633 164.666C116.989 165.495 116.058 166.001 115.08 166.07V165.035C116.184 164.931 117.277 163.804 117.415 162.274L118.507 162.435C118.45 162.953 118.323 163.413 118.139 163.838L119.657 164.977C120.646 164.724 121.532 163.666 121.658 162.274L122.762 162.435C122.705 162.918 122.59 163.367 122.429 163.758L124.556 165.288ZM135.641 160.354V161.446H134.261V166.196H133.123V156.375H134.261V160.354H135.641ZM126.993 164.574H129.73C130.662 164.574 131.674 164.39 132.272 164.103V165.138C131.674 165.437 130.616 165.61 129.673 165.61H125.832V156.731H131.501V157.766H126.993V164.574ZM137.17 166.104C136.71 166.104 136.353 165.748 136.353 165.288C136.353 164.827 136.71 164.471 137.17 164.471C137.63 164.471 137.975 164.827 137.975 165.288C137.975 165.748 137.63 166.104 137.17 166.104ZM150.626 156.375H151.707V166.196H150.626V156.375ZM148.257 159.986V156.432H149.327V166.024H148.257V161.044H145.67V159.986H148.257ZM143.68 164.597H145.06C145.9 164.597 146.751 164.459 147.349 164.218V165.219C146.762 165.483 145.819 165.61 144.934 165.61H142.565V156.708H143.68V164.597ZM163.482 160.354V161.446H162.102V166.196H160.964V156.375H162.102V160.354H163.482ZM153.569 157.778V156.731H158.917V159.1C158.917 163.01 156.904 165.587 153.569 165.587V164.505C156.237 164.494 157.755 162.412 157.755 159.123V157.778H153.569ZM175.295 166.196V156.375H176.445V166.196H175.295ZM170.66 165.736C168.912 165.736 167.682 164.287 167.682 161.17C167.682 158.054 168.912 156.605 170.66 156.605C172.397 156.605 173.627 158.054 173.627 161.17C173.627 164.287 172.397 165.736 170.66 165.736ZM170.66 164.689C171.684 164.689 172.489 163.666 172.489 161.17C172.489 158.686 171.684 157.651 170.66 157.651C169.614 157.651 168.82 158.686 168.82 161.17C168.82 163.666 169.614 164.689 170.66 164.689ZM28.602 181.434V179.433H21.2765V178.49H29.7405V181.434H28.602ZM20.6325 182.883V181.951H30.442V182.883H20.6325ZM21.311 188.081V185.459H28.648V184.608H21.288V183.711H29.7635V186.321H22.4265V187.184H29.936V188.081H21.311ZM36.4785 181.917C34.1095 181.917 32.166 181.434 32.166 180.123C32.166 178.823 34.1095 178.34 36.4785 178.34C38.8475 178.34 40.791 178.823 40.791 180.123C40.791 181.434 38.8475 181.917 36.4785 181.917ZM36.4785 181.043C38.192 181.043 39.618 180.778 39.618 180.123C39.618 179.479 38.192 179.203 36.4785 179.203C34.765 179.203 33.339 179.479 33.339 180.123C33.339 180.778 34.765 181.043 36.4785 181.043ZM31.5795 183.412V182.526H41.389V183.412H31.5795ZM32.258 188.081V185.735H39.595V185.045H32.235V184.194H40.7105V186.54H33.3735V187.23H40.883V188.081H32.258ZM53.6617 183.32V178.375H54.8002V183.32H53.6617ZM48.8662 183.17C46.9802 183.17 45.8187 182.193 45.8187 180.824C45.8187 179.456 46.9802 178.478 48.8662 178.478C50.7407 178.478 51.9022 179.456 51.9022 180.824C51.9022 182.193 50.7407 183.17 48.8662 183.17ZM48.8662 182.239C49.9817 182.239 50.7752 181.733 50.7752 180.824C50.7752 179.916 49.9817 179.41 48.8662 179.41C47.7392 179.41 46.9457 179.916 46.9457 180.824C46.9457 181.733 47.7392 182.239 48.8662 182.239ZM46.4857 188.07V185.539H49.5447V184.734H46.4627V183.86H50.6142V186.39H47.5552V187.196H50.9937V188.07H46.4857ZM53.6617 188.07V184.815H51.1432V183.86H54.7887V188.07H53.6617ZM61.4807 181.917C59.1117 181.917 57.1682 181.434 57.1682 180.123C57.1682 178.823 59.1117 178.34 61.4807 178.34C63.8497 178.34 65.7932 178.823 65.7932 180.123C65.7932 181.434 63.8497 181.917 61.4807 181.917ZM61.4807 181.043C63.1942 181.043 64.6202 180.778 64.6202 180.123C64.6202 179.479 63.1942 179.203 61.4807 179.203C59.7672 179.203 58.3412 179.479 58.3412 180.123C58.3412 180.778 59.7672 181.043 61.4807 181.043ZM56.5817 183.412V182.526H66.3912V183.412H56.5817ZM57.2602 188.081V185.735H64.5972V185.045H57.2372V184.194H65.7127V186.54H58.3757V187.23H65.8852V188.081H57.2602ZM79.1008 178.375H80.1358V188.196H79.1008V183.354H77.8013V188.024H76.7663V178.432H77.8013V182.331H79.1008V178.375ZM71.8903 186.643H71.9938C72.3733 186.643 72.8793 186.609 73.2358 186.471V187.414C72.8218 187.564 72.2008 187.61 71.6948 187.61H70.8553V178.731H73.1898V179.697H71.8903V186.643ZM74.6503 186.643H74.8113C75.3173 186.643 75.8923 186.609 76.2948 186.402V187.357C75.8578 187.552 75.2138 187.61 74.6043 187.61H73.6153V178.731H76.0878V179.697H74.6503V186.643ZM84.1483 181.1C83.5733 181.675 82.7683 182.066 81.8138 182.181V181.25C82.8718 181.077 83.6883 180.41 83.9643 179.398H82.1013V178.49H86.2643V179.398H85.0798C84.9993 179.743 84.8728 180.077 84.7003 180.376L86.2298 181.215C87.1958 180.997 87.9203 180.353 88.1848 179.398H86.7703V178.49H90.8643V179.398H89.3003C89.2313 179.697 89.1278 179.973 89.0013 180.238L91.3243 181.342L90.9103 182.193L88.4723 180.985C87.8858 181.629 87.0463 182.066 86.0343 182.181L84.1483 181.1ZM81.5838 182.906H91.3933V183.826H81.5838V182.906ZM82.2623 188.081V184.769H90.7033V188.081H82.2623ZM83.4008 185.677V187.173H89.5763V185.677H83.4008ZM94.0489 186.517L93.4739 189.116H92.5309L92.8989 186.517H94.0489ZM108.579 182.354V183.446H107.199V188.196H106.06V178.375H107.199V182.354H108.579ZM99.9307 186.551H102.668C103.599 186.551 104.611 186.379 105.209 186.103V187.138C104.611 187.437 103.588 187.61 102.645 187.61H98.7692V178.674H99.9307V186.551ZM117.617 178.375H118.698V188.196H117.617V178.375ZM115.248 182.469V178.432H116.317V188.024H115.248V183.55H113.948C113.879 186.459 113.097 187.736 111.671 187.736C110.188 187.736 109.383 186.344 109.383 183.17C109.383 179.996 110.188 178.605 111.671 178.605C113.04 178.605 113.822 179.789 113.937 182.469H115.248ZM111.671 186.701C112.488 186.701 112.867 185.585 112.867 183.17C112.867 180.755 112.488 179.64 111.671 179.64C110.855 179.64 110.464 180.755 110.464 183.17C110.464 185.585 110.855 186.701 111.671 186.701ZM131.672 178.375H132.753V188.196H131.672V183.4H130.073V188.024H128.992V178.432H130.073V182.331H131.672V178.375ZM124.726 186.597H125.991C126.83 186.597 127.681 186.459 128.279 186.218V187.219C127.693 187.472 126.75 187.61 125.864 187.61H123.61V178.731H127.854V179.743H124.726V186.597ZM137.225 178.352V179.904H139.284V180.928H134.04V179.904H136.098V178.352H137.225ZM142.642 178.375H143.7V188.196H142.642V183.4H141.066V188.024H140.008V178.432H141.066V182.331H142.642V178.375ZM136.708 181.698C138.03 181.698 138.996 182.756 138.996 184.711C138.996 186.666 138.03 187.725 136.708 187.725C135.397 187.725 134.431 186.666 134.431 184.711C134.431 182.756 135.397 181.698 136.708 181.698ZM136.708 186.724C137.421 186.724 137.95 185.999 137.95 184.711C137.95 183.423 137.421 182.699 136.708 182.699C136.006 182.699 135.489 183.423 135.489 184.711C135.489 185.999 136.006 186.724 136.708 186.724ZM157.203 179.962H158.583V181.008H157.203V183.182H156.065V178.375H157.203V179.962ZM151.602 181.215C150.889 182.204 149.751 182.906 148.336 183.09V182.078C150.199 181.744 151.304 180.249 151.315 178.467L152.454 178.536C152.454 179.18 152.327 179.801 152.085 180.353L155.179 182.066L154.616 182.929L151.602 181.215ZM150.13 186.321V187.173H157.445V188.07H149.003V185.47H156.076V184.619H148.98V183.722H157.203V186.321H150.13ZM169.53 180.56V181.652H168.208V184.24H167.092V178.375H168.208V180.56H169.53ZM161.101 182.331C160.698 183.216 160.043 183.791 159.077 184.021V182.998C160.146 182.641 160.491 181.376 160.526 179.582H159.341V178.616H162.515V179.582H161.618C161.607 180.203 161.549 180.767 161.446 181.261L162.619 182.86C163.458 182.377 163.78 181.204 163.815 179.582H162.964V178.616H166.161V179.582H164.907C164.896 180.192 164.838 180.755 164.723 181.25L166.471 183.274L165.735 183.918L164.39 182.296C163.976 183.205 163.297 183.791 162.308 184.021L161.101 182.331ZM159.847 185.769V184.78H168.208V188.196H167.058V185.769H159.847ZM28.579 204.664V202.456H21.265V201.49H29.729V204.664H28.579ZM30.442 206.113H26.1065V207.389C28.188 207.47 29.844 208.033 29.844 209.287C29.844 210.667 27.8775 211.208 25.5315 211.208C23.1855 211.208 21.219 210.667 21.219 209.287C21.219 207.987 22.875 207.47 24.9565 207.389V206.113H20.6325V205.158H30.442V206.113ZM28.648 209.287C28.648 208.597 27.1185 208.286 25.5315 208.286C23.9445 208.286 22.415 208.562 22.415 209.287C22.415 209.988 23.9445 210.299 25.5315 210.299C27.1185 210.299 28.648 209.988 28.648 209.287ZM39.5145 204.79V202.456H32.235V201.49H40.6645V204.79H39.5145ZM31.5795 206.331V205.377H41.389V206.331H31.5795ZM32.258 211.081V207.332H40.699V211.081H32.258ZM33.3965 210.15H39.572V208.263H33.3965V210.15ZM45.4935 201.352V202.904H47.552V203.928H42.308V202.904H44.3665V201.352H45.4935ZM50.91 201.375H51.968V211.196H50.91V206.4H49.3345V211.024H48.2765V201.432H49.3345V205.331H50.91V201.375ZM44.976 204.698C46.2985 204.698 47.2645 205.756 47.2645 207.711C47.2645 209.666 46.2985 210.725 44.976 210.725C43.665 210.725 42.699 209.666 42.699 207.711C42.699 205.756 43.665 204.698 44.976 204.698ZM44.976 209.724C45.689 209.724 46.218 208.999 46.218 207.711C46.218 206.423 45.689 205.699 44.976 205.699C44.2745 205.699 43.757 206.423 43.757 207.711C43.757 208.999 44.2745 209.724 44.976 209.724ZM61.5925 206.837V205.423H59.994V204.491H61.5925V203.399H59.994V202.467H61.5925V201.375H62.7195V206.837H61.5925ZM56.751 204.871C56.1185 205.952 55.049 206.699 53.669 206.837V205.814C55.2445 205.595 56.1415 204.261 56.268 202.605H53.7955V201.628H59.718V202.605H57.4065C57.3835 203.077 57.303 203.525 57.165 203.951L59.994 205.917L59.396 206.745L56.751 204.871ZM63.536 210.311L62.8805 211.139L60.914 209.551C60.3045 210.449 59.4075 211.012 58.43 211.07L56.6935 209.574C56.084 210.449 55.187 211.001 54.221 211.07V210.035C55.3135 209.931 56.3025 208.689 56.4175 207.136L57.51 207.297C57.464 207.803 57.3375 208.286 57.165 208.712L58.752 209.988C59.6835 209.701 60.4885 208.528 60.592 207.136L61.696 207.297C61.65 207.803 61.535 208.263 61.374 208.677L63.536 210.311ZM69.3195 207.815C66.64 207.815 64.9035 206.584 64.9035 204.698C64.9035 202.812 66.64 201.582 69.3195 201.582C71.999 201.582 73.7355 202.812 73.7355 204.698C73.7355 206.584 71.999 207.815 69.3195 207.815ZM69.3195 206.78C71.2515 206.78 72.5395 205.94 72.5395 204.698C72.5395 203.456 71.2515 202.617 69.3195 202.617C67.3875 202.617 66.0995 203.456 66.0995 204.698C66.0995 205.94 67.3875 206.78 69.3195 206.78ZM64.4205 210.725V209.655H74.23V210.725H64.4205ZM83.4866 208.677V205.871H81.8766V204.859H83.4866V203.479H81.8766V202.467H83.4866V201.375H84.6136V208.677H83.4866ZM81.3016 201.616V206.929H75.7816V201.616H81.3016ZM80.1746 205.94V202.605H76.8971V205.94H80.1746ZM77.4146 210.046H84.8206V211.07H76.2531V207.884H77.4146V210.046ZM98.5537 204.779L94.1147 203.583C93.1027 204.307 91.4812 204.698 89.9287 204.733V203.847C91.5617 203.801 93.4247 203.307 93.8732 202.364H90.0897V201.49H98.5537V202.364H95.0462C94.9887 202.548 94.9082 202.72 94.8047 202.881L98.8297 203.928L98.5537 204.779ZM94.8852 205.411H99.2322V206.285H89.4227V205.411H93.7582V204.468H94.8852V205.411ZM94.8967 206.676V207.297H98.7032V208.16H89.9287V207.297H93.7467V206.676H94.8967ZM94.3102 208.631C96.9667 208.631 98.2547 209.057 98.2547 209.942C98.2547 210.828 96.9667 211.254 94.3102 211.254C91.6652 211.254 90.3772 210.828 90.3772 209.942C90.3772 209.057 91.6652 208.631 94.3102 208.631ZM94.3102 210.449C96.0582 210.449 97.1047 210.276 97.1047 209.942C97.1047 209.609 96.0582 209.436 94.3102 209.436C92.5737 209.436 91.5272 209.609 91.5272 209.942C91.5272 210.276 92.5737 210.449 94.3102 210.449ZM109.811 201.375V207.01H108.719V201.375H109.811ZM104.602 204.491C104.061 206.021 102.497 206.803 100.588 206.814V205.825C102.44 205.814 103.716 204.928 103.716 203.238V202.582H100.588V201.616H104.82V203.192C104.82 203.272 104.82 203.353 104.809 203.433H106.292V201.432H107.373V206.906H106.292V204.491H104.602ZM110.501 210.288L109.846 211.127L107.891 209.609C107.247 210.483 106.304 211.001 105.303 211.07L103.578 209.666C102.934 210.495 102.003 211.001 101.025 211.07V210.035C102.129 209.931 103.222 208.804 103.36 207.274L104.452 207.435C104.395 207.953 104.268 208.413 104.084 208.838L105.602 209.977C106.591 209.724 107.477 208.666 107.603 207.274L108.707 207.435C108.65 207.918 108.535 208.367 108.374 208.758L110.501 210.288ZM119.424 201.375H120.563V211.196H119.424V206.515H117.538C117.446 209.39 116.262 210.736 114.617 210.736C112.892 210.736 111.685 209.287 111.685 206.17C111.685 203.054 112.892 201.605 114.617 201.605C116.193 201.605 117.343 202.824 117.515 205.446H119.424V201.375ZM114.617 209.689C115.629 209.689 116.4 208.666 116.4 206.17C116.4 203.686 115.629 202.651 114.617 202.651C113.594 202.651 112.823 203.686 112.823 206.17C112.823 208.666 113.594 209.689 114.617 209.689ZM123.115 211.104C122.655 211.104 122.298 210.748 122.298 210.288C122.298 209.827 122.655 209.471 123.115 209.471C123.575 209.471 123.92 209.827 123.92 210.288C123.92 210.748 123.575 211.104 123.115 211.104Z" fill="black"/>
<path d="M14 36H183" stroke="#E9E9E9" stroke-width="0.713864"/>
<path d="M14 58H183" stroke="#E9E9E9" stroke-width="0.713864"/>
<path d="M14 81H183" stroke="#E9E9E9" stroke-width="0.713864"/>
<path d="M14 104H183" stroke="#E9E9E9" stroke-width="0.713864"/>
<path d="M14 127H183" stroke="#E9E9E9" stroke-width="0.713864"/>
<path d="M14 149H183" stroke="#E9E9E9" stroke-width="0.713864"/>
<path d="M14 172H183" stroke="#E9E9E9" stroke-width="0.713864"/>
<path d="M14 195H183" stroke="#E9E9E9" stroke-width="0.713864"/>
<path d="M14 218H183" stroke="#E9E9E9" stroke-width="0.713864"/>
</svg>
