<svg width="96" height="43" viewBox="0 0 96 43" fill="none" xmlns="http://www.w3.org/2000/svg">
<g clip-path="url(#clip0_93_1997)">
<path d="M35.5892 8.7699C35.5892 8.4299 35.8692 8.21989 35.6392 7.96989C35.4192 7.73989 35.1892 8.0899 34.8692 8.0899C34.5492 8.0899 34.5492 7.9999 34.2192 7.9999C33.8892 7.9999 33.8992 8.22989 33.5692 8.22989C33.2392 8.22989 33.2492 7.96989 32.9192 7.96989C32.5892 7.96989 32.5992 8.23989 32.2692 8.23989C31.9392 8.23989 31.9492 7.94989 31.6192 7.94989C31.2892 7.94989 31.2992 8.2499 30.9692 8.2499C30.6392 8.2499 30.6492 8.15989 30.3192 8.15989C29.9892 8.15989 29.9992 8.14989 29.6792 8.14989C29.3592 8.14989 29.2692 8.29989 29.0392 8.06989C28.8092 7.8299 29.1592 7.74989 29.1592 7.41989C29.1592 7.08989 29.1592 7.08989 29.1592 6.75989C29.1592 6.42989 28.9992 6.42989 28.9992 6.09989C28.9992 5.76989 28.8492 5.76989 28.8492 5.43989C28.8492 5.10989 29.1092 5.10989 29.1092 4.77989C29.1092 4.44989 28.8792 4.44989 28.8792 4.11989C28.8792 3.78989 29.0092 3.78989 29.0092 3.45989C29.0092 3.12989 28.9492 3.12989 28.9492 2.79989C28.9492 2.46989 29.1192 2.46989 29.1192 2.14989C29.1192 1.8299 28.8492 1.81989 28.8492 1.48989C28.8492 1.15989 29.0892 1.15989 29.0892 0.829895C29.0892 0.499895 29.2892 0.379895 29.0492 0.149895C28.7992 -0.0901052 28.6892 0.0798948 28.3492 0.0798948C28.0092 0.0798948 28.0092 0.349895 27.6692 0.349895C27.3292 0.349895 27.3292 0.129895 26.9892 0.129895C26.6492 0.129895 26.6492 -0.000105167 26.3092 -0.000105167C25.9692 -0.000105167 25.9692 0.279895 25.6292 0.279895C25.2892 0.279895 25.2892 0.329895 24.9492 0.329895C24.6092 0.329895 24.6092 0.159895 24.2692 0.159895C23.9292 0.159895 23.9292 0.0498948 23.5892 0.0498948C23.2492 0.0498948 23.2492 0.249895 22.9092 0.249895C22.5692 0.249895 22.5692 0.299895 22.2292 0.299895C21.8892 0.299895 21.8892 0.349895 21.5492 0.349895C21.2092 0.349895 21.2092 0.239895 20.8692 0.239895C20.5292 0.239895 20.5292 0.159895 20.1892 0.159895C19.8492 0.159895 19.8492 0.139895 19.5092 0.139895C19.1692 0.139895 19.1692 0.149895 18.8292 0.149895C18.4892 0.149895 18.4892 0.199895 18.1492 0.199895C17.8092 0.199895 17.8092 0.279895 17.4692 0.279895C17.1292 0.279895 17.1292 0.0598948 16.7892 0.0598948C16.4492 0.0598948 16.2592 -0.150105 16.0192 0.0898948C15.7792 0.329895 16.1792 0.519895 16.1792 0.859895C16.1792 1.19989 16.1792 1.19989 16.1792 1.52989C16.1792 1.85989 16.0292 1.86989 16.0292 2.19989C16.0292 2.52989 15.9892 2.53989 15.9892 2.86989C15.9892 3.19989 16.1692 3.20989 16.1692 3.53989C16.1692 3.86989 16.2892 3.87989 16.2892 4.20989C16.2892 4.53989 16.2392 4.54989 16.2392 4.87989C16.2392 5.20989 15.9692 5.21989 15.9692 5.54989C15.9692 5.87989 15.9392 5.87989 15.9392 6.21989C15.9392 6.55989 16.1592 6.55989 16.1592 6.88989C16.1592 7.21989 16.2292 7.22989 16.2292 7.55989C16.2292 7.88989 16.1492 7.89989 16.1492 8.22989C16.1492 8.55989 15.9392 8.56989 15.9392 8.89989C15.9392 9.22989 16.1092 9.23989 16.1092 9.56989C16.1092 9.89989 16.2092 9.90989 16.2092 10.2399C16.2092 10.5699 16.1492 10.5799 16.1492 10.9099C16.1492 11.2399 16.2192 11.2499 16.2192 11.5799C16.2192 11.9099 16.0692 11.9199 16.0692 12.2499C16.0692 12.5799 16.0892 12.5899 16.0892 12.9199C16.0892 13.2499 16.1192 13.2499 16.1192 13.5899C16.1192 13.9299 16.1692 13.9199 16.1692 14.2599C16.1692 14.5999 16.2792 14.5899 16.2792 14.9299C16.2792 15.2699 15.9992 15.2699 15.9992 15.5999C15.9992 15.9299 16.2792 15.9399 16.2792 16.2699C16.2792 16.5999 16.2692 16.5999 16.2692 16.9399C16.2692 17.2799 16.1192 17.2699 16.1192 17.6099C16.1192 17.9499 16.0092 17.9399 16.0092 18.2799C16.0092 18.6199 16.1692 18.6099 16.1692 18.9499C16.1692 19.2899 16.0592 19.2799 16.0592 19.6199C16.0592 19.9599 16.0592 19.9599 16.0592 20.2899C16.0592 20.6199 15.7992 20.8099 16.0392 21.0399C16.2792 21.2799 16.4592 20.7899 16.7892 20.7899C17.1192 20.7899 17.1292 21.0599 17.4592 21.0599C17.7892 21.0599 17.7992 21.0099 18.1292 21.0099C18.4592 21.0099 18.4592 20.8799 18.7992 20.8799C19.1392 20.8799 19.1292 20.9299 19.4692 20.9299C19.8092 20.9299 19.7992 20.9499 20.1392 20.9499C20.4792 20.9499 20.4692 20.8299 20.8092 20.8299C21.1492 20.8299 21.1392 20.8299 21.4792 20.8299C21.8192 20.8299 21.8092 20.8199 22.1492 20.8199C22.4892 20.8199 22.4792 20.7799 22.8192 20.7799C23.1592 20.7799 23.1492 21.0799 23.4892 21.0799C23.8292 21.0799 23.8192 21.0599 24.1592 21.0599C24.4992 21.0599 24.4892 20.9599 24.8292 20.9599C25.1692 20.9599 25.1592 20.9799 25.4992 20.9799C25.8392 20.9799 25.8292 21.0599 26.1692 21.0599C26.5092 21.0599 26.4992 20.9899 26.8392 20.9899C27.1792 20.9899 27.1692 20.7999 27.5092 20.7999C27.8492 20.7999 27.8392 20.8899 28.1792 20.8899C28.5192 20.8899 28.5092 21.0799 28.8492 21.0799C29.1892 21.0799 29.1792 21.0599 29.5192 21.0599C29.8592 21.0599 29.8492 20.8199 30.1892 20.8199C30.5292 20.8199 30.5192 20.9099 30.8592 20.9099C31.1992 20.9099 31.1892 20.9299 31.5292 20.9299C31.8692 20.9299 31.8592 21.0399 32.1992 21.0399C32.5392 21.0399 32.5292 21.1199 32.8692 21.1199C33.2092 21.1199 33.1992 21.0199 33.5392 21.0199C33.8792 21.0199 33.8692 20.9599 34.2092 20.9599C34.5492 20.9599 34.5392 21.0099 34.8792 21.0099C35.2192 21.0099 35.2292 21.1099 35.4692 20.8699C35.7092 20.6299 35.5192 20.5999 35.4692 20.2799C35.4192 19.9399 35.5292 19.9299 35.5292 19.5899C35.5292 19.2499 35.4692 19.2499 35.4692 18.9099C35.4692 18.5699 35.4792 18.5699 35.4792 18.2299C35.4792 17.8899 35.4392 17.8899 35.4392 17.5499C35.4392 17.2099 35.5892 17.2099 35.5892 16.8699C35.5892 16.5299 35.6792 16.5299 35.6792 16.1899C35.6792 15.8499 35.4492 15.8499 35.4492 15.5099C35.4492 15.1699 35.5392 15.1699 35.5392 14.8299C35.5392 14.4899 35.4692 14.4899 35.4692 14.1499C35.4692 13.8099 35.6092 13.8099 35.6092 13.4699C35.6092 13.1299 35.4492 13.1299 35.4492 12.7899C35.4492 12.4499 35.6492 12.4499 35.6492 12.1099C35.6492 11.7699 35.7292 11.7699 35.7292 11.4299C35.7292 11.0899 35.6692 11.0899 35.6692 10.7499C35.6692 10.4099 35.4492 10.4099 35.4492 10.0699C35.4492 9.72989 35.5092 9.7299 35.5092 9.3899C35.5092 9.0499 35.6492 9.0499 35.6492 8.7099L35.5892 8.7699Z" fill="black"/>
<path d="M79.2696 12.8398C79.2696 12.4998 79.1696 12.4998 79.1696 12.1598C79.1696 11.8198 79.1896 11.8198 79.1896 11.4798C79.1896 11.1398 79.2696 11.1398 79.2696 10.7998C79.2696 10.4598 79.1996 10.4598 79.1996 10.1198C79.1996 9.77979 79.0096 9.77979 79.0096 9.43979C79.0096 9.09978 79.0996 9.09979 79.0996 8.75979C79.0996 8.41979 79.4896 8.24978 79.2596 7.99978C79.0396 7.76978 78.8496 7.97978 78.5296 7.97978C78.2096 7.97978 78.2096 8.21979 77.8796 8.21979C77.5496 8.21979 77.5596 8.12979 77.2296 8.12979C76.8996 8.12979 76.9096 8.10979 76.5796 8.10979C76.2496 8.10979 76.2596 7.99978 75.9296 7.99978C75.5996 7.99978 75.6096 7.91979 75.2796 7.91979C74.9496 7.91979 74.9596 8.01979 74.6296 8.01979C74.2996 8.01979 74.3096 8.07979 73.9796 8.07979C73.6496 8.07979 73.6596 8.02978 73.3396 8.02978C73.0196 8.02978 72.8396 8.39979 72.6096 8.16979C72.3796 7.92979 72.6096 7.75978 72.6096 7.42978C72.6096 7.09978 72.7496 7.09978 72.7496 6.76978C72.7496 6.43979 72.5996 6.43979 72.5996 6.10979C72.5996 5.77979 72.8396 5.77978 72.8396 5.44978C72.8396 5.11978 72.6196 5.11978 72.6196 4.78978C72.6196 4.45978 72.6196 4.45978 72.6196 4.12979C72.6196 3.79979 72.6796 3.79979 72.6796 3.46979C72.6796 3.13979 72.6796 3.13979 72.6796 2.80979C72.6796 2.47979 72.5496 2.47979 72.5496 2.15979C72.5496 1.83979 72.5696 1.82979 72.5696 1.49979C72.5696 1.16979 72.5196 1.16979 72.5196 0.839785C72.5196 0.509785 72.9296 0.409785 72.6996 0.179785C72.4496 -0.0602148 72.3496 0.329785 72.0096 0.329785C71.6696 0.329785 71.6696 0.359785 71.3296 0.359785C70.9896 0.359785 70.9896 0.0297852 70.6496 0.0297852C70.3096 0.0297852 70.3096 0.259785 69.9696 0.259785C69.6296 0.259785 69.6296 0.119785 69.2896 0.119785C68.9496 0.119785 68.9496 0.0597852 68.6096 0.0597852C68.2696 0.0597852 68.2696 0.139785 67.9296 0.139785C67.5896 0.139785 67.5896 0.369785 67.2496 0.369785C66.9096 0.369785 66.9096 0.369785 66.5696 0.369785C66.2296 0.369785 66.2296 0.0297852 65.8896 0.0297852C65.5496 0.0297852 65.5496 0.0797852 65.2096 0.0797852C64.8696 0.0797852 64.8696 0.119785 64.5296 0.119785C64.1896 0.119785 64.1896 0.119785 63.8496 0.119785C63.5096 0.119785 63.5096 0.0697852 63.1696 0.0697852C62.8296 0.0697852 62.8296 0.0597852 62.4896 0.0597852C62.1496 0.0597852 62.1496 0.0497852 61.8096 0.0497852C61.4696 0.0497852 61.4696 0.109785 61.1296 0.109785C60.7896 0.109785 60.7896 0.0697852 60.4496 0.0697852C60.1096 0.0697852 60.0996 0.0497852 59.8596 0.289785C59.6196 0.529785 59.9496 0.539785 59.9496 0.879785C59.9496 1.21979 59.8596 1.21979 59.8596 1.54979C59.8596 1.87979 59.7596 1.88979 59.7596 2.21979C59.7596 2.54979 59.8796 2.55979 59.8796 2.88979C59.8796 3.21979 59.9196 3.22979 59.9196 3.55979C59.9196 3.88979 59.5996 3.89979 59.5996 4.22978C59.5996 4.55978 59.8996 4.56979 59.8996 4.89979C59.8996 5.22978 59.7096 5.23979 59.7096 5.56979C59.7096 5.89979 59.8396 5.89978 59.8396 6.23978C59.8396 6.57978 59.8596 6.57978 59.8596 6.90978C59.8596 7.23978 59.6196 7.24978 59.6196 7.57978C59.6196 7.90978 59.6796 7.91979 59.6796 8.24979C59.6796 8.57979 59.9296 8.58979 59.9296 8.91979C59.9296 9.24979 59.6696 9.25979 59.6696 9.58979C59.6696 9.91979 59.7996 9.92979 59.7996 10.2598C59.7996 10.5898 59.7996 10.5998 59.7996 10.9298C59.7996 11.2598 59.7696 11.2698 59.7696 11.5998C59.7696 11.9298 59.8896 11.9398 59.8896 12.2698C59.8896 12.5998 59.9096 12.6098 59.9096 12.9398C59.9096 13.2698 59.9096 13.2698 59.9096 13.6098C59.9096 13.9498 59.7996 13.9398 59.7996 14.2798C59.7996 14.6198 59.9496 14.6098 59.9496 14.9498C59.9496 15.2898 59.6996 15.2898 59.6996 15.6198C59.6996 15.9498 59.7596 15.9598 59.7596 16.2898C59.7596 16.6198 59.6496 16.6198 59.6496 16.9598C59.6496 17.2998 59.7396 17.2898 59.7396 17.6298C59.7396 17.9698 59.6796 17.9598 59.6796 18.2998C59.6796 18.6398 59.8396 18.6298 59.8396 18.9698C59.8396 19.3098 59.6296 19.2998 59.6296 19.6398C59.6296 19.9798 59.6796 19.9798 59.6796 20.3098C59.6796 20.6398 59.6296 20.6498 59.8696 20.8898C60.1096 21.1298 60.1196 21.1198 60.4496 21.1198C60.7796 21.1198 60.7896 20.8498 61.1196 20.8498C61.4496 20.8498 61.4596 20.8498 61.7896 20.8498C62.1196 20.8498 62.1196 21.0298 62.4596 21.0298C62.7996 21.0298 62.7896 21.1598 63.1296 21.1598C63.4696 21.1598 63.4596 20.8798 63.7996 20.8798C64.1396 20.8798 64.1296 20.7998 64.4696 20.7998C64.8096 20.7998 64.7996 21.0498 65.1396 21.0498C65.4796 21.0498 65.4696 20.8298 65.8096 20.8298C66.1496 20.8298 66.1396 21.0798 66.4796 21.0798C66.8196 21.0798 66.8096 20.9498 67.1496 20.9498C67.4896 20.9498 67.4796 20.9698 67.8196 20.9698C68.1596 20.9698 68.1496 21.0198 68.4896 21.0198C68.8296 21.0198 68.8196 21.0798 69.1596 21.0798C69.4996 21.0798 69.4896 21.0198 69.8296 21.0198C70.1696 21.0198 70.1596 20.8098 70.4996 20.8098C70.8396 20.8098 70.8296 21.0898 71.1696 21.0898C71.5096 21.0898 71.4996 20.8298 71.8396 20.8298C72.1796 20.8298 72.1696 20.9098 72.5096 20.9098C72.8496 20.9098 72.8396 21.1798 73.1796 21.1798C73.5196 21.1798 73.5096 21.1398 73.8496 21.1398C74.1896 21.1398 74.1796 20.8898 74.5196 20.8898C74.8596 20.8898 74.8496 21.1498 75.1896 21.1498C75.5296 21.1498 75.5196 20.9198 75.8596 20.9198C76.1996 20.9198 76.1896 20.9598 76.5296 20.9598C76.8696 20.9598 76.8596 20.9598 77.1996 20.9598C77.5396 20.9598 77.5296 21.0898 77.8696 21.0898C78.2096 21.0898 78.1996 21.0898 78.5396 21.0898C78.8796 21.0898 78.9496 21.2198 79.1896 20.9798C79.4296 20.7398 79.1196 20.6998 79.0496 20.3498C78.9796 20.0198 79.3196 19.9798 79.3196 19.6398C79.3196 19.2998 79.2696 19.2998 79.2696 18.9598C79.2696 18.6198 79.1396 18.6198 79.1396 18.2798C79.1396 17.9398 79.1896 17.9398 79.1896 17.5998C79.1896 17.2598 79.2096 17.2598 79.2096 16.9198C79.2096 16.5798 79.0896 16.5798 79.0896 16.2398C79.0896 15.8998 79.0896 15.8998 79.0896 15.5598C79.0896 15.2198 79.0796 15.2198 79.0796 14.8798C79.0796 14.5398 79.0396 14.5398 79.0396 14.1998C79.0396 13.8598 79.3396 13.8598 79.3396 13.5198C79.3396 13.1798 79.3196 13.1798 79.3196 12.8398H79.2696Z" fill="black"/>
<path d="M51.9688 11.6499L51.9787 11.6599V11.6499H51.9688Z" fill="black"/>
<path d="M50.9495 6.59985C50.9495 6.59985 50.9495 6.59985 50.9395 6.59985C50.9695 6.61985 50.9995 6.62985 51.0195 6.64985C51.0195 6.64985 50.9895 6.61985 50.9495 6.59985Z" fill="black"/>
<path d="M46.3188 7.04978C46.3188 7.04978 46.3588 7.07978 46.3488 7.05978C46.3388 7.04978 46.3188 7.03978 46.2988 7.01978C46.2988 7.01978 46.2988 7.01978 46.3088 7.01978V7.02978L46.3188 7.04978Z" fill="black"/>
<path d="M51.5484 6.97992C51.5484 6.97992 51.5484 6.96992 51.5484 6.95992C51.5384 6.95992 51.5284 6.93992 51.5184 6.93992C51.4584 6.90992 51.4984 6.93992 51.5484 6.97992Z" fill="black"/>
<path d="M51.6489 7.04978C51.6489 7.04978 51.6889 7.07978 51.6789 7.05978C51.6689 7.04978 51.6489 7.03978 51.6289 7.01978C51.6289 7.01978 51.6289 7.01978 51.6389 7.01978V7.02978L51.6489 7.04978Z" fill="black"/>
<path d="M46.2086 6.97992C46.2086 6.97992 46.2086 6.96992 46.2086 6.95992C46.1986 6.95992 46.1886 6.93992 46.1786 6.93992C46.1186 6.90992 46.1586 6.93992 46.2086 6.97992Z" fill="black"/>
<path d="M45.6194 6.59985C45.6194 6.59985 45.6194 6.59985 45.6094 6.59985C45.6394 6.61985 45.6694 6.62985 45.6894 6.64985C45.6894 6.64985 45.6594 6.61985 45.6194 6.59985Z" fill="black"/>
<path d="M45.3184 15.2199C45.3184 15.2199 45.3484 15.2199 45.3584 15.2199C45.3384 15.1899 45.3184 15.1699 45.3184 15.1499C45.3184 15.1499 45.3184 15.1899 45.3184 15.2199Z" fill="black"/>
<path d="M45.0586 14.5898C45.0586 14.5898 45.0686 14.5598 45.0786 14.5598C45.0786 14.5398 45.0686 14.5198 45.0586 14.5398C45.0586 14.5498 45.0586 14.5698 45.0586 14.5898Z" fill="black"/>
<path d="M57.6087 6.88978C57.6087 6.55978 57.5687 6.55978 57.5687 6.21978C57.5687 5.87978 57.3187 5.88978 57.3187 5.54978C57.3187 5.20978 57.5787 5.21978 57.5787 4.87978C57.5787 4.53978 57.3487 4.54978 57.3487 4.20978C57.3487 3.86978 57.3887 3.87978 57.3887 3.53978C57.3887 3.19978 57.3887 3.20978 57.3887 2.86978C57.3887 2.52978 57.5187 2.53978 57.5187 2.19978C57.5187 1.85978 57.5187 1.86978 57.5187 1.52978C57.5187 1.18978 57.3987 1.19978 57.3987 0.859775C57.3987 0.519775 57.7187 0.379775 57.4787 0.139775C57.2387 -0.100225 57.0887 0.289775 56.7587 0.289775C56.4287 0.289775 56.4187 0.119775 56.0787 0.119775C55.7387 0.119775 55.7387 0.329775 55.3987 0.329775C55.0587 0.329775 55.0587 0.299775 54.7287 0.299775C54.3987 0.299775 54.3887 0.0597754 54.0487 0.0597754C53.7087 0.0597754 53.7087 0.229775 53.3787 0.229775C53.0487 0.229775 53.0387 0.349775 52.7087 0.349775C52.3787 0.349775 52.3687 0.129775 52.0387 0.129775C51.7087 0.129775 51.6987 0.199775 51.3687 0.199775C51.0387 0.199775 51.0287 0.0397754 50.6987 0.0397754C50.3687 0.0397754 50.3587 0.169775 50.0287 0.169775C49.6987 0.169775 49.6887 0.0597754 49.3587 0.0597754C49.0287 0.0597754 49.0187 0.209775 48.6887 0.209775C48.3587 0.209775 48.3487 0.0597754 48.0187 0.0597754C47.6887 0.0597754 47.6787 0.0497754 47.3487 0.0497754C47.0187 0.0497754 47.0087 0.319775 46.6787 0.319775C46.3487 0.319775 46.3387 0.0497754 46.0087 0.0497754C45.6787 0.0497754 45.6687 0.279775 45.3387 0.279775C45.0087 0.279775 44.9987 0.0197754 44.6687 0.0197754C44.3387 0.0197754 44.3287 0.329775 43.9987 0.329775C43.6687 0.329775 43.6587 0.199775 43.3287 0.199775C42.9987 0.199775 42.9887 0.0697754 42.6587 0.0697754C42.3287 0.0697754 42.3187 0.0197754 41.9887 0.0197754C41.6587 0.0197754 41.6487 0.339775 41.3187 0.339775C40.9887 0.339775 40.9787 0.299775 40.6487 0.299775C40.3187 0.299775 40.3087 0.169775 39.9787 0.169775C39.6487 0.169775 39.6387 0.149775 39.3087 0.149775C38.9787 0.149775 38.9687 0.149775 38.6387 0.149775C38.3087 0.149775 38.2687 0.0097754 38.0287 0.249775C37.7887 0.489775 38.0287 0.519775 38.0287 0.859775C38.0287 1.19978 37.9387 1.19978 37.9387 1.52978C37.9387 1.85978 37.8487 1.86978 37.8487 2.19978C37.8487 2.52978 37.9887 2.53978 37.9887 2.86978C37.9887 3.19978 38.0787 3.20978 38.0787 3.53978C38.0787 3.86978 37.8687 3.87978 37.8687 4.20978C37.8687 4.53978 37.7987 4.53978 37.7987 4.87978C37.7987 5.21978 37.9287 5.21978 37.9287 5.54978C37.9287 5.87978 38.0787 5.87978 38.0787 6.21978C38.0787 6.55978 37.7887 6.55978 37.7887 6.88978C37.7887 7.21978 37.9887 7.22978 37.9887 7.55978C37.9887 7.88978 38.0687 7.89977 38.0687 8.22977C38.0687 8.55977 38.0387 8.56977 38.0387 8.89977C38.0387 9.22977 37.9787 9.22977 37.9787 9.56977C37.9787 9.90977 37.8587 9.90977 37.8587 10.2398C37.8587 10.5698 37.9387 10.5698 37.9387 10.9098C37.9387 11.2498 38.1387 11.2398 38.1387 11.5798C38.1387 11.9198 38.1287 11.9098 38.1287 12.2498C38.1287 12.5898 37.9187 12.5798 37.9187 12.9198C37.9187 13.2598 37.8287 13.2498 37.8287 13.5898C37.8287 13.9298 38.0987 13.9198 38.0987 14.2598C38.0987 14.5998 37.8787 14.5898 37.8787 14.9298C37.8787 15.2698 38.0887 15.2598 38.0887 15.5998C38.0887 15.9398 37.8687 15.9298 37.8687 16.2698C37.8687 16.6098 38.1487 16.5998 38.1487 16.9398C38.1487 17.2798 37.9787 17.2698 37.9787 17.6098C37.9787 17.9498 37.9587 17.9398 37.9587 18.2798C37.9587 18.6198 38.0787 18.6098 38.0787 18.9498C38.0787 19.2898 37.9087 19.2798 37.9087 19.6198C37.9087 19.9598 37.8487 19.9498 37.8487 20.2898C37.8487 20.6298 37.6587 20.7898 37.8987 21.0298C38.1387 21.2698 38.3087 20.9598 38.6387 20.9598C38.9687 20.9598 38.9787 21.1398 39.3187 21.1398C39.6587 21.1398 39.6587 20.8798 39.9987 20.8798C40.3387 20.8798 40.3387 20.9698 40.6687 20.9698C40.9987 20.9698 41.0087 20.9998 41.3487 20.9998C41.6887 20.9998 41.6887 21.1098 42.0187 21.1098C42.3487 21.1098 42.3587 20.8998 42.6887 20.8998C43.0187 20.8998 43.0287 20.9698 43.3587 20.9698C43.6987 20.9698 43.6987 20.8098 44.0287 20.8098C44.3587 20.8098 44.3687 20.9398 44.6987 20.9398C45.0287 20.9398 45.0387 20.9398 45.3687 20.9398C45.6987 20.9398 45.7087 20.9198 46.0387 20.9198C46.3687 20.9198 46.3787 20.8098 46.7087 20.8098C47.0387 20.8098 47.0487 21.0998 47.3787 21.0998C47.7087 21.0998 47.7187 21.0998 48.0487 21.0998C48.3787 21.0998 48.3887 20.8298 48.7187 20.8298C49.0487 20.8298 49.0587 20.9398 49.3887 20.9398C49.7187 20.9398 49.7287 20.8198 50.0587 20.8198C50.3887 20.8198 50.3987 21.0698 50.7287 21.0698C51.0587 21.0698 51.0687 20.9198 51.3987 20.9198C51.7287 20.9198 51.7387 21.0698 52.0687 21.0698C52.3987 21.0698 52.4087 20.8598 52.7387 20.8598C53.0687 20.8598 53.0787 20.9698 53.4087 20.9698C53.7387 20.9698 53.7487 20.7698 54.0787 20.7698C54.4087 20.7698 54.4187 20.9998 54.7487 20.9998C55.0787 20.9998 55.0887 20.8098 55.4187 20.8098C55.7487 20.8098 55.7587 21.0598 56.0887 21.0598C56.4187 21.0598 56.4287 21.0798 56.7587 21.0798C57.0887 21.0798 57.1387 21.1398 57.3687 20.8998C57.6087 20.6598 57.3587 20.6298 57.2987 20.3098C57.2387 19.9798 57.5687 19.9498 57.5687 19.6198C57.5687 19.2898 57.2987 19.2798 57.2987 18.9498C57.2987 18.6198 57.2987 18.6098 57.2987 18.2798C57.2987 17.9498 57.4787 17.9398 57.4787 17.6098C57.4787 17.2798 57.6087 17.2698 57.6087 16.9398C57.6087 16.6098 57.3287 16.6098 57.3287 16.2698C57.3287 15.9298 57.2487 15.9298 57.2487 15.5998C57.2487 15.2698 57.4987 15.2698 57.4987 14.9298C57.4987 14.5898 57.2787 14.5898 57.2787 14.2598C57.2787 13.9298 57.5287 13.9198 57.5287 13.5898C57.5287 13.2598 57.3987 13.2498 57.3987 12.9198C57.3987 12.5898 57.4187 12.5798 57.4187 12.2498C57.4187 11.9198 57.4687 11.9198 57.4687 11.5798C57.4687 11.2398 57.5287 11.2398 57.5287 10.9098C57.5287 10.5798 57.4687 10.5798 57.4687 10.2398C57.4687 9.89977 57.2587 9.90977 57.2587 9.56977C57.2587 9.22977 57.5387 9.23977 57.5387 8.89977C57.5387 8.55977 57.2787 8.56977 57.2787 8.22977C57.2787 7.88977 57.3587 7.89978 57.3587 7.55978C57.3587 7.21978 57.6287 7.22978 57.6287 6.88978H57.6087ZM52.6587 10.8898C52.6587 10.8898 52.6987 10.9398 52.7287 10.9698L52.6687 10.9898C52.7287 10.9498 52.5287 10.8598 52.6587 10.8998V10.8898ZM52.5087 11.0498C52.5087 11.0498 52.4687 11.0298 52.4487 10.9898C52.4587 11.0098 52.5087 11.0198 52.5087 11.0498ZM49.4987 8.51978C49.4987 8.51978 49.5687 8.55977 49.5987 8.57977C49.5887 8.57977 49.5687 8.55978 49.5587 8.54978L49.5987 8.57977C49.7087 8.65977 49.6487 8.59978 49.7987 8.71978C49.6387 8.58978 49.8587 8.71978 49.6087 8.53977L49.5787 8.51978L49.6387 8.53977C49.6387 8.53977 49.6387 8.51978 49.7487 8.59978C49.7687 8.61978 49.7687 8.62977 49.7987 8.64977C49.8987 8.70977 49.7287 8.57977 49.7287 8.56977C49.8087 8.62978 49.7487 8.59977 49.8487 8.65977C49.8687 8.65977 49.8087 8.61978 49.7887 8.59978L49.8287 8.62978C49.9387 8.68978 49.6187 8.46977 49.7687 8.56977C49.7387 8.54977 49.7187 8.52978 49.6887 8.50978C49.7387 8.53977 49.8187 8.58978 49.8687 8.62978C49.8687 8.62978 49.8387 8.58978 49.7887 8.55978C49.7187 8.51978 49.7487 8.53977 49.6687 8.47977L49.6387 8.42978L49.6787 8.45977C49.9287 8.59978 49.5087 8.27977 49.8087 8.45977C49.7387 8.40977 49.7487 8.40977 49.6987 8.37978C49.7287 8.37978 49.7187 8.35977 49.7687 8.37978L49.8187 8.41978C49.7687 8.35977 49.6987 8.28977 49.7387 8.29978C49.7187 8.27977 49.8087 8.34977 49.8187 8.35977C49.7387 8.28977 50.0287 8.47978 49.8387 8.33978H49.8187C49.8187 8.33978 49.7387 8.21978 49.7287 8.17978C49.8487 8.25978 49.7287 8.19977 49.8687 8.28977C49.9187 8.30978 49.8387 8.22977 49.8887 8.23977C49.8987 8.24977 49.9187 8.25978 49.9187 8.26978C49.9987 8.30978 49.7987 8.18977 49.8287 8.18977C49.8887 8.22977 49.8987 8.23977 49.9287 8.25978L49.8387 8.18977C49.8387 8.18977 49.9287 8.24977 49.9487 8.26978C49.8287 8.17978 49.9287 8.21978 49.8187 8.13978C49.8487 8.15978 49.9487 8.23978 49.9987 8.26978C50.0387 8.28978 49.9987 8.24977 49.9587 8.21978C49.8987 8.17978 49.9087 8.17978 49.9187 8.17978C49.9287 8.18978 49.9487 8.19977 49.9587 8.21978C50.0387 8.26978 50.0387 8.24977 50.0487 8.25978C50.0987 8.27978 49.9887 8.20977 49.9187 8.15977L49.8587 8.12978V8.09978L49.8987 8.14977C49.9487 8.16978 49.8587 8.09978 49.8587 8.08978L49.7887 8.04978L49.7587 8.00978C49.8987 8.09978 49.7987 8.00978 49.9487 8.12978C50.0287 8.15977 49.8587 8.01978 49.8587 7.99978C49.8587 7.99978 49.8887 8.01977 49.9087 8.03977C49.9487 8.04978 49.8787 7.99978 49.8187 7.93978C49.8587 7.96978 49.8687 7.97978 49.9087 8.00978C49.9087 7.99978 49.8387 7.94978 49.8087 7.90978C49.8587 7.94978 49.8887 7.96978 49.9087 7.97978C49.8587 7.94978 49.8287 7.91978 49.8087 7.90978C50.0687 8.10978 49.9287 7.96978 50.1387 8.12978C50.0787 8.08978 49.9787 7.98978 49.8687 7.91978L49.8887 7.93978C49.8187 7.88978 49.8487 7.89978 49.8487 7.89978C49.8587 7.90978 49.8787 7.91978 49.8887 7.93978C49.8087 7.85978 49.9087 7.89978 49.8587 7.82978C49.8887 7.84978 49.9287 7.88978 49.9587 7.89978C50.0087 7.89978 49.8787 7.79978 49.8287 7.72978C49.9987 7.84978 49.8287 7.76978 49.9987 7.88978C49.9787 7.83978 49.9287 7.77978 49.8587 7.68978C50.1187 7.85978 49.7687 7.58978 49.9787 7.71978C49.8987 7.65978 49.8687 7.62978 49.8687 7.61978C49.9387 7.66978 49.9387 7.65978 49.9887 7.69978C49.9187 7.63978 49.8987 7.59978 50.0587 7.70978C49.8987 7.59978 50.0787 7.70978 49.9687 7.61978C49.9487 7.61978 49.9287 7.59978 49.8987 7.57978L49.9487 7.59978C49.9487 7.59978 49.9687 7.60978 49.9787 7.61978C50.0487 7.64978 49.9587 7.57978 50.0187 7.59978C49.9187 7.52978 49.9787 7.55978 49.9387 7.51978C49.9387 7.51978 49.9587 7.53978 49.9687 7.54978C50.0587 7.60978 49.8987 7.47978 49.9587 7.50978C49.9987 7.52978 50.0487 7.57978 50.0587 7.57978C49.9887 7.52978 49.9187 7.44978 50.0087 7.50978C50.0087 7.50978 50.0387 7.53978 50.0687 7.55978C49.9687 7.43978 50.1387 7.51978 50.0187 7.38978L50.1387 7.47978C50.3087 7.56978 49.9487 7.32978 49.9787 7.32978C50.0687 7.32978 50.2687 7.40978 50.2187 7.31978C50.1887 7.28978 50.1787 7.28978 50.1287 7.25978C50.1487 7.25978 50.2487 7.33978 50.1887 7.28978L50.1287 7.24978C50.3187 7.35978 50.0487 7.10978 50.3287 7.29978C50.2387 7.20978 50.4187 7.31978 50.2787 7.18978C50.3387 7.21978 50.3887 7.27978 50.4087 7.27978L50.3187 7.18978C50.1387 7.03978 50.5687 7.29978 50.4487 7.18978C50.4487 7.18978 50.5487 7.25978 50.5387 7.24978C50.5087 7.22978 50.4887 7.21978 50.4487 7.18978C50.3887 7.11978 50.3887 7.10978 50.3887 7.07978C50.4487 7.12978 50.4487 7.10978 50.5487 7.17978C50.4887 7.12978 50.4487 7.10978 50.4087 7.06978C50.4087 7.04978 50.4987 7.08978 50.5387 7.10978C50.4587 7.04978 50.4887 7.05978 50.3887 6.97978C50.3887 6.95978 50.3587 6.91978 50.3787 6.90978L50.4187 6.92978C50.2987 6.82978 50.4987 6.95978 50.4187 6.89978C50.4587 6.92978 50.4787 6.94978 50.5187 6.96978L50.4887 6.92978C50.4887 6.92978 50.6387 7.04978 50.6587 7.04978C50.5787 6.97978 50.5987 7.00978 50.5287 6.94978L50.6487 7.02978C50.6487 7.02978 50.5087 6.91978 50.4687 6.89978C50.4787 6.87978 50.4387 6.81978 50.4687 6.81978L50.5487 6.87978C50.5487 6.87978 50.5387 6.83978 50.6087 6.87978C50.5887 6.85978 50.5487 6.82978 50.5187 6.81978C50.4187 6.72978 50.6487 6.90978 50.5387 6.81978C50.5687 6.83978 50.5787 6.85978 50.6187 6.88978L50.5387 6.79978C50.5987 6.83978 50.7287 6.91978 50.6887 6.86978C50.6587 6.84978 50.6087 6.81978 50.5987 6.81978L50.5787 6.78978L50.7187 6.87978L50.6087 6.78978L50.5787 6.76978L50.5987 6.78978L50.7087 6.86978C50.7087 6.86978 50.5487 6.73978 50.5687 6.74978C50.6487 6.77978 50.6887 6.80978 50.8087 6.86978C50.5987 6.71978 50.8287 6.84978 50.6787 6.73978C50.8487 6.82978 50.7787 6.73978 50.8387 6.73978L50.8587 6.75978C50.9687 6.81978 50.7087 6.62978 50.7587 6.64978L50.7887 6.67978C50.9087 6.74978 50.8287 6.64978 50.7487 6.56978C50.7787 6.59978 50.8487 6.63978 50.8387 6.62978C50.7987 6.59978 50.6887 6.52978 50.7287 6.54978C50.7487 6.56978 50.7987 6.59978 50.7987 6.59978L50.6987 6.51978C50.7887 6.54978 50.8787 6.57978 50.8287 6.51978C50.8687 6.53978 50.9087 6.56978 50.9387 6.59978C50.9287 6.56978 50.8487 6.48978 50.8387 6.45978L50.9587 6.54978C50.9587 6.54978 50.7787 6.40978 50.8887 6.47978C50.9087 6.47978 50.8887 6.48978 50.9487 6.52978C51.0487 6.57978 50.8387 6.43978 50.8587 6.42978L50.9987 6.52978C51.0887 6.57978 50.9387 6.46978 50.8587 6.39978C50.7087 6.26978 51.1287 6.57978 51.0287 6.46978C50.9587 6.41978 50.9287 6.39978 50.8587 6.34978C50.9087 6.35978 50.8087 6.28978 50.8587 6.29978C51.0687 6.43978 50.8587 6.29978 51.0487 6.43978L50.9987 6.41978C51.1187 6.48978 51.0187 6.44978 51.1487 6.52978C51.1887 6.54978 51.0887 6.45978 51.0587 6.42978C51.1487 6.49978 51.0587 6.44978 51.1887 6.52978L51.1587 6.49978L51.2187 6.54978C51.3087 6.60978 51.2187 6.54978 51.2287 6.54978C51.1787 6.51978 51.1087 6.46978 51.0487 6.41978C51.0587 6.41978 51.0687 6.42978 51.0787 6.43978C50.9487 6.33978 51.0687 6.38978 50.9687 6.30978C50.9987 6.32978 51.0087 6.33978 51.0287 6.34978C51.0287 6.34978 50.9187 6.25978 50.8887 6.21978C50.9587 6.25978 51.0887 6.36978 51.0587 6.32978C51.0087 6.28978 50.9387 6.23978 50.8987 6.20978C50.9187 6.22978 50.9487 6.24978 50.9687 6.25978C50.9187 6.20978 50.9987 6.26978 51.0887 6.32978C50.9887 6.24978 51.1387 6.34978 50.9587 6.21978C51.0787 6.29978 51.0387 6.26978 51.1187 6.31978C51.0187 6.24978 51.0287 6.23978 50.9187 6.15978C51.0487 6.24978 51.0687 6.27978 51.2187 6.36978C51.1387 6.29978 51.1087 6.26978 50.9687 6.16978C51.0087 6.18978 51.0587 6.21978 51.0787 6.22978C51.0787 6.22978 51.0987 6.24978 51.1087 6.25978C51.0187 6.17978 51.1287 6.22978 50.9587 6.09978C51.1587 6.24978 50.9987 6.09978 51.1887 6.23978C51.1887 6.23978 51.1087 6.15978 51.0687 6.12978C51.2287 6.23978 51.1187 6.14978 51.2187 6.20978C51.1287 6.13978 51.1687 6.15978 51.1187 6.10978C51.1387 6.12978 51.1587 6.14978 51.2087 6.17978C51.1487 6.12978 51.2087 6.17978 51.2887 6.21978C51.2487 6.17978 51.1687 6.13978 51.0987 6.07978C51.1387 6.09978 51.1987 6.14978 51.2687 6.19978L51.1187 6.07978C51.1187 6.07978 51.1687 6.10978 51.2087 6.13978C51.1687 6.09978 51.0987 6.04978 51.1787 6.09978L51.2587 6.16978L51.1587 6.08978C51.2887 6.15978 51.4587 6.27978 51.6187 6.40978L51.6787 6.44978C51.6587 6.43977 51.6387 6.41978 51.6187 6.40978L51.6487 6.43978C51.7087 6.47978 51.7387 6.49978 51.7487 6.49978C51.7887 6.51978 51.9187 6.63978 51.9387 6.65978C51.9187 6.66978 51.7387 6.51978 51.6887 6.50978L51.7787 6.59978L51.7187 6.55978C51.7187 6.55978 51.7387 6.57978 51.7487 6.58978C51.6687 6.52978 51.7087 6.58978 51.6887 6.58978L51.7687 6.63978C51.9287 6.77978 51.5587 6.53978 51.6487 6.61978L51.7687 6.71978L51.6587 6.63978C51.7187 6.68978 51.7987 6.74978 51.7587 6.73978C51.5387 6.63978 51.7587 6.83978 51.6087 6.78978C51.6287 6.80978 51.6387 6.80978 51.6587 6.81978C51.3587 6.65978 51.8987 7.06978 51.6687 6.93978L51.6287 6.90978C51.6287 6.90978 51.5887 6.87978 51.5187 6.84978C51.6487 6.94978 51.6087 6.93978 51.6487 6.97978C51.6187 6.95978 51.6287 6.95978 51.6087 6.93978C51.5787 6.91978 51.4987 6.85978 51.5187 6.88978C51.6987 7.02978 51.6687 7.03978 51.7187 7.09978C51.6287 7.03978 51.5487 6.99978 51.3987 6.89978C51.4287 6.91978 51.4987 6.96978 51.5587 7.01978C51.5587 7.01978 51.5687 7.01978 51.5787 7.02978C51.5787 7.02978 51.5787 7.01978 51.5687 7.00978C51.6587 7.05978 51.6387 7.05978 51.7387 7.12978C51.7387 7.12978 51.7587 7.16978 51.6787 7.10978C51.6787 7.10978 51.6587 7.10978 51.6487 7.09978C51.6587 7.10978 51.6687 7.11978 51.6587 7.11978C51.6587 7.11978 51.6387 7.09978 51.6287 7.08978C51.5787 7.06978 51.7187 7.18978 51.7887 7.24978C51.6687 7.14978 51.6387 7.14978 51.5487 7.07978C51.5487 7.07978 51.5687 7.07978 51.5787 7.07978C51.5687 7.07978 51.5487 7.05978 51.5187 7.03978C51.4087 6.97978 51.5887 7.11978 51.5187 7.08978C51.5187 7.08978 51.4887 7.05978 51.4587 7.03978C51.4287 7.02978 51.4987 7.07978 51.5587 7.11978C51.4687 7.05978 51.3887 7.01978 51.4287 7.05978C51.4987 7.11978 51.5387 7.13978 51.5187 7.14978L51.4587 7.09978C51.3987 7.06978 51.5487 7.17978 51.4887 7.14978C51.5187 7.15978 51.4487 7.11978 51.4387 7.10978C51.4687 7.14978 51.4987 7.16978 51.6287 7.26978L51.5287 7.19978C51.5787 7.24978 51.6887 7.35978 51.5587 7.25978C51.7687 7.40978 51.6587 7.35978 51.6487 7.35978C51.6487 7.35978 51.5987 7.31978 51.5787 7.29978C51.7087 7.41978 51.5587 7.33978 51.5487 7.35978L51.3987 7.24978C51.3987 7.24978 51.6987 7.47978 51.6887 7.47978L51.6187 7.41978C51.6187 7.41978 51.6187 7.44978 51.5787 7.44978L51.4787 7.37978C51.4787 7.37978 51.5187 7.41978 51.5587 7.45978C51.2987 7.29978 51.6587 7.59978 51.3687 7.41978L51.5587 7.55978C51.5587 7.55978 51.5787 7.59978 51.4387 7.49978C51.2887 7.39978 51.4387 7.49978 51.3987 7.48978C51.4087 7.50978 51.5087 7.57978 51.5387 7.58978C51.4287 7.53978 51.5087 7.64978 51.3187 7.53978C51.3687 7.60978 51.5087 7.72977 51.4687 7.73978L51.4487 7.71978C51.4487 7.71978 51.3587 7.68978 51.1987 7.57978C51.2287 7.61978 51.4387 7.78978 51.3487 7.75978L51.2887 7.70978C51.2887 7.70978 51.3287 7.74978 51.3387 7.76978C51.3387 7.76978 51.2987 7.74978 51.2787 7.72978C51.2187 7.69978 51.3087 7.75978 51.3187 7.76978L51.2687 7.72978C51.1487 7.66978 51.3487 7.84978 51.3087 7.84978C51.2987 7.82978 51.2287 7.78978 51.2087 7.77978C51.3787 7.90978 51.3187 7.90978 51.3587 7.93978L51.2887 7.88978C51.3887 7.98978 51.0887 7.76978 51.1987 7.86978L51.3087 7.92978C51.3087 7.92978 51.3087 7.94978 51.3887 7.99978C51.3287 7.96978 51.2487 7.89978 51.2287 7.89978C51.1787 7.86978 51.1987 7.86978 51.1387 7.82978L50.9987 7.74978C51.1087 7.80978 51.1187 7.84978 51.2187 7.90978C51.1487 7.87978 51.0387 7.77978 50.9987 7.74978C50.9787 7.73978 50.9887 7.74978 50.9987 7.74978C51.2187 7.90978 50.9987 7.76978 51.2187 7.91978C51.2187 7.94978 51.0587 7.86978 51.1487 7.95978C50.9287 7.81978 51.1087 7.98978 50.8387 7.79978C50.8287 7.79978 50.8787 7.85978 50.9887 7.93978C51.0287 7.96978 51.0387 7.98978 51.0287 7.99978C50.9687 7.94978 50.9287 7.89978 50.8287 7.81978C50.8487 7.84978 50.9387 7.93977 50.9687 7.96978L50.8287 7.86978C50.9287 7.94978 50.7087 7.79978 50.8387 7.89978L50.8787 7.92978C50.8787 7.92978 50.9987 8.03977 51.0087 8.06977L50.9487 8.02977C50.9487 8.02977 51.0487 8.11977 50.9187 8.02977C50.8187 7.94977 50.7687 7.91978 50.7187 7.88978C50.7387 7.91978 50.8787 8.00978 50.8887 8.01978C50.7987 7.95978 50.8387 7.97978 50.7487 7.91978C50.7787 7.94978 50.7987 7.99977 50.9187 8.08978C50.8987 8.08978 50.8787 8.05978 50.8787 8.05978C50.8487 8.05978 51.0187 8.18978 50.9287 8.13978H50.9187C50.7787 8.03977 51.0287 8.23977 50.7987 8.07977C50.7487 8.04978 50.8187 8.07978 50.6987 7.99978C50.6187 7.95978 50.8887 8.14977 50.8187 8.10977C50.8187 8.10977 50.8187 8.10978 50.7887 8.08978C50.7887 8.09978 50.7987 8.12978 50.8187 8.15977C50.8187 8.15977 50.8287 8.15977 50.8387 8.16978H50.8187V8.15977C50.6187 8.03977 50.8387 8.22978 50.6087 8.08978C50.6887 8.13978 50.6987 8.15977 50.7287 8.17978C50.7287 8.17978 50.7087 8.15977 50.6887 8.15977C50.6887 8.15977 50.7487 8.20977 50.7787 8.23977C50.7787 8.23977 50.7787 8.23977 50.7887 8.23977C50.7987 8.24977 50.7887 8.23977 50.7787 8.23977C50.7887 8.23977 50.7987 8.23977 50.7787 8.23977C50.7087 8.19977 50.8387 8.30977 50.7987 8.27977C50.8487 8.31977 50.8287 8.30978 50.8287 8.30978C50.7787 8.25978 50.7287 8.22978 50.6487 8.16978C50.6187 8.16978 50.8587 8.33978 50.8087 8.32977L50.7087 8.26978C50.8487 8.36978 50.7787 8.33978 50.8387 8.37978C50.7887 8.34978 50.7687 8.33978 50.6887 8.27977C50.7187 8.30977 50.6387 8.26977 50.7187 8.32977L50.7587 8.34978C50.6887 8.32977 50.8887 8.47978 50.7887 8.42978L50.5787 8.27977C50.4887 8.22977 50.6887 8.37978 50.5487 8.29978C50.6187 8.34978 50.5987 8.32977 50.6687 8.38978C50.6887 8.38978 50.6387 8.34978 50.6387 8.34978L50.7587 8.44977L50.7087 8.38978C50.7887 8.45977 50.7687 8.43977 50.8587 8.49977C50.9187 8.55978 50.7487 8.43977 50.8187 8.49977C50.7887 8.47977 50.7087 8.41978 50.6687 8.39977C50.7387 8.45977 50.4987 8.30977 50.6087 8.39977C50.5887 8.38977 50.6087 8.39977 50.5587 8.35977C50.5787 8.37978 50.5587 8.37978 50.6287 8.42978H50.6587C50.6587 8.42978 50.7387 8.49977 50.6787 8.47977C50.7287 8.51977 50.8287 8.59978 50.8287 8.58978C50.8387 8.59978 50.7787 8.56978 50.7187 8.51978C50.7087 8.52978 50.9387 8.68978 50.8287 8.62978C50.8287 8.62978 50.8087 8.61977 50.7987 8.60977C50.7787 8.60977 50.7787 8.60977 50.7987 8.60977C50.7987 8.58977 50.6287 8.48977 50.6687 8.50978C50.5587 8.42978 50.6387 8.50977 50.5887 8.47977C50.6587 8.53977 50.7487 8.59978 50.8087 8.63978C50.7687 8.60978 50.7687 8.61977 50.7487 8.60977L50.8387 8.66978C50.8387 8.66978 50.8387 8.66977 50.8487 8.68977L50.8187 8.65977C50.8187 8.65977 50.6587 8.56978 50.7287 8.63978C50.6987 8.60978 50.6287 8.55977 50.5787 8.52977C50.6287 8.57977 50.5387 8.50978 50.4687 8.46978C50.4787 8.49977 50.6187 8.57978 50.5587 8.55978C50.5587 8.55978 50.6087 8.59977 50.6287 8.60977C50.5787 8.58977 50.6287 8.63977 50.5687 8.60977C50.5987 8.61977 50.6287 8.63978 50.6587 8.66978C50.5887 8.61977 50.5887 8.62978 50.5387 8.60977C50.5487 8.60977 50.5487 8.62978 50.5787 8.63978L50.5387 8.60977C50.5287 8.60977 50.5087 8.58978 50.4987 8.57977C50.5087 8.58978 50.5287 8.59978 50.5287 8.58978C50.4987 8.55978 50.3287 8.44977 50.3087 8.43977C50.3387 8.47977 50.4587 8.55978 50.4987 8.58978C50.4487 8.56977 50.6887 8.73977 50.6087 8.70977C50.6087 8.70977 50.4287 8.59978 50.4087 8.59978C50.4987 8.66978 50.4887 8.63978 50.5687 8.70977C50.3087 8.54978 50.6987 8.84978 50.5387 8.75978L50.4187 8.66978C50.4187 8.66978 50.3987 8.66978 50.4087 8.67978L50.4787 8.71978C50.4787 8.71978 50.4787 8.73977 50.3787 8.66978C50.4687 8.74977 50.4087 8.70977 50.3787 8.69977C50.3987 8.69977 50.3987 8.70977 50.3387 8.65977C50.2687 8.62978 50.3087 8.65977 50.3387 8.67978C50.2987 8.64978 50.2287 8.60977 50.2287 8.60977C50.2987 8.66978 50.2787 8.66978 50.3087 8.70977L50.2687 8.67978C50.2687 8.67978 50.1287 8.62978 50.2187 8.71978C50.2187 8.71978 50.2287 8.71978 50.2387 8.71978C50.3587 8.78977 50.3087 8.78977 50.3487 8.82977C50.3187 8.80977 50.2687 8.77977 50.2687 8.77977C50.3787 8.85977 50.3187 8.82977 50.3687 8.85977C50.3287 8.83977 50.2387 8.76977 50.2387 8.77977C50.2387 8.78977 50.2987 8.82977 50.3387 8.85977C50.2787 8.81977 50.2387 8.79978 50.2187 8.79978C50.1887 8.77977 50.2287 8.79978 50.2187 8.79978C50.1587 8.75978 50.1787 8.77977 50.1087 8.72977C50.0987 8.72977 50.2087 8.79978 50.1687 8.77977L50.0887 8.71978C50.0887 8.71978 50.0987 8.72977 50.1087 8.73977C50.0887 8.71977 50.0087 8.65977 49.9587 8.62978C50.0087 8.68978 50.1787 8.78977 50.2787 8.85977C50.2087 8.82977 50.3087 8.90977 50.3087 8.92978L50.2087 8.85977C50.2087 8.85977 50.2387 8.88978 50.2787 8.92978L50.3287 8.96978C50.3087 8.95977 50.2987 8.93978 50.2787 8.92978C50.2787 8.92978 50.2187 8.87978 50.1387 8.82977C50.1587 8.85977 50.1287 8.84977 50.2587 8.94977L50.2387 8.92978C50.1887 8.90977 50.1387 8.90977 50.0987 8.87978C50.1187 8.90977 50.0987 8.89977 50.1087 8.91978C50.1487 8.94977 50.2487 9.01978 50.2487 9.01978C50.2187 8.99977 50.1987 8.97978 50.1787 8.96978C50.2087 8.99977 49.9987 8.86977 50.1587 8.98977C50.0687 8.93977 50.1187 8.96978 50.0287 8.88978C49.9387 8.83978 50.1487 8.99977 49.9587 8.86977C50.0087 8.91978 49.9987 8.89977 50.0787 8.95977C49.8987 8.83978 50.0387 8.95977 49.9287 8.88978C49.9987 8.93978 49.9787 8.91977 50.0487 8.97977C50.0087 8.94977 49.9987 8.94977 49.9887 8.93977L50.0987 9.01978L49.8187 8.83978C49.9287 8.93978 49.9987 8.96978 50.0387 9.01978C49.9287 8.94978 50.1187 9.08978 50.0187 9.03977C50.0387 9.04978 49.9687 8.99977 49.9387 8.97977L49.9787 9.01978C49.9787 9.01978 49.9687 9.00978 49.9487 8.99977C49.8587 8.94977 49.9887 9.03977 49.9087 8.99977C49.8887 8.97977 49.8087 8.91978 49.7687 8.89977L49.8887 8.99977L49.7387 8.88978C49.7387 8.88978 49.9487 9.07977 49.7387 8.92978L49.7187 8.90977C49.7187 8.90977 49.5887 8.81977 49.6387 8.86977C49.6387 8.86977 49.6387 8.86977 49.6487 8.86977C49.6687 8.88978 49.7487 8.93977 49.7387 8.93977L49.6987 8.91978C49.6987 8.91978 49.6587 8.88978 49.6387 8.86977C49.6087 8.83978 49.5787 8.80978 49.5687 8.79978C49.6087 8.82977 49.6387 8.85977 49.6987 8.89977C49.6687 8.86977 49.6087 8.81977 49.5787 8.78977C49.5687 8.77977 49.5587 8.76978 49.5487 8.75978C49.5487 8.75978 49.5587 8.75978 49.5687 8.76978C49.5687 8.76978 49.5887 8.77977 49.6087 8.79978C49.6087 8.79978 49.5887 8.77978 49.5687 8.76978C49.5687 8.76978 49.5687 8.76977 49.5787 8.77977C49.6187 8.80977 49.6787 8.85978 49.7187 8.88978C49.7787 8.91978 49.6587 8.83978 49.6487 8.81977C49.6887 8.84977 49.7187 8.85978 49.7487 8.88978C49.7087 8.84978 49.7087 8.83978 49.7687 8.86977C49.7687 8.86977 49.8387 8.92978 49.8987 8.95977C49.8487 8.89977 49.7287 8.81977 49.6787 8.74977C49.5287 8.61977 49.7987 8.78977 49.6887 8.68977C49.6487 8.65977 49.6087 8.63978 49.5787 8.61977C49.6687 8.67978 49.6387 8.65977 49.6787 8.67978C49.5587 8.57977 49.7187 8.67978 49.6287 8.61977L49.4987 8.51978ZM49.7587 8.19977L49.8187 8.23977L49.8387 8.26978L49.7587 8.20977V8.19977ZM50.9187 6.30978C50.9187 6.30978 50.9387 6.31978 51.0087 6.36978C50.9787 6.34978 50.9487 6.32978 50.9187 6.30978ZM51.6387 11.8198C51.6387 11.8198 51.5687 11.7698 51.5787 11.7398L51.6387 11.8198ZM51.4587 7.46978L51.4187 7.43978L51.4487 7.46978H51.4587ZM51.2487 11.8898V11.9198V11.8698V11.8898ZM50.8187 7.90978C50.8187 7.90978 50.8487 7.91978 50.8687 7.92978C50.9187 7.96978 50.8787 7.94978 50.8187 7.90978ZM50.7887 8.18977C50.7887 8.18977 50.6887 8.12978 50.6787 8.10977L50.7887 8.18977ZM50.5087 8.67978H50.4987L50.4787 8.64977L50.5087 8.67978ZM50.1787 8.67978L50.1387 8.65977C50.1387 8.65977 50.1387 8.65977 50.1787 8.67978ZM50.0387 8.95977C50.0387 8.95977 49.9787 8.90978 49.9387 8.88978H49.9787C49.9787 8.88978 50.1687 9.02977 50.0387 8.95977ZM49.5687 8.84978C49.4987 8.78977 49.5587 8.82978 49.5287 8.80978C49.5687 8.83978 49.6287 8.87978 49.6187 8.85977C49.4887 8.75977 49.5387 8.78977 49.4187 8.70977C49.5287 8.78977 49.6287 8.85977 49.6787 8.90977C49.6587 8.88977 49.6287 8.86978 49.5987 8.84978C49.6687 8.90978 49.6587 8.90978 49.5687 8.84978ZM49.5287 8.82977C49.5287 8.82977 49.4687 8.78978 49.4387 8.76978L49.4087 8.73977L49.5287 8.82977ZM49.7187 13.0798L49.6587 12.9798C49.6587 12.9798 49.7287 13.0498 49.7187 13.0798ZM49.4787 8.63978C49.5387 8.68978 49.3887 8.58978 49.4387 8.63978L49.4087 8.61977C49.4087 8.61977 49.4587 8.63977 49.4787 8.64977V8.63978ZM49.3987 8.66978H49.4087C49.4087 8.66978 49.4087 8.66978 49.3887 8.66978H49.3987ZM48.9687 13.4798C48.9687 13.4798 48.9287 13.4698 48.9087 13.4698C48.8987 13.4098 48.9387 13.4398 48.9687 13.4798ZM44.1687 8.51978C44.1687 8.51978 44.2387 8.55977 44.2687 8.57977C44.2587 8.57977 44.2387 8.55978 44.2287 8.54978L44.2687 8.57977C44.3787 8.65977 44.3187 8.59978 44.4687 8.71978C44.3087 8.58978 44.5287 8.71978 44.2787 8.53977L44.2487 8.51978L44.3087 8.53977C44.3087 8.53977 44.3087 8.51978 44.4187 8.59978C44.4387 8.61978 44.4387 8.62977 44.4687 8.64977C44.5687 8.70977 44.3987 8.57977 44.3987 8.56977C44.4787 8.62978 44.4187 8.59977 44.5187 8.65977C44.5387 8.65977 44.4787 8.61978 44.4587 8.59978L44.4987 8.62978C44.6087 8.68978 44.2887 8.46977 44.4387 8.56977C44.4087 8.54977 44.3887 8.52978 44.3587 8.50978C44.4087 8.53977 44.4887 8.58978 44.5387 8.62978C44.5387 8.62978 44.5087 8.58978 44.4587 8.55978C44.3887 8.51978 44.4187 8.53977 44.3387 8.47977L44.3087 8.42978L44.3487 8.45977C44.5987 8.59978 44.1787 8.27977 44.4787 8.45977C44.4087 8.40977 44.4187 8.40977 44.3687 8.37978C44.3987 8.37978 44.3887 8.35977 44.4387 8.37978L44.4887 8.41978C44.4387 8.35977 44.3687 8.28977 44.4087 8.29978C44.3887 8.27977 44.4787 8.34977 44.4887 8.35977C44.4087 8.28977 44.6987 8.47978 44.5087 8.33978H44.4887C44.4887 8.33978 44.4087 8.21978 44.3987 8.17978C44.5187 8.25978 44.3987 8.19977 44.5387 8.28977C44.5887 8.30978 44.5087 8.22977 44.5587 8.23977C44.5687 8.24977 44.5887 8.25978 44.5887 8.26978C44.6687 8.30978 44.4687 8.18977 44.4987 8.18977C44.5587 8.22977 44.5687 8.23977 44.5987 8.25978L44.5087 8.18977C44.5087 8.18977 44.5987 8.24977 44.6187 8.26978C44.4987 8.17978 44.5987 8.21978 44.4887 8.13978C44.5187 8.15978 44.6187 8.23978 44.6687 8.26978C44.7087 8.28978 44.6687 8.24977 44.6287 8.21978C44.7087 8.26978 44.7087 8.24977 44.7187 8.25978C44.7687 8.27978 44.6587 8.20977 44.5887 8.15977L44.5287 8.12978V8.09978L44.5687 8.14977C44.6187 8.16978 44.5287 8.09978 44.5287 8.08978L44.4587 8.04978L44.4287 8.00978C44.5687 8.09978 44.4687 8.00978 44.6187 8.12978C44.6987 8.15977 44.5287 8.01978 44.5287 7.99978C44.5287 7.99978 44.5587 8.01977 44.5787 8.03977C44.6187 8.04978 44.5487 7.99978 44.4887 7.93978C44.5287 7.96978 44.5387 7.97978 44.5787 8.00978C44.5787 7.99978 44.5087 7.94978 44.4787 7.90978C44.5287 7.94978 44.5587 7.96978 44.5787 7.97978C44.5287 7.94978 44.4987 7.91978 44.4787 7.90978C44.7387 8.10978 44.5987 7.96978 44.8087 8.12978C44.7487 8.08978 44.6487 7.98978 44.5387 7.91978L44.5587 7.93978C44.4887 7.88978 44.5187 7.89978 44.5187 7.89978C44.5287 7.90978 44.5487 7.91978 44.5587 7.93978C44.4787 7.85978 44.5787 7.89978 44.5287 7.82978C44.5587 7.84978 44.5987 7.88978 44.6287 7.89978C44.6787 7.89978 44.5487 7.79978 44.4987 7.72978C44.6687 7.84978 44.4987 7.76978 44.6687 7.88978C44.6487 7.83978 44.5987 7.77978 44.5287 7.68978C44.7887 7.85978 44.4387 7.58978 44.6487 7.71978C44.5687 7.65978 44.5387 7.62978 44.5387 7.61978C44.6087 7.66978 44.6087 7.65978 44.6587 7.69978C44.5887 7.63978 44.5687 7.59978 44.7287 7.70978C44.5687 7.59978 44.7487 7.70978 44.6387 7.61978C44.6187 7.61978 44.5987 7.59978 44.5687 7.57978L44.6187 7.59978C44.6187 7.59978 44.6387 7.60978 44.6487 7.61978C44.7187 7.64978 44.6287 7.57978 44.6887 7.59978C44.5887 7.52978 44.6487 7.55978 44.6087 7.51978C44.6087 7.51978 44.6287 7.53978 44.6387 7.54978C44.7287 7.60978 44.5687 7.47978 44.6287 7.50978C44.6687 7.52978 44.7187 7.57978 44.7287 7.57978C44.6587 7.52978 44.5887 7.44978 44.6787 7.50978C44.6787 7.50978 44.7087 7.53978 44.7387 7.55978C44.6387 7.43978 44.8087 7.51978 44.6887 7.38978L44.8087 7.47978C44.9787 7.56978 44.6187 7.32978 44.6487 7.32978C44.7387 7.32978 44.9387 7.40978 44.8887 7.31978C44.8587 7.28978 44.8487 7.28978 44.7987 7.25978C44.8187 7.25978 44.9187 7.33978 44.8587 7.28978L44.7987 7.24978C44.9887 7.35978 44.7187 7.10978 44.9987 7.29978C44.9087 7.20978 45.0887 7.31978 44.9487 7.18978C45.0087 7.21978 45.0587 7.27978 45.0787 7.27978L44.9887 7.18978C44.8087 7.03978 45.2387 7.29978 45.1187 7.18978C45.1187 7.18978 45.2187 7.25978 45.2087 7.24978C45.1787 7.22978 45.1587 7.21978 45.1187 7.18978C45.0587 7.11978 45.0587 7.10978 45.0587 7.07978C45.1187 7.12978 45.1187 7.10978 45.2187 7.17978C45.1587 7.12978 45.1187 7.10978 45.0787 7.06978C45.0787 7.04978 45.1687 7.08978 45.2087 7.10978C45.1287 7.04978 45.1587 7.05978 45.0587 6.97978C45.0587 6.95978 45.0287 6.91978 45.0487 6.90978L45.0887 6.92978C44.9687 6.82978 45.1687 6.95978 45.0887 6.89978C45.1287 6.92978 45.1487 6.94978 45.1887 6.96978L45.1587 6.92978C45.1587 6.92978 45.3087 7.04978 45.3287 7.04978C45.2487 6.97978 45.2687 7.00978 45.1987 6.94978L45.3187 7.02978C45.3187 7.02978 45.1787 6.91978 45.1387 6.89978C45.1487 6.87978 45.1087 6.81978 45.1387 6.81978L45.2187 6.87978C45.2187 6.87978 45.2087 6.83978 45.2787 6.87978C45.2587 6.85978 45.2187 6.82978 45.1887 6.81978C45.0887 6.72978 45.3187 6.90978 45.2087 6.81978C45.2387 6.83978 45.2487 6.85978 45.2887 6.88978L45.2087 6.79978C45.2687 6.83978 45.3987 6.91978 45.3587 6.86978C45.3287 6.84978 45.2787 6.81978 45.2687 6.81978L45.2487 6.78978L45.3887 6.87978L45.2787 6.78978L45.2487 6.76978L45.2687 6.78978L45.3787 6.86978C45.3787 6.86978 45.2187 6.73978 45.2387 6.74978C45.3187 6.77978 45.3587 6.80978 45.4787 6.86978C45.2687 6.71978 45.4987 6.84978 45.3487 6.73978C45.5187 6.82978 45.4487 6.73978 45.5087 6.73978L45.5287 6.75978C45.6387 6.81978 45.3787 6.62978 45.4287 6.64978L45.4587 6.67978C45.5787 6.74978 45.4987 6.64978 45.4187 6.56978C45.4487 6.59978 45.5187 6.63978 45.5087 6.62978C45.4687 6.59978 45.3587 6.52978 45.3987 6.54978C45.4187 6.56978 45.4687 6.59978 45.4687 6.59978L45.3687 6.51978C45.4587 6.54978 45.5487 6.57978 45.4987 6.51978C45.5387 6.53978 45.5787 6.56978 45.6087 6.59978C45.5987 6.56978 45.5187 6.48978 45.5087 6.45978L45.6287 6.54978C45.6287 6.54978 45.4487 6.40978 45.5587 6.47978C45.5787 6.47978 45.5587 6.48978 45.6187 6.52978C45.7187 6.57978 45.5087 6.43978 45.5287 6.42978L45.6687 6.52978C45.7587 6.57978 45.6087 6.46978 45.5287 6.39978C45.3787 6.26978 45.7987 6.57978 45.6987 6.46978C45.6287 6.41978 45.5987 6.39978 45.5287 6.34978C45.5787 6.35978 45.4787 6.28978 45.5287 6.29978C45.7387 6.43978 45.5287 6.29978 45.7187 6.43978L45.6687 6.41978C45.7887 6.48978 45.6887 6.44978 45.8187 6.52978C45.8587 6.54978 45.7587 6.45978 45.7287 6.42978C45.8187 6.49978 45.7287 6.44978 45.8587 6.52978L45.8287 6.49978L45.8887 6.54978C45.9787 6.60978 45.8887 6.54978 45.8987 6.54978C45.8487 6.51978 45.7787 6.46978 45.7187 6.41978C45.7287 6.41978 45.7387 6.42978 45.7487 6.43978C45.6187 6.33978 45.7387 6.38978 45.6387 6.30978C45.6687 6.32978 45.6787 6.33978 45.6987 6.34978C45.6987 6.34978 45.5887 6.25978 45.5587 6.21978C45.6287 6.25978 45.7587 6.36978 45.7287 6.32978C45.6787 6.28978 45.6087 6.23978 45.5687 6.20978C45.5887 6.22978 45.6187 6.24978 45.6387 6.25978C45.5887 6.20978 45.6687 6.26978 45.7587 6.32978C45.6587 6.24978 45.8087 6.34978 45.6287 6.21978C45.7487 6.29978 45.7087 6.26978 45.7887 6.31978C45.6887 6.24978 45.6987 6.23978 45.5887 6.15978C45.7187 6.24978 45.7387 6.27978 45.8887 6.36978C45.8087 6.29978 45.7787 6.26978 45.6387 6.16978C45.6787 6.18978 45.7287 6.21978 45.7487 6.22978C45.7487 6.22978 45.7687 6.24978 45.7787 6.25978C45.6887 6.17978 45.7987 6.22978 45.6287 6.09978C45.8287 6.24978 45.6687 6.09978 45.8587 6.23978C45.8587 6.23978 45.7787 6.15978 45.7387 6.12978C45.8987 6.23978 45.7887 6.14978 45.8887 6.20978C45.7987 6.13978 45.8387 6.15978 45.7887 6.10978C45.8087 6.12978 45.8287 6.14978 45.8787 6.17978C45.8187 6.12978 45.8787 6.17978 45.9587 6.21978C45.9187 6.17978 45.8387 6.13978 45.7687 6.07978C45.8087 6.09978 45.8687 6.14978 45.9387 6.19978L45.7887 6.07978C45.7887 6.07978 45.8387 6.10978 45.8787 6.13978C45.8387 6.09978 45.7687 6.04978 45.8487 6.09978L45.9287 6.16978L45.8287 6.08978C45.9587 6.15978 46.1287 6.27978 46.2887 6.40978L46.3487 6.44978C46.3287 6.43977 46.3087 6.41978 46.2887 6.40978L46.3187 6.43978C46.3787 6.47978 46.4087 6.49978 46.4187 6.49978C46.4587 6.51978 46.5887 6.63978 46.6087 6.65978C46.5887 6.66978 46.4087 6.51978 46.3587 6.50978L46.4487 6.59978L46.3887 6.55978C46.3887 6.55978 46.4087 6.57978 46.4187 6.58978C46.3387 6.52978 46.3787 6.58978 46.3587 6.58978L46.4387 6.63978C46.5987 6.77978 46.2287 6.53978 46.3187 6.61978L46.4387 6.71978L46.3287 6.63978C46.3887 6.68978 46.4687 6.74978 46.4287 6.73978C46.2087 6.63978 46.4287 6.83978 46.2787 6.78978C46.2987 6.80978 46.3087 6.80978 46.3287 6.81978C46.0287 6.65978 46.5687 7.06978 46.3387 6.93978L46.2987 6.90978C46.2987 6.90978 46.2587 6.87978 46.1887 6.84978C46.3187 6.94978 46.2787 6.93978 46.3187 6.97978C46.2887 6.95978 46.2987 6.95978 46.2787 6.93978C46.2487 6.91978 46.1687 6.85978 46.1887 6.88978C46.3687 7.02978 46.3387 7.03978 46.3887 7.09978C46.2987 7.03978 46.2187 6.99978 46.0687 6.89978C46.0987 6.91978 46.1687 6.96978 46.2287 7.01978C46.2287 7.01978 46.2387 7.01978 46.2487 7.02978C46.2487 7.02978 46.2487 7.01978 46.2387 7.00978C46.3287 7.05978 46.3087 7.05978 46.4087 7.12978C46.4087 7.12978 46.4287 7.16978 46.3487 7.10978C46.3487 7.10978 46.3287 7.10978 46.3187 7.09978C46.3287 7.10978 46.3387 7.11978 46.3287 7.11978C46.3287 7.11978 46.3087 7.09978 46.2987 7.08978C46.2487 7.06978 46.3887 7.18978 46.4587 7.24978C46.3387 7.14978 46.3087 7.14978 46.2187 7.07978C46.2187 7.07978 46.2387 7.07978 46.2487 7.07978C46.2387 7.07978 46.2187 7.05978 46.1887 7.03978C46.0787 6.97978 46.2587 7.11978 46.1887 7.08978C46.1887 7.08978 46.1587 7.05978 46.1287 7.03978C46.0987 7.02978 46.1687 7.07978 46.2287 7.11978C46.1387 7.05978 46.0587 7.01978 46.0987 7.05978C46.1687 7.11978 46.2087 7.13978 46.1887 7.14978L46.1287 7.09978C46.0687 7.06978 46.2187 7.17978 46.1587 7.14978C46.1887 7.15978 46.1187 7.11978 46.1087 7.10978C46.1387 7.14978 46.1687 7.16978 46.2987 7.26978L46.1987 7.19978C46.2487 7.24978 46.3587 7.35978 46.2287 7.25978C46.4387 7.40978 46.3287 7.35978 46.3187 7.35978C46.3187 7.35978 46.2687 7.31978 46.2487 7.29978C46.3787 7.41978 46.2287 7.33978 46.2187 7.35978L46.0687 7.24978C46.0687 7.24978 46.3687 7.47978 46.3587 7.47978L46.2887 7.41978C46.2887 7.41978 46.2887 7.44978 46.2487 7.44978L46.1487 7.37978C46.1487 7.37978 46.1887 7.41978 46.2287 7.45978C45.9687 7.29978 46.3287 7.59978 46.0387 7.41978L46.2287 7.55978C46.2287 7.55978 46.2487 7.59978 46.1087 7.49978C45.9587 7.39978 46.1087 7.49978 46.0687 7.48978C46.0787 7.50978 46.1787 7.57978 46.2087 7.58978C46.0987 7.53978 46.1787 7.64978 45.9887 7.53978C46.0387 7.60978 46.1787 7.72977 46.1387 7.73978L46.1187 7.71978C46.1187 7.71978 46.0287 7.68978 45.8687 7.57978C45.8987 7.61978 46.1087 7.78978 46.0187 7.75978L45.9587 7.70978C45.9587 7.70978 45.9987 7.74978 46.0087 7.76978C46.0087 7.76978 45.9687 7.74978 45.9487 7.72978C45.8887 7.69978 45.9787 7.75978 45.9887 7.76978L45.9387 7.72978C45.8187 7.66978 46.0187 7.84978 45.9787 7.84978C45.9687 7.82978 45.8987 7.78978 45.8787 7.77978C46.0487 7.90978 45.9887 7.90978 46.0287 7.93978L45.9587 7.88978C46.0587 7.98978 45.7587 7.76978 45.8687 7.86978L45.9787 7.92978C45.9787 7.92978 45.9787 7.94978 46.0587 7.99978C45.9987 7.96978 45.9187 7.89978 45.8987 7.89978C45.8487 7.86978 45.8687 7.86978 45.8087 7.82978L45.6687 7.74978C45.7787 7.80978 45.7887 7.84978 45.8887 7.90978C45.8187 7.87978 45.7087 7.77978 45.6687 7.74978C45.6487 7.73978 45.6587 7.74978 45.6687 7.74978C45.8887 7.90978 45.6687 7.76978 45.8887 7.91978C45.8887 7.94978 45.7287 7.86978 45.8187 7.95978C45.5987 7.81978 45.7787 7.98978 45.5087 7.79978C45.4987 7.79978 45.5487 7.85978 45.6587 7.93978C45.6987 7.96978 45.7087 7.98978 45.6987 7.99978C45.6387 7.94978 45.5987 7.89978 45.4987 7.81978C45.5187 7.84978 45.6087 7.93977 45.6387 7.96978L45.4987 7.86978C45.5987 7.94978 45.3787 7.79978 45.5087 7.89978L45.5487 7.92978C45.5487 7.92978 45.6687 8.03977 45.6787 8.06977L45.6187 8.02977C45.6187 8.02977 45.7187 8.11977 45.5887 8.02977C45.4887 7.94977 45.4387 7.91978 45.3887 7.88978C45.4087 7.91978 45.5487 8.00978 45.5587 8.01978C45.4687 7.95978 45.5087 7.97978 45.4187 7.91978C45.4487 7.94978 45.4687 7.99977 45.5887 8.08978C45.5687 8.08978 45.5487 8.05978 45.5487 8.05978C45.5187 8.05978 45.6887 8.18978 45.5987 8.13978H45.5887C45.4487 8.03977 45.6987 8.23977 45.4687 8.07977C45.4187 8.04978 45.4887 8.07978 45.3687 7.99978C45.2887 7.95978 45.5587 8.14977 45.4887 8.10977C45.4887 8.10977 45.4887 8.10978 45.4587 8.08978C45.4587 8.09978 45.4687 8.12978 45.4887 8.15977C45.4887 8.15977 45.4987 8.15977 45.5087 8.16978H45.4887V8.15977C45.2887 8.03977 45.5087 8.22978 45.2787 8.08978C45.3587 8.13978 45.3687 8.15977 45.3987 8.17978C45.3987 8.17978 45.3787 8.15977 45.3587 8.15977C45.3587 8.15977 45.4187 8.20977 45.4487 8.23977C45.4487 8.23977 45.4487 8.23977 45.4587 8.23977C45.4687 8.24977 45.4587 8.23977 45.4487 8.23977C45.4587 8.23977 45.4687 8.23977 45.4487 8.23977C45.3787 8.19977 45.5087 8.30977 45.4687 8.27977C45.5187 8.31977 45.4987 8.30978 45.4987 8.30978C45.4487 8.25978 45.3987 8.22978 45.3187 8.16978C45.2887 8.16978 45.5287 8.33978 45.4787 8.32977L45.3787 8.26978C45.5187 8.36978 45.4487 8.33978 45.5087 8.37978C45.4587 8.34978 45.4387 8.33978 45.3587 8.27977C45.3887 8.30977 45.3087 8.26977 45.3887 8.32977L45.4287 8.34978C45.3587 8.32977 45.5587 8.47978 45.4587 8.42978L45.2487 8.27977C45.1587 8.22977 45.3587 8.37978 45.2187 8.29978C45.2887 8.34978 45.2687 8.32977 45.3387 8.38978C45.3587 8.38978 45.3087 8.34978 45.3087 8.34978L45.4287 8.44977L45.3787 8.38978C45.4587 8.45977 45.4387 8.43977 45.5287 8.49977C45.5887 8.55978 45.4187 8.43977 45.4887 8.49977C45.4587 8.47977 45.3787 8.41978 45.3387 8.39977C45.4087 8.45977 45.1687 8.30977 45.2787 8.39977C45.2587 8.38977 45.2787 8.39977 45.2287 8.35977C45.2487 8.37978 45.2287 8.37978 45.2987 8.42978H45.3287C45.3287 8.42978 45.4087 8.49977 45.3487 8.47977C45.3987 8.51977 45.4987 8.59978 45.4987 8.58978C45.5087 8.59978 45.4487 8.56978 45.3887 8.51978C45.3787 8.52978 45.6087 8.68978 45.4987 8.62978C45.4987 8.62978 45.4787 8.61977 45.4687 8.60977C45.4487 8.60977 45.4487 8.60977 45.4687 8.60977C45.4687 8.58977 45.2987 8.48977 45.3387 8.50978C45.2287 8.42978 45.3087 8.50977 45.2587 8.47977C45.3287 8.53977 45.4187 8.59978 45.4787 8.63978C45.4387 8.60978 45.4387 8.61977 45.4187 8.60977L45.5087 8.66978C45.5087 8.66978 45.5087 8.66977 45.5187 8.68977L45.4887 8.65977C45.4887 8.65977 45.3287 8.56978 45.3987 8.63978C45.3687 8.60978 45.2987 8.55977 45.2487 8.52977C45.2987 8.57977 45.2087 8.50978 45.1387 8.46978C45.1487 8.49977 45.2887 8.57978 45.2287 8.55978C45.2287 8.55978 45.2787 8.59977 45.2987 8.60977C45.2487 8.58977 45.2987 8.63977 45.2387 8.60977C45.2687 8.61977 45.2987 8.63978 45.3287 8.66978C45.2587 8.61977 45.2587 8.62978 45.2087 8.60977C45.2187 8.60977 45.2187 8.62978 45.2487 8.63978L45.2087 8.60977C45.1987 8.60977 45.1787 8.58978 45.1687 8.57977C45.1787 8.58978 45.1987 8.59978 45.1987 8.58978C45.1687 8.55978 44.9987 8.44977 44.9787 8.43977C45.0087 8.47977 45.1287 8.55978 45.1687 8.58978C45.1187 8.56977 45.3587 8.73977 45.2787 8.70977C45.2787 8.70977 45.0987 8.59978 45.0787 8.59978C45.1687 8.66978 45.1587 8.63978 45.2387 8.70977C44.9787 8.54978 45.3687 8.84978 45.2087 8.75978L45.0887 8.66978C45.0887 8.66978 45.0687 8.66978 45.0787 8.67978L45.1487 8.71978C45.1487 8.71978 45.1487 8.73977 45.0487 8.66978C45.1387 8.74977 45.0787 8.70977 45.0487 8.69977C45.0687 8.69977 45.0687 8.70977 45.0087 8.65977C44.9387 8.62978 44.9787 8.65977 45.0087 8.67978C44.9687 8.64978 44.8987 8.60977 44.8987 8.60977C44.9687 8.66978 44.9487 8.66978 44.9787 8.70977L44.9387 8.67978C44.9387 8.67978 44.7987 8.62978 44.8887 8.71978C44.8887 8.71978 44.8987 8.71978 44.9087 8.71978C45.0287 8.78977 44.9787 8.78977 45.0187 8.82977C44.9887 8.80977 44.9387 8.77977 44.9387 8.77977C45.0487 8.85977 44.9887 8.82977 45.0387 8.85977C44.9987 8.83977 44.9087 8.76977 44.9087 8.77977C44.9087 8.78977 44.9687 8.82977 45.0087 8.85977C44.9487 8.81977 44.9087 8.79978 44.8887 8.79978C44.8587 8.77977 44.8987 8.79978 44.8887 8.79978C44.8287 8.75978 44.8487 8.77977 44.7787 8.72977C44.7687 8.72977 44.8787 8.79978 44.8387 8.77977L44.7587 8.71978C44.7587 8.71978 44.7687 8.72977 44.7787 8.73977C44.7587 8.71977 44.6787 8.65977 44.6287 8.62978C44.6787 8.68978 44.8487 8.78977 44.9487 8.85977C44.8787 8.82977 44.9787 8.90977 44.9787 8.92978L44.8787 8.85977C44.8787 8.85977 44.9087 8.88978 44.9487 8.92978L44.9987 8.96978C44.9787 8.95977 44.9687 8.93978 44.9487 8.92978C44.9487 8.92978 44.8887 8.87978 44.8087 8.82977C44.8287 8.85977 44.7987 8.84977 44.9287 8.94977L44.9087 8.92978C44.8587 8.90977 44.8087 8.90977 44.7687 8.87978C44.7887 8.90977 44.7687 8.89977 44.7787 8.91978C44.8187 8.94977 44.9187 9.01978 44.9187 9.01978C44.8887 8.99977 44.8687 8.97978 44.8487 8.96978C44.8787 8.99977 44.6687 8.86977 44.8287 8.98977C44.7387 8.93977 44.7887 8.96978 44.6987 8.88978C44.6087 8.83978 44.8187 8.99977 44.6287 8.86977C44.6787 8.91978 44.6687 8.89977 44.7487 8.95977C44.5687 8.83978 44.7087 8.95977 44.5987 8.88978C44.6687 8.93978 44.6487 8.91977 44.7187 8.97977C44.6787 8.94977 44.6687 8.94977 44.6587 8.93977L44.7687 9.01978L44.4887 8.83978C44.5987 8.93978 44.6687 8.96978 44.7087 9.01978C44.5987 8.94978 44.7887 9.08978 44.6887 9.03977C44.7087 9.04978 44.6387 8.99977 44.6087 8.97977L44.6487 9.01978C44.6487 9.01978 44.6387 9.00978 44.6187 8.99977C44.5287 8.94977 44.6587 9.03977 44.5787 8.99977C44.5587 8.97977 44.4787 8.91978 44.4387 8.89977L44.5587 8.99977L44.4087 8.88978C44.4087 8.88978 44.6187 9.07977 44.4087 8.92978L44.3887 8.90977C44.3887 8.90977 44.2587 8.81977 44.3087 8.86977C44.3087 8.86977 44.3087 8.86977 44.3187 8.86977C44.3387 8.88978 44.4187 8.93977 44.4087 8.93977L44.3687 8.91978C44.3687 8.91978 44.3287 8.88978 44.3087 8.86977C44.2787 8.83978 44.2487 8.80978 44.2387 8.79978C44.2787 8.82977 44.3087 8.85977 44.3687 8.89977C44.3387 8.86977 44.2787 8.81977 44.2487 8.78977C44.2387 8.77977 44.2287 8.76978 44.2187 8.75978C44.2187 8.75978 44.2287 8.75978 44.2387 8.76978C44.2387 8.76978 44.2587 8.77977 44.2787 8.79978C44.2787 8.79978 44.2587 8.77978 44.2387 8.76978C44.2387 8.76978 44.2387 8.76977 44.2487 8.77977C44.2887 8.80977 44.3487 8.85978 44.3887 8.88978C44.4487 8.91978 44.3287 8.83978 44.3187 8.81977C44.3587 8.84977 44.3887 8.85978 44.4187 8.88978C44.3787 8.84978 44.3787 8.83978 44.4387 8.86977C44.4387 8.86977 44.5087 8.92978 44.5687 8.95977C44.5187 8.89977 44.3987 8.81977 44.3487 8.74977C44.1987 8.61977 44.4687 8.78977 44.3587 8.68977C44.3187 8.65977 44.2787 8.63978 44.2487 8.61977C44.3387 8.67978 44.3087 8.65977 44.3487 8.67978C44.2287 8.57977 44.3887 8.67978 44.2987 8.61977L44.1687 8.51978ZM44.4287 8.19977L44.4887 8.23977L44.5087 8.26978L44.4287 8.20977V8.19977ZM44.5887 8.18977C44.5887 8.18977 44.6187 8.20977 44.6287 8.22977C44.5687 8.18977 44.5787 8.18977 44.5887 8.18977ZM45.5787 6.30978C45.5787 6.30978 45.5987 6.31978 45.6687 6.36978C45.6387 6.34978 45.6087 6.32978 45.5787 6.30978ZM46.5687 14.1498V14.1898H46.5487L46.5687 14.1498ZM46.1287 7.46978L46.0887 7.43978L46.1187 7.46978H46.1287ZM45.4887 7.90978C45.4887 7.90978 45.5187 7.91978 45.5387 7.92978C45.5887 7.96978 45.5487 7.94978 45.4887 7.90978ZM45.4587 8.18977C45.4587 8.18977 45.3587 8.12978 45.3487 8.10977L45.4587 8.18977ZM45.1787 8.67978H45.1687L45.1487 8.64977L45.1787 8.67978ZM44.8487 8.67978L44.8087 8.65977C44.8087 8.65977 44.8087 8.65977 44.8487 8.67978ZM44.7087 8.95977C44.7087 8.95977 44.6487 8.90978 44.6087 8.88978H44.6487C44.6487 8.88978 44.8387 9.02977 44.7087 8.95977ZM44.2387 8.84978C44.1687 8.78977 44.2287 8.82978 44.1987 8.80978C44.2387 8.83978 44.2987 8.87978 44.2887 8.85977C44.1587 8.75977 44.2087 8.78977 44.0887 8.70977C44.1987 8.78977 44.2987 8.85977 44.3487 8.90977C44.3287 8.88977 44.2987 8.86978 44.2687 8.84978C44.3387 8.90978 44.3287 8.90978 44.2387 8.84978ZM44.1987 8.82977C44.1987 8.82977 44.1387 8.78978 44.1087 8.76978L44.0787 8.73977L44.1987 8.82977ZM44.1487 8.63978C44.2087 8.68978 44.0587 8.58978 44.1087 8.63978L44.0787 8.61977C44.0787 8.61977 44.1287 8.63977 44.1487 8.64977V8.63978ZM44.0687 8.66978H44.0787C44.0787 8.66978 44.0787 8.66978 44.0587 8.66978H44.0687ZM44.5487 15.3998C44.5487 15.3998 44.5587 15.4598 44.5687 15.4898C44.5187 15.4998 44.5587 15.4698 44.5487 15.3998ZM51.7587 12.3398V12.2998L51.8087 12.3698L51.7587 12.3398ZM53.1787 11.1198C53.1387 11.0698 53.2787 11.1398 53.2387 11.0898L53.2587 11.1098C53.2587 11.1098 53.1887 11.1098 53.1787 11.1098V11.1198ZM53.2787 11.0098C53.2787 11.0098 53.2887 11.0298 53.2887 11.0398H53.2787C53.2787 11.0398 53.2787 11.0198 53.2487 10.9998C53.2487 10.9998 53.2687 11.0198 53.2787 11.0298C53.2787 11.0298 53.2787 11.0198 53.2787 11.0098C53.2587 10.9698 53.2187 10.9198 53.1887 10.8898C53.1287 10.8798 53.2187 10.9498 53.2087 10.9798C53.1687 10.9598 53.1487 10.9398 53.1287 10.9198C53.1287 10.9698 53.1287 10.9898 53.0687 10.9798C53.0687 10.9798 53.0387 10.8998 52.9887 10.8798C52.9887 10.9598 53.0687 11.0598 53.0787 11.1498C53.1487 11.3198 52.9087 11.1798 52.9587 11.2998C52.9887 11.3298 53.0387 11.3298 53.0387 11.3698C52.9787 11.2998 52.9787 11.3398 52.9587 11.3198C53.0287 11.4398 52.8987 11.3398 52.9387 11.4198C52.9187 11.3898 52.8787 11.3798 52.8487 11.3698C52.8487 11.3698 52.8687 11.3898 52.8787 11.3998L52.8487 11.3698C52.7787 11.2898 52.7887 11.3698 52.7187 11.2098C52.7987 11.3698 52.6187 11.2398 52.7687 11.4598H52.7987L52.7187 11.4698C52.7187 11.4698 52.7087 11.4998 52.6087 11.4298C52.6087 11.3998 52.6087 11.3898 52.6087 11.3598C52.5187 11.3098 52.6187 11.4598 52.6087 11.4898C52.5587 11.4298 52.6087 11.4498 52.5387 11.3798C52.5087 11.3798 52.5387 11.4398 52.5387 11.4698L52.5087 11.4398C52.3987 11.3998 52.6387 11.6198 52.5087 11.5298C52.5287 11.5498 52.5387 11.5698 52.5587 11.5898C52.5187 11.5698 52.4387 11.5298 52.4187 11.4598C52.4087 11.4698 52.4187 11.5198 52.4387 11.5598C52.4987 11.5998 52.4787 11.5698 52.5387 11.6298L52.5087 11.7198L52.4887 11.6798C52.2687 11.5698 52.4787 11.9598 52.2087 11.8098C52.2687 11.8598 52.2487 11.8598 52.2687 11.9098C52.2287 11.9098 52.1987 11.9598 52.1487 11.9498L52.1287 11.9098C52.1087 12.0098 52.1187 12.1098 52.0487 12.1198C52.0587 12.1398 51.9987 12.0598 51.9987 12.0498C52.0287 12.1498 51.8087 11.9498 51.9187 12.1098H51.9387C51.8587 12.1398 51.8787 12.2998 51.8287 12.3698C51.7387 12.2898 51.8587 12.3298 51.7587 12.2298C51.6887 12.2298 51.6987 12.3398 51.6287 12.3498C51.6287 12.3298 51.6187 12.3198 51.6187 12.3098C51.5287 12.2898 51.6987 12.3998 51.6487 12.4198C51.6187 12.3698 51.6087 12.3598 51.5687 12.3498L51.6087 12.4298C51.6087 12.4298 51.5587 12.3598 51.5387 12.3298C51.5987 12.4398 51.4887 12.4198 51.5387 12.5198C51.5187 12.4998 51.4587 12.4098 51.4287 12.3698C51.3887 12.3598 51.3987 12.4098 51.4087 12.4498C51.4387 12.4998 51.4387 12.4998 51.4187 12.4998C51.4187 12.4898 51.4187 12.4698 51.4087 12.4498C51.3487 12.3998 51.3187 12.4298 51.3187 12.4198C51.2587 12.4198 51.3487 12.4798 51.3587 12.5598L51.4187 12.5798L51.3787 12.6398V12.5798C51.3187 12.5598 51.3487 12.6598 51.3187 12.6798L51.3687 12.7198V12.7798C51.2787 12.6698 51.2987 12.7798 51.2187 12.6398C51.1187 12.6298 51.1787 12.7998 51.1187 12.8498C51.1287 12.8498 51.1187 12.8198 51.0987 12.7998C51.0487 12.7998 51.0687 12.8698 51.0887 12.9398C51.0687 12.8998 51.0687 12.8798 51.0487 12.8498C51.0087 12.8798 51.0687 12.9298 51.0487 12.9998C51.0287 12.9398 51.0087 12.9198 50.9887 12.9198C51.0187 12.9598 51.0287 12.9998 51.0287 13.0098C50.9087 12.7598 50.9187 12.9498 50.8187 12.7598C50.8487 12.8098 50.8487 12.9598 50.9287 13.0298V12.9998C50.9687 13.0598 50.9387 13.0498 50.9287 13.0598C50.9287 13.0398 50.9287 13.0298 50.9187 13.0098C50.9087 13.1298 50.7887 13.1098 50.7587 13.2098C50.7587 13.1798 50.7587 13.1198 50.7187 13.1098C50.6187 13.1198 50.6587 13.2698 50.6187 13.3698C50.5187 13.2198 50.6887 13.2998 50.5987 13.1598C50.5387 13.2398 50.4887 13.3398 50.4487 13.4698C50.2887 13.2698 50.4187 13.6098 50.2587 13.4698C50.3087 13.5398 50.2987 13.5798 50.2587 13.5998C50.2287 13.5298 50.1987 13.5498 50.1887 13.4998C50.1987 13.5798 50.1387 13.6498 50.0587 13.4998C50.1287 13.6398 49.9987 13.5198 50.0287 13.6398C50.0387 13.6398 50.0587 13.6598 50.0887 13.6898L50.0387 13.6698C50.0387 13.6698 50.0387 13.6498 50.0387 13.6398C49.9787 13.6098 49.9787 13.7098 49.9187 13.6898C49.9787 13.7698 49.8987 13.7598 49.9087 13.7998C49.9087 13.7998 49.9087 13.7698 49.9087 13.7598C49.8587 13.6898 49.8987 13.8498 49.8487 13.8198C49.8187 13.7898 49.8087 13.7398 49.7887 13.7398C49.8187 13.7998 49.7887 13.9098 49.7287 13.8498C49.7387 13.8498 49.7287 13.8098 49.7187 13.7798C49.6687 13.9498 49.4787 13.8798 49.4187 14.0698L49.3887 13.9498C49.2487 13.8498 49.4287 14.1498 49.3587 14.1698C49.1687 14.1898 48.9387 14.1198 48.8087 14.2598C48.8087 14.2998 48.8287 14.2998 48.8587 14.3398C48.8387 14.3398 48.7887 14.2398 48.7987 14.3098L48.8287 14.3698C48.6887 14.2398 48.6687 14.5698 48.4987 14.3398C48.4687 14.4698 48.3487 14.3198 48.3287 14.4998C48.2787 14.4598 48.3187 14.3798 48.2787 14.3798L48.2387 14.5098C48.2387 14.7098 47.9587 14.3698 47.9087 14.5398C47.8987 14.4898 47.8587 14.4398 47.8487 14.4598C47.8487 14.4898 47.8687 14.4998 47.8887 14.5398C47.8287 14.6398 47.8087 14.6498 47.7487 14.6898C47.7487 14.6198 47.6987 14.6398 47.6687 14.5598C47.6687 14.6198 47.7087 14.6498 47.6887 14.7098C47.6387 14.7398 47.5587 14.6798 47.4987 14.6698C47.4987 14.7598 47.4687 14.7398 47.4987 14.8398C47.4387 14.8698 47.4087 14.9198 47.3287 14.9398V14.9098C47.3287 15.0398 47.2287 14.8698 47.2387 14.9498C47.2287 14.9098 47.2387 14.8798 47.2187 14.8498L47.1987 14.8998C47.1987 14.8998 47.1787 14.7398 47.1387 14.7298C47.1387 14.8298 47.1687 14.7898 47.1687 14.8598L47.1187 14.7498C47.1187 14.7498 47.1287 14.8998 47.1687 14.9298C47.0887 14.9498 47.0287 15.0298 46.9487 15.0398V14.9598C46.9487 14.9598 46.8487 15.0198 46.8087 14.9598C46.8087 14.9798 46.8087 15.0298 46.8287 15.0498C46.8087 15.1598 46.7887 14.9298 46.7687 15.0498C46.7687 15.0198 46.7887 14.9998 46.7687 14.9498L46.6987 15.0698C46.6787 15.0098 46.5887 14.8998 46.5587 14.9598C46.5587 14.9898 46.5887 15.0298 46.5987 15.0398L46.5787 15.0798L46.5187 14.9498V15.0798L46.4887 14.9698C46.4887 14.9698 46.4887 15.1398 46.4687 15.1398C46.3687 15.0898 46.3687 15.0498 46.2887 14.9598C46.3387 15.1698 46.1887 14.9798 46.2087 15.1298C46.0887 14.9898 45.9987 15.1098 45.8787 15.0898V15.0698C45.8187 14.9798 45.8687 15.2398 45.8087 15.2098V15.1798C45.7287 15.0798 45.6387 15.2098 45.5987 15.3098C45.5987 15.2798 45.5887 15.2098 45.5687 15.2198C45.5687 15.2698 45.6087 15.3698 45.5687 15.3298C45.5687 15.3098 45.5587 15.2598 45.5487 15.2598V15.3698C45.4287 15.3198 45.3187 15.2598 45.2387 15.3298C45.2187 15.2898 45.2187 15.2498 45.2187 15.2198C45.1487 15.2498 45.0887 15.3498 45.0287 15.3798L44.9987 15.2598C44.9987 15.2598 44.9987 15.4498 44.9487 15.3498C44.9387 15.3298 44.9787 15.3398 44.9787 15.2798C44.8987 15.1998 44.9587 15.4098 44.8987 15.3998V15.2598C44.8387 15.1798 44.8487 15.3398 44.8487 15.4298C44.8087 15.6098 44.7687 15.1698 44.6887 15.2998C44.6887 15.3698 44.7087 15.3998 44.6987 15.4698C44.6287 15.4398 44.6387 15.5398 44.5687 15.5098C44.5087 15.2998 44.5987 15.5098 44.5387 15.3098L44.5887 15.3498C44.5287 15.2398 44.6187 15.3198 44.5987 15.1898C44.5587 15.1598 44.5287 15.2698 44.4887 15.3098C44.4787 15.2198 44.5387 15.2898 44.4987 15.1698L44.4787 15.2098C44.4787 15.2098 44.4787 15.1498 44.4887 15.1498C44.4687 15.0598 44.4687 15.1498 44.4487 15.1498C44.4487 15.1998 44.4587 15.2698 44.4787 15.3398C44.4787 15.3298 44.4787 15.3198 44.4787 15.3098C44.4487 15.4498 44.3687 15.3498 44.3487 15.4698C44.3487 15.4398 44.3487 15.4298 44.3487 15.4098C44.3187 15.4098 44.3087 15.5298 44.2787 15.5698C44.2487 15.4998 44.2787 15.3598 44.2187 15.4098C44.2187 15.4698 44.2187 15.5298 44.2187 15.5798C44.2187 15.5598 44.2187 15.5298 44.2187 15.5098C44.1787 15.5698 44.1987 15.4898 44.1587 15.3998C44.1487 15.5098 44.1087 15.3698 44.1187 15.5498C44.0987 15.4298 44.0987 15.4798 44.0687 15.3898C44.0887 15.4898 44.0287 15.4898 44.0387 15.6098C44.0187 15.4798 44.0687 15.4398 44.0287 15.3098C44.0087 15.3998 43.9687 15.4398 43.9787 15.5798C43.9587 15.5498 43.9487 15.4998 43.9187 15.4798C43.9187 15.4798 43.9187 15.4598 43.9287 15.4498C43.8787 15.5498 43.7987 15.4498 43.7787 15.6298C43.7787 15.4198 43.6687 15.6098 43.6987 15.4098C43.6787 15.4098 43.6487 15.5098 43.6387 15.5498C43.6387 15.3898 43.5787 15.5098 43.5587 15.4198C43.5587 15.5098 43.5087 15.4798 43.4887 15.5398C43.4887 15.5198 43.4987 15.4898 43.4887 15.4498C43.4687 15.5198 43.4687 15.4498 43.4387 15.3798C43.4087 15.4298 43.4487 15.4998 43.4387 15.5798C43.4087 15.5398 43.4387 15.4798 43.4187 15.4098L43.3787 15.5798C43.3787 15.5798 43.3587 15.5298 43.3587 15.4898C43.3487 15.5398 43.3287 15.6098 43.3087 15.5298H43.3487L43.3287 15.4398L43.2787 15.5498C43.2087 15.4298 43.2287 15.2598 43.2287 15.0798L43.2587 15.0498C43.2587 14.9898 43.2387 14.9598 43.2287 14.9598C43.2187 14.9198 43.2687 14.7698 43.2987 14.7498C43.3787 14.7498 43.3187 14.9498 43.3787 14.9898L43.4487 14.8898V14.9498C43.4487 14.9498 43.4687 14.9198 43.4687 14.9098C43.4687 14.9998 43.5287 14.9398 43.5587 14.9498V14.8798C43.6187 14.6998 43.6787 15.0598 43.7387 14.9698L43.7787 14.8398L43.7987 14.9498C43.8187 14.8798 43.8187 14.7998 43.8587 14.8298C44.0187 15.0198 44.1587 14.7598 44.3187 14.8698C44.3187 14.8498 44.3187 14.8398 44.2987 14.8198C44.4587 15.0798 44.4687 14.5198 44.6087 14.7198V14.7598C44.6587 14.7298 44.6087 14.7998 44.6587 14.8598C44.6587 14.7198 44.7187 14.7398 44.7487 14.6898C44.7487 14.7198 44.7387 14.7198 44.7287 14.7398C44.7387 14.7698 44.7487 14.8498 44.7687 14.8198C44.7787 14.6198 44.8687 14.6298 44.9187 14.5598C44.9387 14.6498 44.9987 14.7198 45.0487 14.8598C45.0487 14.8298 45.0487 14.7598 45.0487 14.6898C45.0487 14.6898 45.0487 14.6798 45.0387 14.6698C45.0287 14.6698 45.0187 14.6798 45.0287 14.6898C44.9887 14.6098 45.0287 14.6198 44.9987 14.5198C45.0187 14.5198 45.0487 14.4798 45.0687 14.5598C45.0787 14.5598 45.0887 14.5598 45.1087 14.5798C45.1087 14.5598 45.1187 14.5498 45.1287 14.5598C45.1287 14.5598 45.1287 14.5898 45.1387 14.5998C45.1887 14.6398 45.2087 14.4798 45.2287 14.3998C45.2287 14.5298 45.2587 14.5398 45.2787 14.6398C45.2787 14.6398 45.2387 14.6398 45.1887 14.6398C45.1887 14.6398 45.1987 14.6698 45.2087 14.6998C45.2687 14.7898 45.2687 14.5998 45.3387 14.6598C45.3387 14.6698 45.3387 14.6898 45.3387 14.7298C45.3687 14.7498 45.3687 14.6698 45.3687 14.6198C45.3887 14.7098 45.4487 14.7698 45.4687 14.7198C45.4687 14.6398 45.4687 14.6098 45.4987 14.6098V14.6798C45.5487 14.7198 45.5087 14.5798 45.5587 14.6198C45.5387 14.5998 45.5587 14.6598 45.5587 14.6798C45.5987 14.6398 45.5887 14.5998 45.5987 14.4598V14.5598C45.6387 14.4898 45.6887 14.3498 45.7187 14.4898C45.6587 14.2798 45.7787 14.3598 45.8087 14.3598C45.8087 14.3598 45.8087 14.4098 45.8087 14.4398C45.8487 14.2898 45.9487 14.4098 46.0187 14.3898L46.0687 14.5398C46.0687 14.5398 46.0387 14.2198 46.0787 14.2198V14.2998C46.1487 14.2598 46.1787 14.2598 46.2387 14.2698L46.2587 14.3698C46.2587 14.3198 46.2887 14.3098 46.2987 14.2598C46.4087 14.4898 46.4487 14.0798 46.6087 14.3298L46.5587 14.1398C46.5587 14.1398 46.6187 14.0798 46.6787 14.2198C46.7187 14.3598 46.7087 14.2198 46.7387 14.2398C46.7487 14.2198 46.7387 14.1198 46.7187 14.0998C46.8287 14.1698 46.9287 14.0298 47.0387 14.1798C47.1087 14.0898 47.1187 13.9298 47.2187 13.9198V13.9398C47.2187 13.9398 47.3387 13.9798 47.3987 14.1398C47.4487 14.0798 47.4187 13.8498 47.5187 13.8898V13.9498C47.5187 13.9498 47.5587 13.8898 47.5587 13.8698C47.5587 13.8698 47.5687 13.8998 47.5787 13.9198C47.6187 13.9698 47.5987 13.8798 47.6087 13.8598V13.9098C47.7187 13.9898 47.7487 13.7498 47.8287 13.7498C47.8287 13.7698 47.8487 13.8298 47.8687 13.8498C47.8387 13.6698 47.9387 13.6698 47.9587 13.6198V13.6898C47.9887 13.5498 48.0887 13.8398 48.1087 13.6998L48.0287 13.6198C48.0287 13.6198 48.0787 13.5998 48.0287 13.5198C48.0787 13.5598 48.0887 13.6498 48.1387 13.6398C48.1587 13.6898 48.1187 13.6898 48.1587 13.7398L48.2787 13.8398C48.1987 13.7598 48.2587 13.7098 48.1987 13.6298C48.2587 13.6698 48.2587 13.7998 48.2787 13.8398C48.2787 13.8498 48.2987 13.8498 48.3087 13.8398C48.2187 13.6298 48.3587 13.8098 48.2387 13.6198C48.3187 13.5698 48.4587 13.6698 48.4887 13.5398C48.6087 13.7298 48.6387 13.4798 48.7487 13.7398C48.7887 13.7198 48.8087 13.6498 48.7787 13.5398H48.7687C48.7687 13.4898 48.7987 13.4598 48.8087 13.4598C48.8087 13.5298 48.7887 13.5998 48.8087 13.7098C48.8387 13.6698 48.8487 13.5398 48.8487 13.4998L48.9187 13.6298C48.9087 13.5198 48.9987 13.7198 48.9687 13.5798L48.9387 13.5398C48.9987 13.5198 48.9387 13.3898 48.9887 13.3498L49.0087 13.3998C49.0087 13.3998 49.0087 13.2798 49.0787 13.3798L49.0487 13.3998C49.0987 13.4898 49.1487 13.5198 49.1787 13.5598C49.2087 13.5198 49.1187 13.4098 49.1287 13.3798C49.1787 13.4598 49.1587 13.4198 49.1787 13.5098C49.2087 13.4598 49.2487 13.3898 49.2187 13.2698C49.2187 13.2798 49.2387 13.2998 49.2387 13.2998C49.2887 13.2998 49.2387 13.1198 49.3087 13.1798V13.1998C49.4087 13.2998 49.3387 13.0298 49.4587 13.2398C49.4987 13.2698 49.4187 13.2498 49.4987 13.3398C49.5887 13.3798 49.4387 13.1398 49.5187 13.1798C49.5187 13.1798 49.5187 13.1798 49.5187 13.2098C49.5487 13.1898 49.5787 13.1398 49.6087 13.0998C49.6087 13.0998 49.6087 13.0998 49.5987 13.0798H49.6187V13.0998C49.7587 13.2498 49.7287 12.9798 49.8987 13.1498C49.8387 13.0898 49.8687 13.0598 49.8487 13.0298C49.8487 13.0298 49.8487 13.0498 49.8687 13.0598C49.8887 13.0598 49.8587 12.9898 49.8487 12.9498C49.8487 12.9298 49.8587 12.9498 49.8687 12.9498C49.8487 12.9398 49.8487 12.9498 49.8587 12.9598C49.9087 13.0098 49.8687 12.8598 49.9087 12.8998C49.8787 12.8598 49.9087 12.8598 49.9187 12.8498C49.9187 12.9198 49.9587 12.9498 49.9887 13.0298C50.0487 13.0298 49.9287 12.7998 49.9987 12.8098L50.0787 12.8698C50.0087 12.7398 50.0787 12.7598 50.0587 12.7198C50.0887 12.7498 50.1187 12.7698 50.1587 12.8298C50.1587 12.7898 50.2287 12.8298 50.1887 12.7498L50.1487 12.7298C50.2387 12.7298 50.1687 12.5398 50.2687 12.5898L50.3887 12.7698C50.4687 12.8298 50.3887 12.6298 50.4787 12.7298C50.4287 12.6698 50.4387 12.6898 50.4187 12.6198C50.3987 12.6198 50.4087 12.6798 50.3887 12.6898L50.3587 12.5598L50.3287 12.6498C50.3087 12.5598 50.3287 12.5798 50.2587 12.5098C50.2587 12.4298 50.3587 12.5698 50.3487 12.4798C50.3787 12.4998 50.4087 12.5698 50.4487 12.5998C50.4487 12.5098 50.5987 12.6898 50.5587 12.5698C50.5787 12.5798 50.5487 12.5798 50.5787 12.6298C50.5887 12.5998 50.6087 12.5898 50.5787 12.5398H50.5487C50.5487 12.5398 50.5187 12.4498 50.5787 12.4698C50.5687 12.4198 50.5187 12.3198 50.4987 12.3298C50.4987 12.3098 50.5487 12.3498 50.5787 12.4098C50.6287 12.3798 50.4687 12.1998 50.5787 12.2598C50.5787 12.2598 50.5787 12.2798 50.5887 12.2898C50.6087 12.2898 50.6187 12.2898 50.6187 12.2698C50.5887 12.3098 50.7287 12.4098 50.6587 12.4098C50.7287 12.4998 50.7087 12.4098 50.7487 12.4298C50.7287 12.3498 50.6587 12.2898 50.6387 12.2398C50.6587 12.2698 50.6687 12.2598 50.6887 12.2698L50.6287 12.2098C50.6287 12.2098 50.6487 12.1998 50.6487 12.1698V12.2098C50.6487 12.2098 50.7887 12.2998 50.7787 12.2098C50.7887 12.2498 50.8087 12.3198 50.8587 12.3398C50.8587 12.2698 50.8887 12.3598 50.9487 12.3998C50.9787 12.3598 50.8687 12.2698 50.9487 12.2698C50.9487 12.2698 50.9187 12.2298 50.8987 12.2098C50.9687 12.2098 50.9487 12.1498 51.0287 12.1698C50.9987 12.1698 50.9687 12.1498 50.9687 12.0998C50.9987 12.1698 51.0387 12.1298 51.0787 12.1498L51.0587 12.1098C51.0587 12.1098 51.0987 12.1598 51.0987 12.1798C51.0987 12.1698 51.0787 12.1598 51.0687 12.1698C51.0687 12.2098 51.1787 12.3398 51.2187 12.3298C51.2187 12.2698 51.1487 12.1798 51.1187 12.1498C51.1887 12.1498 51.0387 11.9598 51.1187 11.9798C51.1187 11.9798 51.2687 12.0898 51.3087 12.0798C51.2587 11.9898 51.2287 12.0498 51.1887 11.9698C51.3887 12.1298 51.1887 11.7698 51.3487 11.8398L51.4187 11.9398C51.4187 11.9398 51.4587 11.9298 51.4687 11.9098L51.4087 11.8698C51.4087 11.8698 51.4587 11.8298 51.4987 11.9098C51.4687 11.8098 51.5187 11.8498 51.5687 11.8498C51.5287 11.8698 51.5587 11.8398 51.5687 11.9098C51.6387 11.9298 51.6187 11.8898 51.6287 11.8498C51.6487 11.8898 51.7087 11.9298 51.7187 11.9198C51.6887 11.8398 51.7387 11.8198 51.7487 11.7598L51.7687 11.7898C51.7887 11.7098 51.9587 11.7898 51.9387 11.6598C51.9387 11.6598 51.9387 11.6598 51.9287 11.6598C51.8387 11.5898 51.9187 11.5598 51.8987 11.5098C51.9187 11.5298 51.9587 11.5698 51.9687 11.5598C51.8987 11.4798 51.9487 11.4998 51.9287 11.4598C51.9687 11.4698 52.0087 11.5598 52.0387 11.5298C52.0387 11.5098 52.0087 11.4698 51.9787 11.4398C52.0187 11.4798 52.0687 11.4898 52.0987 11.4898C52.1087 11.5198 52.0787 11.4898 52.0787 11.4998C52.1187 11.5498 52.1087 11.5198 52.1587 11.5698C52.1787 11.5698 52.0987 11.4898 52.1387 11.4998L52.1787 11.5798C52.1787 11.5798 52.1787 11.5598 52.1787 11.5498C52.1787 11.5798 52.2387 11.6398 52.2787 11.6798C52.2787 11.5998 52.1287 11.4998 52.0687 11.4298C52.1487 11.4498 52.1087 11.3298 52.1287 11.2998L52.1887 11.3798C52.1887 11.3798 52.1887 11.3298 52.1587 11.2898L52.1387 11.2498C52.1487 11.2698 52.1587 11.2798 52.1687 11.2898L52.1887 11.2698C52.1887 11.2698 52.2187 11.3398 52.2687 11.3998C52.2687 11.3598 52.3187 11.3498 52.2387 11.2398V11.2598C52.3187 11.2598 52.3987 11.2298 52.4287 11.2598C52.4287 11.2198 52.4787 11.2098 52.4787 11.1798C52.4487 11.1498 52.3787 11.0698 52.3887 11.0698C52.4087 11.0898 52.4287 11.1098 52.4387 11.1198C52.4387 11.0798 52.6087 11.1998 52.5087 11.0598C52.5987 11.0998 52.5387 11.0798 52.5987 11.1598C52.6887 11.1998 52.5487 11.0198 52.6987 11.1498C52.6887 11.0798 52.6687 11.1298 52.6187 11.0598C52.7487 11.1798 52.6887 11.0298 52.7887 11.0798C52.7487 11.0198 52.7487 11.0598 52.7087 10.9898C52.7387 11.0198 52.7587 11.0198 52.7587 11.0198L52.6887 10.9398L52.9087 11.1098C52.8587 10.9798 52.7787 10.9798 52.7787 10.8998C52.8687 10.9698 52.7487 10.7998 52.8487 10.8298C52.8187 10.8298 52.8787 10.8698 52.8987 10.8998V10.8498C52.8987 10.8498 52.8987 10.8598 52.8987 10.8698C52.9787 10.9098 52.8787 10.8198 52.9587 10.8498C52.9587 10.8798 53.0287 10.9398 53.0587 10.9598L52.9987 10.8398L53.0987 10.9598C53.0987 10.9598 52.9987 10.7198 53.1687 10.8498V10.8798C53.1687 10.8798 53.2787 10.9598 53.2487 10.8998C53.2387 10.8798 53.1887 10.8198 53.1787 10.8298H53.2187C53.2187 10.8298 53.2387 10.8798 53.2487 10.8998C53.2687 10.9398 53.2687 10.9798 53.2587 11.0098C53.2387 10.9698 53.2287 10.9298 53.1787 10.8998C53.1787 10.9398 53.2087 11.0098 53.2187 11.0498L53.2787 11.0098ZM51.9087 11.6398H51.9487C51.9487 11.6398 51.9287 11.6698 51.9087 11.6398ZM53.3987 10.9498C53.3987 10.9498 53.3987 10.9498 53.4087 10.9498H53.3987ZM53.2287 10.6798C53.2287 10.6798 53.2587 10.7198 53.2887 10.7398C53.2487 10.6698 53.2687 10.6498 53.3587 10.6998C53.4087 10.7598 53.3587 10.7298 53.3687 10.7598C53.3387 10.7298 53.2887 10.6998 53.2887 10.7198C53.3787 10.8298 53.3387 10.7998 53.4087 10.8898C53.3187 10.8198 53.2587 10.7398 53.2287 10.6798ZM53.3987 10.6998C53.3987 10.6998 53.4587 10.7198 53.4787 10.7498V10.7898L53.3987 10.6998Z" fill="black"/>
<path d="M45.1086 14.6599C45.1086 14.6599 45.0686 14.6599 45.0586 14.6699V14.6999C45.0886 14.7499 45.0986 14.6999 45.1086 14.6499V14.6599Z" fill="black"/>
<path d="M10.24 36.0599V37.1999H8.8V42.1599H7.61V31.9099H8.8V36.0599H10.24ZM1.21 40.4399H4.07C5.04 40.4399 6.1 40.2599 6.72 39.9699V41.0499C6.1 41.3599 5.03 41.5399 4.04 41.5399H0V32.2199H1.21V40.4399ZM31.14 40.5499H35.66V41.6699H25.42V40.5499H29.92V38.0899H26.09V32.2799H34.97V38.0899H31.13V40.5499H31.14ZM27.29 33.3999V36.9899H33.79V33.3999H27.29ZM71.16 31.9099H72.35V42.1599H71.16V36.6799H67.37V35.5499H71.16V31.9099ZM64.45 40.4399H67.16C68.13 40.4399 69.19 40.2599 69.81 39.9599V41.0499C69.19 41.3599 68.12 41.5399 67.13 41.5399H63.23V32.2199H64.44V40.4399H64.45Z" fill="black"/>
<g opacity="0.7">
<path d="M11.6309 35.8799V33.5599H19.2409V32.8599H11.6309V32.0199H20.3909V34.3499H12.7809V35.0299H20.5309V35.8699H11.6309V35.8799ZM10.8809 37.4899V36.6299H21.1209V37.4899H10.8809ZM11.5909 42.0399V39.7399H19.2609V39.0799H11.5709V38.2399H20.4109V40.5299H12.7409V41.1999H20.5909V42.0399H11.5909ZM37.4809 38.8299V35.0099H45.1809V33.3399H37.4809V32.2699H46.3609V36.0499H38.6609V37.7499H46.5209V38.8199H37.4809V38.8299ZM36.7909 41.6699V40.5799H47.0309V41.6699H36.7909ZM48.8909 35.8799V31.9099H50.0909V34.8299H57.7609V35.8899H48.8909V35.8799ZM48.1609 38.0699V37.0099H58.4009V38.0699H48.1609ZM48.8609 42.0399V38.9799H50.0709V40.9799H57.8609V42.0399H48.8609ZM82.7909 31.9099H83.9209V42.1599H82.7909V31.9099ZM80.3209 36.1799V31.9699H81.4409V41.9799H80.3209V37.3099H78.9609C78.8909 40.3499 78.0709 41.6799 76.5809 41.6799C75.0909 41.6799 74.1909 40.2299 74.1909 36.9199C74.1909 33.6099 75.0309 32.1599 76.5809 32.1599C78.0109 32.1599 78.8209 33.3999 78.9409 36.1899H80.3109L80.3209 36.1799ZM76.5809 40.5999C77.4309 40.5999 77.8309 39.4399 77.8309 36.9199C77.8309 34.3999 77.4309 33.2399 76.5809 33.2399C75.7309 33.2399 75.3209 34.3999 75.3209 36.9199C75.3209 39.4399 75.7309 40.5999 76.5809 40.5999ZM94.1409 31.9099H95.2809V42.1599H94.1409V31.9099ZM91.5809 36.0399V31.9699H92.7109V41.9799H91.5809V37.1699H89.7409C89.2209 39.8799 87.6809 41.4999 85.6509 41.5299V40.4099C87.5609 40.3499 88.7809 38.2699 88.7809 35.1099V33.3699H85.6509V32.2899H89.9309V35.0499C89.9309 35.3999 89.9209 35.7199 89.8909 36.0499H91.5709L91.5809 36.0399Z" fill="#636363"/>
</g>
</g>
<defs>
<clipPath id="clip0_93_1997">
<rect width="95.28" height="42.16" fill="white"/>
</clipPath>
</defs>
</svg>
