<svg width="20" height="22" viewBox="0 0 20 22" fill="none" xmlns="http://www.w3.org/2000/svg">
<path d="M4.93333 9.85V5.91667C4.93333 4.61269 5.45134 3.36211 6.37339 2.44006C7.29545 1.518 8.54602 1 9.85 1C11.154 1 12.4046 1.518 13.3266 2.44006C14.2487 3.36211 14.7667 4.61269 14.7667 5.91667V9.85M2.96667 9.85H16.7333C17.8195 9.85 18.7 10.7305 18.7 11.8167V18.7C18.7 19.7862 17.8195 20.6667 16.7333 20.6667H2.96667C1.88051 20.6667 1 19.7862 1 18.7V11.8167C1 10.7305 1.88051 9.85 2.96667 9.85Z" stroke="#1E1E1E" stroke-width="1.49841" stroke-linecap="round" stroke-linejoin="round"/>
</svg>
