<svg width="65" height="22" viewBox="0 0 65 22" fill="none" xmlns="http://www.w3.org/2000/svg">
<g clip-path="url(#clip0_279_446)">
<path d="M20.1362 21.6441C19.8149 21.9578 19.6675 21.4173 19.2176 21.4173C18.7678 21.4173 18.7678 21.474 18.318 21.474C17.8682 21.474 17.8682 21.6932 17.4184 21.6932C16.9685 21.6932 16.9685 21.6516 16.5149 21.6516C16.0613 21.6516 16.0651 21.6705 15.6115 21.6705C15.1579 21.6705 15.1617 21.6138 14.7119 21.6138C14.2621 21.6138 14.2621 21.6705 13.8085 21.6705C13.3549 21.6705 13.3586 21.8293 12.905 21.8293C12.4514 21.8293 12.4552 21.5458 12.0016 21.5458C11.548 21.5458 11.5518 21.5949 11.0982 21.5949C10.6446 21.5949 10.6484 21.4362 10.1948 21.4362C9.74118 21.4362 9.74496 21.4059 9.29136 21.4059C8.83776 21.4059 8.84154 21.4059 8.38794 21.4059C7.93434 21.4059 7.93812 21.3681 7.48452 21.3681C7.03092 21.3681 7.03092 21.5382 6.5811 21.5382C6.13128 21.5382 6.13128 21.6025 5.67768 21.6025C5.22408 21.6025 5.22786 21.9087 4.77426 21.9087C4.32066 21.9087 4.32066 21.8633 3.87084 21.8633C3.42102 21.8633 3.41724 21.4022 2.96742 21.4022C2.5176 21.4022 2.51382 21.6592 2.064 21.6592C1.61418 21.6592 1.6104 21.6025 1.1568 21.6025C0.703202 21.6025 0.767462 21.7537 0.449942 21.4286C0.132422 21.1035 0.298742 21.1602 0.298742 20.6953C0.298742 20.2304 0.423482 20.2341 0.423482 19.7692C0.423482 19.3043 0.347882 19.308 0.347882 18.8469C0.347882 18.3857 0.423482 18.3857 0.423482 17.9208C0.423482 17.4558 0.0946221 17.4596 0.0946221 16.9947C0.0946221 16.5297 0.487742 16.5335 0.487742 16.0686C0.487742 15.6036 0.0492621 15.6074 0.0492621 15.1425C0.0492621 14.6775 0.00012207 14.6851 0.00012207 14.2239C0.00012207 13.7628 0.487742 13.759 0.487742 13.2978C0.487742 12.8367 0.521762 12.8367 0.521762 12.3717C0.521762 11.9068 0.155102 11.9068 0.155102 11.4456C0.155102 10.9845 0.321422 10.9807 0.321422 10.5195C0.321422 10.0584 0.389462 10.0546 0.389462 9.59344C0.389462 9.13228 0.389462 9.1285 0.389462 8.66735C0.389462 8.20619 0.374342 8.2024 0.374342 7.74124C0.374342 7.28008 0.204242 7.27631 0.204242 6.81515C0.204242 6.35399 0.476402 6.35399 0.476402 5.88905C0.476402 5.42411 0.109742 5.42411 0.109742 4.96295C0.109742 4.50179 0.0190221 4.49801 0.0190221 4.03685C0.0190221 3.57569 0.147542 3.57191 0.147542 3.11075C0.147542 2.64959 0.514202 2.64581 0.514202 2.18087C0.514202 1.71593 0.192902 1.71593 0.192902 1.25099C0.192902 0.786046 -0.0830379 0.634846 0.238262 0.294646C0.540662 -0.026654 0.699422 0.279526 1.14168 0.279526C1.58394 0.279526 1.58016 0.442066 2.02242 0.442066C2.46468 0.442066 2.46468 0.415606 2.90316 0.415606C3.34164 0.415606 3.34164 0.045166 3.7839 0.045166C4.22616 0.045166 4.22616 0.309766 4.66464 0.309766C5.10312 0.309766 5.1069 0.203926 5.54538 0.203926C5.98386 0.203926 5.98764 0.173686 6.42612 0.173686C6.8646 0.173686 6.86838 0.374026 7.30686 0.374026C7.74534 0.374026 7.74534 0.071626 8.1876 0.071626C8.62986 0.071626 8.62986 0.392926 9.06834 0.392926C9.50682 0.392926 9.5106 0.094306 9.94908 0.094306C10.3876 0.094306 10.3913 0.211486 10.8336 0.211486C11.2759 0.211486 11.2759 0.453406 11.7181 0.453406C12.1604 0.453406 12.1604 0.132106 12.6026 0.132106C13.0449 0.132106 13.0525 0.120766 13.3624 0.438286C13.6724 0.755806 13.6724 0.767146 13.6724 1.21319C13.6724 1.65923 13.336 1.66301 13.336 2.10905C13.336 2.55509 13.2074 2.55509 13.2074 3.00491C13.2074 3.45473 13.438 3.45473 13.438 3.90077C13.438 4.34681 13.5023 4.35059 13.5023 4.80041C13.5023 5.25023 13.6195 5.25023 13.6195 5.70005C13.6195 6.14987 13.2301 6.14986 13.2301 6.59968C13.2301 7.0495 13.6686 7.04951 13.6686 7.49932C13.6686 7.94914 13.1659 8.08144 13.4909 8.39141C13.8311 8.71649 13.9559 8.55394 14.4284 8.55394C14.9009 8.55394 14.9009 8.24398 15.3734 8.24398C15.8459 8.24398 15.8459 8.19106 16.3184 8.19106C16.7909 8.19106 16.7909 8.30446 17.2672 8.30446C17.7434 8.30446 17.7397 8.59931 18.2159 8.59931C18.6922 8.59931 18.6884 8.61065 19.1647 8.61065C19.641 8.61065 19.9094 7.9189 20.2571 8.2402C20.5784 8.53882 20.0077 8.83366 20.0077 9.27592C20.0077 9.71819 19.9207 9.71441 19.9207 10.1567C19.9207 10.5989 20.0303 10.5989 20.0303 11.0374C20.0303 11.4759 19.8943 11.4797 19.8943 11.9181C19.8943 12.3566 20.3932 12.3604 20.3932 12.7989C20.3932 13.2374 20.242 13.2411 20.242 13.6796C20.242 14.1181 19.9434 14.1219 19.9434 14.5604C19.9434 14.9988 20.2042 15.0026 20.2042 15.4411C20.2042 15.8796 20.3554 15.8796 20.3554 16.3218C20.3554 16.7641 20.2798 16.7641 20.2798 17.2026C20.2798 17.6411 20.3365 17.6448 20.3365 18.0833C20.3365 18.5218 20.0681 18.5256 20.0681 18.9678C20.0681 19.4101 20.0681 19.4101 20.0681 19.8524C20.0681 20.2946 19.7846 20.3551 19.8829 20.7898C19.9888 21.2623 20.4461 21.3303 20.1286 21.6403L20.1362 21.6441Z" fill="black"/>
<path d="M64.6532 21.595C64.3319 21.9087 64.2336 21.7084 63.78 21.7084C63.3264 21.7084 63.3302 21.3682 62.8804 21.3682C62.4306 21.3682 62.4306 21.7915 61.9807 21.7915C61.5309 21.7915 61.5309 21.7764 61.0773 21.7764C60.6237 21.7764 60.6275 21.8331 60.1739 21.8331C59.7203 21.8331 59.7241 21.5987 59.2743 21.5987C58.8244 21.5987 58.8244 21.8104 58.3708 21.8104C57.9172 21.8104 57.921 21.3719 57.4674 21.3719C57.0138 21.3719 57.0176 21.5345 56.564 21.5345C56.1104 21.5345 56.1142 21.9049 55.6606 21.9049C55.207 21.9049 55.2108 21.4249 54.7572 21.4249C54.3036 21.4249 54.3073 21.5723 53.8537 21.5723C53.4001 21.5723 53.4039 21.6668 52.9503 21.6668C52.4967 21.6668 52.5005 21.6932 52.0469 21.6932C51.5933 21.6932 51.5933 21.3984 51.1435 21.3984C50.6937 21.3984 50.6937 21.6403 50.2401 21.6403C49.7865 21.6403 49.7902 21.7802 49.3366 21.7802C48.883 21.7802 48.883 21.595 48.4332 21.595C47.9834 21.595 47.9796 21.7651 47.5298 21.7651C47.08 21.7651 47.0762 21.5647 46.6264 21.5647C46.1766 21.5647 46.1728 21.6176 45.7192 21.6176C45.2656 21.6176 44.9292 22.1506 44.6116 21.8255C44.2941 21.5005 44.9027 21.1678 44.9027 20.7029C44.9027 20.2379 45.0426 20.2417 45.0426 19.7768C45.0426 19.3118 44.8006 19.3156 44.8006 18.8545C44.8006 18.3933 45.0539 18.3933 45.0539 17.9284C45.0539 17.4634 44.8498 17.4672 44.8498 17.0023C44.8498 16.5373 44.5663 16.5411 44.5663 16.0762C44.5663 15.6112 44.7969 15.615 44.7969 15.1501C44.7969 14.6851 44.8271 14.6889 44.8271 14.224C44.8271 13.759 44.9896 13.759 44.9896 13.2979C44.9896 12.8367 45.0237 12.8367 45.0237 12.3718C45.0237 11.9068 45.0539 11.9068 45.0539 11.4457C45.0539 10.9845 44.8422 10.9807 44.8422 10.5196C44.8422 10.0584 44.9329 10.0546 44.9329 9.59346C44.9329 9.1323 44.8876 9.12852 44.8876 8.66736C44.8876 8.2062 44.6721 8.20242 44.6721 7.74126C44.6721 7.2801 45.0804 7.27632 45.0804 6.81516C45.0804 6.354 44.6381 6.354 44.6381 5.88906C44.6381 5.42412 44.7553 5.42412 44.7553 4.96296C44.7553 4.5018 45.0388 4.49802 45.0388 4.03686C45.0388 3.5757 44.9972 3.57191 44.9972 3.11075C44.9972 2.6496 44.846 2.64582 44.846 2.18088C44.846 1.71593 44.9972 1.71593 44.9972 1.251C44.9972 0.786055 44.3319 0.510115 44.6532 0.173695C44.9556 -0.147605 45.2505 0.090535 45.6889 0.090535C46.1274 0.090535 46.1274 0.264415 46.5697 0.264415C47.0119 0.264415 47.0119 0.169915 47.4504 0.169915C47.8889 0.169915 47.8927 0.355135 48.3312 0.355135C48.7696 0.355135 48.7734 0.468535 49.2119 0.468535C49.6504 0.468535 49.6542 0.260635 50.0926 0.260635C50.5311 0.260635 50.5349 0.449635 50.9734 0.449635C51.4119 0.449635 51.4156 0.200155 51.8541 0.200155C52.2926 0.200155 52.2926 0.517675 52.7349 0.517675C53.1771 0.517675 53.1771 0.283315 53.6156 0.283315C54.0541 0.283315 54.0579 0.041395 54.4963 0.041395C54.9348 0.041395 54.9386 0.200155 55.3809 0.200155C55.8231 0.200155 55.8231 0.328675 56.2654 0.328675C56.7076 0.328675 56.7076 0.494995 57.1499 0.494995C57.5922 0.494995 57.6715 0.060295 57.9815 0.377815C58.2915 0.695335 58.2763 0.774715 58.2763 1.22076C58.2763 1.6668 58.3028 1.67058 58.3028 2.11662C58.3028 2.56265 57.8379 2.56265 57.8379 3.01248C57.8379 3.4623 58.0987 3.4623 58.0987 3.90834C58.0987 4.35438 58.0269 4.35816 58.0269 4.80798C58.0269 5.2578 57.8227 5.2578 57.8227 5.70762C57.8227 6.15744 57.7698 6.15743 57.7698 6.60725C57.7698 7.05708 57.9664 7.05708 57.9664 7.5069C57.9664 7.95672 57.7509 8.055 58.0798 8.36495C58.42 8.69003 58.5107 8.4519 58.9832 8.4519C59.4557 8.4519 59.4557 8.22888 59.9282 8.22888C60.4007 8.22888 60.4007 8.14571 60.8732 8.14571C61.3457 8.14571 61.3457 8.63712 61.822 8.63712C62.2983 8.63712 62.2945 8.44812 62.7708 8.44812C63.247 8.44812 63.2433 8.28936 63.7195 8.28936C64.1958 8.28936 64.1505 8.27046 64.4982 8.59554C64.8195 8.89416 64.6267 8.85258 64.6267 9.29106C64.6267 9.72954 64.4869 9.72954 64.4869 10.1718C64.4869 10.6141 64.5285 10.6141 64.5285 11.0525C64.5285 11.491 64.725 11.4948 64.725 11.9333C64.725 12.3718 64.4869 12.3755 64.4869 12.814C64.4869 13.2525 64.7326 13.2563 64.7326 13.6948C64.7326 14.1332 64.7439 14.137 64.7439 14.5755C64.7439 15.014 64.8044 15.0178 64.8044 15.4562C64.8044 15.8947 64.6078 15.8947 64.6078 16.337C64.6078 16.7792 64.5965 16.7792 64.5965 17.2177C64.5965 17.6562 64.4566 17.66 64.4566 18.0985C64.4566 18.5369 64.6759 18.5407 64.6759 18.983C64.6759 19.4252 64.7515 19.4252 64.7515 19.8675C64.7515 20.3098 64.6834 20.2984 64.7704 20.7331C64.8573 21.1678 64.9594 21.2963 64.6419 21.6063L64.6532 21.595Z" fill="black"/>
<path d="M42.7291 21.7425C42.4116 22.0675 42.1205 21.5308 41.6669 21.5308C41.2133 21.5308 41.2133 21.6139 40.7597 21.6139C40.3061 21.6139 40.3061 21.871 39.8525 21.871C39.3989 21.871 39.3989 21.8181 38.9415 21.8181C38.4841 21.8181 38.4879 21.6139 38.0306 21.6139C37.5732 21.6139 37.577 21.7538 37.1234 21.7538C36.6698 21.7538 36.6698 21.7614 36.2124 21.7614C35.755 21.7614 35.7588 21.6971 35.3014 21.6971C34.844 21.6971 34.8478 21.7236 34.3904 21.7236C33.933 21.7236 33.9368 21.5081 33.4794 21.5081C33.0221 21.5081 33.0258 21.3191 32.5685 21.3191C32.1111 21.3191 32.1149 21.3834 31.6575 21.3834C31.2001 21.3834 31.2039 21.4816 30.7465 21.4816C30.2891 21.4816 30.2929 21.7576 29.8355 21.7576C29.3781 21.7576 29.3781 21.5421 28.9245 21.5421C28.4709 21.5421 28.4709 21.6215 28.0136 21.6215C27.5562 21.6215 27.56 21.682 27.1026 21.682C26.6452 21.682 26.6452 21.6706 26.1916 21.6706C25.738 21.6706 25.7342 21.4741 25.2806 21.4741C24.827 21.4741 24.8232 21.595 24.3696 21.595C23.916 21.595 23.9123 21.4514 23.4549 21.4514C22.9975 21.4514 22.8614 21.9126 22.5401 21.5875C22.2188 21.2624 22.4721 21.1225 22.4721 20.6614C22.4721 20.2002 22.4192 20.2002 22.4192 19.7391C22.4192 19.2779 22.7631 19.2779 22.7631 18.8167C22.7631 18.3556 22.7291 18.3556 22.7291 17.8944C22.7291 17.4333 22.336 17.4333 22.336 16.9683C22.336 16.5034 22.2755 16.5072 22.2755 16.0422C22.2755 15.5773 22.8009 15.5811 22.8009 15.1199C22.8009 14.6587 22.4154 14.6587 22.4154 14.1938C22.4154 13.7289 22.7745 13.7326 22.7745 13.2677C22.7745 12.8028 22.7216 12.8065 22.7216 12.3416C22.7216 11.8767 22.6951 11.8804 22.6951 11.4155C22.6951 10.9506 22.7329 10.9543 22.7329 10.4894C22.7329 10.0245 22.6951 10.0282 22.6951 9.5633C22.6951 9.09836 22.5515 9.10214 22.5515 8.6372C22.5515 8.17226 22.6535 8.17604 22.6535 7.7111C22.6535 7.24616 22.4948 7.24994 22.4948 6.785C22.4948 6.32006 22.4003 6.32384 22.4003 5.86268C22.4003 5.40152 22.5363 5.40152 22.5363 4.93658C22.5363 4.47164 22.5061 4.47164 22.5061 4.01048C22.5061 3.54932 22.5628 3.54554 22.5628 3.08438C22.5628 2.62322 22.3436 2.61944 22.3436 2.15828C22.3436 1.69712 22.3549 1.69334 22.3549 1.2284C22.3549 0.763459 22.1735 0.589579 22.4985 0.256939C22.8236 -0.0757012 22.9937 0.502639 23.4511 0.502639C23.9085 0.502639 23.9047 0.290959 24.3583 0.290959C24.8119 0.290959 24.8119 0.219139 25.2655 0.219139C25.7191 0.219139 25.7191 0.113299 26.1765 0.113299C26.6339 0.113299 26.6301 0.113299 27.0875 0.113299C27.5448 0.113299 27.5411 0.464839 27.9947 0.464839C28.4483 0.464839 28.4483 0.245599 28.9056 0.245599C29.363 0.245599 29.3592 0.502639 29.8166 0.502639C30.274 0.502639 30.2702 0.366559 30.7276 0.366559C31.185 0.366559 31.1812 0.132199 31.6386 0.132199C32.096 0.132199 32.0922 0.0187988 32.5496 0.0187988C33.0069 0.0187988 33.0031 0.355219 33.4605 0.355219C33.9179 0.355219 33.9141 0.396799 34.3715 0.396799C34.8289 0.396799 34.8251 0.290959 35.2825 0.290959C35.7399 0.290959 35.7399 0.464839 36.1935 0.464839C36.6471 0.464839 36.6471 0.0792788 37.1045 0.0792788C37.5618 0.0792788 37.5581 0.551779 38.0154 0.551779C38.4728 0.551779 38.4728 0.366559 38.9264 0.366559C39.38 0.366559 39.3838 0.306079 39.8374 0.306079C40.291 0.306079 40.2948 0.423259 40.7484 0.423259C41.202 0.423259 41.2058 0.0868388 41.6631 0.0868388C42.1205 0.0868388 42.0563 0.166219 42.3776 0.491299C42.6989 0.816379 42.3473 0.755899 42.3473 1.22084C42.3473 1.68578 42.5703 1.682 42.5703 2.14316C42.5703 2.60432 42.7631 2.60432 42.7631 3.06548C42.7631 3.52664 42.3851 3.52664 42.3851 3.9878C42.3851 4.44896 42.782 4.44896 42.782 4.9139C42.782 5.37884 42.7593 5.37506 42.7593 5.84C42.7593 6.30494 42.7971 6.30116 42.7971 6.76232C42.7971 7.22348 42.85 7.22348 42.85 7.68842C42.85 8.15336 42.336 8.14958 42.336 8.61452C42.336 9.07946 42.7291 9.07568 42.7291 9.54062C42.7291 10.0056 42.5817 10.0018 42.5817 10.4667C42.5817 10.9317 42.5061 10.9279 42.5061 11.3928C42.5061 11.8578 42.3057 11.854 42.3057 12.3189C42.3057 12.7839 42.3057 12.7801 42.3057 13.245C42.3057 13.71 42.3473 13.7062 42.3473 14.1711C42.3473 14.6361 42.4645 14.6323 42.4645 15.0972C42.4645 15.5622 42.714 15.5584 42.714 16.0195C42.714 16.4807 42.7631 16.4807 42.7631 16.9456C42.7631 17.4106 42.5212 17.4106 42.5212 17.8717C42.5212 18.3329 42.5892 18.3367 42.5892 18.7978C42.5892 19.259 42.6195 19.2628 42.6195 19.7239C42.6195 20.1851 42.4267 20.2116 42.5514 20.6576C42.7102 21.217 43.0504 21.3985 42.7253 21.7273L42.7291 21.7425Z" fill="black"/>
<path d="M31.0941 6.57715L29.1814 9.26851" stroke="white" stroke-width="1.134" stroke-miterlimit="10"/>
<path d="M36.5566 6.57715L34.6439 9.26851" stroke="white" stroke-width="1.134" stroke-miterlimit="10"/>
<path d="M38.5337 11.1245C38.5148 11.0981 38.4581 11.0527 38.4543 11.0716L38.5375 11.1661L38.5299 11.1245H38.5337Z" fill="white"/>
<path d="M38.2802 11.0489C38.3104 11.1056 38.3747 11.1926 38.4654 11.2644C38.3898 11.1699 38.4314 11.2001 38.3406 11.0867C38.3406 11.064 38.3898 11.0943 38.4238 11.1245C38.4049 11.0981 38.4616 11.1245 38.4125 11.064C38.3255 11.0149 38.3028 11.03 38.3406 11.1056C38.318 11.0905 38.2953 11.064 38.2802 11.0489Z" fill="white"/>
<path d="M36.1371 12.61C36.1371 12.61 36.1371 12.5911 36.1295 12.5835C36.1295 12.5948 36.1295 12.6024 36.1371 12.61Z" fill="white"/>
<path d="M35.9176 12.5987C35.9176 12.5987 35.9251 12.5987 35.9289 12.5987C35.9176 12.5911 35.9138 12.5874 35.9176 12.5987Z" fill="white"/>
<path d="M36.9648 12.0392L36.9194 12.0278C36.9459 12.0619 36.9497 12.043 36.9648 12.0392Z" fill="white"/>
<path d="M38.3447 11.4232C38.3447 11.4232 38.3409 11.4043 38.3296 11.3892C38.3296 11.3967 38.3296 11.4043 38.3296 11.4081L38.3447 11.4232Z" fill="white"/>
<path d="M37.233 11.6727L37.2406 11.6651C37.2406 11.6651 37.2217 11.6387 37.2103 11.6235L37.233 11.6727Z" fill="white"/>
<path d="M37.4635 11.427C37.4635 11.427 37.5278 11.5064 37.5542 11.5442C37.5278 11.5102 37.5164 11.4913 37.5164 11.4799C37.5013 11.4648 37.4862 11.4497 37.4635 11.427Z" fill="white"/>
<path d="M37.0367 11.8163C37.0367 11.8163 37.014 11.7974 37.0103 11.7898C37.0178 11.8011 37.0292 11.8087 37.0367 11.8163Z" fill="white"/>
<path d="M28.063 15.6001L28.0668 15.5964V15.5359L28.063 15.6001Z" fill="white"/>
<path d="M33.1432 14.0842C33.2112 14.1598 33.1432 14.2165 33.2263 14.2959C33.2074 14.2581 33.2037 14.1258 33.1432 14.0842Z" fill="white"/>
<path d="M38.326 11.4194C38.326 11.4194 38.3223 11.427 38.3185 11.4308C38.326 11.4308 38.3298 11.4232 38.326 11.4194Z" fill="white"/>
<path d="M33.2302 14.2959L33.2378 14.3035C33.2378 14.3035 33.2302 14.2997 33.2302 14.2959Z" fill="white"/>
<path d="M35.0258 13.1016C35.0258 13.1016 35.0484 13.128 35.056 13.1356C35.0484 13.128 35.0409 13.1167 35.0258 13.1016Z" fill="white"/>
<path d="M34.8669 13.3737C34.8669 13.3737 34.848 13.3585 34.8442 13.3737C34.8442 13.3774 34.8518 13.3812 34.8518 13.385C34.848 13.3699 34.8518 13.3623 34.8631 13.3737H34.8669Z" fill="white"/>
<path d="M34.6138 13.5173C34.6138 13.5173 34.6251 13.5287 34.6289 13.5325V13.5249L34.6138 13.5173Z" fill="white"/>
<path d="M29.4087 15.9817C29.3974 15.9515 29.3898 15.9212 29.3823 15.8872C29.3974 15.9628 29.3558 15.993 29.4087 15.9817Z" fill="white"/>
<path d="M38.2993 11.3816C38.3182 11.4005 38.3258 11.4118 38.3258 11.4194V11.4081C38.3258 11.4081 38.3069 11.3854 38.2993 11.3816Z" fill="white"/>
<path d="M35.2794 14.1069L35.2302 14.1183C35.2302 14.1183 35.2642 14.1183 35.2794 14.1069Z" fill="white"/>
<path d="M31.548 15.5547L31.5404 15.5698C31.5404 15.5698 31.548 15.5698 31.548 15.5547Z" fill="white"/>
<path d="M35.1128 14.2015C35.0864 14.1712 35.0675 14.1599 35.0524 14.1523C35.0524 14.1599 35.0524 14.1675 35.0599 14.1788L35.1128 14.2015Z" fill="white"/>
<path d="M29.0909 16.1709C29.1362 16.1709 29.0984 16.0311 29.1022 15.9517C29.1514 15.9063 29.1362 16.05 29.1627 16.1218C29.1929 16.0802 29.2081 15.9517 29.2345 15.9555C29.2383 15.9782 29.2459 15.9857 29.2421 16.016C29.2648 15.9026 29.3479 16.0008 29.3744 15.8572C29.3782 15.8685 29.3819 15.8799 29.3819 15.8912C29.3668 15.8232 29.3593 15.7514 29.3555 15.7022C29.3744 15.6984 29.3819 15.6115 29.4008 15.7022C29.3895 15.7022 29.3933 15.7362 29.3895 15.7665L29.4046 15.7249C29.4386 15.8534 29.3819 15.774 29.3933 15.8685C29.4311 15.8232 29.4651 15.7098 29.5029 15.7438C29.5256 15.8723 29.4349 15.7929 29.4916 15.9026L29.4349 15.8572C29.4953 16.0538 29.4046 15.8459 29.4651 16.0575C29.5369 16.0878 29.5294 15.9857 29.6012 16.016C29.605 15.9441 29.5823 15.9101 29.5898 15.8383C29.6654 15.6984 29.7032 16.1483 29.7486 15.9668C29.7562 15.8799 29.7373 15.7173 29.7977 15.7967V15.9441C29.8658 15.9479 29.8091 15.7325 29.8885 15.8194C29.8885 15.8761 29.8469 15.8761 29.8582 15.8912C29.9187 15.9971 29.8771 15.8043 29.9074 15.8005L29.9338 15.9252C29.9981 15.895 30.0586 15.7929 30.1266 15.7589C30.1266 15.7967 30.1228 15.8383 30.1455 15.8761C30.2287 15.8005 30.3496 15.861 30.4517 15.9139L30.4668 15.7967C30.4668 15.7967 30.4895 15.8421 30.4857 15.8648C30.5273 15.8988 30.4744 15.7967 30.4857 15.7476C30.5046 15.7362 30.5235 15.8043 30.5159 15.8383C30.5613 15.7325 30.652 15.6039 30.739 15.706L30.7314 15.74C30.7919 15.774 30.739 15.5057 30.8108 15.5964V15.6191C30.9242 15.6455 31.0225 15.5208 31.1434 15.6606C31.1207 15.5019 31.2682 15.7022 31.2228 15.483C31.3097 15.5737 31.3022 15.6191 31.408 15.6682C31.4345 15.672 31.408 15.5246 31.4307 15.4943L31.4609 15.6077L31.4685 15.4792L31.5252 15.6077L31.5441 15.5737C31.5441 15.5737 31.5063 15.5283 31.5025 15.4981C31.529 15.4376 31.6273 15.551 31.6424 15.6077L31.7142 15.4868C31.7255 15.5321 31.7142 15.551 31.7066 15.585C31.7293 15.4565 31.7482 15.7022 31.7709 15.585C31.7558 15.5624 31.7558 15.517 31.7482 15.4943C31.7898 15.5548 31.8465 15.5397 31.8805 15.4943L31.8956 15.5737C31.975 15.5737 32.0393 15.4868 32.1224 15.4641C32.0809 15.4376 32.0468 15.3015 32.0657 15.2826L32.1111 15.396C32.1035 15.3204 32.0733 15.3582 32.0771 15.26C32.1111 15.2637 32.1413 15.3885 32.1338 15.4301L32.1565 15.3771C32.1716 15.4112 32.1678 15.4338 32.1791 15.4792C32.1716 15.3998 32.2812 15.5775 32.2623 15.4414L32.2774 15.4754C32.3606 15.449 32.3833 15.3998 32.4513 15.3734C32.4173 15.2713 32.4513 15.2864 32.4437 15.1995C32.5042 15.2146 32.5836 15.2751 32.6403 15.2448C32.663 15.1806 32.6214 15.1541 32.6176 15.0899C32.6516 15.1806 32.7083 15.1503 32.7008 15.2259C32.765 15.1844 32.7839 15.1768 32.8444 15.0672C32.8217 15.0332 32.8028 15.0218 32.7991 14.9878C32.8104 14.9689 32.8482 15.0143 32.8633 15.0558V15.0672C32.9087 14.8971 33.1922 15.2486 33.196 15.0294V15.0407L33.2375 14.9084C33.2791 14.9084 33.2413 14.984 33.2942 15.0294C33.3207 14.8442 33.4417 14.9916 33.4681 14.8631C33.6344 15.1012 33.6571 14.761 33.8045 14.8971L33.7743 14.8366C33.7667 14.7686 33.8121 14.8631 33.8348 14.8706C33.8121 14.8253 33.7894 14.8253 33.7856 14.7875C33.9142 14.6438 34.1561 14.7194 34.3489 14.6967C34.4169 14.6854 34.2279 14.3679 34.3753 14.4775L34.4093 14.5985C34.4623 14.4095 34.6588 14.4813 34.7155 14.3036C34.7231 14.3339 34.7382 14.3641 34.7269 14.3717C34.7949 14.4397 34.8176 14.3263 34.7836 14.262C34.8062 14.262 34.8214 14.3187 34.8478 14.3452C34.897 14.3792 34.8554 14.2091 34.9083 14.2809C34.9159 14.2923 34.9159 14.3112 34.9159 14.3187C34.9121 14.2734 34.9952 14.2885 34.931 14.2053C34.999 14.2242 34.9915 14.1184 35.0557 14.1562C35.0217 14.0428 35.1578 14.1638 35.0822 14.0163C35.1653 14.1675 35.2258 14.0957 35.2107 14.0088C35.2296 14.0579 35.2598 14.0428 35.2863 14.1108C35.3165 14.0919 35.3279 14.0466 35.2787 13.9748C35.4375 14.1146 35.3052 13.7669 35.4715 13.971C35.5131 13.8387 35.5622 13.7328 35.6227 13.6497C35.7097 13.7971 35.5433 13.7177 35.6416 13.8689C35.6832 13.7631 35.6454 13.6119 35.7437 13.6005C35.7777 13.6081 35.7739 13.6686 35.7815 13.6988C35.8193 13.593 35.9327 13.6157 35.9478 13.4947C35.9554 13.5098 35.9591 13.5287 35.9591 13.5438C35.9705 13.5287 36.0045 13.5438 35.9591 13.4796V13.506C35.876 13.4267 35.8798 13.2755 35.8457 13.2263C35.9478 13.4267 35.9402 13.2263 36.065 13.4834C36.065 13.4645 36.0536 13.4267 36.0234 13.3851C36.0461 13.3889 36.065 13.4115 36.0877 13.4682C36.1103 13.4002 36.0461 13.3435 36.0877 13.317C36.1103 13.3473 36.1103 13.3662 36.1292 13.404C36.1103 13.3284 36.0877 13.2528 36.1406 13.2566C36.1519 13.2755 36.1708 13.2981 36.1633 13.3057C36.2162 13.2528 36.1557 13.0751 36.2615 13.0865C36.3371 13.2339 36.3145 13.1129 36.4014 13.2263L36.4127 13.1658L36.3598 13.1205C36.3901 13.0978 36.3598 12.9957 36.409 13.0146L36.4203 13.0789L36.4619 13.0146L36.3976 12.9957C36.3863 12.9126 36.288 12.8559 36.3523 12.8559C36.3523 12.8748 36.3825 12.8332 36.4468 12.8899C36.4354 12.8445 36.4203 12.7954 36.4657 12.803C36.4997 12.8332 36.5564 12.9315 36.5753 12.9542C36.5186 12.8483 36.6282 12.8748 36.5677 12.7614C36.5791 12.7878 36.6244 12.8483 36.6358 12.8597L36.5904 12.7727C36.6244 12.7878 36.6358 12.7954 36.666 12.8445C36.7189 12.8256 36.545 12.7122 36.6395 12.7349C36.6395 12.7425 36.6509 12.7538 36.6509 12.7727C36.7265 12.7652 36.7114 12.6518 36.7832 12.6555C36.8852 12.7576 36.7643 12.7122 36.855 12.7954C36.9079 12.7236 36.8852 12.5573 36.9684 12.5308H36.9457C36.8285 12.3645 37.0553 12.5648 37.0251 12.4665C37.0251 12.4854 37.0856 12.561 37.0742 12.5421C37.1385 12.5308 37.1309 12.4325 37.1536 12.3305L37.1801 12.3758C37.233 12.3909 37.2632 12.3418 37.3048 12.3342C37.2784 12.2889 37.301 12.2813 37.2406 12.2322C37.5165 12.3834 37.2935 11.9827 37.5241 12.0999C37.5165 12.1074 37.5354 12.1528 37.5392 12.1452L37.5656 12.0545C37.5014 11.994 37.5241 12.0243 37.4636 11.9827C37.4371 11.9373 37.4258 11.892 37.4409 11.8769C37.4522 11.9449 37.5354 11.9789 37.5808 12.0054C37.5619 11.9865 37.543 11.9638 37.5241 11.9411C37.6601 12.0281 37.4107 11.805 37.5241 11.8428L37.5543 11.8769C37.5543 11.8466 37.5278 11.7861 37.5543 11.7824C37.6299 11.8504 37.5694 11.8315 37.6261 11.8958C37.645 11.8693 37.543 11.7105 37.6337 11.7635C37.6412 11.7937 37.6299 11.8088 37.6375 11.8391C37.7433 11.9033 37.7244 11.8806 37.7546 11.8769H37.834L37.8 11.8617C37.6488 11.6425 37.8265 11.771 37.7471 11.6085C37.8227 11.7635 37.8076 11.6841 37.8832 11.7672C37.9172 11.7786 37.955 11.7899 37.9739 11.8202C37.9285 11.737 38.057 11.8428 37.989 11.7181C38.0155 11.7446 38.0117 11.703 38.0722 11.771C38.0759 11.7257 38.023 11.7294 37.9928 11.6954C37.9436 11.5707 38.1893 11.7143 38.1175 11.5367C38.1137 11.4384 38.0306 11.3439 38.0306 11.2569C38.0873 11.2834 38.1137 11.3628 38.1137 11.3628C38.1742 11.3779 38.1856 11.3514 38.178 11.2985C38.1969 11.325 38.2196 11.3401 38.2574 11.3628C38.2687 11.3363 38.1704 11.2569 38.2347 11.2721C38.2612 11.3061 38.3027 11.3552 38.3254 11.393C38.3216 11.3477 38.2914 11.2796 38.2876 11.2343C38.3405 11.2721 38.3443 11.3136 38.367 11.3514C38.367 11.3061 38.3859 11.2456 38.3179 11.17L38.2763 11.1624C38.2763 11.1624 38.3443 11.2191 38.3519 11.238C38.3897 11.3136 38.2952 11.2456 38.2687 11.2191V11.1889C38.0948 11.0566 38.2309 11.2758 38.1931 11.2985L38.0911 11.1776L38.1553 11.2985C38.1175 11.2758 38.0533 11.2191 38.0495 11.1889C37.9739 11.1587 38.0722 11.2456 37.989 11.2078C37.9777 11.2002 37.9739 11.1927 37.9701 11.1889L37.9814 11.2418C37.9625 11.2154 37.8983 11.1662 37.9285 11.17C37.8265 11.1435 37.9512 11.3136 37.8529 11.2456V11.2343C37.834 11.325 37.9247 11.3212 37.9852 11.4573L37.7584 11.2834L37.834 11.3703C37.834 11.3703 37.8076 11.3779 37.7773 11.3439C37.8113 11.4195 37.8151 11.3741 37.8567 11.4422C37.7584 11.3968 37.8189 11.548 37.6828 11.4233C37.7357 11.4951 37.7546 11.4459 37.7698 11.5178C37.6223 11.3855 37.7584 11.5745 37.6715 11.5329C37.6072 11.4535 37.6715 11.4686 37.5808 11.427C37.6866 11.5631 37.5052 11.4459 37.5089 11.4875C37.6034 11.5896 37.5052 11.5707 37.5014 11.6387C37.4711 11.6047 37.3842 11.6463 37.3199 11.6387L37.3048 11.6198C37.3918 11.7294 37.3426 11.7408 37.3351 11.7824C37.2784 11.7219 37.2632 11.6916 37.2519 11.6538L37.2292 11.6765C37.2519 11.7143 37.2632 11.737 37.2595 11.7635L37.1952 11.6803C37.1687 11.7105 37.2179 11.8277 37.1309 11.8126C37.1914 11.8882 37.3426 11.9865 37.3426 12.0734C37.3048 12.0356 37.2443 11.9714 37.2443 11.9449C37.2443 11.9525 37.2595 11.9903 37.2368 11.9789L37.1952 11.8995C37.1498 11.8882 37.233 11.9638 37.2141 11.9676C37.165 11.9109 37.1687 11.9373 37.1309 11.892C37.1309 11.8844 37.165 11.9033 37.1498 11.8769C37.1234 11.8806 37.0742 11.8655 37.0289 11.8277C37.0591 11.858 37.0969 11.9033 37.0894 11.9222C37.0629 11.9525 37.0175 11.8655 36.976 11.8504C37.0024 11.8958 36.9457 11.8731 37.0213 11.9562C37.01 11.9638 36.976 11.926 36.9533 11.9071C36.9684 11.96 36.8852 11.9827 36.9797 12.0583H36.9873C36.9873 12.0583 36.9873 12.0621 36.9873 12.0659C37.0062 12.1982 36.8323 12.1112 36.8096 12.1944L36.787 12.1641C36.7832 12.2246 36.7303 12.2435 36.7605 12.3267C36.7492 12.3342 36.6962 12.2927 36.6698 12.2549C36.6622 12.2964 36.6887 12.3342 36.6131 12.3116C36.598 12.2397 36.5677 12.2738 36.6093 12.2549C36.5564 12.2549 36.511 12.2133 36.5413 12.3191C36.4921 12.236 36.443 12.2435 36.443 12.2775L36.5072 12.3153C36.4997 12.338 36.477 12.3456 36.4581 12.3494L36.3901 12.2435C36.2313 12.1717 36.4279 12.5421 36.22 12.3758C36.254 12.459 36.2956 12.3985 36.3409 12.493C36.2993 12.5043 36.1595 12.3834 36.1481 12.3909C36.065 12.3683 36.22 12.5686 36.1481 12.5648C36.1822 12.5951 36.2578 12.6896 36.2502 12.7463C36.2086 12.7576 36.099 12.6253 36.099 12.5799C36.1028 12.5724 36.1179 12.5799 36.1255 12.5913C36.1255 12.5724 36.1255 12.5459 36.0877 12.5157L36.1103 12.5535C36.0688 12.527 36.0272 12.5648 35.9932 12.4968C35.9932 12.5497 36.0272 12.5648 36.0574 12.5686C35.978 12.5459 35.9969 12.614 35.9289 12.6064C35.9516 12.6215 35.9856 12.6593 35.9818 12.6631C35.8873 12.6631 36.0045 12.75 35.9743 12.7954C35.91 12.7576 35.8873 12.6555 35.8798 12.7311C35.8268 12.7122 35.8042 12.6366 35.7966 12.6026C35.8079 12.7009 35.6908 12.6026 35.6605 12.6064V12.5648C35.6605 12.5913 35.6492 12.5951 35.6416 12.6026L35.7059 12.6669C35.687 12.6631 35.6756 12.6669 35.653 12.6366C35.6756 12.6933 35.7475 12.7538 35.7701 12.837C35.7286 12.8105 35.7475 12.9088 35.6756 12.8143C35.7475 12.8143 35.6038 12.7198 35.6341 12.6744C35.6341 12.6933 35.6227 12.6971 35.6038 12.6933C35.5963 12.682 35.5925 12.6707 35.5925 12.6631C35.4866 12.6064 35.6454 12.7878 35.5925 12.8219C35.5622 12.7614 35.5093 12.7236 35.5093 12.7425C35.5282 12.7311 35.5811 12.8294 35.5925 12.8823C35.532 12.8597 35.5811 12.939 35.5585 12.9428L35.5925 12.9504C35.6227 13.0109 35.6038 13.0146 35.5925 13.0487C35.5622 13.0071 35.5925 13.0033 35.5736 12.992C35.6152 13.1091 35.4488 12.9277 35.4602 13.0184C35.4186 12.992 35.3884 12.9126 35.3581 12.8975C35.3657 12.9957 35.2674 12.8483 35.2636 12.9315C35.3241 12.9995 35.3128 12.9806 35.3317 13.0713L35.3657 12.9768L35.3921 13.1129C35.4148 13.1016 35.4035 13.0373 35.4262 13.0449C35.4451 13.1205 35.4337 13.0978 35.4866 13.1545C35.3846 13.06 35.4715 13.2566 35.3884 13.1999L35.2712 13.0109C35.1691 12.9579 35.2447 13.1621 35.1502 13.1545L35.1918 13.1734C35.2296 13.2528 35.1578 13.2074 35.1578 13.2528C35.12 13.1885 35.0935 13.1734 35.0595 13.1394C35.0897 13.1847 35.0104 13.1621 35.0822 13.2944L35.0028 13.2263C34.931 13.2263 35.0519 13.4456 34.9915 13.4531C34.965 13.3737 34.9159 13.3435 34.9196 13.2717C34.9045 13.283 34.8818 13.2792 34.9083 13.3246C34.8743 13.2906 34.9121 13.438 34.8629 13.3889C34.8743 13.4229 34.9083 13.4909 34.8894 13.4947C34.8781 13.4834 34.8705 13.4645 34.8705 13.4645C34.8894 13.4985 34.8667 13.5249 34.9234 13.5854C34.7533 13.4115 34.7836 13.6799 34.6399 13.5325C34.6135 13.5741 34.5794 13.6194 34.5492 13.6421C34.5416 13.6232 34.5303 13.6081 34.5416 13.6119C34.4623 13.5779 34.6172 13.816 34.5227 13.7782C34.4396 13.6875 34.5227 13.7064 34.4812 13.6761C34.3564 13.4645 34.432 13.7404 34.33 13.6346V13.6157C34.2657 13.5552 34.3073 13.7328 34.2544 13.7442C34.2544 13.7442 34.2468 13.7253 34.2392 13.7102C34.2657 13.8387 34.2241 13.9029 34.1977 13.9559C34.1674 13.8651 34.1977 13.8992 34.141 13.816C34.1258 13.8387 34.2166 13.9521 34.1901 13.9974C34.1523 13.9559 34.1032 13.9294 34.054 13.8387L34.088 13.816C34.0087 13.7064 34.0427 13.8425 34.0124 13.8311L33.9898 13.7782C33.9406 13.8236 34.0049 13.9559 33.9406 13.9785L33.9671 14.0163C33.9973 14.1638 33.9028 13.9559 33.9179 14.0693L33.8423 13.9407C33.8348 13.9823 33.8272 14.1071 33.797 14.1524C33.7743 14.0428 33.797 13.9672 33.797 13.8954C33.7743 13.9067 33.7289 13.9407 33.7478 14.0126C33.7478 13.9937 33.7478 13.9559 33.763 13.9748C33.7856 14.0919 33.7743 14.1638 33.7289 14.1827C33.6155 13.9181 33.5853 14.1713 33.4568 13.9785C33.4228 14.1108 33.2829 14.0012 33.1997 14.0579C33.3207 14.2507 33.1771 14.0768 33.2716 14.2847C33.2564 14.3074 33.2451 14.3074 33.2375 14.2961L33.1204 14.1978C33.0788 14.1411 33.1204 14.1411 33.0977 14.0957C33.0448 14.0957 33.041 14.0126 32.9881 13.971C33.0259 14.0466 33.0183 14.0882 32.9805 14.0693L33.0599 14.1524C33.041 14.2923 32.9314 13.9974 32.9125 14.1373L32.9049 14.0617C32.886 14.1146 32.7802 14.1108 32.8142 14.2961C32.7991 14.2734 32.7688 14.2167 32.7764 14.1978C32.6857 14.1978 32.663 14.451 32.5609 14.3641L32.5458 14.3074C32.5345 14.3301 32.5571 14.417 32.5156 14.3717C32.508 14.349 32.5042 14.315 32.4929 14.315C32.4929 14.3376 32.4853 14.4246 32.4551 14.3981V14.3301C32.3455 14.2885 32.3795 14.5191 32.3266 14.5833C32.2736 14.4246 32.1905 14.3981 32.1527 14.383L32.1451 14.3603C32.0468 14.3717 32.0279 14.5418 31.9599 14.6325C31.8503 14.4775 31.752 14.6174 31.6348 14.5493C31.6575 14.5758 31.6688 14.6741 31.6575 14.6967C31.6273 14.6703 31.631 14.8253 31.5932 14.6778H31.6008C31.5441 14.538 31.5139 14.5909 31.4798 14.5947L31.529 14.7875C31.3627 14.5304 31.3249 14.95 31.2115 14.7119C31.2039 14.7648 31.1774 14.7723 31.1699 14.8253L31.1434 14.7194C31.0792 14.7081 31.0451 14.7043 30.9809 14.7459V14.6665C30.9355 14.6665 30.9998 14.9802 30.962 14.9954L30.9128 14.8442C30.841 14.8668 30.739 14.7421 30.7012 14.8971C30.6974 14.8744 30.6898 14.829 30.7012 14.8215C30.6671 14.8215 30.55 14.7421 30.6067 14.9538C30.5764 14.8139 30.5311 14.9538 30.5046 15.0256L30.4895 14.9198C30.4819 15.0596 30.4895 15.0936 30.4517 15.139C30.4366 15.1277 30.4252 15.0596 30.4441 15.0823C30.3988 15.0369 30.4366 15.1844 30.3799 15.139V15.071C30.3458 15.071 30.3534 15.105 30.3496 15.1881C30.3345 15.2335 30.274 15.1768 30.2513 15.0823C30.2551 15.139 30.2513 15.2222 30.2249 15.1995C30.2173 15.1655 30.2211 15.1428 30.2249 15.1277C30.1493 15.071 30.1531 15.2637 30.0926 15.1692C30.085 15.1352 30.0812 15.1163 30.0737 15.1088C30.1228 15.105 30.1644 15.105 30.1644 15.1088C30.1455 15.0143 30.1039 15.0029 30.1115 14.8668C30.0926 14.9424 30.0623 15.1088 30.017 15.071C30.017 15.0634 30.0094 15.0521 30.0056 15.0369V15.0256C30.0056 15.0256 29.9905 15.0256 29.9867 15.0445C29.9716 15.0294 29.9603 15.0218 29.9489 15.0218C29.93 14.9424 29.896 14.9878 29.8771 14.984C29.896 15.0899 29.8658 15.0747 29.9036 15.1579C29.8998 15.1503 29.9036 15.1466 29.9187 15.139C29.9187 15.139 29.9263 15.1314 29.9263 15.1277V15.1352C29.9263 15.1352 29.9565 15.1239 29.9754 15.1201C29.9678 15.1768 29.9603 15.2222 29.9263 15.1692C29.9263 15.2373 29.9263 15.3091 29.9263 15.3431C29.8733 15.1995 29.8091 15.1314 29.7902 15.0407C29.7373 15.1088 29.6503 15.1012 29.639 15.3053C29.6239 15.3318 29.6125 15.2524 29.6012 15.2222C29.6087 15.1995 29.6201 15.2033 29.6239 15.173C29.5974 15.2297 29.5218 15.207 29.5331 15.3469C29.4802 15.2902 29.5407 15.2146 29.484 15.2486V15.207C29.3404 14.9991 29.3328 15.5813 29.1665 15.3091C29.1778 15.3242 29.1816 15.3318 29.1854 15.3545C29.0228 15.2411 28.8792 15.5094 28.7129 15.3167C28.6675 15.2789 28.6675 15.3658 28.6448 15.4376L28.6297 15.3242L28.5919 15.4565C28.5314 15.5548 28.4672 15.1806 28.3954 15.3696L28.4105 15.4452C28.3802 15.4338 28.3198 15.4943 28.3198 15.4074C28.3198 15.4225 28.3122 15.4868 28.3009 15.449V15.3885L28.229 15.4943C28.1723 15.4527 28.229 15.2562 28.1497 15.2486C28.1194 15.2713 28.0703 15.4263 28.0816 15.4641C28.093 15.4641 28.1119 15.4981 28.1156 15.5586L28.0892 15.5926C28.0892 15.7703 28.0703 15.9517 28.1421 16.0689L28.1875 15.9593L28.2064 16.0424L28.1648 16.05C28.1912 16.1294 28.2026 16.0575 28.2177 16.0084C28.2215 16.0538 28.229 16.084 28.2404 16.1029L28.282 15.9328C28.2895 16.0008 28.2668 16.0689 28.2971 16.1067C28.316 16.0273 28.2706 15.9517 28.3046 15.8988C28.3311 15.9782 28.3273 16.0424 28.35 15.9744C28.3576 16.0197 28.35 16.05 28.3424 16.0689C28.3651 16.0122 28.4067 16.0424 28.4143 15.9479C28.4445 16.0462 28.4936 15.9177 28.5012 16.084C28.5088 16.0424 28.539 15.9517 28.5579 15.9441C28.5277 16.1445 28.6411 15.9517 28.6448 16.1672C28.6637 15.9857 28.7507 16.084 28.796 15.9819C28.796 15.9971 28.7885 16.0235 28.7847 16.016C28.8149 16.0273 28.8301 16.084 28.8527 16.1142C28.8452 15.9668 28.8905 15.929 28.9094 15.8345C28.9586 15.9744 28.9019 16.0084 28.9246 16.1445C28.9132 16.0235 28.9813 16.0197 28.9586 15.9215C28.9926 16.0084 28.985 15.963 29.0115 16.084C29.0002 15.8988 29.0342 16.05 29.0493 15.9328C29.0984 16.0197 29.0758 16.1029 29.1173 16.0424C29.1438 16.0953 29.1098 16.1672 29.1098 16.1672L29.0909 16.1709ZM30.119 15.7136C30.119 15.7136 30.1039 15.7211 30.1001 15.7249C30.1039 15.7249 30.1115 15.7211 30.119 15.7136ZM30.206 15.6984C30.206 15.6984 30.1795 15.6984 30.1682 15.6984C30.1606 15.6644 30.1568 15.6266 30.1682 15.6266C30.1682 15.6531 30.1909 15.6682 30.2098 15.6984H30.206ZM29.9036 15.0029C29.9036 15.0029 29.9225 15.0029 29.9263 15.0256C29.9187 15.0256 29.9149 15.0332 29.9036 15.0407V15.0521C29.9036 15.0332 29.9036 15.0143 29.9036 14.9991V15.0029Z" fill="white"/>
<path d="M29.9 15.1427C29.9 15.1427 29.9 15.1503 29.8962 15.1503C29.9 15.1578 29.9038 15.1654 29.9076 15.1729V15.1389H29.9V15.1427Z" fill="white"/>
<path d="M36.9873 12.043C36.9873 12.043 36.9949 12.0467 36.9986 12.0505C36.9949 12.0505 36.9911 12.0467 36.9873 12.043Z" fill="white"/>
<path d="M31.4652 15.6305L31.4576 15.604V15.6305H31.4652Z" fill="white"/>
<path d="M37.5928 11.9978C37.5928 11.9978 37.6079 12.0091 37.6155 12.0129C37.6117 12.0091 37.6003 12.0016 37.5928 11.9978Z" fill="white"/>
<path d="M37.7626 11.8691L37.8117 11.8767C37.789 11.8691 37.7739 11.8691 37.7626 11.8691Z" fill="white"/>
<path d="M37.9177 11.7974C37.9177 11.7974 37.895 11.771 37.8875 11.7634L37.9177 11.7974Z" fill="white"/>
<path d="M36.4507 12.8784C36.4545 12.8973 36.462 12.92 36.462 12.9351C36.4771 12.9351 36.4885 12.9276 36.4507 12.8784Z" fill="white"/>
<path d="M36.4323 12.954C36.4549 12.9615 36.4625 12.954 36.4625 12.9351C36.4512 12.9351 36.4323 12.9351 36.4323 12.954Z" fill="white"/>
<path d="M38.4508 11.3249H38.4584C38.4584 11.3249 38.4508 11.3136 38.447 11.3098V11.3249H38.4508Z" fill="white"/>
<path d="M38.4466 11.3098V11.2947C38.4466 11.2947 38.439 11.3022 38.4466 11.3098Z" fill="white"/>
<path d="M38.4388 11.2605L38.4464 11.2907C38.4464 11.2907 38.4577 11.2832 38.4388 11.2605Z" fill="white"/>
<path d="M38.2654 11.4458L38.2918 11.476C38.2918 11.476 38.2805 11.4609 38.2654 11.4458Z" fill="white"/>
<path d="M38.2274 11.5025C38.2274 11.5025 38.3144 11.5328 38.3106 11.4988L38.2917 11.4761C38.3257 11.5252 38.1934 11.4458 38.2274 11.5025Z" fill="white"/>
<path d="M37.7023 11.359L37.7628 11.3439C37.7287 11.3212 37.6796 11.291 37.6909 11.2683C37.5586 11.2305 37.7665 11.325 37.7061 11.3628L37.7023 11.359Z" fill="white"/>
<path d="M37.5395 11.4306C37.547 11.3966 37.4979 11.389 37.4828 11.3701C37.4941 11.4079 37.4979 11.4193 37.5395 11.4306Z" fill="white"/>
<path d="M36.6473 12.2206L36.5869 12.145C36.5793 12.1715 36.6095 12.1753 36.6473 12.2206Z" fill="white"/>
<path d="M36.7762 12.7537L36.8292 12.7878L36.7838 12.7122L36.7762 12.7537Z" fill="white"/>
<path d="M36.2464 12.2925L36.2427 12.2773L36.2351 12.3265L36.2464 12.2925Z" fill="white"/>
<path d="M34.6138 13.4114L34.678 13.5135C34.678 13.487 34.6175 13.3698 34.6138 13.4114Z" fill="white"/>
<path d="M33.9108 13.9181C33.8768 13.869 33.839 13.8463 33.8503 13.903C33.873 13.903 33.9108 13.937 33.9108 13.9181Z" fill="white"/>
<path d="M31.4426 14.6513L31.4464 14.606L31.4237 14.6475L31.4426 14.6513Z" fill="white"/>
</g>
<defs>
<clipPath id="clip0_279_446">
<rect width="64.8724" height="21.924" fill="white"/>
</clipPath>
</defs>
</svg>
