<svg width="277" height="703" viewBox="0 0 277 703" fill="none" xmlns="http://www.w3.org/2000/svg">
<rect width="277" height="703" fill="#F9FAFC"/>
<path d="M20 50H257" stroke="#E9E9E9"/>
<path d="M20 350H257" stroke="#E9E9E9"/>
<path d="M20 80H257" stroke="#E9E9E9"/>
<path d="M20 380H257" stroke="#E9E9E9"/>
<path d="M20 110H257" stroke="#E9E9E9"/>
<path d="M20 410H257" stroke="#E9E9E9"/>
<path d="M20 140H257" stroke="#E9E9E9"/>
<path d="M20 440H257" stroke="#E9E9E9"/>
<path d="M20 170H257" stroke="#E9E9E9"/>
<path d="M20 470H257" stroke="#E9E9E9"/>
<path d="M20 200H257" stroke="#E9E9E9"/>
<path d="M20 500H257" stroke="#E9E9E9"/>
<path d="M20 230H257" stroke="#E9E9E9"/>
<path d="M20 530H257" stroke="#E9E9E9"/>
<path d="M20 260H257" stroke="#E9E9E9"/>
<path d="M20 560H257" stroke="#E9E9E9"/>
<path d="M20 290H257" stroke="#E9E9E9"/>
<path d="M20 590H257" stroke="#E9E9E9"/>
<path d="M20 650H257" stroke="#E9E9E9"/>
<path d="M20 320H257" stroke="#E9E9E9"/>
<path d="M20 620H257" stroke="#E9E9E9"/>
<path d="M20 680H257" stroke="#E9E9E9"/>
</svg>
