<svg width="277" height="339" viewBox="0 0 277 339" fill="none" xmlns="http://www.w3.org/2000/svg">
<g clip-path="url(#clip0_456_1329)">
<rect width="277" height="339" fill="white"/>
<path opacity="0.1" d="M277.002 0H0.00195312V339H277.002V0Z" fill="#87C04B"/>
<path opacity="0.25" d="M10.0382 0H0.00195312V339H10.0382V0Z" fill="#87C04B"/>
<path opacity="0.25" d="M26.7257 0H16.6895V339H26.7257V0Z" fill="#87C04B"/>
<path opacity="0.25" d="M43.4083 0H33.3721V339H43.4083V0Z" fill="#87C04B"/>
<path opacity="0.25" d="M60.0929 0H50.0566V339H60.0929V0Z" fill="#87C04B"/>
<path opacity="0.25" d="M76.7804 0H66.7441V339H76.7804V0Z" fill="#87C04B"/>
<path opacity="0.25" d="M93.4649 0H83.4287V339H93.4649V0Z" fill="#87C04B"/>
<path opacity="0.25" d="M110.15 0H100.114V339H110.15V0Z" fill="#87C04B"/>
<path opacity="0.25" d="M126.835 0H116.799V339H126.835V0Z" fill="#87C04B"/>
<path opacity="0.25" d="M143.519 0H133.482V339H143.519V0Z" fill="#87C04B"/>
<path opacity="0.25" d="M160.207 0H150.171V339H160.207V0Z" fill="#87C04B"/>
<path opacity="0.25" d="M176.891 0H166.854V339H176.891V0Z" fill="#87C04B"/>
<path opacity="0.25" d="M193.575 0H183.539V339H193.575V0Z" fill="#87C04B"/>
<path opacity="0.25" d="M210.261 0H200.225V339H210.261V0Z" fill="#87C04B"/>
<path opacity="0.25" d="M226.945 0H216.909V339H226.945V0Z" fill="#87C04B"/>
<path opacity="0.25" d="M243.633 0H233.597V339H243.633V0Z" fill="#87C04B"/>
<path opacity="0.25" d="M260.317 0H250.281V339H260.317V0Z" fill="#87C04B"/>
<path opacity="0.25" d="M277.001 0H266.965V339H277.001V0Z" fill="#87C04B"/>
<path opacity="0.25" d="M277.002 9.37759V0L0.00192261 0V9.37759L277.002 9.37759Z" fill="#87C04B"/>
<path opacity="0.25" d="M277.002 25.0614V15.6838L0.00192261 15.6838V25.0614L277.002 25.0614Z" fill="#87C04B"/>
<path opacity="0.25" d="M277.002 40.7504V31.3728L0.00192261 31.3728V40.7504L277.002 40.7504Z" fill="#87C04B"/>
<path opacity="0.25" d="M277.002 56.434V47.0564L0.00192261 47.0564V56.434L277.002 56.434Z" fill="#87C04B"/>
<path opacity="0.25" d="M277.002 72.123V62.7454L0.00192261 62.7454V72.123L277.002 72.123Z" fill="#87C04B"/>
<path opacity="0.25" d="M277.002 87.8068V78.4292L0.00192261 78.4292V87.8068L277.002 87.8068Z" fill="#87C04B"/>
<path opacity="0.25" d="M277.002 103.496V94.1182L0.00192261 94.1182V103.496L277.002 103.496Z" fill="#87C04B"/>
<path opacity="0.25" d="M277.002 119.18V109.802L0.00192261 109.802V119.18L277.002 119.18Z" fill="#87C04B"/>
<path opacity="0.25" d="M277.002 134.868V125.491L0.00192261 125.491V134.868L277.002 134.868Z" fill="#87C04B"/>
<path opacity="0.25" d="M277.002 150.552V141.175L0.00192261 141.175V150.552L277.002 150.552Z" fill="#87C04B"/>
<path opacity="0.25" d="M277.002 166.241V156.864L0.00192261 156.864V166.241L277.002 166.241Z" fill="#87C04B"/>
<path opacity="0.25" d="M277.002 181.925V172.547L0.00192261 172.547V181.925L277.002 181.925Z" fill="#87C04B"/>
<path opacity="0.25" d="M277.002 197.609V188.231L0.00192261 188.231V197.609L277.002 197.609Z" fill="#87C04B"/>
<path opacity="0.25" d="M277.002 213.298V203.92L0.00192261 203.92V213.298L277.002 213.298Z" fill="#87C04B"/>
<path opacity="0.25" d="M277.002 228.982V219.604L0.00192261 219.604V228.982L277.002 228.982Z" fill="#87C04B"/>
<path opacity="0.25" d="M277.002 244.671V235.293L0.00192261 235.293V244.671L277.002 244.671Z" fill="#87C04B"/>
<path opacity="0.25" d="M277.002 260.354V250.977L0.00192261 250.977V260.354H277.002Z" fill="#87C04B"/>
<path opacity="0.25" d="M277.002 276.043V266.666H0.00192261V276.043H277.002Z" fill="#87C04B"/>
<path opacity="0.25" d="M277.002 291.727V282.35H0.00192261V291.727H277.002Z" fill="#87C04B"/>
<path opacity="0.25" d="M277.002 307.416V298.038H0.00192261V307.416H277.002Z" fill="#87C04B"/>
<path opacity="0.25" d="M277.002 323.1V313.722H0.00192261V323.1H277.002Z" fill="#87C04B"/>
<path opacity="0.25" d="M277.002 338.995V329.406H0.00192261V338.995H277.002Z" fill="#87C04B"/>
<rect x="27" y="25" width="223" height="290" rx="10" fill="white"/>
</g>
<defs>
<clipPath id="clip0_456_1329">
<rect width="277" height="339" fill="white"/>
</clipPath>
</defs>
</svg>
